<svg xmlns="http://www.w3.org/2000/svg" xmlns:xlink="http://www.w3.org/1999/xlink" contentStyleType="text/css" height="473px" preserveAspectRatio="none" style="width:402px;height:473px;background:#FFFFFF;" version="1.1" viewBox="0 0 402 473" width="402px" zoomAndPan="magnify"><title>Activity diagram of </title><defs/><g><text fill="#000000" font-family="sans-serif" font-size="14" font-weight="bold" lengthAdjust="spacing" textLength="151.0537" x="121.7354" y="32.9951">Activity diagram of</text><text fill="#5132BE" font-family="name=monospace" font-size="14" font-weight="bold" lengthAdjust="spacing" textLength="115.4316" x="109.3555" y="49.292">Comma.main()</text><text fill="#000000" font-family="sans-serif" font-size="14" font-weight="bold" lengthAdjust="spacing" textLength="60.3818" x="229.6611" y="49.292">method</text><ellipse cx="176.4561" cy="73.5938" fill="#222222" rx="10" ry="10" style="stroke:#222222;stroke-width:1.0;"/><rect fill="#F1F1F1" height="33.9688" rx="12.5" ry="12.5" style="stroke:#181818;stroke-width:0.5;" width="57.7988" x="147.5566" y="103.5938"/><text fill="#000000" font-family="sans-serif" font-size="12" lengthAdjust="spacing" textLength="37.7988" x="157.5566" y="124.7324">int i, j;</text><rect fill="#9BD68D" height="273.0078" style="stroke:#000000;stroke-width:1.5;" width="380.3984" x="11" y="147.5625"/><path d="M74.6074,147.5625 L74.6074,156.8594 L64.6074,166.8594 L11,166.8594 " fill="none" style="stroke:#000000;stroke-width:1.5;"/><text fill="#000000" font-family="sans-serif" font-size="14" lengthAdjust="spacing" textLength="53.6074" x="14" y="161.5576">for loop</text><rect fill="#F1F1F1" height="33.9688" style="stroke:#181818;stroke-width:0.5;" width="52.6953" x="150.1084" y="183.8594"/><text fill="#000000" font-family="sans-serif" font-size="12" lengthAdjust="spacing" textLength="32.6953" x="160.1084" y="204.998">i = 0;</text><rect fill="#F1F1F1" height="33.9688" style="stroke:#181818;stroke-width:0.5;" width="60.3301" x="146.291" y="237.8281"/><text fill="#000000" font-family="sans-serif" font-size="12" lengthAdjust="spacing" textLength="40.3301" x="156.291" y="258.9668">j = 10;</text><polygon fill="#F1F1F1" points="39,352.6016,313.9121,352.6016,323.9121,369.5859,313.9121,386.5703,39,386.5703" style="stroke:#181818;stroke-width:0.5;"/><text fill="#000000" font-family="sans-serif" font-size="12" lengthAdjust="spacing" textLength="254.9121" x="49" y="373.7402">System.out.println("i and j: " + i + " " + j);</text><polygon fill="#DEB887" points="160.918,291.7969,191.9941,291.7969,203.9941,303.7969,191.9941,315.7969,160.918,315.7969,148.918,303.7969,160.918,291.7969" style="stroke:#181818;stroke-width:0.5;"/><text fill="#008000" font-family="sans-serif" font-size="11" lengthAdjust="spacing" textLength="22.5747" x="180.4561" y="326.0073">true</text><text fill="#000000" font-family="sans-serif" font-size="14" font-weight="bold" lengthAdjust="spacing" textLength="31.0762" x="160.918" y="308.6436">i &lt; j</text><text fill="#FF0000" font-family="sans-serif" font-size="11" lengthAdjust="spacing" textLength="26.168" x="122.75" y="301.2026">false</text><rect fill="#F1F1F1" height="47.9375" style="stroke:#181818;stroke-width:0.5;" width="47.4863" x="333.9121" y="327.2148"/><text fill="#000000" font-family="sans-serif" font-size="12" lengthAdjust="spacing" textLength="27.4863" x="343.9121" y="348.3535">i++;</text><text fill="#000000" font-family="sans-serif" font-size="12" lengthAdjust="spacing" textLength="16.0371" x="343.9121" y="362.3223">j--;</text><ellipse cx="176.4561" cy="451.5703" fill="none" rx="11" ry="11" style="stroke:#222222;stroke-width:1.0;"/><ellipse cx="176.4561" cy="451.5703" fill="#222222" rx="6" ry="6" style="stroke:#222222;stroke-width:1.0;"/><line style="stroke:#181818;stroke-width:1.0;" x1="176.4561" x2="176.4561" y1="83.5938" y2="103.5938"/><polygon fill="#181818" points="172.4561,93.5938,176.4561,103.5938,180.4561,93.5938,176.4561,97.5938" style="stroke:#181818;stroke-width:1.0;"/><line style="stroke:#181818;stroke-width:1.0;" x1="176.4561" x2="176.4561" y1="217.8281" y2="237.8281"/><polygon fill="#181818" points="172.4561,227.8281,176.4561,237.8281,180.4561,227.8281,176.4561,231.8281" style="stroke:#181818;stroke-width:1.0;"/><line style="stroke:#181818;stroke-width:1.0;" x1="176.4561" x2="176.4561" y1="315.7969" y2="352.6016"/><polygon fill="#181818" points="172.4561,342.6016,176.4561,352.6016,180.4561,342.6016,176.4561,346.6016" style="stroke:#181818;stroke-width:1.0;"/><line style="stroke:#181818;stroke-width:1.0;" x1="176.4561" x2="176.4561" y1="386.5703" y2="396.5703"/><line style="stroke:#181818;stroke-width:1.0;" x1="176.4561" x2="357.6553" y1="396.5703" y2="396.5703"/><line style="stroke:#181818;stroke-width:1.0;" x1="357.6553" x2="357.6553" y1="375.1523" y2="396.5703"/><polygon fill="#181818" points="353.6553,385.1523,357.6553,375.1523,361.6553,385.1523,357.6553,381.1523" style="stroke:#181818;stroke-width:1.0;"/><line style="stroke:#181818;stroke-width:1.0;" x1="357.6553" x2="357.6553" y1="303.7969" y2="327.2148"/><line style="stroke:#181818;stroke-width:1.0;" x1="357.6553" x2="203.9941" y1="303.7969" y2="303.7969"/><polygon fill="#181818" points="213.9941,299.7969,203.9941,303.7969,213.9941,307.7969,209.9941,303.7969" style="stroke:#181818;stroke-width:1.0;"/><line style="stroke:#181818;stroke-width:1.0;" x1="148.918" x2="27" y1="303.7969" y2="303.7969"/><polygon fill="#181818" points="23,347.1836,27,357.1836,31,347.1836,27,351.1836" style="stroke:#181818;stroke-width:1.0;"/><line style="stroke:#181818;stroke-width:1.0;" x1="27" x2="27" y1="303.7969" y2="408.5703"/><line style="stroke:#181818;stroke-width:1.0;" x1="27" x2="176.4561" y1="408.5703" y2="408.5703"/><line style="stroke:#181818;stroke-width:1.0;" x1="176.4561" x2="176.4561" y1="408.5703" y2="440.5703"/><polygon fill="#181818" points="172.4561,430.5703,176.4561,440.5703,180.4561,430.5703,176.4561,434.5703" style="stroke:#181818;stroke-width:1.0;"/><line style="stroke:#181818;stroke-width:1.0;" x1="176.4561" x2="176.4561" y1="271.7969" y2="291.7969"/><polygon fill="#181818" points="172.4561,281.7969,176.4561,291.7969,180.4561,281.7969,176.4561,285.7969" style="stroke:#181818;stroke-width:1.0;"/><line style="stroke:#181818;stroke-width:1.0;" x1="176.4561" x2="176.4561" y1="137.5625" y2="183.8594"/><polygon fill="#181818" points="172.4561,173.8594,176.4561,183.8594,180.4561,173.8594,176.4561,177.8594" style="stroke:#181818;stroke-width:1.0;"/><!--SRC=[TP5DJyCm38Rl-HNMk6mQ3CQNe0sH-10d3aXSkQIBDzobSPMaJ0NjlvDsKn4WBBLARSVlyzPXJQxMNbTmkuZqJh65Jm4f7jd55_f0c9_st_thWNJ5pknRkdWYX_TisKEBrl9cADpfnNhbkN5cLouQRziDinawlXNEV-PYQn4AjhlMhTWA4GRCP-qZHMAtXxXZRz3t6bAIUwT0XKMbmB73mSb_zQr8mvBQODwGNdKol8HN9vVfAZXTuKsopQ7M2rHoqVivk9YVdHQexhcgzApIvCOJUTpNb3pkBYgeCBubmoB412r4HcaQ7KAPvqBKWu-3wy9SNXbOfgcMkTuRomXku2JFGSgemrgfNRPCsVcVzEQDB8u999GJe03Z7MMsyeXEHT_WPFZ7sKiR8bOpRkAized9kl68GAUzbXcCO0gKdb5_AYUzKcgjcxZNwg98szreRpAQJlDNLnuT_IP2Ptge0SMZKKjjGoBf5Xgv_W80]--></g></svg>