<svg xmlns="http://www.w3.org/2000/svg" xmlns:xlink="http://www.w3.org/1999/xlink" contentStyleType="text/css" height="422px" preserveAspectRatio="none" style="width:481px;height:422px;background:#FFFFFF;" version="1.1" viewBox="0 0 481 422" width="481px" zoomAndPan="magnify"><title>Activity diagram of </title><defs/><g><text fill="#000000" font-family="sans-serif" font-size="14" font-weight="bold" lengthAdjust="spacing" textLength="151.0537" x="161.064" y="32.9951">Activity diagram of</text><text fill="#5132BE" font-family="name=monospace" font-size="14" font-weight="bold" lengthAdjust="spacing" textLength="119.3213" x="146.7393" y="49.292">DecrFor.main()</text><text fill="#000000" font-family="sans-serif" font-size="14" font-weight="bold" lengthAdjust="spacing" textLength="60.3818" x="270.9346" y="49.292">method</text><ellipse cx="303.4268" cy="73.5938" fill="#222222" rx="10" ry="10" style="stroke:#222222;stroke-width:1.0;"/><rect fill="#F1F1F1" height="33.9688" rx="12.5" ry="12.5" style="stroke:#181818;stroke-width:0.5;" width="50.6035" x="278.125" y="103.5938"/><text fill="#000000" font-family="sans-serif" font-size="12" lengthAdjust="spacing" textLength="30.6035" x="288.125" y="124.7324">int x;</text><rect fill="#9BD68D" height="221.8359" style="stroke:#000000;stroke-width:1.5;" width="459.0557" x="11" y="147.5625"/><path d="M74.6074,147.5625 L74.6074,156.8594 L64.6074,166.8594 L11,166.8594 " fill="none" style="stroke:#000000;stroke-width:1.5;"/><text fill="#000000" font-family="sans-serif" font-size="14" lengthAdjust="spacing" textLength="53.6074" x="14" y="161.5576">for loop</text><path d="M31,237.8281 L31,293.2266 L193.5908,293.2266 L193.5908,247.8281 L183.5908,237.8281 L31,237.8281 " fill="#FEFFDD" style="stroke:#181818;stroke-width:0.5;"/><path d="M183.5908,237.8281 L183.5908,247.8281 L193.5908,247.8281 L183.5908,237.8281 " fill="#FEFFDD" style="stroke:#181818;stroke-width:0.5;"/><text fill="#000000" font-family="sans-serif" font-size="13" lengthAdjust="spacing" textLength="137.4585" x="37" y="254.895">Loop control variable</text><text fill="#000000" font-family="sans-serif" font-size="13" lengthAdjust="spacing" textLength="121.583" x="37" y="270.0278">is decremented by</text><text fill="#000000" font-family="sans-serif" font-size="13" lengthAdjust="spacing" textLength="77.2573" x="37" y="285.1606">5 each time</text><rect fill="#F1F1F1" height="33.9688" style="stroke:#181818;stroke-width:0.5;" width="71.7324" x="267.5605" y="183.8594"/><text fill="#000000" font-family="sans-serif" font-size="12" lengthAdjust="spacing" textLength="51.7324" x="277.5605" y="204.998">x = 100;</text><polygon fill="#F1F1F1" points="227.5908,301.4297,379.2627,301.4297,389.2627,318.4141,379.2627,335.3984,227.5908,335.3984" style="stroke:#181818;stroke-width:0.5;"/><text fill="#000000" font-family="sans-serif" font-size="12" lengthAdjust="spacing" textLength="131.6719" x="237.5908" y="322.5684">System.out.println(x);</text><polygon fill="#DEB887" points="270.6553,240.625,336.1982,240.625,348.1982,252.625,336.1982,264.625,270.6553,264.625,258.6553,252.625,270.6553,240.625" style="stroke:#181818;stroke-width:0.5;"/><text fill="#008000" font-family="sans-serif" font-size="11" lengthAdjust="spacing" textLength="22.5747" x="307.4268" y="274.8354">true</text><text fill="#000000" font-family="sans-serif" font-size="14" font-weight="bold" lengthAdjust="spacing" textLength="65.543" x="270.6553" y="257.4717">x &gt; -100</text><text fill="#FF0000" font-family="sans-serif" font-size="11" lengthAdjust="spacing" textLength="26.168" x="232.4873" y="250.0308">false</text><rect fill="#F1F1F1" height="33.9688" style="stroke:#181818;stroke-width:0.5;" width="60.793" x="399.2627" y="283.0273"/><text fill="#000000" font-family="sans-serif" font-size="12" lengthAdjust="spacing" textLength="40.793" x="409.2627" y="304.166">x -= 5;</text><ellipse cx="303.4268" cy="400.3984" fill="none" rx="11" ry="11" style="stroke:#222222;stroke-width:1.0;"/><ellipse cx="303.4268" cy="400.3984" fill="#222222" rx="6" ry="6" style="stroke:#222222;stroke-width:1.0;"/><line style="stroke:#181818;stroke-width:1.0;" x1="303.4268" x2="303.4268" y1="83.5938" y2="103.5938"/><polygon fill="#181818" points="299.4268,93.5938,303.4268,103.5938,307.4268,93.5938,303.4268,97.5938" style="stroke:#181818;stroke-width:1.0;"/><line style="stroke:#181818;stroke-width:1.0;" x1="303.4268" x2="303.4268" y1="264.625" y2="301.4297"/><polygon fill="#181818" points="299.4268,291.4297,303.4268,301.4297,307.4268,291.4297,303.4268,295.4297" style="stroke:#181818;stroke-width:1.0;"/><line style="stroke:#181818;stroke-width:1.0;" x1="303.4268" x2="303.4268" y1="335.3984" y2="345.3984"/><line style="stroke:#181818;stroke-width:1.0;" x1="303.4268" x2="429.6592" y1="345.3984" y2="345.3984"/><line style="stroke:#181818;stroke-width:1.0;" x1="429.6592" x2="429.6592" y1="316.9961" y2="345.3984"/><polygon fill="#181818" points="425.6592,326.9961,429.6592,316.9961,433.6592,326.9961,429.6592,322.9961" style="stroke:#181818;stroke-width:1.0;"/><line style="stroke:#181818;stroke-width:1.0;" x1="429.6592" x2="429.6592" y1="252.625" y2="283.0273"/><line style="stroke:#181818;stroke-width:1.0;" x1="429.6592" x2="348.1982" y1="252.625" y2="252.625"/><polygon fill="#181818" points="358.1982,248.625,348.1982,252.625,358.1982,256.625,354.1982,252.625" style="stroke:#181818;stroke-width:1.0;"/><line style="stroke:#181818;stroke-width:1.0;" x1="258.6553" x2="215.5908" y1="252.625" y2="252.625"/><polygon fill="#181818" points="211.5908,296.0117,215.5908,306.0117,219.5908,296.0117,215.5908,300.0117" style="stroke:#181818;stroke-width:1.0;"/><line style="stroke:#181818;stroke-width:1.0;" x1="215.5908" x2="215.5908" y1="252.625" y2="357.3984"/><line style="stroke:#181818;stroke-width:1.0;" x1="215.5908" x2="303.4268" y1="357.3984" y2="357.3984"/><line style="stroke:#181818;stroke-width:1.0;" x1="303.4268" x2="303.4268" y1="357.3984" y2="389.3984"/><polygon fill="#181818" points="299.4268,379.3984,303.4268,389.3984,307.4268,379.3984,303.4268,383.3984" style="stroke:#181818;stroke-width:1.0;"/><line style="stroke:#181818;stroke-width:1.0;" x1="303.4268" x2="303.4268" y1="217.8281" y2="240.625"/><polygon fill="#181818" points="299.4268,230.625,303.4268,240.625,307.4268,230.625,303.4268,234.625" style="stroke:#181818;stroke-width:1.0;"/><line style="stroke:#181818;stroke-width:1.0;" x1="303.4268" x2="303.4268" y1="137.5625" y2="183.8594"/><polygon fill="#181818" points="299.4268,173.8594,303.4268,183.8594,307.4268,173.8594,303.4268,177.8594" style="stroke:#181818;stroke-width:1.0;"/><!--SRC=[TL5DRzim3BthLn3e9JaqRTfbs1n7mDgYfnu6zBgBR3494Paq93c9D_I_ZtO23nim7WpuFUfzWEb0tBhe6lXMPpfIxk6N0PrNuVnEFn6M3-F_-7aXrmZxwyemRyJuB44Yz1Y2d2RYoTM7NPIE_OMkkXZwauYVDluuVFeRotr0g2HSLZ_CXp5fYldTnKoPXAyXdYHwZAD7MH8VAL4Lq5fWOPoQ_8zNQLLJkwcz9xSRV6GBFxZSwbjWr-16UqjgNOsshCT2DwlbuqE5zWNh-2fnqJZYsRoy6rbRtWrFBJIOzzhPfAovZIb8zSxhjJ7jrEFcQ-K_V_6mLT4WqbwBiMI40ju6f5QjA06EBfBJ-1gD4dXrnWOveuUgLsm5wEezP6ekpOipR61vVxzUGrbcbmxMZlXfJm5dPx1mg-mSL6jsQLNi8YBR73kSJqSftlkKiLb8bnTjr0Q1P-VvAAfGs-Mhx32LdltaebVhsmsi_dL6zgFvv1VHswqBIUs6CsTfVmC0]--></g></svg>