<svg xmlns="http://www.w3.org/2000/svg" xmlns:xlink="http://www.w3.org/1999/xlink" contentStyleType="text/css" height="445px" preserveAspectRatio="none" style="width:452px;height:445px;background:#FFFFFF;" version="1.1" viewBox="0 0 452 445" width="452px" zoomAndPan="magnify"><title>Activity diagram of </title><defs/><g><text fill="#000000" font-family="sans-serif" font-size="14" font-weight="bold" lengthAdjust="spacing" textLength="151.0537" x="146.6331" y="32.9951">Activity diagram of</text><text fill="#5132BE" font-family="name=monospace" font-size="14" font-weight="bold" lengthAdjust="spacing" textLength="129.3018" x="127.3181" y="49.292">DWDemo.main()</text><text fill="#000000" font-family="sans-serif" font-size="14" font-weight="bold" lengthAdjust="spacing" textLength="60.3818" x="261.4939" y="49.292">method</text><path d="M10,63.5938 L10,88.7266 A0,0 0 0 0 10,88.7266 L204.5132,88.7266 A0,0 0 0 0 204.5132,88.7266 L204.5132,81.5938 L224.5132,76.1602 L204.5132,73.5938 L204.5132,73.5938 L194.5132,63.5938 L10,63.5938 A0,0 0 0 0 10,63.5938 " fill="#FEFFDD" style="stroke:#181818;stroke-width:0.5;"/><path d="M194.5132,63.5938 L194.5132,73.5938 L204.5132,73.5938 L194.5132,63.5938 " fill="#FEFFDD" style="stroke:#181818;stroke-width:0.5;"/><text fill="#000000" font-family="sans-serif" font-size="13" lengthAdjust="spacing" textLength="173.5132" x="16" y="80.6606">throws java.io.IOException</text><ellipse cx="234.5132" cy="76.1602" fill="#222222" rx="10" ry="10" style="stroke:#222222;stroke-width:1.0;"/><rect fill="#F1F1F1" height="33.9688" rx="12.5" ry="12.5" style="stroke:#181818;stroke-width:0.5;" width="68.5508" x="200.2378" y="108.7266"/><text fill="#000000" font-family="sans-serif" font-size="12" lengthAdjust="spacing" textLength="48.5508" x="210.2378" y="129.8652">char ch;</text><rect fill="#B9DDD0" height="239.7344" style="stroke:#000000;stroke-width:1.5;" width="421.7388" x="19.4551" y="152.6953"/><path d="M123.0322,152.6953 L123.0322,161.9922 L113.0322,171.9922 L19.4551,171.9922 " fill="none" style="stroke:#000000;stroke-width:1.5;"/><text fill="#000000" font-family="sans-serif" font-size="14" lengthAdjust="spacing" textLength="93.5771" x="22.4551" y="166.6904">do-while loop</text><polygon fill="#F1F1F1" points="65.8325,232.9922,403.1938,232.9922,413.1938,249.9766,403.1938,266.9609,65.8325,266.9609" style="stroke:#181818;stroke-width:0.5;"/><text fill="#000000" font-family="sans-serif" font-size="12" lengthAdjust="spacing" textLength="317.3613" x="75.8325" y="254.1309">System.out.print("Press a key followed by ENTER: ");</text><path d="M29.4551,298.8789 L29.4551,324.0117 A0,0 0 0 0 29.4551,324.0117 L116.731,324.0117 A0,0 0 0 0 116.731,324.0117 L116.731,316.8789 L136.731,311.4453 L116.731,308.8789 L116.731,308.8789 L106.731,298.8789 L29.4551,298.8789 A0,0 0 0 0 29.4551,298.8789 " fill="#FEFFDD" style="stroke:#181818;stroke-width:0.5;"/><path d="M106.731,298.8789 L106.731,308.8789 L116.731,308.8789 L106.731,298.8789 " fill="#FEFFDD" style="stroke:#181818;stroke-width:0.5;"/><text fill="#000000" font-family="sans-serif" font-size="13" lengthAdjust="spacing" textLength="66.2759" x="35.4551" y="315.9458">get a char</text><polygon fill="#F1F1F1" points="136.731,294.4609,342.2954,294.4609,332.2954,311.4453,342.2954,328.4297,136.731,328.4297" style="stroke:#181818;stroke-width:0.5;"/><text fill="#000000" font-family="sans-serif" font-size="12" lengthAdjust="spacing" textLength="175.5645" x="146.731" y="315.5996">ch = (char) System.in.read();</text><polygon fill="#DEB887" points="234.5132,188.9922,246.5132,200.9922,234.5132,212.9922,222.5132,200.9922,234.5132,188.9922" style="stroke:#181818;stroke-width:0.5;"/><polygon fill="#DEB887" points="202.1519,348.4297,266.8745,348.4297,278.8745,360.4297,266.8745,372.4297,202.1519,372.4297,190.1519,360.4297,202.1519,348.4297" style="stroke:#181818;stroke-width:0.5;"/><text fill="#FF0000" font-family="sans-serif" font-size="11" lengthAdjust="spacing" textLength="26.168" x="238.5132" y="382.6401">false</text><text fill="#000000" font-family="sans-serif" font-size="14" font-weight="bold" lengthAdjust="spacing" textLength="64.7227" x="202.1519" y="365.2764">ch != 'q'</text><text fill="#008000" font-family="sans-serif" font-size="11" lengthAdjust="spacing" textLength="22.5747" x="278.8745" y="357.8354">true</text><ellipse cx="234.5132" cy="423.4297" fill="none" rx="11" ry="11" style="stroke:#222222;stroke-width:1.0;"/><ellipse cx="234.5132" cy="423.4297" fill="#222222" rx="6" ry="6" style="stroke:#222222;stroke-width:1.0;"/><line style="stroke:#181818;stroke-width:1.0;" x1="234.5132" x2="234.5132" y1="86.1602" y2="108.7266"/><polygon fill="#181818" points="230.5132,98.7266,234.5132,108.7266,238.5132,98.7266,234.5132,102.7266" style="stroke:#181818;stroke-width:1.0;"/><line style="stroke:#181818;stroke-width:1.0;" x1="234.5132" x2="234.5132" y1="266.9609" y2="294.4609"/><polygon fill="#181818" points="230.5132,284.4609,234.5132,294.4609,238.5132,284.4609,234.5132,288.4609" style="stroke:#181818;stroke-width:1.0;"/><line style="stroke:#181818;stroke-width:1.0;" x1="234.5132" x2="234.5132" y1="212.9922" y2="232.9922"/><polygon fill="#181818" points="230.5132,222.9922,234.5132,232.9922,238.5132,222.9922,234.5132,226.9922" style="stroke:#181818;stroke-width:1.0;"/><line style="stroke:#181818;stroke-width:1.0;" x1="278.8745" x2="425.1938" y1="360.4297" y2="360.4297"/><polygon fill="#181818" points="421.1938,286.9609,425.1938,276.9609,429.1938,286.9609,425.1938,282.9609" style="stroke:#181818;stroke-width:1.0;"/><line style="stroke:#181818;stroke-width:1.0;" x1="425.1938" x2="425.1938" y1="200.9922" y2="360.4297"/><line style="stroke:#181818;stroke-width:1.0;" x1="425.1938" x2="246.5132" y1="200.9922" y2="200.9922"/><polygon fill="#181818" points="256.5132,196.9922,246.5132,200.9922,256.5132,204.9922,252.5132,200.9922" style="stroke:#181818;stroke-width:1.0;"/><line style="stroke:#181818;stroke-width:1.0;" x1="234.5132" x2="234.5132" y1="328.4297" y2="348.4297"/><polygon fill="#181818" points="230.5132,338.4297,234.5132,348.4297,238.5132,338.4297,234.5132,342.4297" style="stroke:#181818;stroke-width:1.0;"/><line style="stroke:#181818;stroke-width:1.0;" x1="234.5132" x2="234.5132" y1="142.6953" y2="188.9922"/><polygon fill="#181818" points="230.5132,178.9922,234.5132,188.9922,238.5132,178.9922,234.5132,182.9922" style="stroke:#181818;stroke-width:1.0;"/><line style="stroke:#181818;stroke-width:1.0;" x1="234.5132" x2="234.5132" y1="372.4297" y2="412.4297"/><polygon fill="#181818" points="230.5132,402.4297,234.5132,412.4297,238.5132,402.4297,234.5132,406.4297" style="stroke:#181818;stroke-width:1.0;"/><!--SRC=[TL9BRzGm4BxxLmpjeSc1b1OuaCrQekmY8I6eA18NBauykp6RU8mzsIMW_Uyu3wNqW0-MF3FVotOu6EkKLosyhTWS3VVmHq1SxydoW_cDS7CxdiTjOrHBLiyZm_feBBwZXZpqs3HqMXftgZhiFNLMJ-soyqr_8jBBnAF2gwSrxXk4afffz2pEGeJ5vhtoRDYGdKtSaTVeHusYCFPeWYaRb18iMLoI_Az_5f4igYtXjL7xGOPsyDqMkmW5grfSnzWKdAfG5jMOv_BrpSlR4kNcsmPRobfbR98MrsDJ5jS3KaABNCV48d1qBImnGWvSUpe5-A6EAZEKVVYy_LMX6o89aLUryb3LgvKGRabwMRxHMhy0JSzFjObs6o8tv_VeKF5oWVb37nZRZ3hEd3UMaujxZo60WWFsiAFXaL13sSFsqzVjbnmkqjKAYY82NCTIFZ9LDQmX6GobCBCQctbKEfaWyKcU8EPyU-IeDk3-CGYJyKW7pzPmzVCg1HCWcIupttj4Azbtc0uiIzsZbZlL14p7Jy3a_W80]--></g></svg>