<svg xmlns="http://www.w3.org/2000/svg" xmlns:xlink="http://www.w3.org/1999/xlink" contentStyleType="text/css" height="246px" preserveAspectRatio="none" style="width:239px;height:246px;background:#FFFFFF;" version="1.1" viewBox="0 0 239 246" width="239px" zoomAndPan="magnify"><title>Class diagram of </title><defs/><g><text fill="#000000" font-family="sans-serif" font-size="14" font-weight="bold" lengthAdjust="spacing" textLength="131.8721" x="44.5098" y="22.9951">Class diagram of</text><text fill="#5132BE" font-family="name=monospace" font-size="14" font-weight="bold" lengthAdjust="spacing" textLength="72.3857" x="54.6475" y="39.292">DWDemo</text><text fill="#000000" font-family="sans-serif" font-size="14" font-weight="bold" lengthAdjust="spacing" textLength="39.2109" x="131.9072" y="39.292">class</text><!--class DWDemo--><g id="elem_DWDemo"><rect codeLine="3" fill="#F1F1F1" height="64.2969" id="DWDemo" rx="2.5" ry="2.5" style="stroke:#181818;stroke-width:0.5;" width="198.3682" x="20.5" y="60.5938"/><ellipse cx="82.3242" cy="76.5938" fill="#ADD1B2" rx="11" ry="11" style="stroke:#181818;stroke-width:1.0;"/><path d="M81.793,83.5156 Q80.043,83.5156 78.9023,82.7813 Q77.7773,82.0313 77.2148,80.6875 Q76.668,79.3281 76.668,77.5313 Q76.668,75.5 77.3242,74.0469 Q77.9805,72.5938 79.2617,71.8125 Q80.543,71.0313 82.418,71.0313 Q83.3086,71.0313 83.9805,71.2188 Q84.6523,71.3906 85.3398,71.7344 L84.5273,73.75 Q83.9023,73.4375 83.3555,73.3125 Q82.8242,73.1875 82.3398,73.1875 Q81.168,73.1875 80.4648,73.7188 Q79.7617,74.25 79.4648,75.2031 Q79.168,76.1563 79.168,77.4219 Q79.168,79.4375 79.8867,80.4063 Q80.6055,81.3594 82.1992,81.3594 Q82.793,81.3594 83.418,81.2031 Q84.043,81.0469 84.8711,80.6719 L84.8711,82.8906 Q84.1367,83.2031 83.3398,83.3594 Q82.5586,83.5156 81.793,83.5156 Z " fill="#000000"/><text fill="#000000" font-family="sans-serif" font-size="14" lengthAdjust="spacing" textLength="66.2197" x="102.8242" y="81.4404">DWDemo</text><line style="stroke:#181818;stroke-width:0.5;" x1="21.5" x2="217.8682" y1="92.5938" y2="92.5938"/><line style="stroke:#181818;stroke-width:0.5;" x1="21.5" x2="217.8682" y1="100.5938" y2="100.5938"/><ellipse cx="31.5" cy="114.2422" fill="#84BE84" rx="3" ry="3" style="stroke:#038048;stroke-width:1.0;"/><text fill="#000000" font-family="sans-serif" font-size="14" lengthAdjust="spacing" text-decoration="underline" textLength="172.3682" x="40.5" y="117.5889">main(String[] args): void</text></g><g id="elem_GMN3"><path d="M6,184.5938 L6,239.9922 A0,0 0 0 0 6,239.9922 L232.7656,239.9922 A0,0 0 0 0 232.7656,239.9922 L232.7656,194.5938 L222.7656,184.5938 L123.5,184.5938 L119.5,124.7738 L115.5,184.5938 L6,184.5938 A0,0 0 0 0 6,184.5938 " fill="#FEFFDD" style="stroke:#181818;stroke-width:0.5;"/><path d="M222.7656,184.5938 L222.7656,194.5938 L232.7656,194.5938 L222.7656,184.5938 " fill="#FEFFDD" style="stroke:#181818;stroke-width:0.5;"/><text fill="#000000" font-family="sans-serif" font-size="13" lengthAdjust="spacing" textLength="121.1704" x="12" y="201.6606">file: DWDemo.java</text><text fill="#000000" font-family="sans-serif" font-size="13" lengthAdjust="spacing" textLength="4.1323" x="12" y="216.7935">&#160;</text><text fill="#000000" font-family="sans-serif" font-size="13" lengthAdjust="spacing" textLength="205.7656" x="12" y="231.9263">Demonstrate the do-while loop.</text></g><!--SRC=[BOunRiCm34LtdU83NLeKJP0MNGBNItE33XtI3en5soeaCf28P31yzzXAEP30m_yFj62HyHcf5FX0GwO4xV4ZJQzY44hyaLIqdAdZjkaqQiR3- -xjzSJjuVl0IPjjfMspNIijkbNcN3suHp0vB3Cbjb7zZ6TCnSX2DoDHaCSloq66uoye3-LfZui6xsOdQeoJccbzwkwgfZv4tl-3pHzTgDAwLYJ5CYrT6nbUNwxZ4aTKFMySYyVgTJS0]--></g></svg>