<svg xmlns="http://www.w3.org/2000/svg" xmlns:xlink="http://www.w3.org/1999/xlink" contentStyleType="text/css" height="494px" preserveAspectRatio="none" style="width:501px;height:494px;background:#FFFFFF;" version="1.1" viewBox="0 0 501 494" width="501px" zoomAndPan="magnify"><title>Activity diagram of </title><defs/><g><text fill="#000000" font-family="sans-serif" font-size="14" font-weight="bold" lengthAdjust="spacing" textLength="151.0537" x="171.2844" y="32.9951">Activity diagram of</text><text fill="#5132BE" font-family="name=monospace" font-size="14" font-weight="bold" lengthAdjust="spacing" textLength="106.9072" x="163.1667" y="49.292">Empty.main()</text><text fill="#000000" font-family="sans-serif" font-size="14" font-weight="bold" lengthAdjust="spacing" textLength="60.3818" x="274.948" y="49.292">method</text><ellipse cx="327.8872" cy="73.5938" fill="#222222" rx="10" ry="10" style="stroke:#222222;stroke-width:1.0;"/><rect fill="#F1F1F1" height="33.9688" rx="12.5" ry="12.5" style="stroke:#181818;stroke-width:0.5;" width="46.8359" x="304.4692" y="103.5938"/><text fill="#000000" font-family="sans-serif" font-size="12" lengthAdjust="spacing" textLength="26.8359" x="314.4692" y="124.7324">int i;</text><rect fill="#9BD68D" height="294.3047" style="stroke:#000000;stroke-width:1.5;" width="479.4966" x="11" y="147.5625"/><path d="M74.6074,147.5625 L74.6074,156.8594 L64.6074,166.8594 L11,166.8594 " fill="none" style="stroke:#000000;stroke-width:1.5;"/><text fill="#000000" font-family="sans-serif" font-size="14" lengthAdjust="spacing" textLength="53.6074" x="14" y="161.5576">for loop</text><path d="M31,272.6641 L31,328.0625 L126.769,328.0625 L126.769,282.6641 L116.769,272.6641 L31,272.6641 " fill="#FEFFDD" style="stroke:#181818;stroke-width:0.5;"/><path d="M116.769,272.6641 L116.769,282.6641 L126.769,282.6641 L116.769,272.6641 " fill="#FEFFDD" style="stroke:#181818;stroke-width:0.5;"/><text fill="#000000" font-family="sans-serif" font-size="13" lengthAdjust="spacing" textLength="54.9199" x="37" y="289.731">iteration</text><text fill="#000000" font-family="sans-serif" font-size="13" lengthAdjust="spacing" textLength="70.6367" x="37" y="304.8638">expression</text><text fill="#000000" font-family="sans-serif" font-size="13" lengthAdjust="spacing" textLength="49.9243" x="37" y="319.9966">missing</text><rect fill="#F1F1F1" height="33.9688" style="stroke:#181818;stroke-width:0.5;" width="52.6953" x="301.5396" y="183.8594"/><text fill="#000000" font-family="sans-serif" font-size="12" lengthAdjust="spacing" textLength="32.6953" x="311.5396" y="204.998">i = 0;</text><polygon fill="#F1F1F1" points="219.0923,298.6328,436.6821,298.6328,446.6821,315.6172,436.6821,332.6016,219.0923,332.6016" style="stroke:#181818;stroke-width:0.5;"/><text fill="#000000" font-family="sans-serif" font-size="12" lengthAdjust="spacing" textLength="197.5898" x="229.0923" y="319.7715">System.out.println("Pass #" + i);</text><path d="M160.769,367.6016 L160.769,407.8672 A0,0 0 0 0 160.769,407.8672 L284.144,407.8672 A0,0 0 0 0 284.144,407.8672 L284.144,391.7344 L304.144,387.7344 L284.144,383.7344 L284.144,377.6016 L274.144,367.6016 L160.769,367.6016 A0,0 0 0 0 160.769,367.6016 " fill="#FEFFDD" style="stroke:#181818;stroke-width:0.5;"/><path d="M274.144,367.6016 L274.144,377.6016 L284.144,377.6016 L274.144,367.6016 " fill="#FEFFDD" style="stroke:#181818;stroke-width:0.5;"/><text fill="#000000" font-family="sans-serif" font-size="13" lengthAdjust="spacing" textLength="98.2427" x="166.769" y="384.6685">increment loop</text><text fill="#000000" font-family="sans-serif" font-size="13" lengthAdjust="spacing" textLength="70.4844" x="166.769" y="399.8013">control var</text><rect fill="#F1F1F1" height="33.9688" style="stroke:#181818;stroke-width:0.5;" width="47.4863" x="304.144" y="370.75"/><text fill="#000000" font-family="sans-serif" font-size="12" lengthAdjust="spacing" textLength="27.4863" x="314.144" y="391.8887">i++;</text><polygon fill="#DEB887" points="305.0073,237.8281,350.7671,237.8281,362.7671,249.8281,350.7671,261.8281,305.0073,261.8281,293.0073,249.8281,305.0073,237.8281" style="stroke:#181818;stroke-width:0.5;"/><text fill="#008000" font-family="sans-serif" font-size="11" lengthAdjust="spacing" textLength="22.5747" x="331.8872" y="272.0386">true</text><text fill="#000000" font-family="sans-serif" font-size="14" font-weight="bold" lengthAdjust="spacing" textLength="45.7598" x="305.0073" y="254.6748">i &lt; 10</text><text fill="#FF0000" font-family="sans-serif" font-size="11" lengthAdjust="spacing" textLength="26.168" x="266.8394" y="247.2339">false</text><rect fill="#F1F1F1" height="33.9688" rx="12.5" ry="12.5" style="stroke:#181818;stroke-width:0.5;" width="23.8145" x="456.6821" y="317.8633"/><text fill="#000000" font-family="sans-serif" font-size="12" lengthAdjust="spacing" textLength="3.8145" x="466.6821" y="339.002">&#160;</text><ellipse cx="327.8872" cy="472.8672" fill="none" rx="11" ry="11" style="stroke:#222222;stroke-width:1.0;"/><ellipse cx="327.8872" cy="472.8672" fill="#222222" rx="6" ry="6" style="stroke:#222222;stroke-width:1.0;"/><line style="stroke:#181818;stroke-width:1.0;" x1="327.8872" x2="327.8872" y1="83.5938" y2="103.5938"/><polygon fill="#181818" points="323.8872,93.5938,327.8872,103.5938,331.8872,93.5938,327.8872,97.5938" style="stroke:#181818;stroke-width:1.0;"/><line style="stroke:#181818;stroke-width:1.0;" x1="327.8872" x2="327.8872" y1="332.6016" y2="370.75"/><polygon fill="#181818" points="323.8872,360.75,327.8872,370.75,331.8872,360.75,327.8872,364.75" style="stroke:#181818;stroke-width:1.0;"/><line style="stroke:#181818;stroke-width:1.0;" x1="327.8872" x2="327.8872" y1="261.8281" y2="298.6328"/><polygon fill="#181818" points="323.8872,288.6328,327.8872,298.6328,331.8872,288.6328,327.8872,292.6328" style="stroke:#181818;stroke-width:1.0;"/><line style="stroke:#181818;stroke-width:1.0;" x1="327.8872" x2="327.8872" y1="404.7188" y2="417.8672"/><line style="stroke:#181818;stroke-width:1.0;" x1="327.8872" x2="468.5894" y1="417.8672" y2="417.8672"/><line style="stroke:#181818;stroke-width:1.0;" x1="468.5894" x2="468.5894" y1="351.832" y2="417.8672"/><polygon fill="#181818" points="464.5894,361.832,468.5894,351.832,472.5894,361.832,468.5894,357.832" style="stroke:#181818;stroke-width:1.0;"/><line style="stroke:#181818;stroke-width:1.0;" x1="468.5894" x2="468.5894" y1="249.8281" y2="317.8633"/><line style="stroke:#181818;stroke-width:1.0;" x1="468.5894" x2="362.7671" y1="249.8281" y2="249.8281"/><polygon fill="#181818" points="372.7671,245.8281,362.7671,249.8281,372.7671,253.8281,368.7671,249.8281" style="stroke:#181818;stroke-width:1.0;"/><line style="stroke:#181818;stroke-width:1.0;" x1="293.0073" x2="148.769" y1="249.8281" y2="249.8281"/><polygon fill="#181818" points="144.769,330.8477,148.769,340.8477,152.769,330.8477,148.769,334.8477" style="stroke:#181818;stroke-width:1.0;"/><line style="stroke:#181818;stroke-width:1.0;" x1="148.769" x2="148.769" y1="249.8281" y2="429.8672"/><line style="stroke:#181818;stroke-width:1.0;" x1="148.769" x2="327.8872" y1="429.8672" y2="429.8672"/><line style="stroke:#181818;stroke-width:1.0;" x1="327.8872" x2="327.8872" y1="429.8672" y2="461.8672"/><polygon fill="#181818" points="323.8872,451.8672,327.8872,461.8672,331.8872,451.8672,327.8872,455.8672" style="stroke:#181818;stroke-width:1.0;"/><line style="stroke:#181818;stroke-width:1.0;" x1="327.8872" x2="327.8872" y1="217.8281" y2="237.8281"/><polygon fill="#181818" points="323.8872,227.8281,327.8872,237.8281,331.8872,227.8281,327.8872,231.8281" style="stroke:#181818;stroke-width:1.0;"/><line style="stroke:#181818;stroke-width:1.0;" x1="327.8872" x2="327.8872" y1="137.5625" y2="183.8594"/><polygon fill="#181818" points="323.8872,173.8594,327.8872,183.8594,331.8872,173.8594,327.8872,177.8594" style="stroke:#181818;stroke-width:1.0;"/><!--SRC=[TLBBRjim4BppAnRnnOO19quVQ2M5GDEafnu2vEeB9QwTXQbTWQJig8N_lJHbA6c1yY28EyDv40nxuivuqyAt9jA1uW2_5QJrGpW-qo-4zMtUvyy3cLRONYZdzPCOluiJ3mCw9yS9k3VDVkUbPpl2TU_TS1In4-FDuUFVipWuX5hSI3sfar9XYlbaVAH8mfSGz-8j-knHLSG72bGxr1fO6ASc_yDFAeabjwcy9RCxsyWMDbnjqr5Wq-9TgYsXCmtggibzPf_M7svhr8zj5uTLQuZdY-ewOxgwFX_Kq69yIOLLY2cqKWKbDIfBfRgfnEnhRJz_iR1DaawakxHYYGW5K4HlCc_3-Dfv367Sj9J-U9Uv1S4Tt9GbL5KqOQzrdXvVoE6Se8BrpG8em7mCNkmy8kleUrnCrruy3o5Ykv8-hZgVOZgUNpsP461s1KkWHLPFQDV7Y_xel5p-w_i-FJSUMqobSxCDD-bMl3Wu63znw_HEZiRReimZP9kJJt4zMhqrBgIqvtSGfVi3]--></g></svg>