<svg xmlns="http://www.w3.org/2000/svg" xmlns:xlink="http://www.w3.org/1999/xlink" contentStyleType="text/css" height="450px" preserveAspectRatio="none" style="width:371px;height:450px;background:#FFFFFF;" version="1.1" viewBox="0 0 371 450" width="371px" zoomAndPan="magnify"><title>Activity diagram of </title><defs/><g><text fill="#000000" font-family="sans-serif" font-size="14" font-weight="bold" lengthAdjust="spacing" textLength="151.0537" x="106.335" y="32.9951">Activity diagram of</text><text fill="#5132BE" font-family="name=monospace" font-size="14" font-weight="bold" lengthAdjust="spacing" textLength="116.6484" x="93.3467" y="49.292">Empty3.main()</text><text fill="#000000" font-family="sans-serif" font-size="14" font-weight="bold" lengthAdjust="spacing" textLength="60.3818" x="214.8691" y="49.292">method</text><ellipse cx="195.9517" cy="73.5938" fill="#222222" rx="10" ry="10" style="stroke:#222222;stroke-width:1.0;"/><rect fill="#F1F1F1" height="33.9688" rx="12.5" ry="12.5" style="stroke:#181818;stroke-width:0.5;" width="105.3301" x="143.2866" y="103.5938"/><text fill="#000000" font-family="sans-serif" font-size="12" lengthAdjust="spacing" textLength="85.3301" x="153.2866" y="124.7324">int i, sum = 0;</text><rect fill="#9BD68D" height="195.8672" style="stroke:#000000;stroke-width:1.5;" width="349.5977" x="11" y="147.5625"/><path d="M74.6074,147.5625 L74.6074,156.8594 L64.6074,166.8594 L11,166.8594 " fill="none" style="stroke:#000000;stroke-width:1.5;"/><text fill="#000000" font-family="sans-serif" font-size="14" lengthAdjust="spacing" textLength="53.6074" x="14" y="161.5576">for loop</text><path d="M31,237.8281 L31,278.0938 L126.0771,278.0938 L126.0771,247.8281 L116.0771,237.8281 L31,237.8281 " fill="#FEFFDD" style="stroke:#181818;stroke-width:0.5;"/><path d="M116.0771,237.8281 L116.0771,247.8281 L126.0771,247.8281 L116.0771,237.8281 " fill="#FEFFDD" style="stroke:#181818;stroke-width:0.5;"/><text fill="#000000" font-family="sans-serif" font-size="13" lengthAdjust="spacing" textLength="69.9448" x="37" y="254.895">No body in</text><text fill="#000000" font-family="sans-serif" font-size="13" lengthAdjust="spacing" textLength="55.6245" x="37" y="270.0278">this loop</text><rect fill="#F1F1F1" height="33.9688" style="stroke:#181818;stroke-width:0.5;" width="52.6953" x="169.604" y="183.8594"/><text fill="#000000" font-family="sans-serif" font-size="12" lengthAdjust="spacing" textLength="32.6953" x="179.604" y="204.998">i = 1;</text><polygon fill="#DEB887" points="172.0771,250.043,219.8262,250.043,231.8262,262.043,219.8262,274.043,172.0771,274.043,160.0771,262.043,172.0771,250.043" style="stroke:#181818;stroke-width:0.5;"/><text fill="#008000" font-family="sans-serif" font-size="11" lengthAdjust="spacing" textLength="22.5747" x="199.9517" y="284.2534">true</text><text fill="#000000" font-family="sans-serif" font-size="14" font-weight="bold" lengthAdjust="spacing" textLength="47.749" x="172.0771" y="266.8896">i &lt;= 5</text><text fill="#FF0000" font-family="sans-serif" font-size="11" lengthAdjust="spacing" textLength="26.168" x="133.9092" y="259.4487">false</text><rect fill="#F1F1F1" height="33.9688" style="stroke:#181818;stroke-width:0.5;" width="100.7715" x="243.8262" y="275.4609"/><text fill="#000000" font-family="sans-serif" font-size="12" lengthAdjust="spacing" textLength="80.7715" x="253.8262" y="296.5996">sum += i++;</text><polygon fill="#F1F1F1" points="74.4683,363.4297,317.4351,363.4297,327.4351,380.4141,317.4351,397.3984,74.4683,397.3984" style="stroke:#181818;stroke-width:0.5;"/><text fill="#000000" font-family="sans-serif" font-size="12" lengthAdjust="spacing" textLength="222.9668" x="84.4683" y="384.5684">System.out.println("Sum is " + sum);</text><ellipse cx="195.9517" cy="428.3984" fill="none" rx="11" ry="11" style="stroke:#222222;stroke-width:1.0;"/><ellipse cx="195.9517" cy="428.3984" fill="#222222" rx="6" ry="6" style="stroke:#222222;stroke-width:1.0;"/><line style="stroke:#181818;stroke-width:1.0;" x1="195.9517" x2="195.9517" y1="83.5938" y2="103.5938"/><polygon fill="#181818" points="191.9517,93.5938,195.9517,103.5938,199.9517,93.5938,195.9517,97.5938" style="stroke:#181818;stroke-width:1.0;"/><line style="stroke:#181818;stroke-width:1.0;" x1="195.9517" x2="195.9517" y1="274.043" y2="319.4297"/><line style="stroke:#181818;stroke-width:1.0;" x1="195.9517" x2="344.5977" y1="319.4297" y2="319.4297"/><polygon fill="#181818" points="340.5977,302.4453,344.5977,292.4453,348.5977,302.4453,344.5977,298.4453" style="stroke:#181818;stroke-width:1.0;"/><line style="stroke:#181818;stroke-width:1.0;" x1="344.5977" x2="344.5977" y1="262.043" y2="319.4297"/><line style="stroke:#181818;stroke-width:1.0;" x1="344.5977" x2="231.8262" y1="262.043" y2="262.043"/><polygon fill="#181818" points="241.8262,258.043,231.8262,262.043,241.8262,266.043,237.8262,262.043" style="stroke:#181818;stroke-width:1.0;"/><line style="stroke:#181818;stroke-width:1.0;" x1="160.0771" x2="148.0771" y1="262.043" y2="262.043"/><polygon fill="#181818" points="144.0771,288.4453,148.0771,298.4453,152.0771,288.4453,148.0771,292.4453" style="stroke:#181818;stroke-width:1.0;"/><line style="stroke:#181818;stroke-width:1.0;" x1="148.0771" x2="148.0771" y1="262.043" y2="331.4297"/><line style="stroke:#181818;stroke-width:1.0;" x1="148.0771" x2="195.9517" y1="331.4297" y2="331.4297"/><line style="stroke:#181818;stroke-width:1.0;" x1="195.9517" x2="195.9517" y1="331.4297" y2="363.4297"/><polygon fill="#181818" points="191.9517,353.4297,195.9517,363.4297,199.9517,353.4297,195.9517,357.4297" style="stroke:#181818;stroke-width:1.0;"/><line style="stroke:#181818;stroke-width:1.0;" x1="195.9517" x2="195.9517" y1="217.8281" y2="250.043"/><polygon fill="#181818" points="191.9517,240.043,195.9517,250.043,199.9517,240.043,195.9517,244.043" style="stroke:#181818;stroke-width:1.0;"/><line style="stroke:#181818;stroke-width:1.0;" x1="195.9517" x2="195.9517" y1="137.5625" y2="183.8594"/><polygon fill="#181818" points="191.9517,173.8594,195.9517,183.8594,199.9517,173.8594,195.9517,177.8594" style="stroke:#181818;stroke-width:1.0;"/><line style="stroke:#181818;stroke-width:1.0;" x1="195.9517" x2="195.9517" y1="397.3984" y2="417.3984"/><polygon fill="#181818" points="191.9517,407.3984,195.9517,417.3984,199.9517,407.3984,195.9517,411.3984" style="stroke:#181818;stroke-width:1.0;"/><!--SRC=[TP51Qnin48Nl-XL3Sh5nSEga2UrQ5ZHjSogbu6ilMcji3zPg5aaRimd-xvcLpPOMgeD0cgTltXkb0uNMHjl0bqsc5yezl2cGzSmXh-aLON5NpcNxHhRXu2wIOVsWW5_PSuGUlUVZM7YocyCkSXVSkLntqVT7PZSg_dJu-FTTxZr2pVuiFQcJKccq-Sl6J9auN4mySNGOIm-jARnGejgZCH0uu9ZaV_MJ4fXq6yCxihkX3M_XTz1RUGh1DhYIs9nQkq6ZDoNFzSFY_gv6yxrfSty_Roo5oLJVbgBHjyDB0mtclIHMAOjhfIeI7Dr0wXfOmOVbKgbsZ7FzkNQFdnni1UwPsqk-m1cXWfyi4t4zK11VUK-fQ8gY8e4jbalGEjjqCARS7lVaSKAWL_0m1T5FpiQhNKGC9iSEf-FOQ_cieusk6fpDLa2psRyy3AuWHqv4PxRM9y781rNhFcLivjpbUHibfm-JgxNGfFCLp8R8qu8KGTjbWSfGk7q7]--></g></svg>