<svg xmlns="http://www.w3.org/2000/svg" xmlns:xlink="http://www.w3.org/1999/xlink" contentStyleType="text/css" height="492px" preserveAspectRatio="none" style="width:385px;height:492px;background:#FFFFFF;" version="1.1" viewBox="0 0 385 492" width="385px" zoomAndPan="magnify"><title>Activity diagram of </title><defs/><g><text fill="#000000" font-family="sans-serif" font-size="14" font-weight="bold" lengthAdjust="spacing" textLength="151.0537" x="113.3999" y="32.9951">Activity diagram of</text><text fill="#5132BE" font-family="name=monospace" font-size="14" font-weight="bold" lengthAdjust="spacing" textLength="116.6484" x="100.4116" y="49.292">Empty2.main()</text><text fill="#000000" font-family="sans-serif" font-size="14" font-weight="bold" lengthAdjust="spacing" textLength="60.3818" x="221.9341" y="49.292">method</text><ellipse cx="212.1182" cy="73.5938" fill="#222222" rx="10" ry="10" style="stroke:#222222;stroke-width:1.0;"/><rect fill="#F1F1F1" height="33.9688" rx="12.5" ry="12.5" style="stroke:#181818;stroke-width:0.5;" width="46.8359" x="188.7002" y="103.5938"/><text fill="#000000" font-family="sans-serif" font-size="12" lengthAdjust="spacing" textLength="26.8359" x="198.7002" y="124.7324">int i;</text><path d="M22.5908,154.4141 L22.5908,194.6797 A0,0 0 0 0 22.5908,194.6797 L165.7705,194.6797 A0,0 0 0 0 165.7705,194.6797 L165.7705,178.5469 L185.7705,174.5469 L165.7705,170.5469 L165.7705,164.4141 L155.7705,154.4141 L22.5908,154.4141 A0,0 0 0 0 22.5908,154.4141 " fill="#FEFFDD" style="stroke:#181818;stroke-width:0.5;"/><path d="M155.7705,154.4141 L155.7705,164.4141 L165.7705,164.4141 L155.7705,154.4141 " fill="#FEFFDD" style="stroke:#181818;stroke-width:0.5;"/><text fill="#000000" font-family="sans-serif" font-size="13" lengthAdjust="spacing" textLength="118.0474" x="28.5908" y="171.481">Move initialization</text><text fill="#000000" font-family="sans-serif" font-size="13" lengthAdjust="spacing" textLength="95.3228" x="28.5908" y="186.6138">out of the loop</text><rect fill="#F1F1F1" height="33.9688" style="stroke:#181818;stroke-width:0.5;" width="52.6953" x="185.7705" y="157.5625"/><text fill="#000000" font-family="sans-serif" font-size="12" lengthAdjust="spacing" textLength="32.6953" x="195.7705" y="178.7012">i = 0;</text><rect fill="#9BD68D" height="235.2417" style="stroke:#000000;stroke-width:1.5;" width="363.7275" x="11" y="204.6797"/><path d="M74.6074,204.6797 L74.6074,213.9766 L64.6074,223.9766 L11,223.9766 " fill="none" style="stroke:#000000;stroke-width:1.5;"/><text fill="#000000" font-family="sans-serif" font-size="14" lengthAdjust="spacing" textLength="53.6074" x="14" y="218.6748">for loop</text><polygon fill="#F1F1F1" points="103.3232,296.687,320.9131,296.687,330.9131,313.6714,320.9131,330.6558,103.3232,330.6558" style="stroke:#181818;stroke-width:0.5;"/><text fill="#000000" font-family="sans-serif" font-size="12" lengthAdjust="spacing" textLength="197.5898" x="113.3232" y="317.8257">System.out.println("Pass #" + i);</text><path d="M45,365.6558 L45,405.9214 A0,0 0 0 0 45,405.9214 L168.375,405.9214 A0,0 0 0 0 168.375,405.9214 L168.375,389.7886 L188.375,385.7886 L168.375,381.7886 L168.375,375.6558 L158.375,365.6558 L45,365.6558 A0,0 0 0 0 45,365.6558 " fill="#FEFFDD" style="stroke:#181818;stroke-width:0.5;"/><path d="M158.375,365.6558 L158.375,375.6558 L168.375,375.6558 L158.375,365.6558 " fill="#FEFFDD" style="stroke:#181818;stroke-width:0.5;"/><text fill="#000000" font-family="sans-serif" font-size="13" lengthAdjust="spacing" textLength="98.2427" x="51" y="382.7227">increment loop</text><text fill="#000000" font-family="sans-serif" font-size="13" lengthAdjust="spacing" textLength="70.4844" x="51" y="397.8555">control var</text><rect fill="#F1F1F1" height="33.9688" style="stroke:#181818;stroke-width:0.5;" width="47.4863" x="188.375" y="368.8042"/><text fill="#000000" font-family="sans-serif" font-size="12" lengthAdjust="spacing" textLength="27.4863" x="198.375" y="389.9429">i++;</text><polygon fill="#DEB887" points="189.2383,240.9766,234.998,240.9766,246.998,252.9766,234.998,264.9766,189.2383,264.9766,177.2383,252.9766,189.2383,240.9766" style="stroke:#181818;stroke-width:0.5;"/><text fill="#008000" font-family="sans-serif" font-size="11" lengthAdjust="spacing" textLength="22.5747" x="216.1182" y="275.187">true</text><text fill="#000000" font-family="sans-serif" font-size="14" font-weight="bold" lengthAdjust="spacing" textLength="45.7598" x="189.2383" y="257.8232">i &lt; 10</text><text fill="#FF0000" font-family="sans-serif" font-size="11" lengthAdjust="spacing" textLength="26.168" x="151.0703" y="250.3823">false</text><rect fill="#F1F1F1" height="33.9688" rx="12.5" ry="12.5" style="stroke:#181818;stroke-width:0.5;" width="23.8145" x="340.9131" y="315.9175"/><text fill="#000000" font-family="sans-serif" font-size="12" lengthAdjust="spacing" textLength="3.8145" x="350.9131" y="337.0562">&#160;</text><ellipse cx="212.1182" cy="470.9214" fill="none" rx="11" ry="11" style="stroke:#222222;stroke-width:1.0;"/><ellipse cx="212.1182" cy="470.9214" fill="#222222" rx="6" ry="6" style="stroke:#222222;stroke-width:1.0;"/><line style="stroke:#181818;stroke-width:1.0;" x1="212.1182" x2="212.1182" y1="83.5938" y2="103.5938"/><polygon fill="#181818" points="208.1182,93.5938,212.1182,103.5938,216.1182,93.5938,212.1182,97.5938" style="stroke:#181818;stroke-width:1.0;"/><line style="stroke:#181818;stroke-width:1.0;" x1="212.1182" x2="212.1182" y1="137.5625" y2="157.5625"/><polygon fill="#181818" points="208.1182,147.5625,212.1182,157.5625,216.1182,147.5625,212.1182,151.5625" style="stroke:#181818;stroke-width:1.0;"/><line style="stroke:#181818;stroke-width:1.0;" x1="212.1182" x2="212.1182" y1="330.6558" y2="368.8042"/><polygon fill="#181818" points="208.1182,358.8042,212.1182,368.8042,216.1182,358.8042,212.1182,362.8042" style="stroke:#181818;stroke-width:1.0;"/><line style="stroke:#181818;stroke-width:1.0;" x1="212.1182" x2="212.1182" y1="264.9766" y2="296.687"/><polygon fill="#181818" points="208.1182,286.687,212.1182,296.687,216.1182,286.687,212.1182,290.687" style="stroke:#181818;stroke-width:1.0;"/><line style="stroke:#181818;stroke-width:1.0;" x1="212.1182" x2="212.1182" y1="402.7729" y2="415.9214"/><line style="stroke:#181818;stroke-width:1.0;" x1="212.1182" x2="352.8203" y1="415.9214" y2="415.9214"/><line style="stroke:#181818;stroke-width:1.0;" x1="352.8203" x2="352.8203" y1="349.8862" y2="415.9214"/><polygon fill="#181818" points="348.8203,359.8862,352.8203,349.8862,356.8203,359.8862,352.8203,355.8862" style="stroke:#181818;stroke-width:1.0;"/><line style="stroke:#181818;stroke-width:1.0;" x1="352.8203" x2="352.8203" y1="252.9766" y2="315.9175"/><line style="stroke:#181818;stroke-width:1.0;" x1="352.8203" x2="246.998" y1="252.9766" y2="252.9766"/><polygon fill="#181818" points="256.998,248.9766,246.998,252.9766,256.998,256.9766,252.998,252.9766" style="stroke:#181818;stroke-width:1.0;"/><line style="stroke:#181818;stroke-width:1.0;" x1="177.2383" x2="33" y1="252.9766" y2="252.9766"/><polygon fill="#181818" points="29,328.9019,33,338.9019,37,328.9019,33,332.9019" style="stroke:#181818;stroke-width:1.0;"/><line style="stroke:#181818;stroke-width:1.0;" x1="33" x2="33" y1="252.9766" y2="427.9214"/><line style="stroke:#181818;stroke-width:1.0;" x1="33" x2="212.1182" y1="427.9214" y2="427.9214"/><line style="stroke:#181818;stroke-width:1.0;" x1="212.1182" x2="212.1182" y1="427.9214" y2="459.9214"/><polygon fill="#181818" points="208.1182,449.9214,212.1182,459.9214,216.1182,449.9214,212.1182,453.9214" style="stroke:#181818;stroke-width:1.0;"/><line style="stroke:#181818;stroke-width:1.0;" x1="212.1182" x2="212.1182" y1="191.5313" y2="240.9766"/><polygon fill="#181818" points="208.1182,230.9766,212.1182,240.9766,216.1182,230.9766,212.1182,234.9766" style="stroke:#181818;stroke-width:1.0;"/><!--SRC=[TP9DRzim38Rl-XL4SqaG86so3sosQs3Tnsa32lIQYsmn2H6PD2GvWJlalqzMCcqxJ0T1uakApql87ubxxNG7dzf09meZ_5GGrpVXy4Al2EjDkgVj2-bEsDnIflMT63-B5GSZMYldB3pfzhXtCh2voitWx7WMCJdZJuUt_yR2Q14QiTVKYxeevJFcitQ10WdV89x46NIfHrKHdyXJOx6kWOKnE_cVVb7niTWjcpUazrCRsS6Mgrqi1TOTFaRRudlTObsroS_itVhDfi7wQzU7SRFgDF5yKTqdiQxkfyeQEWo7w5Zv4AcLAYW-HsKvdU0H7ieIgYfeVwnhnH8G2lWX9mJYw51RUjN9w9Pb21DHE21OaLwfFazXzh4nxpyOs4McIRkDvNmWYtE22jOF2o0FyojtiNU8N0Stu29FlNWPVS1k5TkiUXSXBS_ldhNtCBk39T0YWKQr7q94pMMqNFvjuNVyPeMuTTXXj9oujjp6cJYnSD8kvpRncvorCqMPGiWcaMTSXwRUQUiZxVGDWlI_0000]--></g></svg>