<svg xmlns="http://www.w3.org/2000/svg" xmlns:xlink="http://www.w3.org/1999/xlink" contentStyleType="text/css" height="478px" preserveAspectRatio="none" style="width:442px;height:478px;background:#FFFFFF;" version="1.1" viewBox="0 0 442 478" width="442px" zoomAndPan="magnify"><title>Activity diagram of </title><defs/><g><text fill="#000000" font-family="sans-serif" font-size="14" font-weight="bold" lengthAdjust="spacing" textLength="151.0537" x="141.8337" y="32.9951">Activity diagram of</text><text fill="#5132BE" font-family="name=monospace" font-size="14" font-weight="bold" lengthAdjust="spacing" textLength="117.0723" x="128.6335" y="49.292">ForTest.main()</text><text fill="#000000" font-family="sans-serif" font-size="14" font-weight="bold" lengthAdjust="spacing" textLength="60.3818" x="250.5798" y="49.292">method</text><path d="M10,63.5938 L10,88.7266 A0,0 0 0 0 10,88.7266 L204.5132,88.7266 A0,0 0 0 0 204.5132,88.7266 L204.5132,81.5938 L224.5132,76.1602 L204.5132,73.5938 L204.5132,73.5938 L194.5132,63.5938 L10,63.5938 A0,0 0 0 0 10,63.5938 " fill="#FEFFDD" style="stroke:#181818;stroke-width:0.5;"/><path d="M194.5132,63.5938 L194.5132,73.5938 L204.5132,73.5938 L194.5132,63.5938 " fill="#FEFFDD" style="stroke:#181818;stroke-width:0.5;"/><text fill="#000000" font-family="sans-serif" font-size="13" lengthAdjust="spacing" textLength="173.5132" x="16" y="80.6606">throws java.io.IOException</text><ellipse cx="234.5132" cy="76.1602" fill="#222222" rx="10" ry="10" style="stroke:#222222;stroke-width:1.0;"/><rect fill="#F1F1F1" height="33.9688" rx="12.5" ry="12.5" style="stroke:#181818;stroke-width:0.5;" width="46.8359" x="211.0952" y="108.7266"/><text fill="#000000" font-family="sans-serif" font-size="12" lengthAdjust="spacing" textLength="26.8359" x="221.0952" y="129.8652">int i;</text><polygon fill="#F1F1F1" points="110.2612,162.6953,358.7651,162.6953,368.7651,179.6797,358.7651,196.6641,110.2612,196.6641" style="stroke:#181818;stroke-width:0.5;"/><text fill="#000000" font-family="sans-serif" font-size="12" lengthAdjust="spacing" textLength="228.5039" x="120.2612" y="183.834">System.out.println("Press S to stop.");</text><rect fill="#9BD68D" height="219.0391" style="stroke:#000000;stroke-width:1.5;" width="358.6777" x="72.9175" y="206.6641"/><path d="M136.5249,206.6641 L136.5249,215.9609 L126.5249,225.9609 L72.9175,225.9609 " fill="none" style="stroke:#000000;stroke-width:1.5;"/><text fill="#000000" font-family="sans-serif" font-size="14" lengthAdjust="spacing" textLength="53.6074" x="75.9175" y="220.6592">for loop</text><rect fill="#F1F1F1" height="33.9688" style="stroke:#181818;stroke-width:0.5;" width="52.6953" x="208.1655" y="242.9609"/><text fill="#000000" font-family="sans-serif" font-size="12" lengthAdjust="spacing" textLength="32.6953" x="218.1655" y="264.0996">i = 0;</text><polygon fill="#F1F1F1" points="125.7183,357.7344,343.3081,357.7344,353.3081,374.7188,343.3081,391.7031,125.7183,391.7031" style="stroke:#181818;stroke-width:0.5;"/><text fill="#000000" font-family="sans-serif" font-size="12" lengthAdjust="spacing" textLength="197.5898" x="135.7183" y="378.873">System.out.println("Pass #" + i);</text><polygon fill="#DEB887" points="118.9175,296.9297,350.1089,296.9297,362.1089,308.9297,350.1089,320.9297,118.9175,320.9297,106.9175,308.9297,118.9175,296.9297" style="stroke:#181818;stroke-width:0.5;"/><text fill="#008000" font-family="sans-serif" font-size="11" lengthAdjust="spacing" textLength="22.5747" x="238.5132" y="331.1401">true</text><text fill="#000000" font-family="sans-serif" font-size="14" font-weight="bold" lengthAdjust="spacing" textLength="231.1914" x="118.9175" y="313.7764">(char) System.in.read() != 'S'</text><text fill="#FF0000" font-family="sans-serif" font-size="11" lengthAdjust="spacing" textLength="26.168" x="80.7495" y="306.3354">false</text><rect fill="#F1F1F1" height="33.9688" style="stroke:#181818;stroke-width:0.5;" width="47.4863" x="374.1089" y="339.332"/><text fill="#000000" font-family="sans-serif" font-size="12" lengthAdjust="spacing" textLength="27.4863" x="384.1089" y="360.4707">i++;</text><ellipse cx="234.5132" cy="456.7031" fill="none" rx="11" ry="11" style="stroke:#222222;stroke-width:1.0;"/><ellipse cx="234.5132" cy="456.7031" fill="#222222" rx="6" ry="6" style="stroke:#222222;stroke-width:1.0;"/><line style="stroke:#181818;stroke-width:1.0;" x1="234.5132" x2="234.5132" y1="86.1602" y2="108.7266"/><polygon fill="#181818" points="230.5132,98.7266,234.5132,108.7266,238.5132,98.7266,234.5132,102.7266" style="stroke:#181818;stroke-width:1.0;"/><line style="stroke:#181818;stroke-width:1.0;" x1="234.5132" x2="234.5132" y1="142.6953" y2="162.6953"/><polygon fill="#181818" points="230.5132,152.6953,234.5132,162.6953,238.5132,152.6953,234.5132,156.6953" style="stroke:#181818;stroke-width:1.0;"/><line style="stroke:#181818;stroke-width:1.0;" x1="234.5132" x2="234.5132" y1="320.9297" y2="357.7344"/><polygon fill="#181818" points="230.5132,347.7344,234.5132,357.7344,238.5132,347.7344,234.5132,351.7344" style="stroke:#181818;stroke-width:1.0;"/><line style="stroke:#181818;stroke-width:1.0;" x1="234.5132" x2="234.5132" y1="391.7031" y2="401.7031"/><line style="stroke:#181818;stroke-width:1.0;" x1="234.5132" x2="397.8521" y1="401.7031" y2="401.7031"/><line style="stroke:#181818;stroke-width:1.0;" x1="397.8521" x2="397.8521" y1="373.3008" y2="401.7031"/><polygon fill="#181818" points="393.8521,383.3008,397.8521,373.3008,401.8521,383.3008,397.8521,379.3008" style="stroke:#181818;stroke-width:1.0;"/><line style="stroke:#181818;stroke-width:1.0;" x1="397.8521" x2="397.8521" y1="308.9297" y2="339.332"/><line style="stroke:#181818;stroke-width:1.0;" x1="397.8521" x2="362.1089" y1="308.9297" y2="308.9297"/><polygon fill="#181818" points="372.1089,304.9297,362.1089,308.9297,372.1089,312.9297,368.1089,308.9297" style="stroke:#181818;stroke-width:1.0;"/><line style="stroke:#181818;stroke-width:1.0;" x1="106.9175" x2="94.9175" y1="308.9297" y2="308.9297"/><polygon fill="#181818" points="90.9175,352.3164,94.9175,362.3164,98.9175,352.3164,94.9175,356.3164" style="stroke:#181818;stroke-width:1.0;"/><line style="stroke:#181818;stroke-width:1.0;" x1="94.9175" x2="94.9175" y1="308.9297" y2="413.7031"/><line style="stroke:#181818;stroke-width:1.0;" x1="94.9175" x2="234.5132" y1="413.7031" y2="413.7031"/><line style="stroke:#181818;stroke-width:1.0;" x1="234.5132" x2="234.5132" y1="413.7031" y2="445.7031"/><polygon fill="#181818" points="230.5132,435.7031,234.5132,445.7031,238.5132,435.7031,234.5132,439.7031" style="stroke:#181818;stroke-width:1.0;"/><line style="stroke:#181818;stroke-width:1.0;" x1="234.5132" x2="234.5132" y1="276.9297" y2="296.9297"/><polygon fill="#181818" points="230.5132,286.9297,234.5132,296.9297,238.5132,286.9297,234.5132,290.9297" style="stroke:#181818;stroke-width:1.0;"/><line style="stroke:#181818;stroke-width:1.0;" x1="234.5132" x2="234.5132" y1="196.6641" y2="242.9609"/><polygon fill="#181818" points="230.5132,232.9609,234.5132,242.9609,238.5132,232.9609,234.5132,236.9609" style="stroke:#181818;stroke-width:1.0;"/><!--SRC=[TL9DRzim3BthLt39eJO2k6ltWTPn1ApR2WmOi0BPiHVPOX8kicX8SZolo7-Vx6GULgmy21B9f_SU9RydsoYdQlXG1JfGwE59G8nxjc5Dln2khiVpk7mYLRFLvvOXlfB5ZspOGO_6S3SLxbIrtpfkhJwLozQPlcFMKyTVXhV_va9l44esfzQZE0hX9vaFoWKAnFOiuewTHZTo50NP0tag3Ke9bYrEJbwg7qMyBB9DvZMfxK336tYqnIP2mQeQLz4s-qPLA8jgz3D_T_NckaHvp-ux-f3LYcoI5fTZLHQN0rH2ZM4NBGiVecnXEI3a47QEEmy_r45bnDcNRvz_LjWCdeJ8AJBISXbtwzu7h3DkGzQuc3OscJquz1xM41Xyu2QRfSib54NiQTeWfH3DD9xvRQdVtsZOHB66kJdFAoTOmUiH5PJVHyoGxNPaC4cgdN8fd8d9PWwLJb9ujOABzKKAv24vsS-t3j7Au5fCfyVxls8L1Szdi01wflKFh8m_fLDEvxHOFDU5Le_I9bw7McwKyP5s-1Pn1hy1]--></g></svg>