<svg xmlns="http://www.w3.org/2000/svg" xmlns:xlink="http://www.w3.org/1999/xlink" contentStyleType="text/css" height="721px" preserveAspectRatio="none" style="width:427px;height:721px;background:#FFFFFF;" version="1.1" viewBox="0 0 427 721" width="427px" zoomAndPan="magnify"><title>Activity diagram of </title><defs/><g><text fill="#000000" font-family="sans-serif" font-size="14" font-weight="bold" lengthAdjust="spacing" textLength="151.0537" x="134.2078" y="32.9951">Activity diagram of</text><text fill="#5132BE" font-family="name=monospace" font-size="14" font-weight="bold" lengthAdjust="spacing" textLength="110.1885" x="124.4495" y="49.292">ForVar.main()</text><text fill="#000000" font-family="sans-serif" font-size="14" font-weight="bold" lengthAdjust="spacing" textLength="60.3818" x="239.512" y="49.292">method</text><ellipse cx="251.9131" cy="73.5938" fill="#222222" rx="10" ry="10" style="stroke:#222222;stroke-width:1.0;"/><rect fill="#F1F1F1" height="33.9688" rx="12.5" ry="12.5" style="stroke:#181818;stroke-width:0.5;" width="94.3672" x="204.7295" y="103.5938"/><text fill="#000000" font-family="sans-serif" font-size="12" lengthAdjust="spacing" textLength="74.3672" x="214.7295" y="124.7324">int sum = 0;</text><rect fill="#F1F1F1" height="33.9688" rx="12.5" ry="12.5" style="stroke:#181818;stroke-width:0.5;" width="91.7012" x="206.0625" y="157.5625"/><text fill="#000000" font-family="sans-serif" font-size="12" lengthAdjust="spacing" textLength="71.7012" x="216.0625" y="178.7012">int fact = 1;</text><rect fill="#9BD68D" height="300.8125" style="stroke:#000000;stroke-width:1.5;" width="373.2603" x="11" y="227.5864"/><path d="M74.6074,227.5864 L74.6074,236.8833 L64.6074,246.8833 L11,246.8833 " fill="none" style="stroke:#000000;stroke-width:1.5;"/><text fill="#000000" font-family="sans-serif" font-size="14" lengthAdjust="spacing" textLength="53.6074" x="14" y="241.5815">for loop</text><path d="M31,363.5083 L31,403.7739 L177.582,403.7739 L177.582,373.5083 L167.582,363.5083 L31,363.5083 " fill="#FEFFDD" style="stroke:#181818;stroke-width:0.5;"/><path d="M167.582,363.5083 L167.582,373.5083 L177.582,373.5083 L167.582,363.5083 " fill="#FEFFDD" style="stroke:#181818;stroke-width:0.5;"/><text fill="#000000" font-family="sans-serif" font-size="13" lengthAdjust="spacing" textLength="121.4497" x="37" y="380.5752">i is declared inside</text><text fill="#000000" font-family="sans-serif" font-size="13" lengthAdjust="spacing" textLength="114.4038" x="37" y="395.708">the for statement</text><rect fill="#F1F1F1" height="33.9688" style="stroke:#181818;stroke-width:0.5;" width="72.1543" x="215.8359" y="263.8833"/><text fill="#000000" font-family="sans-serif" font-size="12" lengthAdjust="spacing" textLength="52.1543" x="225.8359" y="285.022">int i = 1;</text><rect fill="#F1F1F1" height="33.9688" style="stroke:#181818;stroke-width:0.5;" width="80.6621" x="211.582" y="391.4614"/><text fill="#000000" font-family="sans-serif" font-size="12" lengthAdjust="spacing" textLength="60.6621" x="221.582" y="412.6001">sum += i;</text><rect fill="#F1F1F1" height="33.9688" style="stroke:#181818;stroke-width:0.5;" width="73.9414" x="214.9424" y="460.4302"/><text fill="#000000" font-family="sans-serif" font-size="12" lengthAdjust="spacing" textLength="53.9414" x="224.9424" y="481.5688">fact *= i;</text><polygon fill="#DEB887" points="228.0386,317.8521,275.7876,317.8521,287.7876,329.8521,275.7876,341.8521,228.0386,341.8521,216.0386,329.8521,228.0386,317.8521" style="stroke:#181818;stroke-width:0.5;"/><text fill="#000000" font-family="sans-serif" font-size="11" lengthAdjust="spacing" textLength="119.8506" x="255.9131" y="352.0625">i is known throughout</text><text fill="#000000" font-family="sans-serif" font-size="11" lengthAdjust="spacing" textLength="45.0474" x="255.9131" y="364.8672">the loop</text><text fill="#000000" font-family="sans-serif" font-size="14" font-weight="bold" lengthAdjust="spacing" textLength="47.749" x="228.0386" y="334.6987">i &lt;= 5</text><text fill="#FF0000" font-family="sans-serif" font-size="11" lengthAdjust="spacing" textLength="26.168" x="189.8706" y="327.2578">false</text><rect fill="#F1F1F1" height="33.9688" style="stroke:#181818;stroke-width:0.5;" width="47.4863" x="304.2441" y="401.1411"/><text fill="#000000" font-family="sans-serif" font-size="12" lengthAdjust="spacing" textLength="27.4863" x="314.2441" y="422.2798">i++;</text><polygon fill="#F1F1F1" points="130.4297,580.4141,373.3965,580.4141,383.3965,597.3984,373.3965,614.3828,130.4297,614.3828" style="stroke:#181818;stroke-width:0.5;"/><text fill="#000000" font-family="sans-serif" font-size="12" lengthAdjust="spacing" textLength="222.9668" x="140.4297" y="601.5527">System.out.println("Sum is " + sum);</text><polygon fill="#F1F1F1" points="119.291,634.3828,384.5352,634.3828,394.5352,651.3672,384.5352,668.3516,119.291,668.3516" style="stroke:#181818;stroke-width:0.5;"/><text fill="#000000" font-family="sans-serif" font-size="12" lengthAdjust="spacing" textLength="245.2441" x="129.291" y="655.5215">System.out.println("Factorial is " + fact);</text><ellipse cx="251.9131" cy="699.3516" fill="none" rx="11" ry="11" style="stroke:#222222;stroke-width:1.0;"/><ellipse cx="251.9131" cy="699.3516" fill="#222222" rx="6" ry="6" style="stroke:#222222;stroke-width:1.0;"/><line style="stroke:#181818;stroke-width:1.0;" x1="251.9131" x2="251.9131" y1="83.5938" y2="103.5938"/><polygon fill="#181818" points="247.9131,93.5938,251.9131,103.5938,255.9131,93.5938,251.9131,97.5938" style="stroke:#181818;stroke-width:1.0;"/><line style="stroke:#181818;stroke-width:1.0;" x1="251.9131" x2="251.9131" y1="137.5625" y2="157.5625"/><polygon fill="#181818" points="247.9131,147.5625,251.9131,157.5625,255.9131,147.5625,251.9131,151.5625" style="stroke:#181818;stroke-width:1.0;"/><line style="stroke:#181818;stroke-width:1.0;" x1="251.9131" x2="251.9131" y1="425.4302" y2="460.4302"/><polygon fill="#181818" points="247.9131,450.4302,251.9131,460.4302,255.9131,450.4302,251.9131,454.4302" style="stroke:#181818;stroke-width:1.0;"/><line style="stroke:#181818;stroke-width:1.0;" x1="251.9131" x2="251.9131" y1="341.8521" y2="391.4614"/><polygon fill="#181818" points="247.9131,381.4614,251.9131,391.4614,255.9131,381.4614,251.9131,385.4614" style="stroke:#181818;stroke-width:1.0;"/><line style="stroke:#181818;stroke-width:1.0;" x1="251.9131" x2="251.9131" y1="494.3989" y2="504.3989"/><line style="stroke:#181818;stroke-width:1.0;" x1="251.9131" x2="327.9873" y1="504.3989" y2="504.3989"/><line style="stroke:#181818;stroke-width:1.0;" x1="327.9873" x2="327.9873" y1="435.1099" y2="504.3989"/><polygon fill="#181818" points="323.9873,445.1099,327.9873,435.1099,331.9873,445.1099,327.9873,441.1099" style="stroke:#181818;stroke-width:1.0;"/><line style="stroke:#181818;stroke-width:1.0;" x1="327.9873" x2="327.9873" y1="329.8521" y2="401.1411"/><line style="stroke:#181818;stroke-width:1.0;" x1="327.9873" x2="287.7876" y1="329.8521" y2="329.8521"/><polygon fill="#181818" points="297.7876,325.8521,287.7876,329.8521,297.7876,333.8521,293.7876,329.8521" style="stroke:#181818;stroke-width:1.0;"/><line style="stroke:#181818;stroke-width:1.0;" x1="216.0386" x2="199.582" y1="329.8521" y2="329.8521"/><polygon fill="#181818" points="195.582,414.1255,199.582,424.1255,203.582,414.1255,199.582,418.1255" style="stroke:#181818;stroke-width:1.0;"/><line style="stroke:#181818;stroke-width:1.0;" x1="199.582" x2="199.582" y1="329.8521" y2="516.3989"/><line style="stroke:#181818;stroke-width:1.0;" x1="199.582" x2="251.9131" y1="516.3989" y2="516.3989"/><line style="stroke:#181818;stroke-width:1.0;" x1="251.9131" x2="251.9131" y1="297.8521" y2="317.8521"/><polygon fill="#181818" points="247.9131,307.8521,251.9131,317.8521,255.9131,307.8521,251.9131,311.8521" style="stroke:#181818;stroke-width:1.0;"/><line style="stroke:#181818;stroke-width:1.0;" x1="251.9131" x2="251.9131" y1="191.5313" y2="263.8833"/><polygon fill="#181818" points="247.9131,253.8833,251.9131,263.8833,255.9131,253.8833,251.9131,257.8833" style="stroke:#181818;stroke-width:1.0;"/><text fill="#000000" font-family="sans-serif" font-size="11" lengthAdjust="spacing" textLength="155.9336" x="255.9131" y="212.8359">Compute the factorial of the</text><text fill="#000000" font-family="sans-serif" font-size="11" lengthAdjust="spacing" textLength="106.1167" x="255.9131" y="225.6406">numbers through 5</text><line style="stroke:#181818;stroke-width:1.0;" x1="251.9131" x2="251.9131" y1="516.3989" y2="580.4141"/><polygon fill="#181818" points="247.9131,570.4141,251.9131,580.4141,255.9131,570.4141,251.9131,574.4141" style="stroke:#181818;stroke-width:1.0;"/><text fill="#000000" font-family="sans-serif" font-size="11" lengthAdjust="spacing" textLength="58.6147" x="255.9131" y="546.1094">but i is not</text><text fill="#000000" font-family="sans-serif" font-size="11" lengthAdjust="spacing" textLength="68.0625" x="255.9131" y="558.9141">known here.</text><line style="stroke:#181818;stroke-width:1.0;" x1="251.9131" x2="251.9131" y1="614.3828" y2="634.3828"/><polygon fill="#181818" points="247.9131,624.3828,251.9131,634.3828,255.9131,624.3828,251.9131,628.3828" style="stroke:#181818;stroke-width:1.0;"/><line style="stroke:#181818;stroke-width:1.0;" x1="251.9131" x2="251.9131" y1="668.3516" y2="688.3516"/><polygon fill="#181818" points="247.9131,678.3516,251.9131,688.3516,255.9131,678.3516,251.9131,682.3516" style="stroke:#181818;stroke-width:1.0;"/><!--SRC=[TLB1Rjim3BtxAuZsaYnekdJBi3cEWBL3JZiK2B1JBxB594HaqP3a1jcGVnyjUnuMh3eOe1uVt-EJmv5SexskuMiLwPNY6Nvb86V3Bcxf9yBY8TNfyurqpSuCBTtvJWwVsBA7CrhBfn5urDLnxxbrfeVBrjlpYTcC7NyLFlvx5yyMeMJRjrwoIvQ5qUQpzf4YiHjCFB8tw9D6KP1xfK2bHQN0iSDnaxVmIoR3H6rStf3UTpAyWnTNx8GAJjUubhKvDBf2LLHfdzlbuiD3YMh3_eVsyrgJcqoB-mIguhvZAgWn7cJZB4HndMKvoRZGrh26zwjLN-vq5QLUI9tTgIUkcpOYn0CcX3rfsvdfBbwSQ-iIVP1AajqVO2caPWpazajfFdqsi1DxbhaP4d8i0tCWe006Awiz6Y0No7GZav8Gn6B46brCd6IDUbzG5567er89EHt8ueIWMCDosesSz87aUu_eLFGjJiVdl5D9zUZuvFwOvZOEift7rTYRTy7Cra3NYWbCCRrx0otbNpjfRtAQpQvnT2PP7dtAzcgdRH2R5qcyR6CVZSGaldgh1_GubsppxJb8AdFnF6-yP6BTv6OhFgN_1cRTMqwJe3J8kudaVncRyIK7NhVD5L7-4Mv-0m00]--></g></svg>