<svg xmlns="http://www.w3.org/2000/svg" xmlns:xlink="http://www.w3.org/1999/xlink" contentStyleType="text/css" height="230px" preserveAspectRatio="none" style="width:183px;height:230px;background:#FFFFFF;" version="1.1" viewBox="0 0 183 230" width="183px" zoomAndPan="magnify"><title>Class diagram of </title><defs/><g><text fill="#000000" font-family="sans-serif" font-size="14" font-weight="bold" lengthAdjust="spacing" textLength="131.8721" x="16.5007" y="22.9951">Class diagram of</text><text fill="#5132BE" font-family="name=monospace" font-size="14" font-weight="bold" lengthAdjust="spacing" textLength="47.6191" x="39.0217" y="39.292">Guess</text><text fill="#000000" font-family="sans-serif" font-size="14" font-weight="bold" lengthAdjust="spacing" textLength="39.2109" x="91.5149" y="39.292">class</text><!--class Guess--><g id="elem_Guess"><rect codeLine="4" fill="#F1F1F1" height="48" id="Guess" rx="2.5" ry="2.5" style="stroke:#181818;stroke-width:0.5;" width="74.9229" x="54" y="60.5938"/><ellipse cx="69" cy="76.5938" fill="#ADD1B2" rx="11" ry="11" style="stroke:#181818;stroke-width:1.0;"/><path d="M68.4688,83.5156 Q66.7188,83.5156 65.5781,82.7813 Q64.4531,82.0313 63.8906,80.6875 Q63.3438,79.3281 63.3438,77.5313 Q63.3438,75.5 64,74.0469 Q64.6563,72.5938 65.9375,71.8125 Q67.2188,71.0313 69.0938,71.0313 Q69.9844,71.0313 70.6563,71.2188 Q71.3281,71.3906 72.0156,71.7344 L71.2031,73.75 Q70.5781,73.4375 70.0313,73.3125 Q69.5,73.1875 69.0156,73.1875 Q67.8438,73.1875 67.1406,73.7188 Q66.4375,74.25 66.1406,75.2031 Q65.8438,76.1563 65.8438,77.4219 Q65.8438,79.4375 66.5625,80.4063 Q67.2813,81.3594 68.875,81.3594 Q69.4688,81.3594 70.0938,81.2031 Q70.7188,81.0469 71.5469,80.6719 L71.5469,82.8906 Q70.8125,83.2031 70.0156,83.3594 Q69.2344,83.5156 68.4688,83.5156 Z " fill="#000000"/><text fill="#000000" font-family="sans-serif" font-size="14" lengthAdjust="spacing" textLength="42.9229" x="83" y="81.4404">Guess</text><line style="stroke:#181818;stroke-width:0.5;" x1="55" x2="127.9229" y1="92.5938" y2="92.5938"/><line style="stroke:#181818;stroke-width:0.5;" x1="55" x2="127.9229" y1="100.5938" y2="100.5938"/></g><g id="elem_GMN3"><path d="M6,168.5938 L6,223.9922 A0,0 0 0 0 6,223.9922 L176.7476,223.9922 A0,0 0 0 0 176.7476,223.9922 L176.7476,178.5938 L166.7476,168.5938 L95.5,168.5938 L91.5,108.8138 L87.5,168.5938 L6,168.5938 A0,0 0 0 0 6,168.5938 " fill="#FEFFDD" style="stroke:#181818;stroke-width:0.5;"/><path d="M166.7476,168.5938 L166.7476,178.5938 L176.7476,178.5938 L166.7476,168.5938 " fill="#FEFFDD" style="stroke:#181818;stroke-width:0.5;"/><text fill="#000000" font-family="sans-serif" font-size="13" lengthAdjust="spacing" textLength="99.5376" x="12" y="185.6606">file: Guess.java</text><text fill="#000000" font-family="sans-serif" font-size="13" lengthAdjust="spacing" textLength="4.1323" x="12" y="200.7935">&#160;</text><text fill="#000000" font-family="sans-serif" font-size="13" lengthAdjust="spacing" textLength="149.7476" x="12" y="215.9263">Guess the letter game.</text></g><!--SRC=[9Oun3i8m34Ltd-9BxAq0iQ2GXO5BiBYfMuhI63M61N5tcjI3BVlxFzicYu9hv9pHJpmkF4C7t9CRD1aIptAPDMb-SH3lWaPTi3ljZuTE_EqjERks3hrhYyCZ51OHrOgwWYzX3VfHKXDqQgRrJ5MhDanHpblVFFd3cw6aZM0FGHGpMJ2kFpKagKUX_G40]--></g></svg>