<svg xmlns="http://www.w3.org/2000/svg" xmlns:xlink="http://www.w3.org/1999/xlink" contentStyleType="text/css" height="625px" preserveAspectRatio="none" style="width:745px;height:625px;background:#FFFFFF;" version="1.1" viewBox="0 0 745 625" width="745px" zoomAndPan="magnify"><title>Activity diagram of </title><defs/><g><text fill="#000000" font-family="sans-serif" font-size="14" font-weight="bold" lengthAdjust="spacing" textLength="151.0537" x="293.0938" y="32.9951">Activity diagram of</text><text fill="#5132BE" font-family="name=monospace" font-size="14" font-weight="bold" lengthAdjust="spacing" textLength="114.2764" x="281.2915" y="49.292">Guess3.main()</text><text fill="#000000" font-family="sans-serif" font-size="14" font-weight="bold" lengthAdjust="spacing" textLength="60.3818" x="400.4419" y="49.292">method</text><path d="M87.4756,63.5938 L87.4756,88.7266 A0,0 0 0 0 87.4756,88.7266 L281.9888,88.7266 A0,0 0 0 0 281.9888,88.7266 L281.9888,81.5938 L301.9888,76.1602 L281.9888,73.5938 L281.9888,73.5938 L271.9888,63.5938 L87.4756,63.5938 A0,0 0 0 0 87.4756,63.5938 " fill="#FEFFDD" style="stroke:#181818;stroke-width:0.5;"/><path d="M271.9888,63.5938 L271.9888,73.5938 L281.9888,73.5938 L271.9888,63.5938 " fill="#FEFFDD" style="stroke:#181818;stroke-width:0.5;"/><text fill="#000000" font-family="sans-serif" font-size="13" lengthAdjust="spacing" textLength="173.5132" x="93.4756" y="80.6606">throws java.io.IOException</text><ellipse cx="311.9888" cy="76.1602" fill="#222222" rx="10" ry="10" style="stroke:#222222;stroke-width:1.0;"/><rect fill="#F1F1F1" height="33.9688" rx="12.5" ry="12.5" style="stroke:#181818;stroke-width:0.5;" width="151.6719" x="236.1528" y="108.7266"/><text fill="#000000" font-family="sans-serif" font-size="12" lengthAdjust="spacing" textLength="131.6719" x="246.1528" y="129.8652">char ch, answer = 'K';</text><polygon fill="#F1F1F1" points="186.6411,162.6953,437.3364,162.6953,447.3364,186.6641,437.3364,210.6328,186.6411,210.6328" style="stroke:#181818;stroke-width:0.5;"/><text fill="#000000" font-family="sans-serif" font-size="12" lengthAdjust="spacing" textLength="226.8809" x="196.6411" y="183.834">System.out.println("I am thinking of a</text><text fill="#000000" font-family="sans-serif" font-size="12" lengthAdjust="spacing" textLength="156.6563" x="196.6411" y="197.8027">letter between A and Z.");</text><polygon fill="#F1F1F1" points="182.5513,230.6328,441.4263,230.6328,451.4263,247.6172,441.4263,264.6016,182.5513,264.6016" style="stroke:#181818;stroke-width:0.5;"/><text fill="#000000" font-family="sans-serif" font-size="12" lengthAdjust="spacing" textLength="238.875" x="192.5513" y="251.7715">System.out.print("Can you guess it?: ");</text><path d="M52.0806,281.4531 L52.0806,321.7188 A0,0 0 0 0 52.0806,321.7188 L194.2065,321.7188 A0,0 0 0 0 194.2065,321.7188 L194.2065,305.5859 L214.2065,301.5859 L194.2065,297.5859 L194.2065,291.4531 L184.2065,281.4531 L52.0806,281.4531 A0,0 0 0 0 52.0806,281.4531 " fill="#FEFFDD" style="stroke:#181818;stroke-width:0.5;"/><path d="M184.2065,281.4531 L184.2065,291.4531 L194.2065,291.4531 L184.2065,281.4531 " fill="#FEFFDD" style="stroke:#181818;stroke-width:0.5;"/><text fill="#000000" font-family="sans-serif" font-size="13" lengthAdjust="spacing" textLength="108.0435" x="58.0806" y="298.52">read a character</text><text fill="#000000" font-family="sans-serif" font-size="13" lengthAdjust="spacing" textLength="121.126" x="58.0806" y="313.6528">from the keyboard</text><polygon fill="#F1F1F1" points="214.2065,284.6016,419.771,284.6016,409.771,301.5859,419.771,318.5703,214.2065,318.5703" style="stroke:#181818;stroke-width:0.5;"/><text fill="#000000" font-family="sans-serif" font-size="12" lengthAdjust="spacing" textLength="175.5645" x="224.2065" y="305.7402">ch = (char) System.in.read();</text><polygon fill="#DEB887" points="257.7114,341.7188,366.2661,341.7188,378.2661,353.7188,366.2661,365.7188,257.7114,365.7188,245.7114,353.7188,257.7114,341.7188" style="stroke:#FFFF00;stroke-width:0.5;"/><text fill="#000000" font-family="sans-serif" font-size="14" font-weight="bold" lengthAdjust="spacing" textLength="108.5547" x="257.7114" y="358.5654">ch == answer</text><text fill="#008000" font-family="sans-serif" font-size="11" lengthAdjust="spacing" textLength="22.5747" x="223.1367" y="351.1245">true</text><text fill="#FF0000" font-family="sans-serif" font-size="11" lengthAdjust="spacing" textLength="26.168" x="378.2661" y="351.1245">false</text><polygon fill="#F1F1F1" points="20,375.7188,238.8379,375.7188,248.8379,392.7031,238.8379,409.6875,20,409.6875" style="stroke:#181818;stroke-width:0.5;"/><text fill="#000000" font-family="sans-serif" font-size="12" lengthAdjust="spacing" textLength="198.8379" x="30" y="396.8574">System.out.println("** Right **");</text><polygon fill="#F1F1F1" points="375.9844,375.7188,613.1328,375.7188,623.1328,392.7031,613.1328,409.6875,375.9844,409.6875" style="stroke:#181818;stroke-width:0.5;"/><text fill="#000000" font-family="sans-serif" font-size="12" lengthAdjust="spacing" textLength="217.1484" x="385.9844" y="396.8574">System.out.print("...Sorry, you're ");</text><path d="M344.3696,419.6875 L344.3696,444.8203 L434.1465,444.8203 L434.1465,429.6875 L424.1465,419.6875 L344.3696,419.6875 " fill="#FEFFDD" style="stroke:#181818;stroke-width:0.5;"/><path d="M424.1465,419.6875 L424.1465,429.6875 L434.1465,429.6875 L424.1465,419.6875 " fill="#FEFFDD" style="stroke:#181818;stroke-width:0.5;"/><text fill="#000000" font-family="sans-serif" font-size="13" lengthAdjust="spacing" textLength="68.7769" x="350.3696" y="436.7544">a nested if</text><polygon fill="#DEB887" points="446.1465,444.8203,542.9707,444.8203,554.9707,456.8203,542.9707,468.8203,446.1465,468.8203,434.1465,456.8203,446.1465,444.8203" style="stroke:#FFFF00;stroke-width:0.5;"/><text fill="#000000" font-family="sans-serif" font-size="14" font-weight="bold" lengthAdjust="spacing" textLength="96.8242" x="446.1465" y="461.667">ch &lt; answer</text><text fill="#008000" font-family="sans-serif" font-size="11" lengthAdjust="spacing" textLength="22.5747" x="411.5718" y="454.2261">true</text><text fill="#FF0000" font-family="sans-serif" font-size="11" lengthAdjust="spacing" textLength="26.168" x="554.9707" y="454.2261">false</text><polygon fill="#F1F1F1" points="278.8379,478.8203,478.1406,478.8203,488.1406,495.8047,478.1406,512.7891,278.8379,512.7891" style="stroke:#181818;stroke-width:0.5;"/><text fill="#000000" font-family="sans-serif" font-size="12" lengthAdjust="spacing" textLength="179.3027" x="288.8379" y="499.959">System.out.println("too low");</text><polygon fill="#F1F1F1" points="508.1406,478.8203,713.1152,478.8203,723.1152,495.8047,713.1152,512.7891,508.1406,512.7891" style="stroke:#181818;stroke-width:0.5;"/><text fill="#000000" font-family="sans-serif" font-size="12" lengthAdjust="spacing" textLength="184.9746" x="518.1406" y="499.959">System.out.println("too high");</text><polygon fill="#DEB887" points="494.5586,518.7891,506.5586,530.7891,494.5586,542.7891,482.5586,530.7891,494.5586,518.7891" style="stroke:#FFFF00;stroke-width:0.5;"/><polygon fill="#DEB887" points="311.9888,548.7891,323.9888,560.7891,311.9888,572.7891,299.9888,560.7891,311.9888,548.7891" style="stroke:#FFFF00;stroke-width:0.5;"/><ellipse cx="311.9888" cy="603.7891" fill="none" rx="11" ry="11" style="stroke:#222222;stroke-width:1.0;"/><ellipse cx="311.9888" cy="603.7891" fill="#222222" rx="6" ry="6" style="stroke:#222222;stroke-width:1.0;"/><line style="stroke:#181818;stroke-width:1.0;" x1="311.9888" x2="311.9888" y1="86.1602" y2="108.7266"/><polygon fill="#181818" points="307.9888,98.7266,311.9888,108.7266,315.9888,98.7266,311.9888,102.7266" style="stroke:#181818;stroke-width:1.0;"/><line style="stroke:#181818;stroke-width:1.0;" x1="311.9888" x2="311.9888" y1="142.6953" y2="162.6953"/><polygon fill="#181818" points="307.9888,152.6953,311.9888,162.6953,315.9888,152.6953,311.9888,156.6953" style="stroke:#181818;stroke-width:1.0;"/><line style="stroke:#181818;stroke-width:1.0;" x1="311.9888" x2="311.9888" y1="210.6328" y2="230.6328"/><polygon fill="#181818" points="307.9888,220.6328,311.9888,230.6328,315.9888,220.6328,311.9888,224.6328" style="stroke:#181818;stroke-width:1.0;"/><line style="stroke:#181818;stroke-width:1.0;" x1="311.9888" x2="311.9888" y1="264.6016" y2="284.6016"/><polygon fill="#181818" points="307.9888,274.6016,311.9888,284.6016,315.9888,274.6016,311.9888,278.6016" style="stroke:#181818;stroke-width:1.0;"/><line style="stroke:#181818;stroke-width:1.0;" x1="434.1465" x2="378.4893" y1="456.8203" y2="456.8203"/><line style="stroke:#181818;stroke-width:1.0;" x1="378.4893" x2="378.4893" y1="456.8203" y2="478.8203"/><polygon fill="#181818" points="374.4893,468.8203,378.4893,478.8203,382.4893,468.8203,378.4893,472.8203" style="stroke:#181818;stroke-width:1.0;"/><line style="stroke:#181818;stroke-width:1.0;" x1="554.9707" x2="610.6279" y1="456.8203" y2="456.8203"/><line style="stroke:#181818;stroke-width:1.0;" x1="610.6279" x2="610.6279" y1="456.8203" y2="478.8203"/><polygon fill="#181818" points="606.6279,468.8203,610.6279,478.8203,614.6279,468.8203,610.6279,472.8203" style="stroke:#181818;stroke-width:1.0;"/><line style="stroke:#181818;stroke-width:1.0;" x1="378.4893" x2="378.4893" y1="512.7891" y2="530.7891"/><line style="stroke:#181818;stroke-width:1.0;" x1="378.4893" x2="482.5586" y1="530.7891" y2="530.7891"/><polygon fill="#181818" points="472.5586,526.7891,482.5586,530.7891,472.5586,534.7891,476.5586,530.7891" style="stroke:#181818;stroke-width:1.0;"/><line style="stroke:#181818;stroke-width:1.0;" x1="610.6279" x2="610.6279" y1="512.7891" y2="530.7891"/><line style="stroke:#181818;stroke-width:1.0;" x1="610.6279" x2="506.5586" y1="530.7891" y2="530.7891"/><polygon fill="#181818" points="516.5586,526.7891,506.5586,530.7891,516.5586,534.7891,512.5586,530.7891" style="stroke:#181818;stroke-width:1.0;"/><line style="stroke:#181818;stroke-width:1.0;" x1="494.5586" x2="494.5586" y1="409.6875" y2="444.8203"/><polygon fill="#181818" points="490.5586,434.8203,494.5586,444.8203,498.5586,434.8203,494.5586,438.8203" style="stroke:#181818;stroke-width:1.0;"/><line style="stroke:#181818;stroke-width:1.0;" x1="245.7114" x2="129.4189" y1="353.7188" y2="353.7188"/><line style="stroke:#181818;stroke-width:1.0;" x1="129.4189" x2="129.4189" y1="353.7188" y2="375.7188"/><polygon fill="#181818" points="125.4189,365.7188,129.4189,375.7188,133.4189,365.7188,129.4189,369.7188" style="stroke:#181818;stroke-width:1.0;"/><line style="stroke:#181818;stroke-width:1.0;" x1="378.2661" x2="494.5586" y1="353.7188" y2="353.7188"/><line style="stroke:#181818;stroke-width:1.0;" x1="494.5586" x2="494.5586" y1="353.7188" y2="375.7188"/><polygon fill="#181818" points="490.5586,365.7188,494.5586,375.7188,498.5586,365.7188,494.5586,369.7188" style="stroke:#181818;stroke-width:1.0;"/><line style="stroke:#181818;stroke-width:1.0;" x1="129.4189" x2="129.4189" y1="409.6875" y2="560.7891"/><line style="stroke:#181818;stroke-width:1.0;" x1="129.4189" x2="299.9888" y1="560.7891" y2="560.7891"/><polygon fill="#181818" points="289.9888,556.7891,299.9888,560.7891,289.9888,564.7891,293.9888,560.7891" style="stroke:#181818;stroke-width:1.0;"/><line style="stroke:#181818;stroke-width:1.0;" x1="494.5586" x2="494.5586" y1="542.7891" y2="560.7891"/><line style="stroke:#181818;stroke-width:1.0;" x1="494.5586" x2="323.9888" y1="560.7891" y2="560.7891"/><polygon fill="#181818" points="333.9888,556.7891,323.9888,560.7891,333.9888,564.7891,329.9888,560.7891" style="stroke:#181818;stroke-width:1.0;"/><line style="stroke:#181818;stroke-width:1.0;" x1="311.9888" x2="311.9888" y1="318.5703" y2="341.7188"/><polygon fill="#181818" points="307.9888,331.7188,311.9888,341.7188,315.9888,331.7188,311.9888,335.7188" style="stroke:#181818;stroke-width:1.0;"/><line style="stroke:#181818;stroke-width:1.0;" x1="311.9888" x2="311.9888" y1="572.7891" y2="592.7891"/><polygon fill="#181818" points="307.9888,582.7891,311.9888,592.7891,315.9888,582.7891,311.9888,586.7891" style="stroke:#181818;stroke-width:1.0;"/><!--SRC=[ZPB1RjD048RlVefHECIkAaTjuP8uHgK2L864H6webuqzjfVOCz5wN6CGF3kpSPJI9gsOWxNUcV_VRsOtQMMeCGr0upeJUszbW5-xNnyVc6HbVo9SN1xsSciQfloVAX-VBU4Dr-nWmBhc_b7odSasfUEEyh5atRbww9dpHrKFXxq-tlUOiERwGV8x6B_9RD-3MD6QGnVAMJhJ01TmHqcX9a2cmQN2Sxir6QP9jgDvzURYwdADwSSEs_OgReobC4fcksIQpBmoXGQbKjwW5UCa81Q4EKZbk6_XkxatiUNuzilx7nbknJ85mJohZ8EiEWT3ROyEbZ3zD5qiDBCQMi4cvaxYhRCaDOMJMr1KgInjB9MUsIXrZIAgNAFqY0JNQfN3jtWIBHQG9AhVTfAcnuRXvCOG3Dn1wNi2As_dy5Jb2HKgz9mHx2qinGvD7ewrbiRIVRi-ernUO38FTaU5Ou-DiC5XpSRfX6mHUkFblk_8fmd2STZpqcadgRWEeztzdHp6dxCp-6hBIa1NJxcnRl5Wvp1F2wCxpxY5apYEL-pSSExdCNLuD0Ul6vcJ_qD-5bkOGP_-gGDUWdxHhz8nd3Iat1QxrVvo312gHQwz16DItofl_m80]--></g></svg>