<svg xmlns="http://www.w3.org/2000/svg" xmlns:xlink="http://www.w3.org/1999/xlink" contentStyleType="text/css" height="506px" preserveAspectRatio="none" style="width:515px;height:506px;background:#FFFFFF;" version="1.1" viewBox="0 0 515 506" width="515px" zoomAndPan="magnify"><title>Activity diagram of </title><defs/><g><text fill="#000000" font-family="sans-serif" font-size="14" font-weight="bold" lengthAdjust="spacing" textLength="151.0537" x="178.4819" y="32.9951">Activity diagram of</text><text fill="#5132BE" font-family="name=monospace" font-size="14" font-weight="bold" lengthAdjust="spacing" textLength="114.2764" x="166.6797" y="49.292">Guess2.main()</text><text fill="#000000" font-family="sans-serif" font-size="14" font-weight="bold" lengthAdjust="spacing" textLength="60.3818" x="285.8301" y="49.292">method</text><path d="M45.395,63.5938 L45.395,88.7266 A0,0 0 0 0 45.395,88.7266 L239.9082,88.7266 A0,0 0 0 0 239.9082,88.7266 L239.9082,81.5938 L259.9082,76.1602 L239.9082,73.5938 L239.9082,73.5938 L229.9082,63.5938 L45.395,63.5938 A0,0 0 0 0 45.395,63.5938 " fill="#FEFFDD" style="stroke:#181818;stroke-width:0.5;"/><path d="M229.9082,63.5938 L229.9082,73.5938 L239.9082,73.5938 L229.9082,63.5938 " fill="#FEFFDD" style="stroke:#181818;stroke-width:0.5;"/><text fill="#000000" font-family="sans-serif" font-size="13" lengthAdjust="spacing" textLength="173.5132" x="51.395" y="80.6606">throws java.io.IOException</text><ellipse cx="269.9082" cy="76.1602" fill="#222222" rx="10" ry="10" style="stroke:#222222;stroke-width:1.0;"/><rect fill="#F1F1F1" height="33.9688" rx="12.5" ry="12.5" style="stroke:#181818;stroke-width:0.5;" width="151.6719" x="194.0723" y="108.7266"/><text fill="#000000" font-family="sans-serif" font-size="12" lengthAdjust="spacing" textLength="131.6719" x="204.0723" y="129.8652">char ch, answer = 'K';</text><polygon fill="#F1F1F1" points="144.5605,162.6953,395.2559,162.6953,405.2559,186.6641,395.2559,210.6328,144.5605,210.6328" style="stroke:#181818;stroke-width:0.5;"/><text fill="#000000" font-family="sans-serif" font-size="12" lengthAdjust="spacing" textLength="226.8809" x="154.5605" y="183.834">System.out.println("I am thinking of a</text><text fill="#000000" font-family="sans-serif" font-size="12" lengthAdjust="spacing" textLength="156.6563" x="154.5605" y="197.8027">letter between A and Z.");</text><polygon fill="#F1F1F1" points="140.4707,230.6328,399.3457,230.6328,409.3457,247.6172,399.3457,264.6016,140.4707,264.6016" style="stroke:#181818;stroke-width:0.5;"/><text fill="#000000" font-family="sans-serif" font-size="12" lengthAdjust="spacing" textLength="238.875" x="150.4707" y="251.7715">System.out.print("Can you guess it?: ");</text><path d="M10,281.4531 L10,321.7188 A0,0 0 0 0 10,321.7188 L152.126,321.7188 A0,0 0 0 0 152.126,321.7188 L152.126,305.5859 L172.126,301.5859 L152.126,297.5859 L152.126,291.4531 L142.126,281.4531 L10,281.4531 A0,0 0 0 0 10,281.4531 " fill="#FEFFDD" style="stroke:#181818;stroke-width:0.5;"/><path d="M142.126,281.4531 L142.126,291.4531 L152.126,291.4531 L142.126,281.4531 " fill="#FEFFDD" style="stroke:#181818;stroke-width:0.5;"/><text fill="#000000" font-family="sans-serif" font-size="13" lengthAdjust="spacing" textLength="108.0435" x="16" y="298.52">read a character</text><text fill="#000000" font-family="sans-serif" font-size="13" lengthAdjust="spacing" textLength="121.126" x="16" y="313.6528">from the keyboard</text><polygon fill="#F1F1F1" points="172.126,284.6016,377.6904,284.6016,367.6904,301.5859,377.6904,318.5703,172.126,318.5703" style="stroke:#181818;stroke-width:0.5;"/><text fill="#000000" font-family="sans-serif" font-size="12" lengthAdjust="spacing" textLength="175.5645" x="182.126" y="305.7402">ch = (char) System.in.read();</text><polygon fill="#DEB887" points="215.6309,341.7188,324.1855,341.7188,336.1855,353.7188,324.1855,365.7188,215.6309,365.7188,203.6309,353.7188,215.6309,341.7188" style="stroke:#FFFF00;stroke-width:0.5;"/><text fill="#000000" font-family="sans-serif" font-size="14" font-weight="bold" lengthAdjust="spacing" textLength="108.5547" x="215.6309" y="358.5654">ch == answer</text><text fill="#008000" font-family="sans-serif" font-size="11" lengthAdjust="spacing" textLength="22.5747" x="181.0562" y="351.1245">true</text><text fill="#FF0000" font-family="sans-serif" font-size="11" lengthAdjust="spacing" textLength="26.168" x="336.1855" y="351.1245">false</text><polygon fill="#F1F1F1" points="42.6885,375.7188,261.5264,375.7188,271.5264,392.7031,261.5264,409.6875,42.6885,409.6875" style="stroke:#181818;stroke-width:0.5;"/><text fill="#000000" font-family="sans-serif" font-size="12" lengthAdjust="spacing" textLength="198.8379" x="52.6885" y="396.8574">System.out.println("** Right **");</text><polygon fill="#F1F1F1" points="291.5264,375.7188,483.8916,375.7188,493.8916,399.6875,483.8916,423.6563,291.5264,423.6563" style="stroke:#181818;stroke-width:0.5;"/><text fill="#000000" font-family="sans-serif" font-size="12" lengthAdjust="spacing" textLength="168.5508" x="301.5264" y="396.8574">System.out.println("...Sorry,</text><text fill="#000000" font-family="sans-serif" font-size="12" lengthAdjust="spacing" textLength="96.8496" x="301.5264" y="410.8262">you're wrong.");</text><polygon fill="#DEB887" points="269.9082,429.6563,281.9082,441.6563,269.9082,453.6563,257.9082,441.6563,269.9082,429.6563" style="stroke:#FFFF00;stroke-width:0.5;"/><ellipse cx="269.9082" cy="484.6563" fill="none" rx="11" ry="11" style="stroke:#222222;stroke-width:1.0;"/><ellipse cx="269.9082" cy="484.6563" fill="#222222" rx="6" ry="6" style="stroke:#222222;stroke-width:1.0;"/><line style="stroke:#181818;stroke-width:1.0;" x1="269.9082" x2="269.9082" y1="86.1602" y2="108.7266"/><polygon fill="#181818" points="265.9082,98.7266,269.9082,108.7266,273.9082,98.7266,269.9082,102.7266" style="stroke:#181818;stroke-width:1.0;"/><line style="stroke:#181818;stroke-width:1.0;" x1="269.9082" x2="269.9082" y1="142.6953" y2="162.6953"/><polygon fill="#181818" points="265.9082,152.6953,269.9082,162.6953,273.9082,152.6953,269.9082,156.6953" style="stroke:#181818;stroke-width:1.0;"/><line style="stroke:#181818;stroke-width:1.0;" x1="269.9082" x2="269.9082" y1="210.6328" y2="230.6328"/><polygon fill="#181818" points="265.9082,220.6328,269.9082,230.6328,273.9082,220.6328,269.9082,224.6328" style="stroke:#181818;stroke-width:1.0;"/><line style="stroke:#181818;stroke-width:1.0;" x1="269.9082" x2="269.9082" y1="264.6016" y2="284.6016"/><polygon fill="#181818" points="265.9082,274.6016,269.9082,284.6016,273.9082,274.6016,269.9082,278.6016" style="stroke:#181818;stroke-width:1.0;"/><line style="stroke:#181818;stroke-width:1.0;" x1="203.6309" x2="152.1074" y1="353.7188" y2="353.7188"/><line style="stroke:#181818;stroke-width:1.0;" x1="152.1074" x2="152.1074" y1="353.7188" y2="375.7188"/><polygon fill="#181818" points="148.1074,365.7188,152.1074,375.7188,156.1074,365.7188,152.1074,369.7188" style="stroke:#181818;stroke-width:1.0;"/><line style="stroke:#181818;stroke-width:1.0;" x1="336.1855" x2="387.709" y1="353.7188" y2="353.7188"/><line style="stroke:#181818;stroke-width:1.0;" x1="387.709" x2="387.709" y1="353.7188" y2="375.7188"/><polygon fill="#181818" points="383.709,365.7188,387.709,375.7188,391.709,365.7188,387.709,369.7188" style="stroke:#181818;stroke-width:1.0;"/><line style="stroke:#181818;stroke-width:1.0;" x1="152.1074" x2="152.1074" y1="409.6875" y2="441.6563"/><line style="stroke:#181818;stroke-width:1.0;" x1="152.1074" x2="257.9082" y1="441.6563" y2="441.6563"/><polygon fill="#181818" points="247.9082,437.6563,257.9082,441.6563,247.9082,445.6563,251.9082,441.6563" style="stroke:#181818;stroke-width:1.0;"/><line style="stroke:#181818;stroke-width:1.0;" x1="387.709" x2="387.709" y1="423.6563" y2="441.6563"/><line style="stroke:#181818;stroke-width:1.0;" x1="387.709" x2="281.9082" y1="441.6563" y2="441.6563"/><polygon fill="#181818" points="291.9082,437.6563,281.9082,441.6563,291.9082,445.6563,287.9082,441.6563" style="stroke:#181818;stroke-width:1.0;"/><line style="stroke:#181818;stroke-width:1.0;" x1="269.9082" x2="269.9082" y1="318.5703" y2="341.7188"/><polygon fill="#181818" points="265.9082,331.7188,269.9082,341.7188,273.9082,331.7188,269.9082,335.7188" style="stroke:#181818;stroke-width:1.0;"/><line style="stroke:#181818;stroke-width:1.0;" x1="269.9082" x2="269.9082" y1="453.6563" y2="473.6563"/><polygon fill="#181818" points="265.9082,463.6563,269.9082,473.6563,273.9082,463.6563,269.9082,467.6563" style="stroke:#181818;stroke-width:1.0;"/><!--SRC=[VP5FRvj04CNlV8gHUp144LRSzc9ZgZHggwYLAjMtAfSr3B0rpA1b2ALL-zaxQopdZwFk0S7CUu_Vp2QTZ3Mc0UYvpiJUMndXz-7JduzCihM_4AwMfrfkJSEKFrBvyyKItd3D3aQiQnwUDD-RR5ywxYcV9BlUrUF0d3zHFVpipNdTOyAEwmVBds1w9elZ3695DQSfbBDqfW4ku8wIGaE0J8CRXUUkDHccINQWUVNswlLoX-cd7hjk6JV6KXWbYqCpJHRUcKA3KYblq8bn4X0BmWgaSZnqyCFSczXoVFlrmyyCMx5CGR3AAkCWgox1K3UWWmtCFy_NQ-rinqwmYRcNk7MMfAPmTWkAAfMblQNICnkbhb54dJkK0P7WMgDo-1xFelKQaaJzRIzfUXuOpcuCmSWzb7uciF9k1SzTdb2XGiyPmJ72KkpGvE6ajJH9Z-FwZd9vWyays1qLZZqsmXx77Hkd6x95w8CtnxaZtoO8fsMlIgUJfE9wZ0xtz-8o_bvSm3TRLWBwzfmRwmvFSGxpj31Q-KzQ7CTRTcwyL5xToTmX38wfFDiZKcuBVyNS_WC0]--></g></svg>