<svg xmlns="http://www.w3.org/2000/svg" xmlns:xlink="http://www.w3.org/1999/xlink" contentStyleType="text/css" height="521px" preserveAspectRatio="none" style="width:457px;height:521px;background:#FFFFFF;" version="1.1" viewBox="0 0 457 521" width="457px" zoomAndPan="magnify"><title>Activity diagram of </title><defs/><g><text fill="#000000" font-family="sans-serif" font-size="14" font-weight="bold" lengthAdjust="spacing" textLength="151.0537" x="149.0693" y="32.9951">Activity diagram of</text><text fill="#5132BE" font-family="name=monospace" font-size="14" font-weight="bold" lengthAdjust="spacing" textLength="104.5352" x="142.1377" y="49.292">Guess.main()</text><text fill="#000000" font-family="sans-serif" font-size="14" font-weight="bold" lengthAdjust="spacing" textLength="60.3818" x="251.5469" y="49.292">method</text><path d="M71.1157,63.5938 L71.1157,88.7266 A0,0 0 0 0 71.1157,88.7266 L265.6289,88.7266 A0,0 0 0 0 265.6289,88.7266 L265.6289,81.5938 L285.6289,76.1602 L265.6289,73.5938 L265.6289,73.5938 L255.6289,63.5938 L71.1157,63.5938 A0,0 0 0 0 71.1157,63.5938 " fill="#FEFFDD" style="stroke:#181818;stroke-width:0.5;"/><path d="M255.6289,63.5938 L255.6289,73.5938 L265.6289,73.5938 L255.6289,63.5938 " fill="#FEFFDD" style="stroke:#181818;stroke-width:0.5;"/><text fill="#000000" font-family="sans-serif" font-size="13" lengthAdjust="spacing" textLength="173.5132" x="77.1157" y="80.6606">throws java.io.IOException</text><ellipse cx="295.6289" cy="76.1602" fill="#222222" rx="10" ry="10" style="stroke:#222222;stroke-width:1.0;"/><polygon fill="#F1F1F1" points="219.793,108.7266,371.4648,108.7266,381.4648,125.7109,371.4648,142.6953,219.793,142.6953" style="stroke:#181818;stroke-width:0.5;"/><text fill="#000000" font-family="sans-serif" font-size="12" lengthAdjust="spacing" textLength="131.6719" x="229.793" y="129.8652">char ch, answer = 'K';</text><polygon fill="#F1F1F1" points="170.2813,162.6953,420.9766,162.6953,430.9766,186.6641,420.9766,210.6328,170.2813,210.6328" style="stroke:#181818;stroke-width:0.5;"/><text fill="#000000" font-family="sans-serif" font-size="12" lengthAdjust="spacing" textLength="226.8809" x="180.2813" y="183.834">System.out.println("I am thinking of a</text><text fill="#000000" font-family="sans-serif" font-size="12" lengthAdjust="spacing" textLength="156.6563" x="180.2813" y="197.8027">letter between A and Z.");</text><polygon fill="#F1F1F1" points="166.1914,230.6328,425.0664,230.6328,435.0664,247.6172,425.0664,264.6016,166.1914,264.6016" style="stroke:#181818;stroke-width:0.5;"/><text fill="#000000" font-family="sans-serif" font-size="12" lengthAdjust="spacing" textLength="238.875" x="176.1914" y="251.7715">System.out.print("Can you guess it?: ");</text><path d="M10,281.4531 L10,321.7188 A0,0 0 0 0 10,321.7188 L177.8467,321.7188 A0,0 0 0 0 177.8467,321.7188 L177.8467,305.5859 L197.8467,301.5859 L177.8467,297.5859 L177.8467,291.4531 L167.8467,281.4531 L10,281.4531 A0,0 0 0 0 10,281.4531 " fill="#FEFFDD" style="stroke:#181818;stroke-width:0.5;"/><path d="M167.8467,281.4531 L167.8467,291.4531 L177.8467,291.4531 L167.8467,281.4531 " fill="#FEFFDD" style="stroke:#181818;stroke-width:0.5;"/><text fill="#000000" font-family="sans-serif" font-size="13" lengthAdjust="spacing" textLength="142.7144" x="16" y="298.52">read a character from</text><text fill="#000000" font-family="sans-serif" font-size="13" lengthAdjust="spacing" textLength="86.4551" x="16" y="313.6528">the keyboard</text><polygon fill="#F1F1F1" points="197.8467,284.6016,403.4111,284.6016,393.4111,301.5859,403.4111,318.5703,197.8467,318.5703" style="stroke:#181818;stroke-width:0.5;"/><text fill="#000000" font-family="sans-serif" font-size="12" lengthAdjust="spacing" textLength="175.5645" x="207.8467" y="305.7402">ch = (char) System.in.read();</text><polygon fill="#F1F1F1" points="186.21,390.1211,405.0479,390.1211,415.0479,407.1055,405.0479,424.0898,186.21,424.0898" style="stroke:#181818;stroke-width:0.5;"/><text fill="#000000" font-family="sans-serif" font-size="12" lengthAdjust="spacing" textLength="198.8379" x="196.21" y="411.2598">System.out.println("** Right **");</text><polygon fill="#DEB887" points="241.3516,341.7188,349.9063,341.7188,361.9063,353.7188,349.9063,365.7188,241.3516,365.7188,229.3516,353.7188,241.3516,341.7188" style="stroke:#FFFF00;stroke-width:0.5;"/><text fill="#008000" font-family="sans-serif" font-size="11" lengthAdjust="spacing" textLength="22.5747" x="299.6289" y="375.9292">true</text><text fill="#000000" font-family="sans-serif" font-size="14" font-weight="bold" lengthAdjust="spacing" textLength="108.5547" x="241.3516" y="358.5654">ch == answer</text><polygon fill="#DEB887" points="295.6289,444.0898,307.6289,456.0898,295.6289,468.0898,283.6289,456.0898,295.6289,444.0898" style="stroke:#FFFF00;stroke-width:0.5;"/><ellipse cx="295.6289" cy="499.0898" fill="none" rx="11" ry="11" style="stroke:#222222;stroke-width:1.0;"/><ellipse cx="295.6289" cy="499.0898" fill="#222222" rx="6" ry="6" style="stroke:#222222;stroke-width:1.0;"/><line style="stroke:#181818;stroke-width:1.0;" x1="295.6289" x2="295.6289" y1="86.1602" y2="108.7266"/><polygon fill="#181818" points="291.6289,98.7266,295.6289,108.7266,299.6289,98.7266,295.6289,102.7266" style="stroke:#181818;stroke-width:1.0;"/><line style="stroke:#181818;stroke-width:1.0;" x1="295.6289" x2="295.6289" y1="142.6953" y2="162.6953"/><polygon fill="#181818" points="291.6289,152.6953,295.6289,162.6953,299.6289,152.6953,295.6289,156.6953" style="stroke:#181818;stroke-width:1.0;"/><line style="stroke:#181818;stroke-width:1.0;" x1="295.6289" x2="295.6289" y1="210.6328" y2="230.6328"/><polygon fill="#181818" points="291.6289,220.6328,295.6289,230.6328,299.6289,220.6328,295.6289,224.6328" style="stroke:#181818;stroke-width:1.0;"/><line style="stroke:#181818;stroke-width:1.0;" x1="295.6289" x2="295.6289" y1="264.6016" y2="284.6016"/><polygon fill="#181818" points="291.6289,274.6016,295.6289,284.6016,299.6289,274.6016,295.6289,278.6016" style="stroke:#181818;stroke-width:1.0;"/><line style="stroke:#181818;stroke-width:1.0;" x1="295.6289" x2="295.6289" y1="365.7188" y2="390.1211"/><polygon fill="#181818" points="291.6289,380.1211,295.6289,390.1211,299.6289,380.1211,295.6289,384.1211" style="stroke:#181818;stroke-width:1.0;"/><line style="stroke:#181818;stroke-width:1.0;" x1="361.9063" x2="425.0479" y1="353.7188" y2="353.7188"/><polygon fill="#181818" points="421.0479,397.1055,425.0479,407.1055,429.0479,397.1055,425.0479,401.1055" style="stroke:#181818;stroke-width:1.0;"/><line style="stroke:#181818;stroke-width:1.0;" x1="425.0479" x2="425.0479" y1="353.7188" y2="456.0898"/><line style="stroke:#181818;stroke-width:1.0;" x1="425.0479" x2="307.6289" y1="456.0898" y2="456.0898"/><polygon fill="#181818" points="317.6289,452.0898,307.6289,456.0898,317.6289,460.0898,313.6289,456.0898" style="stroke:#181818;stroke-width:1.0;"/><line style="stroke:#181818;stroke-width:1.0;" x1="295.6289" x2="295.6289" y1="424.0898" y2="444.0898"/><polygon fill="#181818" points="291.6289,434.0898,295.6289,444.0898,299.6289,434.0898,295.6289,438.0898" style="stroke:#181818;stroke-width:1.0;"/><line style="stroke:#181818;stroke-width:1.0;" x1="295.6289" x2="295.6289" y1="318.5703" y2="341.7188"/><polygon fill="#181818" points="291.6289,331.7188,295.6289,341.7188,299.6289,331.7188,295.6289,335.7188" style="stroke:#181818;stroke-width:1.0;"/><line style="stroke:#181818;stroke-width:1.0;" x1="295.6289" x2="295.6289" y1="468.0898" y2="488.0898"/><polygon fill="#181818" points="291.6289,478.0898,295.6289,488.0898,299.6289,478.0898,295.6289,482.0898" style="stroke:#181818;stroke-width:1.0;"/><!--SRC=[RP51Rvn038Nl_0fhUmX45QkaxOMmL4cKLb4hHMfkLIu369Wks6WmeRHgVdiyoohf9fa30llvyJrFEiZSOXQ0dlD2xBsL6VxkFltvmYItzW_2oUbJhRIcOoh_K_dptH9USiiEPcnRdWwQ5wROrev7AXT9FhfsdfZB0zNpppw-hdjCoBbz7laNBCzqlSyWLbJpb48vQsSwu0hkAAtK1CXqk55u7dfJO9OMEvftdqu-dEQOVHrn6EBEM0gZTBthPUdQ3sRGeJIA6mnYd0J4Wf20D8wd0NwPUnDRZgzlhduNs8jb2fAYCGwAvZqO6YPqi86ZRqTdPv2cF4e_IfO5GN8x3u9Th9MuTvQafN1r3SeiZQMjfTh36yLlKKHDSfG9aU1SNKlu6Q-YGyTNXk7gqX3CF4Bjmu6LpmcydFAmoXTwv0Zs5fPYXwOC5wsbHReFxZlAvGTCuS4gnvrYIeEmnJbdutHNjWgzyMQ_WaXJANkuR3sfdIR9n8qOxIxopMKy71_33rit0lhsaXkfj9M_4kuV0G00]--></g></svg>