<svg xmlns="http://www.w3.org/2000/svg" xmlns:xlink="http://www.w3.org/1999/xlink" contentStyleType="text/css" height="1051px" preserveAspectRatio="none" style="width:767px;height:1051px;background:#FFFFFF;" version="1.1" viewBox="0 0 767 1051" width="767px" zoomAndPan="magnify"><title>Activity diagram of </title><defs/><g><text fill="#000000" font-family="sans-serif" font-size="14" font-weight="bold" lengthAdjust="spacing" textLength="151.0537" x="304.0938" y="32.9951">Activity diagram of</text><text fill="#5132BE" font-family="name=monospace" font-size="14" font-weight="bold" lengthAdjust="spacing" textLength="114.2764" x="292.2915" y="49.292">Guess4.main()</text><text fill="#000000" font-family="sans-serif" font-size="14" font-weight="bold" lengthAdjust="spacing" textLength="60.3818" x="411.4419" y="49.292">method</text><path d="M90.4756,63.5938 L90.4756,88.7266 A0,0 0 0 0 90.4756,88.7266 L284.9888,88.7266 A0,0 0 0 0 284.9888,88.7266 L284.9888,81.5938 L304.9888,76.1602 L284.9888,73.5938 L284.9888,73.5938 L274.9888,63.5938 L90.4756,63.5938 A0,0 0 0 0 90.4756,63.5938 " fill="#FEFFDD" style="stroke:#181818;stroke-width:0.5;"/><path d="M274.9888,63.5938 L274.9888,73.5938 L284.9888,73.5938 L274.9888,63.5938 " fill="#FEFFDD" style="stroke:#181818;stroke-width:0.5;"/><text fill="#000000" font-family="sans-serif" font-size="13" lengthAdjust="spacing" textLength="173.5132" x="96.4756" y="80.6606">throws java.io.IOException</text><ellipse cx="314.9888" cy="76.1602" fill="#222222" rx="10" ry="10" style="stroke:#222222;stroke-width:1.0;"/><rect fill="#F1F1F1" height="33.9688" rx="12.5" ry="12.5" style="stroke:#181818;stroke-width:0.5;" width="197.5156" x="216.231" y="108.7266"/><text fill="#000000" font-family="sans-serif" font-size="12" lengthAdjust="spacing" textLength="177.5156" x="226.231" y="129.8652">char ch, ignore, answer = 'K';</text><rect fill="#B9DDD0" height="846.1885" style="stroke:#000000;stroke-width:1.5;" width="745.1152" x="11" y="152.6953"/><path d="M114.5771,152.6953 L114.5771,161.9922 L104.5771,171.9922 L11,171.9922 " fill="none" style="stroke:#000000;stroke-width:1.5;"/><text fill="#000000" font-family="sans-serif" font-size="14" lengthAdjust="spacing" textLength="93.5771" x="14" y="166.6904">do-while loop</text><polygon fill="#F1F1F1" points="195.2251,232.9922,434.7524,232.9922,444.7524,256.9609,434.7524,280.9297,195.2251,280.9297" style="stroke:#181818;stroke-width:0.5;"/><text fill="#000000" font-family="sans-serif" font-size="12" lengthAdjust="spacing" textLength="215.7129" x="205.2251" y="254.1309">System.out.println("I am thinking of</text><text fill="#000000" font-family="sans-serif" font-size="12" lengthAdjust="spacing" textLength="167.8242" x="205.2251" y="268.0996">a letter between A and Z.");</text><polygon fill="#F1F1F1" points="185.5513,300.9297,444.4263,300.9297,454.4263,317.9141,444.4263,334.8984,185.5513,334.8984" style="stroke:#181818;stroke-width:0.5;"/><text fill="#000000" font-family="sans-serif" font-size="12" lengthAdjust="spacing" textLength="238.875" x="195.5513" y="322.0684">System.out.print("Can you guess it?: ");</text><path d="M55.0806,351.75 L55.0806,392.0156 A0,0 0 0 0 55.0806,392.0156 L197.2065,392.0156 A0,0 0 0 0 197.2065,392.0156 L197.2065,375.8828 L217.2065,371.8828 L197.2065,367.8828 L197.2065,361.75 L187.2065,351.75 L55.0806,351.75 A0,0 0 0 0 55.0806,351.75 " fill="#FEFFDD" style="stroke:#181818;stroke-width:0.5;"/><path d="M187.2065,351.75 L187.2065,361.75 L197.2065,361.75 L187.2065,351.75 " fill="#FEFFDD" style="stroke:#181818;stroke-width:0.5;"/><text fill="#000000" font-family="sans-serif" font-size="13" lengthAdjust="spacing" textLength="108.0435" x="61.0806" y="368.8169">read a character</text><text fill="#000000" font-family="sans-serif" font-size="13" lengthAdjust="spacing" textLength="121.126" x="61.0806" y="383.9497">from the keyboard</text><polygon fill="#F1F1F1" points="217.2065,354.8984,422.771,354.8984,412.771,371.8828,422.771,388.8672,217.2065,388.8672" style="stroke:#181818;stroke-width:0.5;"/><text fill="#000000" font-family="sans-serif" font-size="12" lengthAdjust="spacing" textLength="175.5645" x="227.2065" y="376.0371">ch = (char) System.in.read();</text><rect fill="#A3DFC9" height="193.9336" style="stroke:#000000;stroke-width:1.5;" width="273.5762" x="195.2007" y="429.645"/><path d="M298.7778,429.645 L298.7778,438.9419 L288.7778,448.9419 L195.2007,448.9419 " fill="none" style="stroke:#000000;stroke-width:1.5;"/><text fill="#000000" font-family="sans-serif" font-size="14" lengthAdjust="spacing" textLength="93.5771" x="198.2007" y="443.6401">do-while loop</text><polygon fill="#F1F1F1" points="205.2007,509.9419,434.7769,509.9419,424.7769,526.9263,434.7769,543.9106,205.2007,543.9106" style="stroke:#181818;stroke-width:0.5;"/><text fill="#000000" font-family="sans-serif" font-size="12" lengthAdjust="spacing" textLength="199.5762" x="215.2007" y="531.0806">ignore = (char) System.in.read();</text><polygon fill="#DEB887" points="314.9888,465.9419,326.9888,477.9419,314.9888,489.9419,302.9888,477.9419,314.9888,465.9419" style="stroke:#181818;stroke-width:0.5;"/><polygon fill="#DEB887" points="263.8286,579.5786,366.1489,579.5786,378.1489,591.5786,366.1489,603.5786,263.8286,603.5786,251.8286,591.5786,263.8286,579.5786" style="stroke:#181818;stroke-width:0.5;"/><text fill="#FF0000" font-family="sans-serif" font-size="11" lengthAdjust="spacing" textLength="26.168" x="318.9888" y="613.7891">false</text><text fill="#000000" font-family="sans-serif" font-size="14" font-weight="bold" lengthAdjust="spacing" textLength="102.3203" x="263.8286" y="596.4253">ignore != '\n'</text><text fill="#008000" font-family="sans-serif" font-size="11" lengthAdjust="spacing" textLength="22.5747" x="378.1489" y="588.9844">true</text><polygon fill="#DEB887" points="260.7114,643.5786,369.2661,643.5786,381.2661,655.5786,369.2661,667.5786,260.7114,667.5786,248.7114,655.5786,260.7114,643.5786" style="stroke:#181818;stroke-width:0.5;"/><text fill="#000000" font-family="sans-serif" font-size="14" font-weight="bold" lengthAdjust="spacing" textLength="108.5547" x="260.7114" y="660.4253">ch == answer</text><text fill="#008000" font-family="sans-serif" font-size="11" lengthAdjust="spacing" textLength="22.5747" x="226.1367" y="652.9844">true</text><text fill="#FF0000" font-family="sans-serif" font-size="11" lengthAdjust="spacing" textLength="26.168" x="381.2661" y="652.9844">false</text><polygon fill="#F1F1F1" points="23,677.5786,241.8379,677.5786,251.8379,694.563,241.8379,711.5474,23,711.5474" style="stroke:#181818;stroke-width:0.5;"/><text fill="#000000" font-family="sans-serif" font-size="12" lengthAdjust="spacing" textLength="198.8379" x="33" y="698.7173">System.out.println("** Right **");</text><polygon fill="#F1F1F1" points="378.9844,677.5786,616.1328,677.5786,626.1328,694.563,616.1328,711.5474,378.9844,711.5474" style="stroke:#181818;stroke-width:0.5;"/><text fill="#000000" font-family="sans-serif" font-size="12" lengthAdjust="spacing" textLength="217.1484" x="388.9844" y="698.7173">System.out.print("...Sorry, you're ");</text><polygon fill="#DEB887" points="449.1465,752.9463,545.9707,752.9463,557.9707,764.9463,545.9707,776.9463,449.1465,776.9463,437.1465,764.9463,449.1465,752.9463" style="stroke:#181818;stroke-width:0.5;"/><text fill="#000000" font-family="sans-serif" font-size="14" font-weight="bold" lengthAdjust="spacing" textLength="96.8242" x="449.1465" y="769.793">ch &lt; answer</text><text fill="#008000" font-family="sans-serif" font-size="11" lengthAdjust="spacing" textLength="22.5747" x="414.5718" y="762.3521">true</text><text fill="#FF0000" font-family="sans-serif" font-size="11" lengthAdjust="spacing" textLength="26.168" x="557.9707" y="762.3521">false</text><polygon fill="#F1F1F1" points="281.8379,786.9463,481.1406,786.9463,491.1406,803.9307,481.1406,820.915,281.8379,820.915" style="stroke:#181818;stroke-width:0.5;"/><text fill="#000000" font-family="sans-serif" font-size="12" lengthAdjust="spacing" textLength="179.3027" x="291.8379" y="808.085">System.out.println("too low");</text><polygon fill="#F1F1F1" points="511.1406,786.9463,716.1152,786.9463,726.1152,803.9307,716.1152,820.915,511.1406,820.915" style="stroke:#181818;stroke-width:0.5;"/><text fill="#000000" font-family="sans-serif" font-size="12" lengthAdjust="spacing" textLength="184.9746" x="521.1406" y="808.085">System.out.println("too high");</text><polygon fill="#DEB887" points="497.5586,826.915,509.5586,838.915,497.5586,850.915,485.5586,838.915,497.5586,826.915" style="stroke:#181818;stroke-width:0.5;"/><polygon fill="#F1F1F1" points="383.3027,870.915,611.8145,870.915,621.8145,887.8994,611.8145,904.8838,383.3027,904.8838" style="stroke:#181818;stroke-width:0.5;"/><text fill="#000000" font-family="sans-serif" font-size="12" lengthAdjust="spacing" textLength="208.5117" x="393.3027" y="892.0537">System.out.println("Try again!\n");</text><polygon fill="#DEB887" points="314.9888,910.8838,326.9888,922.8838,314.9888,934.8838,302.9888,922.8838,314.9888,910.8838" style="stroke:#181818;stroke-width:0.5;"/><polygon fill="#DEB887" points="314.9888,188.9922,326.9888,200.9922,314.9888,212.9922,302.9888,200.9922,314.9888,188.9922" style="stroke:#181818;stroke-width:0.5;"/><polygon fill="#DEB887" points="263.3843,954.8838,366.5933,954.8838,378.5933,966.8838,366.5933,978.8838,263.3843,978.8838,251.3843,966.8838,263.3843,954.8838" style="stroke:#181818;stroke-width:0.5;"/><text fill="#FF0000" font-family="sans-serif" font-size="11" lengthAdjust="spacing" textLength="26.168" x="318.9888" y="989.0942">false</text><text fill="#000000" font-family="sans-serif" font-size="14" font-weight="bold" lengthAdjust="spacing" textLength="103.209" x="263.3843" y="971.7305">answer != ch</text><text fill="#008000" font-family="sans-serif" font-size="11" lengthAdjust="spacing" textLength="22.5747" x="378.5933" y="964.2896">true</text><ellipse cx="314.9888" cy="1029.8838" fill="none" rx="11" ry="11" style="stroke:#222222;stroke-width:1.0;"/><ellipse cx="314.9888" cy="1029.8838" fill="#222222" rx="6" ry="6" style="stroke:#222222;stroke-width:1.0;"/><line style="stroke:#181818;stroke-width:1.0;" x1="314.9888" x2="314.9888" y1="86.1602" y2="108.7266"/><polygon fill="#181818" points="310.9888,98.7266,314.9888,108.7266,318.9888,98.7266,314.9888,102.7266" style="stroke:#181818;stroke-width:1.0;"/><line style="stroke:#181818;stroke-width:1.0;" x1="314.9888" x2="314.9888" y1="280.9297" y2="300.9297"/><polygon fill="#181818" points="310.9888,290.9297,314.9888,300.9297,318.9888,290.9297,314.9888,294.9297" style="stroke:#181818;stroke-width:1.0;"/><line style="stroke:#181818;stroke-width:1.0;" x1="314.9888" x2="314.9888" y1="334.8984" y2="354.8984"/><polygon fill="#181818" points="310.9888,344.8984,314.9888,354.8984,318.9888,344.8984,314.9888,348.8984" style="stroke:#181818;stroke-width:1.0;"/><line style="stroke:#181818;stroke-width:1.0;" x1="314.9888" x2="314.9888" y1="489.9419" y2="509.9419"/><polygon fill="#181818" points="310.9888,499.9419,314.9888,509.9419,318.9888,499.9419,314.9888,503.9419" style="stroke:#181818;stroke-width:1.0;"/><line style="stroke:#181818;stroke-width:1.0;" x1="378.1489" x2="446.7769" y1="591.5786" y2="591.5786"/><polygon fill="#181818" points="442.7769,536.9263,446.7769,526.9263,450.7769,536.9263,446.7769,532.9263" style="stroke:#181818;stroke-width:1.0;"/><line style="stroke:#181818;stroke-width:1.0;" x1="446.7769" x2="446.7769" y1="477.9419" y2="591.5786"/><line style="stroke:#181818;stroke-width:1.0;" x1="446.7769" x2="326.9888" y1="477.9419" y2="477.9419"/><polygon fill="#181818" points="336.9888,473.9419,326.9888,477.9419,336.9888,481.9419,332.9888,477.9419" style="stroke:#181818;stroke-width:1.0;"/><line style="stroke:#181818;stroke-width:1.0;" x1="314.9888" x2="314.9888" y1="543.9106" y2="579.5786"/><polygon fill="#181818" points="310.9888,569.5786,314.9888,579.5786,318.9888,569.5786,314.9888,573.5786" style="stroke:#181818;stroke-width:1.0;"/><line style="stroke:#181818;stroke-width:1.0;" x1="314.9888" x2="314.9888" y1="388.8672" y2="465.9419"/><polygon fill="#181818" points="310.9888,455.9419,314.9888,465.9419,318.9888,455.9419,314.9888,459.9419" style="stroke:#181818;stroke-width:1.0;"/><text fill="#000000" font-family="sans-serif" font-size="11" lengthAdjust="spacing" textLength="158.4849" x="318.9888" y="413.3203">discard any other characters</text><text fill="#000000" font-family="sans-serif" font-size="11" lengthAdjust="spacing" textLength="99.854" x="318.9888" y="426.125">in the input buffer</text><line style="stroke:#181818;stroke-width:1.0;" x1="437.1465" x2="381.4893" y1="764.9463" y2="764.9463"/><line style="stroke:#181818;stroke-width:1.0;" x1="381.4893" x2="381.4893" y1="764.9463" y2="786.9463"/><polygon fill="#181818" points="377.4893,776.9463,381.4893,786.9463,385.4893,776.9463,381.4893,780.9463" style="stroke:#181818;stroke-width:1.0;"/><line style="stroke:#181818;stroke-width:1.0;" x1="557.9707" x2="613.6279" y1="764.9463" y2="764.9463"/><line style="stroke:#181818;stroke-width:1.0;" x1="613.6279" x2="613.6279" y1="764.9463" y2="786.9463"/><polygon fill="#181818" points="609.6279,776.9463,613.6279,786.9463,617.6279,776.9463,613.6279,780.9463" style="stroke:#181818;stroke-width:1.0;"/><line style="stroke:#181818;stroke-width:1.0;" x1="381.4893" x2="381.4893" y1="820.915" y2="838.915"/><line style="stroke:#181818;stroke-width:1.0;" x1="381.4893" x2="485.5586" y1="838.915" y2="838.915"/><polygon fill="#181818" points="475.5586,834.915,485.5586,838.915,475.5586,842.915,479.5586,838.915" style="stroke:#181818;stroke-width:1.0;"/><line style="stroke:#181818;stroke-width:1.0;" x1="613.6279" x2="613.6279" y1="820.915" y2="838.915"/><line style="stroke:#181818;stroke-width:1.0;" x1="613.6279" x2="509.5586" y1="838.915" y2="838.915"/><polygon fill="#181818" points="519.5586,834.915,509.5586,838.915,519.5586,842.915,515.5586,838.915" style="stroke:#181818;stroke-width:1.0;"/><line style="stroke:#181818;stroke-width:1.0;" x1="497.5586" x2="497.5586" y1="711.5474" y2="752.9463"/><polygon fill="#181818" points="493.5586,742.9463,497.5586,752.9463,501.5586,742.9463,497.5586,746.9463" style="stroke:#181818;stroke-width:1.0;"/><text fill="#000000" font-family="sans-serif" font-size="11" lengthAdjust="spacing" textLength="58.1958" x="501.5586" y="732.8521">a nested if</text><line style="stroke:#181818;stroke-width:1.0;" x1="497.5586" x2="497.5586" y1="850.915" y2="870.915"/><polygon fill="#181818" points="493.5586,860.915,497.5586,870.915,501.5586,860.915,497.5586,864.915" style="stroke:#181818;stroke-width:1.0;"/><line style="stroke:#181818;stroke-width:1.0;" x1="248.7114" x2="132.4189" y1="655.5786" y2="655.5786"/><line style="stroke:#181818;stroke-width:1.0;" x1="132.4189" x2="132.4189" y1="655.5786" y2="677.5786"/><polygon fill="#181818" points="128.4189,667.5786,132.4189,677.5786,136.4189,667.5786,132.4189,671.5786" style="stroke:#181818;stroke-width:1.0;"/><line style="stroke:#181818;stroke-width:1.0;" x1="381.2661" x2="497.5586" y1="655.5786" y2="655.5786"/><line style="stroke:#181818;stroke-width:1.0;" x1="497.5586" x2="497.5586" y1="655.5786" y2="677.5786"/><polygon fill="#181818" points="493.5586,667.5786,497.5586,677.5786,501.5586,667.5786,497.5586,671.5786" style="stroke:#181818;stroke-width:1.0;"/><line style="stroke:#181818;stroke-width:1.0;" x1="132.4189" x2="132.4189" y1="711.5474" y2="922.8838"/><line style="stroke:#181818;stroke-width:1.0;" x1="132.4189" x2="302.9888" y1="922.8838" y2="922.8838"/><polygon fill="#181818" points="292.9888,918.8838,302.9888,922.8838,292.9888,926.8838,296.9888,922.8838" style="stroke:#181818;stroke-width:1.0;"/><line style="stroke:#181818;stroke-width:1.0;" x1="497.5586" x2="497.5586" y1="904.8838" y2="922.8838"/><line style="stroke:#181818;stroke-width:1.0;" x1="497.5586" x2="326.9888" y1="922.8838" y2="922.8838"/><polygon fill="#181818" points="336.9888,918.8838,326.9888,922.8838,336.9888,926.8838,332.9888,922.8838" style="stroke:#181818;stroke-width:1.0;"/><line style="stroke:#181818;stroke-width:1.0;" x1="314.9888" x2="314.9888" y1="603.5786" y2="643.5786"/><polygon fill="#181818" points="310.9888,633.5786,314.9888,643.5786,318.9888,633.5786,314.9888,637.5786" style="stroke:#181818;stroke-width:1.0;"/><line style="stroke:#181818;stroke-width:1.0;" x1="314.9888" x2="314.9888" y1="212.9922" y2="232.9922"/><polygon fill="#181818" points="310.9888,222.9922,314.9888,232.9922,318.9888,222.9922,314.9888,226.9922" style="stroke:#181818;stroke-width:1.0;"/><line style="stroke:#181818;stroke-width:1.0;" x1="378.5933" x2="740.1152" y1="966.8838" y2="966.8838"/><polygon fill="#181818" points="736.1152,563.9106,740.1152,553.9106,744.1152,563.9106,740.1152,559.9106" style="stroke:#181818;stroke-width:1.0;"/><line style="stroke:#181818;stroke-width:1.0;" x1="740.1152" x2="740.1152" y1="200.9922" y2="966.8838"/><line style="stroke:#181818;stroke-width:1.0;" x1="740.1152" x2="326.9888" y1="200.9922" y2="200.9922"/><polygon fill="#181818" points="336.9888,196.9922,326.9888,200.9922,336.9888,204.9922,332.9888,200.9922" style="stroke:#181818;stroke-width:1.0;"/><line style="stroke:#181818;stroke-width:1.0;" x1="314.9888" x2="314.9888" y1="934.8838" y2="954.8838"/><polygon fill="#181818" points="310.9888,944.8838,314.9888,954.8838,318.9888,944.8838,314.9888,948.8838" style="stroke:#181818;stroke-width:1.0;"/><line style="stroke:#181818;stroke-width:1.0;" x1="314.9888" x2="314.9888" y1="142.6953" y2="188.9922"/><polygon fill="#181818" points="310.9888,178.9922,314.9888,188.9922,318.9888,178.9922,314.9888,182.9922" style="stroke:#181818;stroke-width:1.0;"/><line style="stroke:#181818;stroke-width:1.0;" x1="314.9888" x2="314.9888" y1="978.8838" y2="1018.8838"/><polygon fill="#181818" points="310.9888,1008.8838,314.9888,1018.8838,318.9888,1008.8838,314.9888,1012.8838" style="stroke:#181818;stroke-width:1.0;"/><!--SRC=[bLJBRjim4BphApR9mLAGACsZXzYAYYHz86Y15arFXI-qk9BOo5o1egsgXVljNLggN0UHs_1WM2HdTcTsmEf1wL8OCOVhnAgbiWtyz83NMzBsNlr0E3rRVwz_NYin9osxAsvzK1flgI033HO5rVt1ZKWUCaCBBTlZsS8KJKqa-nkR2XVRUxOf46PKj5TNtihpghxDJy9OPHNfheaRCXBDkaOKARrKbPeL6CUWIMElPEXyvJ4PL-l5IoKoLuPIcEeePIXeCSShbarLAHACesIjv-3bwVdP3EDt2wogYt0kbFQ3w6Hz64Sd3Xd376tEYhtASjUU9eim1fiRgYlu9fOYL1JUVNppFS7IIVAySP8B0qb-12hJPF08XAvgD705e_UZoSJpobx_mUnIIla291tNkM8H1L7PkMAmH65xMyVtJMLn7jB2XgLHsXRQtxy3rcbpfTdRh1Kie41hkTmCROseuPhhI_WQxWUJ2KGHuyk5ZUDXOd__LcXeQ06PCmQKVJM6n-WDFCbPcUz41z1HAHqQ5D9lCJpshOATX-u62710aRY6fpervEGWF60p8s7afinnB5MLy1QhQO3uajb0AyOglKQkYt5IqnJDf4V_vRWubsbo-QJZVzOZvtkbxJoVgNP326r1lwFPupnCfteKWAh0RoCvpWoFBBPcWO7pgTytAEDK51K6FV5gOuvAVJU5govfWND2FyMvrTMJYVfrU0YVLPPRu7z3aK5kP5Th0x4Am_2UZ6cENBX6RC4GVpjm0HgPGhAyoTPHApTwdjf1nPQ8Gr3lwkL_zExapzdHdGMqLEc_X_F5D20oVgRsE3Y3m-cvjcFNlK8SkoH_RkRSyssf_0q0]--></g></svg>