<svg xmlns="http://www.w3.org/2000/svg" xmlns:xlink="http://www.w3.org/1999/xlink" contentStyleType="text/css" height="931px" preserveAspectRatio="none" style="width:986px;height:931px;background:#FFFFFF;" version="1.1" viewBox="0 0 986 931" width="986px" zoomAndPan="magnify"><title>Activity diagram of </title><defs/><g><text fill="#000000" font-family="sans-serif" font-size="14" font-weight="bold" lengthAdjust="spacing" textLength="151.0537" x="413.8359" y="32.9951">Activity diagram of</text><text fill="#5132BE" font-family="name=monospace" font-size="14" font-weight="bold" lengthAdjust="spacing" textLength="92.9482" x="412.6978" y="49.292">Help.main()</text><text fill="#000000" font-family="sans-serif" font-size="14" font-weight="bold" lengthAdjust="spacing" textLength="60.3818" x="510.52" y="49.292">method</text><path d="M273.2866,63.5938 L273.2866,88.7266 A0,0 0 0 0 273.2866,88.7266 L467.7998,88.7266 A0,0 0 0 0 467.7998,88.7266 L467.7998,81.5938 L487.7998,76.1602 L467.7998,73.5938 L467.7998,73.5938 L457.7998,63.5938 L273.2866,63.5938 A0,0 0 0 0 273.2866,63.5938 " fill="#FEFFDD" style="stroke:#181818;stroke-width:0.5;"/><path d="M457.7998,63.5938 L457.7998,73.5938 L467.7998,73.5938 L457.7998,63.5938 " fill="#FEFFDD" style="stroke:#181818;stroke-width:0.5;"/><text fill="#000000" font-family="sans-serif" font-size="13" lengthAdjust="spacing" textLength="173.5132" x="279.2866" y="80.6606">throws java.io.IOException</text><ellipse cx="497.7998" cy="76.1602" fill="#222222" rx="10" ry="10" style="stroke:#222222;stroke-width:1.0;"/><rect fill="#F1F1F1" height="33.9688" rx="12.5" ry="12.5" style="stroke:#181818;stroke-width:0.5;" width="93.207" x="451.1963" y="108.7266"/><text fill="#000000" font-family="sans-serif" font-size="12" lengthAdjust="spacing" textLength="73.207" x="461.1963" y="129.8652">char choice;</text><polygon fill="#F1F1F1" points="393.0068,162.6953,602.5928,162.6953,612.5928,179.6797,602.5928,196.6641,393.0068,196.6641" style="stroke:#181818;stroke-width:0.5;"/><text fill="#000000" font-family="sans-serif" font-size="12" lengthAdjust="spacing" textLength="189.5859" x="403.0068" y="183.834">System.out.println("Help on: ");</text><polygon fill="#F1F1F1" points="404.7695,216.6641,590.8301,216.6641,600.8301,233.6484,590.8301,250.6328,404.7695,250.6328" style="stroke:#181818;stroke-width:0.5;"/><text fill="#000000" font-family="sans-serif" font-size="12" lengthAdjust="spacing" textLength="166.0605" x="414.7695" y="237.8027">System.out.println("  1. if");</text><polygon fill="#F1F1F1" points="389.3945,270.6328,606.2051,270.6328,616.2051,287.6172,606.2051,304.6016,389.3945,304.6016" style="stroke:#181818;stroke-width:0.5;"/><text fill="#000000" font-family="sans-serif" font-size="12" lengthAdjust="spacing" textLength="196.8105" x="399.3945" y="291.7715">System.out.println("  2. switch");</text><polygon fill="#F1F1F1" points="386.3125,324.6016,609.2871,324.6016,619.2871,341.5859,609.2871,358.5703,386.3125,358.5703" style="stroke:#181818;stroke-width:0.5;"/><text fill="#000000" font-family="sans-serif" font-size="12" lengthAdjust="spacing" textLength="202.9746" x="396.3125" y="345.7402">System.out.print("Choose one: ");</text><path d="M227.9946,382.9883 L227.9946,408.1211 A0,0 0 0 0 227.9946,408.1211 L367.6895,408.1211 A0,0 0 0 0 367.6895,408.1211 L367.6895,400.9883 L387.6895,395.5547 L367.6895,392.9883 L367.6895,392.9883 L357.6895,382.9883 L227.9946,382.9883 A0,0 0 0 0 227.9946,382.9883 " fill="#FEFFDD" style="stroke:#181818;stroke-width:0.5;"/><path d="M357.6895,382.9883 L357.6895,392.9883 L367.6895,392.9883 L357.6895,382.9883 " fill="#FEFFDD" style="stroke:#181818;stroke-width:0.5;"/><text fill="#000000" font-family="sans-serif" font-size="13" lengthAdjust="spacing" textLength="118.6948" x="233.9946" y="400.0552">Get the user input</text><polygon fill="#F1F1F1" points="387.6895,378.5703,617.9102,378.5703,607.9102,395.5547,617.9102,412.5391,387.6895,412.5391" style="stroke:#181818;stroke-width:0.5;"/><text fill="#000000" font-family="sans-serif" font-size="12" lengthAdjust="spacing" textLength="200.2207" x="397.6895" y="399.709">choice = (char) System.in.read();</text><rect fill="#F7F790" height="455.7188" style="stroke:#000000;stroke-width:1.5;" width="963.5996" x="11" y="422.5391"/><path d="M142.2217,422.5391 L142.2217,431.8359 L132.2217,441.8359 L11,441.8359 " fill="none" style="stroke:#000000;stroke-width:1.5;"/><text fill="#000000" font-family="sans-serif" font-size="14" lengthAdjust="spacing" textLength="121.2217" x="14" y="436.5342">switch statement</text><polygon fill="#DEB887" points="472.5615,458.8359,523.0381,458.8359,535.0381,470.8359,523.0381,482.8359,472.5615,482.8359,460.5615,470.8359,472.5615,458.8359" style="stroke:#181818;stroke-width:0.5;"/><text fill="#000000" font-family="sans-serif" font-size="14" font-weight="bold" lengthAdjust="spacing" textLength="50.4766" x="472.5615" y="475.6826">choice</text><polygon fill="#F1F1F1" points="67.3301,518.4453,272.3223,518.4453,282.3223,535.4297,272.3223,552.4141,67.3301,552.4141" style="stroke:#181818;stroke-width:0.5;"/><text fill="#000000" font-family="sans-serif" font-size="12" lengthAdjust="spacing" textLength="184.9922" x="77.3301" y="539.584">System.out.println("The if:\n");</text><polygon fill="#F1F1F1" points="21,572.4141,318.6523,572.4141,328.6523,589.3984,318.6523,606.3828,21,606.3828" style="stroke:#181818;stroke-width:0.5;"/><text fill="#000000" font-family="sans-serif" font-size="12" lengthAdjust="spacing" textLength="277.6523" x="31" y="593.5527">System.out.println("if(condition) statement;");</text><polygon fill="#F1F1F1" points="45.0264,626.3828,294.626,626.3828,304.626,643.3672,294.626,660.3516,45.0264,660.3516" style="stroke:#181818;stroke-width:0.5;"/><text fill="#000000" font-family="sans-serif" font-size="12" lengthAdjust="spacing" textLength="229.5996" x="55.0264" y="647.5215">System.out.println("else statement;");</text><polygon fill="#F1F1F1" points="385.5547,518.4453,621.2969,518.4453,631.2969,535.4297,621.2969,552.4141,385.5547,552.4141" style="stroke:#181818;stroke-width:0.5;"/><text fill="#000000" font-family="sans-serif" font-size="12" lengthAdjust="spacing" textLength="215.7422" x="395.5547" y="539.584">System.out.println("The switch:\n");</text><polygon fill="#F1F1F1" points="363.459,572.4141,643.3926,572.4141,653.3926,589.3984,643.3926,606.3828,363.459,606.3828" style="stroke:#181818;stroke-width:0.5;"/><text fill="#000000" font-family="sans-serif" font-size="12" lengthAdjust="spacing" textLength="259.9336" x="373.459" y="593.5527">System.out.println("switch(expression) {");</text><polygon fill="#F1F1F1" points="374.1875,626.3828,632.6641,626.3828,642.6641,643.3672,632.6641,660.3516,374.1875,660.3516" style="stroke:#181818;stroke-width:0.5;"/><text fill="#000000" font-family="sans-serif" font-size="12" lengthAdjust="spacing" textLength="238.4766" x="384.1875" y="647.5215">System.out.println("    case constant:");</text><polygon fill="#F1F1F1" points="348.6523,680.3516,658.1992,680.3516,668.1992,697.3359,658.1992,714.3203,348.6523,714.3203" style="stroke:#181818;stroke-width:0.5;"/><text fill="#000000" font-family="sans-serif" font-size="12" lengthAdjust="spacing" textLength="289.5469" x="358.6523" y="701.4902">System.out.println("        statement sequence");</text><polygon fill="#F1F1F1" points="391.2236,734.3203,615.6279,734.3203,625.6279,751.3047,615.6279,768.2891,391.2236,768.2891" style="stroke:#181818;stroke-width:0.5;"/><text fill="#000000" font-family="sans-serif" font-size="12" lengthAdjust="spacing" textLength="204.4043" x="401.2236" y="755.459">System.out.println("        break;");</text><polygon fill="#F1F1F1" points="421.8037,788.2891,585.0479,788.2891,595.0479,805.2734,585.0479,822.2578,421.8037,822.2578" style="stroke:#181818;stroke-width:0.5;"/><text fill="#000000" font-family="sans-serif" font-size="12" lengthAdjust="spacing" textLength="143.2441" x="431.8037" y="809.4277">System.out.println("}");</text><polygon fill="#F1F1F1" points="678.1992,518.4453,954.5996,518.4453,964.5996,535.4297,954.5996,552.4141,678.1992,552.4141" style="stroke:#181818;stroke-width:0.5;"/><text fill="#000000" font-family="sans-serif" font-size="12" lengthAdjust="spacing" textLength="256.4004" x="688.1992" y="539.584">System.out.println("Selection not found.");</text><polygon fill="#DEB887" points="497.7998,842.2578,497.7998,842.2578,509.7998,854.2578,497.7998,866.2578,497.7998,866.2578,485.7998,854.2578,497.7998,842.2578" style="stroke:#181818;stroke-width:0.5;"/><ellipse cx="497.7998" cy="909.2578" fill="none" rx="11" ry="11" style="stroke:#222222;stroke-width:1.0;"/><ellipse cx="497.7998" cy="909.2578" fill="#222222" rx="6" ry="6" style="stroke:#222222;stroke-width:1.0;"/><line style="stroke:#181818;stroke-width:1.0;" x1="497.7998" x2="497.7998" y1="86.1602" y2="108.7266"/><polygon fill="#181818" points="493.7998,98.7266,497.7998,108.7266,501.7998,98.7266,497.7998,102.7266" style="stroke:#181818;stroke-width:1.0;"/><line style="stroke:#181818;stroke-width:1.0;" x1="497.7998" x2="497.7998" y1="142.6953" y2="162.6953"/><polygon fill="#181818" points="493.7998,152.6953,497.7998,162.6953,501.7998,152.6953,497.7998,156.6953" style="stroke:#181818;stroke-width:1.0;"/><line style="stroke:#181818;stroke-width:1.0;" x1="497.7998" x2="497.7998" y1="196.6641" y2="216.6641"/><polygon fill="#181818" points="493.7998,206.6641,497.7998,216.6641,501.7998,206.6641,497.7998,210.6641" style="stroke:#181818;stroke-width:1.0;"/><line style="stroke:#181818;stroke-width:1.0;" x1="497.7998" x2="497.7998" y1="250.6328" y2="270.6328"/><polygon fill="#181818" points="493.7998,260.6328,497.7998,270.6328,501.7998,260.6328,497.7998,264.6328" style="stroke:#181818;stroke-width:1.0;"/><line style="stroke:#181818;stroke-width:1.0;" x1="497.7998" x2="497.7998" y1="304.6016" y2="324.6016"/><polygon fill="#181818" points="493.7998,314.6016,497.7998,324.6016,501.7998,314.6016,497.7998,318.6016" style="stroke:#181818;stroke-width:1.0;"/><line style="stroke:#181818;stroke-width:1.0;" x1="497.7998" x2="497.7998" y1="358.5703" y2="378.5703"/><polygon fill="#181818" points="493.7998,368.5703,497.7998,378.5703,501.7998,368.5703,497.7998,372.5703" style="stroke:#181818;stroke-width:1.0;"/><line style="stroke:#181818;stroke-width:1.0;" x1="169.8262" x2="169.8262" y1="552.4141" y2="572.4141"/><polygon fill="#181818" points="165.8262,562.4141,169.8262,572.4141,173.8262,562.4141,169.8262,566.4141" style="stroke:#181818;stroke-width:1.0;"/><line style="stroke:#181818;stroke-width:1.0;" x1="169.8262" x2="169.8262" y1="606.3828" y2="626.3828"/><polygon fill="#181818" points="165.8262,616.3828,169.8262,626.3828,173.8262,616.3828,169.8262,620.3828" style="stroke:#181818;stroke-width:1.0;"/><line style="stroke:#181818;stroke-width:1.0;" x1="503.4258" x2="503.4258" y1="552.4141" y2="572.4141"/><polygon fill="#181818" points="499.4258,562.4141,503.4258,572.4141,507.4258,562.4141,503.4258,566.4141" style="stroke:#181818;stroke-width:1.0;"/><line style="stroke:#181818;stroke-width:1.0;" x1="503.4258" x2="503.4258" y1="606.3828" y2="626.3828"/><polygon fill="#181818" points="499.4258,616.3828,503.4258,626.3828,507.4258,616.3828,503.4258,620.3828" style="stroke:#181818;stroke-width:1.0;"/><line style="stroke:#181818;stroke-width:1.0;" x1="503.4258" x2="503.4258" y1="660.3516" y2="680.3516"/><polygon fill="#181818" points="499.4258,670.3516,503.4258,680.3516,507.4258,670.3516,503.4258,674.3516" style="stroke:#181818;stroke-width:1.0;"/><line style="stroke:#181818;stroke-width:1.0;" x1="503.4258" x2="503.4258" y1="714.3203" y2="734.3203"/><polygon fill="#181818" points="499.4258,724.3203,503.4258,734.3203,507.4258,724.3203,503.4258,728.3203" style="stroke:#181818;stroke-width:1.0;"/><line style="stroke:#181818;stroke-width:1.0;" x1="503.4258" x2="503.4258" y1="768.2891" y2="788.2891"/><polygon fill="#181818" points="499.4258,778.2891,503.4258,788.2891,507.4258,778.2891,503.4258,782.2891" style="stroke:#181818;stroke-width:1.0;"/><line style="stroke:#181818;stroke-width:1.0;" x1="460.5615" x2="169.8262" y1="470.8359" y2="470.8359"/><line style="stroke:#181818;stroke-width:1.0;" x1="169.8262" x2="169.8262" y1="470.8359" y2="518.4453"/><polygon fill="#181818" points="165.8262,508.4453,169.8262,518.4453,173.8262,508.4453,169.8262,512.4453" style="stroke:#181818;stroke-width:1.0;"/><text fill="#000000" font-family="sans-serif" font-size="11" lengthAdjust="spacing" textLength="13.0464" x="169.8262" y="498.4487">'1'</text><line style="stroke:#181818;stroke-width:1.0;" x1="535.0381" x2="816.3994" y1="470.8359" y2="470.8359"/><line style="stroke:#181818;stroke-width:1.0;" x1="816.3994" x2="816.3994" y1="470.8359" y2="518.4453"/><polygon fill="#181818" points="812.3994,508.4453,816.3994,518.4453,820.3994,508.4453,816.3994,512.4453" style="stroke:#181818;stroke-width:1.0;"/><text fill="#000000" font-family="sans-serif" font-size="11" lengthAdjust="spacing" textLength="38.7041" x="816.3994" y="498.4487">default</text><line style="stroke:#181818;stroke-width:1.0;" x1="497.7998" x2="497.7998" y1="482.8359" y2="494.7057"/><line style="stroke:#181818;stroke-width:1.0;" x1="497.7998" x2="503.4258" y1="494.7057" y2="494.7057"/><line style="stroke:#181818;stroke-width:1.0;" x1="503.4258" x2="503.4258" y1="494.7057" y2="518.4453"/><polygon fill="#181818" points="499.4258,508.4453,503.4258,518.4453,507.4258,508.4453,503.4258,512.4453" style="stroke:#181818;stroke-width:1.0;"/><text fill="#000000" font-family="sans-serif" font-size="11" lengthAdjust="spacing" textLength="13.0464" x="497.7998" y="499.4487">'2'</text><line style="stroke:#181818;stroke-width:1.0;" x1="169.8262" x2="169.8262" y1="660.3516" y2="854.2578"/><line style="stroke:#181818;stroke-width:1.0;" x1="169.8262" x2="485.7998" y1="854.2578" y2="854.2578"/><polygon fill="#181818" points="475.7998,850.2578,485.7998,854.2578,475.7998,858.2578,479.7998,854.2578" style="stroke:#181818;stroke-width:1.0;"/><line style="stroke:#181818;stroke-width:1.0;" x1="816.3994" x2="816.3994" y1="552.4141" y2="854.2578"/><line style="stroke:#181818;stroke-width:1.0;" x1="816.3994" x2="509.7998" y1="854.2578" y2="854.2578"/><polygon fill="#181818" points="519.7998,850.2578,509.7998,854.2578,519.7998,858.2578,515.7998,854.2578" style="stroke:#181818;stroke-width:1.0;"/><line style="stroke:#181818;stroke-width:1.0;" x1="503.4258" x2="503.4258" y1="822.2578" y2="827.2578"/><line style="stroke:#181818;stroke-width:1.0;" x1="503.4258" x2="497.7998" y1="827.2578" y2="827.2578"/><line style="stroke:#181818;stroke-width:1.0;" x1="497.7998" x2="497.7998" y1="827.2578" y2="842.2578"/><polygon fill="#181818" points="493.7998,832.2578,497.7998,842.2578,501.7998,832.2578,497.7998,836.2578" style="stroke:#181818;stroke-width:1.0;"/><line style="stroke:#181818;stroke-width:1.0;" x1="497.7998" x2="497.7998" y1="412.5391" y2="458.8359"/><polygon fill="#181818" points="493.7998,448.8359,497.7998,458.8359,501.7998,448.8359,497.7998,452.8359" style="stroke:#181818;stroke-width:1.0;"/><line style="stroke:#181818;stroke-width:1.0;" x1="497.7998" x2="497.7998" y1="866.2578" y2="898.2578"/><polygon fill="#181818" points="493.7998,888.2578,497.7998,898.2578,501.7998,888.2578,497.7998,892.2578" style="stroke:#181818;stroke-width:1.0;"/><!--SRC=[dLHDZzCm4BtxLuowXqqkMLf0Azfi97Rvb910AiTUN6UoCNNiO3ljbbN_EnCdP0KK-k53f7XcthmtRnAtahhcbbVmMdYvbduBZmpel3FQp-KFXF4al8V76yahe_C-fJsVfCOxeuo5BIfbDaFWbelLlJMDphlmih5gkp4c7pAUEhpu_Svl5SBIg2vrntQCkO7c5swzzDBediIjiJdQq2DDfLvB9vSAimoqqJWe-LUSe0cDsWtgSydlspwcW8LE2we5pIky8Tt6rLnWbeeWwEBb-FbaYTa7L7LISQcZEBqAeIozQkiogD2N99WvJwIPDXvX2hwqPkFW6r_pH9hau-Ut3mBhLX5ZKr5o2w8qKk1iHk_phVDO9QRnIMsbzaf7exOX63s5KJoRGPfIi6vybktF1XWd88iZSoS9k8tqeZoO7utkIcCS4XFycqghf1K1Dn2rccBewwLEBF8ywlB9r93UZ-OzUXeFGkFGGeWnLWz-NnJNnVMhPpr1eA4I898_tI9qrr7NDuPXfGHt65sEB-FXfZrxzN-bthAOBXRwJpq7IsKH2Veo0jFuYTliP21KDDF3zPsgoR6gkk6SfQoVApxK5fqByXvF1lb56MX894xxwLaGmUV1TuVV6zG2puPQqYgkJhTezrzJSYnue_mHninHeGYhJViFHVklJFP1eyux4yAVq9kQ_GG0]--></g></svg>