<svg xmlns="http://www.w3.org/2000/svg" xmlns:xlink="http://www.w3.org/1999/xlink" contentStyleType="text/css" height="230px" preserveAspectRatio="none" style="width:249px;height:230px;background:#FFFFFF;" version="1.1" viewBox="0 0 249 230" width="249px" zoomAndPan="magnify"><title>Class diagram of </title><defs/><g><text fill="#000000" font-family="sans-serif" font-size="14" font-weight="bold" lengthAdjust="spacing" textLength="131.8721" x="49.4546" y="22.9951">Class diagram of</text><text fill="#5132BE" font-family="name=monospace" font-size="14" font-weight="bold" lengthAdjust="spacing" textLength="36.0459" x="77.7622" y="39.292">KbIn</text><text fill="#000000" font-family="sans-serif" font-size="14" font-weight="bold" lengthAdjust="spacing" textLength="39.2109" x="118.6821" y="39.292">class</text><!--class KbIn--><g id="elem_KbIn"><rect codeLine="3" fill="#F1F1F1" height="48" id="KbIn" rx="2.5" ry="2.5" style="stroke:#181818;stroke-width:0.5;" width="63.0693" x="93" y="60.5938"/><ellipse cx="108" cy="76.5938" fill="#ADD1B2" rx="11" ry="11" style="stroke:#181818;stroke-width:1.0;"/><path d="M107.4688,83.5156 Q105.7188,83.5156 104.5781,82.7813 Q103.4531,82.0313 102.8906,80.6875 Q102.3438,79.3281 102.3438,77.5313 Q102.3438,75.5 103,74.0469 Q103.6563,72.5938 104.9375,71.8125 Q106.2188,71.0313 108.0938,71.0313 Q108.9844,71.0313 109.6563,71.2188 Q110.3281,71.3906 111.0156,71.7344 L110.2031,73.75 Q109.5781,73.4375 109.0313,73.3125 Q108.5,73.1875 108.0156,73.1875 Q106.8438,73.1875 106.1406,73.7188 Q105.4375,74.25 105.1406,75.2031 Q104.8438,76.1563 104.8438,77.4219 Q104.8438,79.4375 105.5625,80.4063 Q106.2813,81.3594 107.875,81.3594 Q108.4688,81.3594 109.0938,81.2031 Q109.7188,81.0469 110.5469,80.6719 L110.5469,82.8906 Q109.8125,83.2031 109.0156,83.3594 Q108.2344,83.5156 107.4688,83.5156 Z " fill="#000000"/><text fill="#000000" font-family="sans-serif" font-size="14" lengthAdjust="spacing" textLength="31.0693" x="122" y="81.4404">KbIn</text><line style="stroke:#181818;stroke-width:0.5;" x1="94" x2="155.0693" y1="92.5938" y2="92.5938"/><line style="stroke:#181818;stroke-width:0.5;" x1="94" x2="155.0693" y1="100.5938" y2="100.5938"/></g><g id="elem_GMN3"><path d="M6,168.5938 L6,223.9922 A0,0 0 0 0 6,223.9922 L242.6553,223.9922 A0,0 0 0 0 242.6553,223.9922 L242.6553,178.5938 L232.6553,168.5938 L128.5,168.5938 L124.5,108.8138 L120.5,168.5938 L6,168.5938 A0,0 0 0 0 6,168.5938 " fill="#FEFFDD" style="stroke:#181818;stroke-width:0.5;"/><path d="M232.6553,168.5938 L232.6553,178.5938 L242.6553,178.5938 L232.6553,168.5938 " fill="#FEFFDD" style="stroke:#181818;stroke-width:0.5;"/><text fill="#000000" font-family="sans-serif" font-size="13" lengthAdjust="spacing" textLength="88.5308" x="12" y="185.6606">file: KbIn.java</text><text fill="#000000" font-family="sans-serif" font-size="13" lengthAdjust="spacing" textLength="4.1323" x="12" y="200.7935">&#160;</text><text fill="#000000" font-family="sans-serif" font-size="13" lengthAdjust="spacing" textLength="215.6553" x="12" y="215.9263">Read a character from keyboard.</text></g><!--SRC=[9Ksz3i8W4DvvYYznRwF6nI2Ba-dcx7B0eLNA6KfCZF7TBNZ3NRxVAsE9Z6EaUOOVwPffWWHSaWwI2X9DV9WaoVmanqOxYPAnsgst6yjciAUa-yOPtTU0WQjLIhM3Qi17OHdrLKaAmqefqdvKiKbXZBnliBlJY_xskivC7WHteqokS4R8I_J1RokKVQSuUTJI7m00]--></g></svg>