<svg xmlns="http://www.w3.org/2000/svg" xmlns:xlink="http://www.w3.org/1999/xlink" contentStyleType="text/css" height="784px" preserveAspectRatio="none" style="width:432px;height:784px;background:#FFFFFF;" version="1.1" viewBox="0 0 432 784" width="432px" zoomAndPan="magnify"><title>Activity diagram of </title><defs/><g><text fill="#000000" font-family="sans-serif" font-size="14" font-weight="bold" lengthAdjust="spacing" textLength="151.0537" x="136.6824" y="32.9951">Activity diagram of</text><text fill="#5132BE" font-family="name=monospace" font-size="14" font-weight="bold" lengthAdjust="spacing" textLength="111.7266" x="126.155" y="49.292">Ladder.main()</text><text fill="#000000" font-family="sans-serif" font-size="14" font-weight="bold" lengthAdjust="spacing" textLength="60.3818" x="242.7556" y="49.292">method</text><ellipse cx="194.5193" cy="73.5938" fill="#222222" rx="10" ry="10" style="stroke:#222222;stroke-width:1.0;"/><rect fill="#F1F1F1" height="33.9688" rx="12.5" ry="12.5" style="stroke:#181818;stroke-width:0.5;" width="50.6035" x="169.2175" y="103.5938"/><text fill="#000000" font-family="sans-serif" font-size="12" lengthAdjust="spacing" textLength="30.6035" x="179.2175" y="124.7324">int x;</text><rect fill="#9BD68D" height="583.7886" style="stroke:#000000;stroke-width:1.5;" width="410.2925" x="11" y="147.5625"/><path d="M74.6074,147.5625 L74.6074,156.8594 L64.6074,166.8594 L11,166.8594 " fill="none" style="stroke:#000000;stroke-width:1.5;"/><text fill="#000000" font-family="sans-serif" font-size="14" lengthAdjust="spacing" textLength="53.6074" x="14" y="161.5576">for loop</text><rect fill="#F1F1F1" height="33.9688" style="stroke:#181818;stroke-width:0.5;" width="56.4629" x="166.2878" y="183.8594"/><text fill="#000000" font-family="sans-serif" font-size="12" lengthAdjust="spacing" textLength="36.4629" x="176.2878" y="204.998">x = 0;</text><polygon fill="#F1F1F1" points="132.9429,317.5386,335.1987,317.5386,345.1987,334.5229,335.1987,351.5073,132.9429,351.5073" style="stroke:#181818;stroke-width:0.5;"/><text fill="#000000" font-family="sans-serif" font-size="12" lengthAdjust="spacing" textLength="182.2559" x="142.9429" y="338.6772">System.out.println("x is one");</text><polygon fill="#F1F1F1" points="133.1772,395.5073,334.9644,395.5073,344.9644,412.4917,334.9644,429.4761,133.1772,429.4761" style="stroke:#181818;stroke-width:0.5;"/><text fill="#000000" font-family="sans-serif" font-size="12" lengthAdjust="spacing" textLength="181.7871" x="143.1772" y="416.646">System.out.println("x is two");</text><polygon fill="#F1F1F1" points="128.103,473.4761,340.0386,473.4761,350.0386,490.4604,340.0386,507.4448,128.103,507.4448" style="stroke:#181818;stroke-width:0.5;"/><text fill="#000000" font-family="sans-serif" font-size="12" lengthAdjust="spacing" textLength="191.9355" x="138.103" y="494.6147">System.out.println("x is three");</text><polygon fill="#F1F1F1" points="132.0552,551.4448,336.0864,551.4448,346.0864,568.4292,336.0864,585.4136,132.0552,585.4136" style="stroke:#181818;stroke-width:0.5;"/><text fill="#000000" font-family="sans-serif" font-size="12" lengthAdjust="spacing" textLength="184.0313" x="142.0552" y="572.5835">System.out.println("x is four");</text><polygon fill="#DEB887" points="51,293.5386,89.9351,293.5386,101.9351,305.5386,89.9351,317.5386,51,317.5386,39,305.5386,51,293.5386" style="stroke:#FFFF00;stroke-width:0.5;"/><text fill="#000000" font-family="sans-serif" font-size="11" lengthAdjust="spacing" textLength="38.9351" x="51" y="309.3467">x == 1</text><text fill="#008000" font-family="sans-serif" font-size="11" lengthAdjust="spacing" textLength="22.5747" x="101.9351" y="302.9443">true</text><polygon fill="#DEB887" points="51,371.5073,89.9351,371.5073,101.9351,383.5073,89.9351,395.5073,51,395.5073,39,383.5073,51,371.5073" style="stroke:#FFFF00;stroke-width:0.5;"/><text fill="#000000" font-family="sans-serif" font-size="11" lengthAdjust="spacing" textLength="38.9351" x="51" y="387.3154">x == 2</text><text fill="#008000" font-family="sans-serif" font-size="11" lengthAdjust="spacing" textLength="22.5747" x="101.9351" y="380.9131">true</text><polygon fill="#DEB887" points="51,449.4761,89.9351,449.4761,101.9351,461.4761,89.9351,473.4761,51,473.4761,39,461.4761,51,449.4761" style="stroke:#FFFF00;stroke-width:0.5;"/><text fill="#000000" font-family="sans-serif" font-size="11" lengthAdjust="spacing" textLength="38.9351" x="51" y="465.2842">x == 3</text><text fill="#008000" font-family="sans-serif" font-size="11" lengthAdjust="spacing" textLength="22.5747" x="101.9351" y="458.8818">true</text><polygon fill="#DEB887" points="51,527.4448,89.9351,527.4448,101.9351,539.4448,89.9351,551.4448,51,551.4448,39,539.4448,51,527.4448" style="stroke:#FFFF00;stroke-width:0.5;"/><text fill="#000000" font-family="sans-serif" font-size="11" lengthAdjust="spacing" textLength="38.9351" x="51" y="543.2529">x == 4</text><text fill="#008000" font-family="sans-serif" font-size="11" lengthAdjust="spacing" textLength="22.5747" x="101.9351" y="536.8506">true</text><polygon fill="#F1F1F1" points="94.9451,605.4136,284.0935,605.4136,294.0935,629.3823,284.0935,653.3511,94.9451,653.3511" style="stroke:#181818;stroke-width:0.5;"/><text fill="#000000" font-family="sans-serif" font-size="12" lengthAdjust="spacing" textLength="165.334" x="104.9451" y="626.5522">System.out.println("x is not</text><text fill="#000000" font-family="sans-serif" font-size="12" lengthAdjust="spacing" textLength="115.4238" x="104.9451" y="640.521">between 1 and 4");</text><polygon fill="#DEB887" points="194.5193,673.3511,206.5193,685.3511,194.5193,697.3511,182.5193,685.3511,194.5193,673.3511" style="stroke:#FFFF00;stroke-width:0.5;"/><polygon fill="#DEB887" points="174.3943,237.8281,214.6443,237.8281,226.6443,249.8281,214.6443,261.8281,174.3943,261.8281,162.3943,249.8281,174.3943,237.8281" style="stroke:#FFFF00;stroke-width:0.5;"/><text fill="#008000" font-family="sans-serif" font-size="11" lengthAdjust="spacing" textLength="22.5747" x="198.5193" y="272.0386">true</text><text fill="#000000" font-family="sans-serif" font-size="14" font-weight="bold" lengthAdjust="spacing" textLength="40.25" x="174.3943" y="254.6748">x &lt; 6</text><text fill="#FF0000" font-family="sans-serif" font-size="11" lengthAdjust="spacing" textLength="26.168" x="136.2263" y="247.2339">false</text><rect fill="#F1F1F1" height="33.9688" style="stroke:#181818;stroke-width:0.5;" width="51.2539" x="360.0386" y="455.0581"/><text fill="#000000" font-family="sans-serif" font-size="12" lengthAdjust="spacing" textLength="31.2539" x="370.0386" y="476.1968">x++;</text><ellipse cx="194.5193" cy="762.3511" fill="none" rx="11" ry="11" style="stroke:#222222;stroke-width:1.0;"/><ellipse cx="194.5193" cy="762.3511" fill="#222222" rx="6" ry="6" style="stroke:#222222;stroke-width:1.0;"/><line style="stroke:#181818;stroke-width:1.0;" x1="194.5193" x2="194.5193" y1="83.5938" y2="103.5938"/><polygon fill="#181818" points="190.5193,93.5938,194.5193,103.5938,198.5193,93.5938,194.5193,97.5938" style="stroke:#181818;stroke-width:1.0;"/><line style="stroke:#181818;stroke-width:1.0;" x1="101.9351" x2="234.0708" y1="305.5386" y2="305.5386"/><line style="stroke:#181818;stroke-width:1.0;" x1="234.0708" x2="234.0708" y1="305.5386" y2="317.5386"/><polygon fill="#181818" points="230.0708,307.5386,234.0708,317.5386,238.0708,307.5386,234.0708,311.5386" style="stroke:#181818;stroke-width:1.0;"/><line style="stroke:#181818;stroke-width:1.0;" x1="101.9351" x2="234.0708" y1="383.5073" y2="383.5073"/><line style="stroke:#181818;stroke-width:1.0;" x1="234.0708" x2="234.0708" y1="383.5073" y2="395.5073"/><polygon fill="#181818" points="230.0708,385.5073,234.0708,395.5073,238.0708,385.5073,234.0708,389.5073" style="stroke:#181818;stroke-width:1.0;"/><line style="stroke:#181818;stroke-width:1.0;" x1="101.9351" x2="234.0708" y1="461.4761" y2="461.4761"/><line style="stroke:#181818;stroke-width:1.0;" x1="234.0708" x2="234.0708" y1="461.4761" y2="473.4761"/><polygon fill="#181818" points="230.0708,463.4761,234.0708,473.4761,238.0708,463.4761,234.0708,467.4761" style="stroke:#181818;stroke-width:1.0;"/><line style="stroke:#181818;stroke-width:1.0;" x1="101.9351" x2="234.0708" y1="539.4448" y2="539.4448"/><line style="stroke:#181818;stroke-width:1.0;" x1="234.0708" x2="234.0708" y1="539.4448" y2="551.4448"/><polygon fill="#181818" points="230.0708,541.4448,234.0708,551.4448,238.0708,541.4448,234.0708,545.4448" style="stroke:#181818;stroke-width:1.0;"/><line style="stroke:#181818;stroke-width:1.0;" x1="70.4675" x2="70.4675" y1="317.5386" y2="371.5073"/><polygon fill="#181818" points="66.4675,361.5073,70.4675,371.5073,74.4675,361.5073,70.4675,365.5073" style="stroke:#181818;stroke-width:1.0;"/><text fill="#FF0000" font-family="sans-serif" font-size="11" lengthAdjust="spacing" textLength="26.168" x="70.4675" y="343.3311">false</text><line style="stroke:#181818;stroke-width:1.0;" x1="70.4675" x2="70.4675" y1="395.5073" y2="449.4761"/><polygon fill="#181818" points="66.4675,439.4761,70.4675,449.4761,74.4675,439.4761,70.4675,443.4761" style="stroke:#181818;stroke-width:1.0;"/><text fill="#FF0000" font-family="sans-serif" font-size="11" lengthAdjust="spacing" textLength="26.168" x="70.4675" y="421.2998">false</text><line style="stroke:#181818;stroke-width:1.0;" x1="70.4675" x2="70.4675" y1="473.4761" y2="527.4448"/><polygon fill="#181818" points="66.4675,517.4448,70.4675,527.4448,74.4675,517.4448,70.4675,521.4448" style="stroke:#181818;stroke-width:1.0;"/><text fill="#FF0000" font-family="sans-serif" font-size="11" lengthAdjust="spacing" textLength="26.168" x="70.4675" y="499.2686">false</text><line style="stroke:#181818;stroke-width:1.0;" x1="234.0708" x2="234.0708" y1="351.5073" y2="366.5073"/><line style="stroke:#181818;stroke-width:1.0;" x1="234.0708" x2="350.0386" y1="366.5073" y2="366.5073"/><line style="stroke:#181818;stroke-width:1.0;" x1="350.0386" x2="350.0386" y1="366.5073" y2="685.3511"/><line style="stroke:#181818;stroke-width:1.0;" x1="350.0386" x2="206.5193" y1="685.3511" y2="685.3511"/><polygon fill="#181818" points="216.5193,681.3511,206.5193,685.3511,216.5193,689.3511,212.5193,685.3511" style="stroke:#181818;stroke-width:1.0;"/><line style="stroke:#181818;stroke-width:1.0;" x1="234.0708" x2="234.0708" y1="429.4761" y2="444.4761"/><line style="stroke:#181818;stroke-width:1.0;" x1="234.0708" x2="350.0386" y1="444.4761" y2="444.4761"/><polygon fill="#181818" points="340.0386,440.4761,350.0386,444.4761,340.0386,448.4761,344.0386,444.4761" style="stroke:#181818;stroke-width:1.0;"/><line style="stroke:#181818;stroke-width:1.0;" x1="234.0708" x2="234.0708" y1="507.4448" y2="522.4448"/><line style="stroke:#181818;stroke-width:1.0;" x1="234.0708" x2="350.0386" y1="522.4448" y2="522.4448"/><polygon fill="#181818" points="340.0386,518.4448,350.0386,522.4448,340.0386,526.4448,344.0386,522.4448" style="stroke:#181818;stroke-width:1.0;"/><line style="stroke:#181818;stroke-width:1.0;" x1="234.0708" x2="234.0708" y1="585.4136" y2="600.4136"/><line style="stroke:#181818;stroke-width:1.0;" x1="234.0708" x2="350.0386" y1="600.4136" y2="600.4136"/><polygon fill="#181818" points="340.0386,596.4136,350.0386,600.4136,340.0386,604.4136,344.0386,600.4136" style="stroke:#181818;stroke-width:1.0;"/><line style="stroke:#181818;stroke-width:1.0;" x1="194.5193" x2="194.5193" y1="261.8281" y2="278.5386"/><line style="stroke:#181818;stroke-width:1.0;" x1="194.5193" x2="70.4675" y1="278.5386" y2="278.5386"/><line style="stroke:#181818;stroke-width:1.0;" x1="70.4675" x2="70.4675" y1="278.5386" y2="293.5386"/><polygon fill="#181818" points="66.4675,283.5386,70.4675,293.5386,74.4675,283.5386,70.4675,287.5386" style="stroke:#181818;stroke-width:1.0;"/><line style="stroke:#181818;stroke-width:1.0;" x1="70.4675" x2="70.4675" y1="551.4448" y2="590.4136"/><line style="stroke:#181818;stroke-width:1.0;" x1="70.4675" x2="189.5193" y1="590.4136" y2="590.4136"/><line style="stroke:#181818;stroke-width:1.0;" x1="189.5193" x2="189.5193" y1="590.4136" y2="605.4136"/><polygon fill="#181818" points="185.5193,595.4136,189.5193,605.4136,193.5193,595.4136,189.5193,599.4136" style="stroke:#181818;stroke-width:1.0;"/><text fill="#FF0000" font-family="sans-serif" font-size="11" lengthAdjust="spacing" textLength="26.168" x="70.4675" y="577.2373">false</text><line style="stroke:#181818;stroke-width:1.0;" x1="189.5193" x2="189.5193" y1="653.3511" y2="658.3511"/><line style="stroke:#181818;stroke-width:1.0;" x1="189.5193" x2="194.5193" y1="658.3511" y2="658.3511"/><line style="stroke:#181818;stroke-width:1.0;" x1="194.5193" x2="194.5193" y1="658.3511" y2="673.3511"/><polygon fill="#181818" points="190.5193,663.3511,194.5193,673.3511,198.5193,663.3511,194.5193,667.3511" style="stroke:#181818;stroke-width:1.0;"/><line style="stroke:#181818;stroke-width:1.0;" x1="194.5193" x2="194.5193" y1="697.3511" y2="707.3511"/><line style="stroke:#181818;stroke-width:1.0;" x1="194.5193" x2="385.6655" y1="707.3511" y2="707.3511"/><line style="stroke:#181818;stroke-width:1.0;" x1="385.6655" x2="385.6655" y1="489.0269" y2="707.3511"/><polygon fill="#181818" points="381.6655,499.0269,385.6655,489.0269,389.6655,499.0269,385.6655,495.0269" style="stroke:#181818;stroke-width:1.0;"/><line style="stroke:#181818;stroke-width:1.0;" x1="385.6655" x2="385.6655" y1="249.8281" y2="455.0581"/><line style="stroke:#181818;stroke-width:1.0;" x1="385.6655" x2="226.6443" y1="249.8281" y2="249.8281"/><polygon fill="#181818" points="236.6443,245.8281,226.6443,249.8281,236.6443,253.8281,232.6443,249.8281" style="stroke:#181818;stroke-width:1.0;"/><line style="stroke:#181818;stroke-width:1.0;" x1="162.3943" x2="27" y1="249.8281" y2="249.8281"/><polygon fill="#181818" points="23,468.0425,27,478.0425,31,468.0425,27,472.0425" style="stroke:#181818;stroke-width:1.0;"/><line style="stroke:#181818;stroke-width:1.0;" x1="27" x2="27" y1="249.8281" y2="719.3511"/><line style="stroke:#181818;stroke-width:1.0;" x1="27" x2="194.5193" y1="719.3511" y2="719.3511"/><line style="stroke:#181818;stroke-width:1.0;" x1="194.5193" x2="194.5193" y1="719.3511" y2="751.3511"/><polygon fill="#181818" points="190.5193,741.3511,194.5193,751.3511,198.5193,741.3511,194.5193,745.3511" style="stroke:#181818;stroke-width:1.0;"/><line style="stroke:#181818;stroke-width:1.0;" x1="194.5193" x2="194.5193" y1="217.8281" y2="237.8281"/><polygon fill="#181818" points="190.5193,227.8281,194.5193,237.8281,198.5193,227.8281,194.5193,231.8281" style="stroke:#181818;stroke-width:1.0;"/><line style="stroke:#181818;stroke-width:1.0;" x1="194.5193" x2="194.5193" y1="137.5625" y2="183.8594"/><polygon fill="#181818" points="190.5193,173.8594,194.5193,183.8594,198.5193,173.8594,194.5193,177.8594" style="stroke:#181818;stroke-width:1.0;"/><!--SRC=[fLDHJzj037xFhp3mqWYfNKk7jlOQQI0X8V66nDDUBZcdFN4vHnTdIK3yTvoqbB71D54_dEJpPt-VxsnLSUSmYK3iHyRsb-KE7WUtjoloV6iV4AQp_PsnkY1lVaFrTcCzNfAZ01qwHysRu8NExjU1Qc-saBGEhck8p1lKAzdyx_jU9gJaNbEUeksf9hiUZigWruM6ki8x36mpxQvp81-nPKdUjoSDh8CkW7BuwLKkrS7h0bVI5LMbpZ1HsI3pvElqR9PYSgEDmJ0kjFMZM4s6OA8cVMO21V966eagre6ZQ66bNBjSHb4flcLB7aw-f-Rycu5SQZgYSlTqYnPMy6Mv1ALOL_V9zXUQZNKuQa71UGosWj5Mp68T47t2eSPu_mGs5-1g1TCOU8F-dzY1yRQh68inrJmkWoXrVdJSzYpayJWUf4Yih7adfhUNeW5DacjNOGmevmltx61kRkYJt6U7SsyavPFiyuFPSwh3H-GzqpiA_hEo9vRXJf4RqGHJqBAmym-flB7vtajbMHiTpA8zFVrpE0KvpETxmfxw7Q3o6G00]--></g></svg>