<svg xmlns="http://www.w3.org/2000/svg" xmlns:xlink="http://www.w3.org/1999/xlink" contentStyleType="text/css" height="708px" preserveAspectRatio="none" style="width:1540px;height:708px;background:#FFFFFF;" version="1.1" viewBox="0 0 1540 708" width="1540px" zoomAndPan="magnify"><title>Activity diagram of </title><defs/><g><text fill="#000000" font-family="sans-serif" font-size="14" font-weight="bold" lengthAdjust="spacing" textLength="151.0537" x="690.6836" y="32.9951">Activity diagram of</text><text fill="#5132BE" font-family="name=monospace" font-size="14" font-weight="bold" lengthAdjust="spacing" textLength="124.0791" x="673.98" y="49.292">NoBreak.main()</text><text fill="#000000" font-family="sans-serif" font-size="14" font-weight="bold" lengthAdjust="spacing" textLength="60.3818" x="802.9331" y="49.292">method</text><ellipse cx="750.4043" cy="73.5938" fill="#222222" rx="10" ry="10" style="stroke:#222222;stroke-width:1.0;"/><rect fill="#F1F1F1" height="33.9688" rx="12.5" ry="12.5" style="stroke:#181818;stroke-width:0.5;" width="46.8359" x="726.9863" y="103.5938"/><text fill="#000000" font-family="sans-serif" font-size="12" lengthAdjust="spacing" textLength="26.8359" x="736.9863" y="124.7324">int i;</text><rect fill="#9BD68D" height="507.7573" style="stroke:#000000;stroke-width:1.5;" width="1518.2949" x="11" y="147.5625"/><path d="M74.6074,147.5625 L74.6074,156.8594 L64.6074,166.8594 L11,166.8594 " fill="none" style="stroke:#000000;stroke-width:1.5;"/><text fill="#000000" font-family="sans-serif" font-size="14" lengthAdjust="spacing" textLength="53.6074" x="14" y="161.5576">for loop</text><rect fill="#F1F1F1" height="33.9688" style="stroke:#181818;stroke-width:0.5;" width="52.6953" x="724.0566" y="183.8594"/><text fill="#000000" font-family="sans-serif" font-size="12" lengthAdjust="spacing" textLength="32.6953" x="734.0566" y="204.998">i = 0;</text><rect fill="#F7F790" height="283.8125" style="stroke:#000000;stroke-width:1.5;" width="1422.8086" x="39" y="283.5386"/><path d="M170.2217,283.5386 L170.2217,292.8354 L160.2217,302.8354 L39,302.8354 " fill="none" style="stroke:#000000;stroke-width:1.5;"/><text fill="#000000" font-family="sans-serif" font-size="14" lengthAdjust="spacing" textLength="121.2217" x="42" y="297.5337">switch statement</text><polygon fill="#DEB887" points="738.4043,319.8354,762.4043,319.8354,774.4043,331.8354,762.4043,343.8354,738.4043,343.8354,726.4043,331.8354,738.4043,319.8354" style="stroke:#181818;stroke-width:0.5;"/><text fill="#000000" font-family="sans-serif" font-size="14" font-weight="bold" lengthAdjust="spacing" textLength="4.7988" x="748.0049" y="336.6821">i</text><polygon fill="#F1F1F1" points="49,379.4448,309.4219,379.4448,319.4219,396.4292,309.4219,413.4136,49,413.4136" style="stroke:#181818;stroke-width:0.5;"/><text fill="#000000" font-family="sans-serif" font-size="12" lengthAdjust="spacing" textLength="240.4219" x="59" y="400.5835">System.out.println("i is less than one.");</text><ellipse cx="179.2109" cy="457.3823" fill="#F1F1F1" rx="10" ry="10" style="stroke:#181818;stroke-width:0.5;"/><path d="M177.1953,460.8823 L179.1328,460.8823 L179.1328,454.2104 L177.0234,454.6323 L177.0234,453.5542 L179.1172,453.1323 L180.3047,453.1323 L180.3047,460.8823 L182.2422,460.8823 L182.2422,461.8823 L177.1953,461.8823 L177.1953,460.8823 Z " fill="#000000"/><ellipse cx="459.3984" cy="389.4448" fill="#F1F1F1" rx="10" ry="10" style="stroke:#181818;stroke-width:0.5;"/><path d="M457.3828,392.9448 L459.3203,392.9448 L459.3203,386.2729 L457.2109,386.6948 L457.2109,385.6167 L459.3047,385.1948 L460.4922,385.1948 L460.4922,392.9448 L462.4297,392.9448 L462.4297,393.9448 L457.3828,393.9448 L457.3828,392.9448 Z " fill="#000000"/><polygon fill="#F1F1F1" points="329.4219,433.4136,589.375,433.4136,599.375,450.3979,589.375,467.3823,329.4219,467.3823" style="stroke:#181818;stroke-width:0.5;"/><text fill="#000000" font-family="sans-serif" font-size="12" lengthAdjust="spacing" textLength="239.9531" x="339.4219" y="454.5522">System.out.println("i is less than two.");</text><ellipse cx="459.3984" cy="511.2222" fill="#F1F1F1" rx="10" ry="10" style="stroke:#181818;stroke-width:0.5;"/><path d="M457.6953,514.4722 L461.8359,514.4722 L461.8359,515.4722 L456.2734,515.4722 L456.2734,514.4722 Q456.9453,513.7847 458.1016,512.6128 Q459.2734,511.4253 459.5703,511.0815 Q460.1484,510.4565 460.3672,510.019 Q460.6016,509.5659 460.6016,509.144 Q460.6016,508.4409 460.1016,508.0034 Q459.6172,507.5659 458.8359,507.5659 Q458.2734,507.5659 457.6484,507.7534 Q457.0391,507.9409 456.3359,508.3472 L456.3359,507.144 Q457.0547,506.8628 457.6641,506.7222 Q458.2891,506.5659 458.8047,506.5659 Q460.1641,506.5659 460.9766,507.2534 Q461.7891,507.9253 461.7891,509.0659 Q461.7891,509.5972 461.5859,510.0815 Q461.3828,510.5659 460.8516,511.2222 Q460.6953,511.394 459.9141,512.2065 Q459.1328,513.019 457.6953,514.4722 Z " fill="#000000"/><ellipse cx="744.4258" cy="389.4448" fill="#F1F1F1" rx="10" ry="10" style="stroke:#181818;stroke-width:0.5;"/><path d="M742.7227,392.6948 L746.8633,392.6948 L746.8633,393.6948 L741.3008,393.6948 L741.3008,392.6948 Q741.9727,392.0073 743.1289,390.8354 Q744.3008,389.6479 744.5977,389.3042 Q745.1758,388.6792 745.3945,388.2417 Q745.6289,387.7886 745.6289,387.3667 Q745.6289,386.6636 745.1289,386.2261 Q744.6445,385.7886 743.8633,385.7886 Q743.3008,385.7886 742.6758,385.9761 Q742.0664,386.1636 741.3633,386.5698 L741.3633,385.3667 Q742.082,385.0854 742.6914,384.9448 Q743.3164,384.7886 743.832,384.7886 Q745.1914,384.7886 746.0039,385.4761 Q746.8164,386.1479 746.8164,387.2886 Q746.8164,387.8198 746.6133,388.3042 Q746.4102,388.7886 745.8789,389.4448 Q745.7227,389.6167 744.9414,390.4292 Q744.1602,391.2417 742.7227,392.6948 Z " fill="#000000"/><polygon fill="#F1F1F1" points="609.375,433.4136,879.4766,433.4136,889.4766,450.3979,879.4766,467.3823,609.375,467.3823" style="stroke:#181818;stroke-width:0.5;"/><text fill="#000000" font-family="sans-serif" font-size="12" lengthAdjust="spacing" textLength="250.1016" x="619.375" y="454.5522">System.out.println("i is less than three.");</text><ellipse cx="744.4258" cy="511.2222" fill="#F1F1F1" rx="10" ry="10" style="stroke:#181818;stroke-width:0.5;"/><path d="M745.3008,511.0034 Q746.1445,511.1909 746.6133,511.769 Q747.0977,512.3315 747.0977,513.1753 Q747.0977,514.4722 746.207,515.1909 Q745.3164,515.894 743.6758,515.894 Q743.1289,515.894 742.5352,515.7847 Q741.957,515.6753 741.3477,515.4565 L741.3477,514.3159 Q741.832,514.5972 742.4102,514.7534 Q743.0039,514.894 743.6445,514.894 Q744.7539,514.894 745.332,514.4565 Q745.9258,514.019 745.9258,513.1753 Q745.9258,512.4097 745.3789,511.9722 Q744.832,511.5347 743.8789,511.5347 L742.8477,511.5347 L742.8477,510.5659 L743.9258,510.5659 Q744.7852,510.5659 745.2539,510.2222 Q745.7227,509.8628 745.7227,509.2065 Q745.7227,508.5347 745.2383,508.1753 Q744.7695,507.8159 743.8789,507.8159 Q743.3789,507.8159 742.8164,507.9253 Q742.2695,508.019 741.5977,508.2378 L741.5977,507.1909 Q742.2852,507.0034 742.8633,506.9097 Q743.457,506.8159 743.9727,506.8159 Q745.332,506.8159 746.1133,507.4253 Q746.8945,508.0347 746.8945,509.0815 Q746.8945,509.8159 746.4727,510.3159 Q746.0664,510.8159 745.3008,511.0034 Z " fill="#000000"/><ellipse cx="1030.5752" cy="389.4448" fill="#F1F1F1" rx="10" ry="10" style="stroke:#181818;stroke-width:0.5;"/><path d="M1031.4502,389.2261 Q1032.2939,389.4136 1032.7627,389.9917 Q1033.2471,390.5542 1033.2471,391.3979 Q1033.2471,392.6948 1032.3564,393.4136 Q1031.4658,394.1167 1029.8252,394.1167 Q1029.2783,394.1167 1028.6846,394.0073 Q1028.1064,393.8979 1027.4971,393.6792 L1027.4971,392.5386 Q1027.9814,392.8198 1028.5596,392.9761 Q1029.1533,393.1167 1029.7939,393.1167 Q1030.9033,393.1167 1031.4814,392.6792 Q1032.0752,392.2417 1032.0752,391.3979 Q1032.0752,390.6323 1031.5283,390.1948 Q1030.9814,389.7573 1030.0283,389.7573 L1028.9971,389.7573 L1028.9971,388.7886 L1030.0752,388.7886 Q1030.9346,388.7886 1031.4033,388.4448 Q1031.8721,388.0854 1031.8721,387.4292 Q1031.8721,386.7573 1031.3877,386.3979 Q1030.9189,386.0386 1030.0283,386.0386 Q1029.5283,386.0386 1028.9658,386.1479 Q1028.4189,386.2417 1027.7471,386.4604 L1027.7471,385.4136 Q1028.4346,385.2261 1029.0127,385.1323 Q1029.6064,385.0386 1030.1221,385.0386 Q1031.4814,385.0386 1032.2627,385.6479 Q1033.0439,386.2573 1033.0439,387.3042 Q1033.0439,388.0386 1032.6221,388.5386 Q1032.2158,389.0386 1031.4502,389.2261 Z " fill="#000000"/><polygon fill="#F1F1F1" points="899.4766,433.4136,1161.6738,433.4136,1171.6738,450.3979,1161.6738,467.3823,899.4766,467.3823" style="stroke:#181818;stroke-width:0.5;"/><text fill="#000000" font-family="sans-serif" font-size="12" lengthAdjust="spacing" textLength="242.1973" x="909.4766" y="454.5522">System.out.println("i is less than four.");</text><ellipse cx="1030.5752" cy="511.2222" fill="#F1F1F1" rx="10" ry="10" style="stroke:#181818;stroke-width:0.5;"/><path d="M1030.1064,508.0034 L1027.1221,512.6753 L1030.1064,512.6753 L1030.1064,508.0034 Z M1029.7939,506.9722 L1031.2939,506.9722 L1031.2939,512.6753 L1032.5439,512.6753 L1032.5439,513.6597 L1031.2939,513.6597 L1031.2939,515.7222 L1030.1064,515.7222 L1030.1064,513.6597 L1026.1689,513.6597 L1026.1689,512.519 L1029.7939,506.9722 Z " fill="#000000"/><ellipse cx="1311.7412" cy="389.4448" fill="#F1F1F1" rx="10" ry="10" style="stroke:#181818;stroke-width:0.5;"/><path d="M1311.2725,386.2261 L1308.2881,390.8979 L1311.2725,390.8979 L1311.2725,386.2261 Z M1310.96,385.1948 L1312.46,385.1948 L1312.46,390.8979 L1313.71,390.8979 L1313.71,391.8823 L1312.46,391.8823 L1312.46,393.9448 L1311.2725,393.9448 L1311.2725,391.8823 L1307.335,391.8823 L1307.335,390.7417 L1310.96,385.1948 Z " fill="#000000"/><polygon fill="#F1F1F1" points="1181.6738,433.4136,1441.8086,433.4136,1451.8086,450.3979,1441.8086,467.3823,1181.6738,467.3823" style="stroke:#181818;stroke-width:0.5;"/><text fill="#000000" font-family="sans-serif" font-size="12" lengthAdjust="spacing" textLength="240.1348" x="1191.6738" y="454.5522">System.out.println("i is less than five.");</text><polygon fill="#DEB887" points="750.4043,531.3511,750.4043,531.3511,762.4043,543.3511,750.4043,555.3511,750.4043,555.3511,738.4043,543.3511,750.4043,531.3511" style="stroke:#181818;stroke-width:0.5;"/><polygon fill="#F1F1F1" points="678.1191,587.3511,822.6895,587.3511,832.6895,604.3354,822.6895,621.3198,678.1191,621.3198" style="stroke:#181818;stroke-width:0.5;"/><text fill="#000000" font-family="sans-serif" font-size="12" lengthAdjust="spacing" textLength="124.5703" x="688.1191" y="608.4897">System.out.println();</text><polygon fill="#DEB887" points="732.395,237.8281,768.4136,237.8281,780.4136,249.8281,768.4136,261.8281,732.395,261.8281,720.395,249.8281,732.395,237.8281" style="stroke:#181818;stroke-width:0.5;"/><text fill="#008000" font-family="sans-serif" font-size="11" lengthAdjust="spacing" textLength="22.5747" x="754.4043" y="272.0386">true</text><text fill="#000000" font-family="sans-serif" font-size="14" font-weight="bold" lengthAdjust="spacing" textLength="36.0186" x="732.395" y="254.6748">i &lt; 5</text><text fill="#FF0000" font-family="sans-serif" font-size="11" lengthAdjust="spacing" textLength="26.168" x="694.2271" y="247.2339">false</text><rect fill="#F1F1F1" height="33.9688" style="stroke:#181818;stroke-width:0.5;" width="47.4863" x="1471.8086" y="477.3823"/><text fill="#000000" font-family="sans-serif" font-size="12" lengthAdjust="spacing" textLength="27.4863" x="1481.8086" y="498.521">i++;</text><ellipse cx="750.4043" cy="686.3198" fill="none" rx="11" ry="11" style="stroke:#222222;stroke-width:1.0;"/><ellipse cx="750.4043" cy="686.3198" fill="#222222" rx="6" ry="6" style="stroke:#222222;stroke-width:1.0;"/><line style="stroke:#181818;stroke-width:1.0;" x1="750.4043" x2="750.4043" y1="83.5938" y2="103.5938"/><polygon fill="#181818" points="746.4043,93.5938,750.4043,103.5938,754.4043,93.5938,750.4043,97.5938" style="stroke:#181818;stroke-width:1.0;"/><line style="stroke:#181818;stroke-width:1.0;" x1="179.2109" x2="179.2109" y1="413.4136" y2="447.3823"/><polygon fill="#181818" points="175.2109,437.3823,179.2109,447.3823,183.2109,437.3823,179.2109,441.3823" style="stroke:#181818;stroke-width:1.0;"/><line style="stroke:#181818;stroke-width:1.0;" x1="459.3984" x2="459.3984" y1="399.4448" y2="433.4136"/><polygon fill="#181818" points="455.3984,423.4136,459.3984,433.4136,463.3984,423.4136,459.3984,427.4136" style="stroke:#181818;stroke-width:1.0;"/><line style="stroke:#181818;stroke-width:1.0;" x1="459.3984" x2="459.3984" y1="467.3823" y2="501.2222"/><polygon fill="#181818" points="455.3984,491.2222,459.3984,501.2222,463.3984,491.2222,459.3984,495.2222" style="stroke:#181818;stroke-width:1.0;"/><line style="stroke:#181818;stroke-width:1.0;" x1="744.4258" x2="744.4258" y1="399.4448" y2="433.4136"/><polygon fill="#181818" points="740.4258,423.4136,744.4258,433.4136,748.4258,423.4136,744.4258,427.4136" style="stroke:#181818;stroke-width:1.0;"/><line style="stroke:#181818;stroke-width:1.0;" x1="744.4258" x2="744.4258" y1="467.3823" y2="501.2222"/><polygon fill="#181818" points="740.4258,491.2222,744.4258,501.2222,748.4258,491.2222,744.4258,495.2222" style="stroke:#181818;stroke-width:1.0;"/><line style="stroke:#181818;stroke-width:1.0;" x1="1030.5752" x2="1030.5752" y1="399.4448" y2="433.4136"/><polygon fill="#181818" points="1026.5752,423.4136,1030.5752,433.4136,1034.5752,423.4136,1030.5752,427.4136" style="stroke:#181818;stroke-width:1.0;"/><line style="stroke:#181818;stroke-width:1.0;" x1="1030.5752" x2="1030.5752" y1="467.3823" y2="501.2222"/><polygon fill="#181818" points="1026.5752,491.2222,1030.5752,501.2222,1034.5752,491.2222,1030.5752,495.2222" style="stroke:#181818;stroke-width:1.0;"/><line style="stroke:#181818;stroke-width:1.0;" x1="1311.7412" x2="1311.7412" y1="399.4448" y2="433.4136"/><polygon fill="#181818" points="1307.7412,423.4136,1311.7412,433.4136,1315.7412,423.4136,1311.7412,427.4136" style="stroke:#181818;stroke-width:1.0;"/><line style="stroke:#181818;stroke-width:1.0;" x1="726.4043" x2="179.2109" y1="331.8354" y2="331.8354"/><line style="stroke:#181818;stroke-width:1.0;" x1="179.2109" x2="179.2109" y1="331.8354" y2="379.4448"/><polygon fill="#181818" points="175.2109,369.4448,179.2109,379.4448,183.2109,369.4448,179.2109,373.4448" style="stroke:#181818;stroke-width:1.0;"/><text fill="#000000" font-family="sans-serif" font-size="11" lengthAdjust="spacing" textLength="6.9985" x="179.2109" y="359.4482">0</text><line style="stroke:#181818;stroke-width:1.0;" x1="774.4043" x2="1311.7412" y1="331.8354" y2="331.8354"/><line style="stroke:#181818;stroke-width:1.0;" x1="1311.7412" x2="1311.7412" y1="331.8354" y2="379.4448"/><polygon fill="#181818" points="1307.7412,369.4448,1311.7412,379.4448,1315.7412,369.4448,1311.7412,373.4448" style="stroke:#181818;stroke-width:1.0;"/><text fill="#000000" font-family="sans-serif" font-size="11" lengthAdjust="spacing" textLength="6.9985" x="1311.7412" y="359.4482">4</text><line style="stroke:#181818;stroke-width:1.0;" x1="459.3984" x2="459.3984" y1="331.8354" y2="379.4448"/><polygon fill="#181818" points="455.3984,369.4448,459.3984,379.4448,463.3984,369.4448,459.3984,373.4448" style="stroke:#181818;stroke-width:1.0;"/><text fill="#000000" font-family="sans-serif" font-size="11" lengthAdjust="spacing" textLength="6.9985" x="459.3984" y="354.4482">1</text><line style="stroke:#181818;stroke-width:1.0;" x1="750.4043" x2="750.4043" y1="343.8354" y2="355.7052"/><line style="stroke:#181818;stroke-width:1.0;" x1="750.4043" x2="744.4258" y1="355.7052" y2="355.7052"/><line style="stroke:#181818;stroke-width:1.0;" x1="744.4258" x2="744.4258" y1="355.7052" y2="379.4448"/><polygon fill="#181818" points="740.4258,369.4448,744.4258,379.4448,748.4258,369.4448,744.4258,373.4448" style="stroke:#181818;stroke-width:1.0;"/><text fill="#000000" font-family="sans-serif" font-size="11" lengthAdjust="spacing" textLength="6.9985" x="744.4258" y="360.4482">2</text><line style="stroke:#181818;stroke-width:1.0;" x1="1030.5752" x2="1030.5752" y1="331.8354" y2="379.4448"/><polygon fill="#181818" points="1026.5752,369.4448,1030.5752,379.4448,1034.5752,369.4448,1030.5752,373.4448" style="stroke:#181818;stroke-width:1.0;"/><text fill="#000000" font-family="sans-serif" font-size="11" lengthAdjust="spacing" textLength="6.9985" x="1030.5752" y="354.4482">3</text><line style="stroke:#181818;stroke-width:1.0;" x1="1311.7412" x2="1311.7412" y1="467.3823" y2="543.3511"/><line style="stroke:#181818;stroke-width:1.0;" x1="1311.7412" x2="762.4043" y1="543.3511" y2="543.3511"/><polygon fill="#181818" points="772.4043,539.3511,762.4043,543.3511,772.4043,547.3511,768.4043,543.3511" style="stroke:#181818;stroke-width:1.0;"/><line style="stroke:#181818;stroke-width:1.0;" x1="750.4043" x2="750.4043" y1="555.3511" y2="587.3511"/><polygon fill="#181818" points="746.4043,577.3511,750.4043,587.3511,754.4043,577.3511,750.4043,581.3511" style="stroke:#181818;stroke-width:1.0;"/><line style="stroke:#181818;stroke-width:1.0;" x1="750.4043" x2="750.4043" y1="261.8281" y2="319.8354"/><polygon fill="#181818" points="746.4043,309.8354,750.4043,319.8354,754.4043,309.8354,750.4043,313.8354" style="stroke:#181818;stroke-width:1.0;"/><line style="stroke:#181818;stroke-width:1.0;" x1="750.4043" x2="750.4043" y1="621.3198" y2="631.3198"/><line style="stroke:#181818;stroke-width:1.0;" x1="750.4043" x2="1495.5518" y1="631.3198" y2="631.3198"/><line style="stroke:#181818;stroke-width:1.0;" x1="1495.5518" x2="1495.5518" y1="511.3511" y2="631.3198"/><polygon fill="#181818" points="1491.5518,521.3511,1495.5518,511.3511,1499.5518,521.3511,1495.5518,517.3511" style="stroke:#181818;stroke-width:1.0;"/><line style="stroke:#181818;stroke-width:1.0;" x1="1495.5518" x2="1495.5518" y1="249.8281" y2="477.3823"/><line style="stroke:#181818;stroke-width:1.0;" x1="1495.5518" x2="780.4136" y1="249.8281" y2="249.8281"/><polygon fill="#181818" points="790.4136,245.8281,780.4136,249.8281,790.4136,253.8281,786.4136,249.8281" style="stroke:#181818;stroke-width:1.0;"/><line style="stroke:#181818;stroke-width:1.0;" x1="720.395" x2="27" y1="249.8281" y2="249.8281"/><polygon fill="#181818" points="23,490.3667,27,500.3667,31,490.3667,27,494.3667" style="stroke:#181818;stroke-width:1.0;"/><line style="stroke:#181818;stroke-width:1.0;" x1="27" x2="27" y1="249.8281" y2="643.3198"/><line style="stroke:#181818;stroke-width:1.0;" x1="27" x2="750.4043" y1="643.3198" y2="643.3198"/><line style="stroke:#181818;stroke-width:1.0;" x1="750.4043" x2="750.4043" y1="643.3198" y2="675.3198"/><polygon fill="#181818" points="746.4043,665.3198,750.4043,675.3198,754.4043,665.3198,750.4043,669.3198" style="stroke:#181818;stroke-width:1.0;"/><line style="stroke:#181818;stroke-width:1.0;" x1="750.4043" x2="750.4043" y1="217.8281" y2="237.8281"/><polygon fill="#181818" points="746.4043,227.8281,750.4043,237.8281,754.4043,227.8281,750.4043,231.8281" style="stroke:#181818;stroke-width:1.0;"/><line style="stroke:#181818;stroke-width:1.0;" x1="750.4043" x2="750.4043" y1="137.5625" y2="183.8594"/><polygon fill="#181818" points="746.4043,173.8594,750.4043,183.8594,754.4043,173.8594,750.4043,177.8594" style="stroke:#181818;stroke-width:1.0;"/><!--SRC=[bPHHRvim4CVV_IbExGkeKfgaxRecrDAoQK_JLAclUp7u2ASO6zacA9lotMSWecjNAd8FIFpFT_Vx6nrkHxeILfJm9VEq9t-0Fmn2V3VQFzDlXCMoU-yUtqYKHilJaJP-aCQlHXaB1rJAD4DY8xBTrffQopwTrbOT6cFaSE9bmkrhpHyKGcfKV_J8Zeov0VD9M4-UZ3v1R8oLQBiPIK9wJuvIXPo3DXe79sFv8mlDmhJ1l2InRSUO77xf90-be4M9Zy6sSPN8a2TPv-VoRd6pJ97_D1kBOZSh1UaeJgwxB4-ksr8E9VeYM6RE1sp6LXJwqNhDM3NOk7n8vQVF4lBGL1bJdNoj21vXlbv3adZXTfntQbEGmeWWWRiOo47Kqwos5b5pRskCXxlyPqH-dzy_pC4rvBC20ep74WFAotTieqz75CChkOrCE8pcyNzwH_fySA7VpDH-LjdWKEdeWbewXSw1BuI6SDUpYxXp4uvLjJ_vUHlHulqP4ht8YlUnHah6z2culZ7JS9VduuwKZEcJS8lm-QS1tvmFF58ofay1parjf_7UdiyxKZAcJ-Ab_SVtYrhsspEeH_RHW95MQVXfDiBA5LrTlLtzCABR_c7dBKgU2-N2ohT_I6-glm00]--></g></svg>