<svg xmlns="http://www.w3.org/2000/svg" xmlns:xlink="http://www.w3.org/1999/xlink" contentStyleType="text/css" height="774px" preserveAspectRatio="none" style="width:342px;height:774px;background:#FFFFFF;" version="1.1" viewBox="0 0 342 774" width="342px" zoomAndPan="magnify"><title>Activity diagram of </title><defs/><g><text fill="#000000" font-family="sans-serif" font-size="14" font-weight="bold" lengthAdjust="spacing" textLength="151.0537" x="91.9727" y="32.9951">Activity diagram of</text><text fill="#5132BE" font-family="name=monospace" font-size="14" font-weight="bold" lengthAdjust="spacing" textLength="106.1279" x="84.2446" y="49.292">Power.main()</text><text fill="#000000" font-family="sans-serif" font-size="14" font-weight="bold" lengthAdjust="spacing" textLength="60.3818" x="195.2466" y="49.292">method</text><ellipse cx="146.6934" cy="73.5938" fill="#222222" rx="10" ry="10" style="stroke:#222222;stroke-width:1.0;"/><rect fill="#F1F1F1" height="33.9688" rx="12.5" ry="12.5" style="stroke:#181818;stroke-width:0.5;" width="92.7266" x="100.3301" y="103.5938"/><text fill="#000000" font-family="sans-serif" font-size="12" lengthAdjust="spacing" textLength="72.7266" x="110.3301" y="124.7324">int e, result;</text><rect fill="#9BD68D" height="573.9878" style="stroke:#000000;stroke-width:1.5;" width="320.873" x="11" y="147.5625"/><path d="M74.6074,147.5625 L74.6074,156.8594 L64.6074,166.8594 L11,166.8594 " fill="none" style="stroke:#000000;stroke-width:1.5;"/><text fill="#000000" font-family="sans-serif" font-size="14" lengthAdjust="spacing" textLength="53.6074" x="14" y="161.5576">for loop</text><rect fill="#F1F1F1" height="33.9688" style="stroke:#181818;stroke-width:0.5;" width="72.1543" x="110.6162" y="183.8594"/><text fill="#000000" font-family="sans-serif" font-size="12" lengthAdjust="spacing" textLength="52.1543" x="120.6162" y="204.998">int i = 0;</text><rect fill="#F1F1F1" height="33.9688" style="stroke:#181818;stroke-width:0.5;" width="83.5742" x="104.9063" y="293.5386"/><text fill="#000000" font-family="sans-serif" font-size="12" lengthAdjust="spacing" textLength="63.5742" x="114.9063" y="314.6772">result = 1;</text><rect fill="#F1F1F1" height="33.9688" style="stroke:#181818;stroke-width:0.5;" width="52.4434" x="120.4717" y="347.5073"/><text fill="#000000" font-family="sans-serif" font-size="12" lengthAdjust="spacing" textLength="32.4434" x="130.4717" y="368.646">e = i;</text><rect fill="#DFA9CD" height="228.1367" style="stroke:#000000;stroke-width:1.5;" width="154.5742" x="67.9063" y="391.4761"/><path d="M148.9795,391.4761 L148.9795,400.7729 L138.9795,410.7729 L67.9063,410.7729 " fill="none" style="stroke:#000000;stroke-width:1.5;"/><text fill="#000000" font-family="sans-serif" font-size="14" lengthAdjust="spacing" textLength="71.0732" x="70.9063" y="405.4712">while loop</text><rect fill="#F1F1F1" height="33.9688" style="stroke:#181818;stroke-width:0.5;" width="89.5742" x="101.9063" y="488.5776"/><text fill="#000000" font-family="sans-serif" font-size="12" lengthAdjust="spacing" textLength="69.5742" x="111.9063" y="509.7163">result *= 2;</text><rect fill="#F1F1F1" height="33.9688" style="stroke:#181818;stroke-width:0.5;" width="40.0859" x="126.6504" y="551.644"/><text fill="#000000" font-family="sans-serif" font-size="12" lengthAdjust="spacing" textLength="20.0859" x="136.6504" y="572.7827">e--;</text><polygon fill="#DEB887" points="126.3359,427.7729,167.0508,427.7729,179.0508,439.7729,167.0508,451.7729,126.3359,451.7729,114.3359,439.7729,126.3359,427.7729" style="stroke:#181818;stroke-width:0.5;"/><text fill="#008000" font-family="sans-serif" font-size="11" lengthAdjust="spacing" textLength="22.5747" x="150.6934" y="461.9834">true</text><text fill="#000000" font-family="sans-serif" font-size="14" font-weight="bold" lengthAdjust="spacing" textLength="40.7148" x="126.3359" y="444.6196">e &gt; 0</text><text fill="#FF0000" font-family="sans-serif" font-size="11" lengthAdjust="spacing" textLength="26.168" x="88.168" y="437.1787">false</text><polygon fill="#F1F1F1" points="39,639.6128,254.3867,639.6128,264.3867,663.5815,254.3867,687.5503,39,687.5503" style="stroke:#181818;stroke-width:0.5;"/><text fill="#000000" font-family="sans-serif" font-size="12" lengthAdjust="spacing" textLength="191.5723" x="49" y="660.7515">System.out.println("2 to the " +</text><text fill="#000000" font-family="sans-serif" font-size="12" lengthAdjust="spacing" textLength="150.7969" x="49" y="674.7202">i + " power is " + result);</text><polygon fill="#DEB887" points="123.8135,237.8281,169.5732,237.8281,181.5732,249.8281,169.5732,261.8281,123.8135,261.8281,111.8135,249.8281,123.8135,237.8281" style="stroke:#181818;stroke-width:0.5;"/><text fill="#008000" font-family="sans-serif" font-size="11" lengthAdjust="spacing" textLength="22.5747" x="150.6934" y="272.0386">true</text><text fill="#000000" font-family="sans-serif" font-size="14" font-weight="bold" lengthAdjust="spacing" textLength="45.7598" x="123.8135" y="254.6748">i &lt; 10</text><text fill="#FF0000" font-family="sans-serif" font-size="11" lengthAdjust="spacing" textLength="26.168" x="85.6455" y="247.2339">false</text><rect fill="#F1F1F1" height="33.9688" style="stroke:#181818;stroke-width:0.5;" width="47.4863" x="274.3867" y="450.6089"/><text fill="#000000" font-family="sans-serif" font-size="12" lengthAdjust="spacing" textLength="27.4863" x="284.3867" y="471.7476">i++;</text><ellipse cx="146.6934" cy="752.5503" fill="none" rx="11" ry="11" style="stroke:#222222;stroke-width:1.0;"/><ellipse cx="146.6934" cy="752.5503" fill="#222222" rx="6" ry="6" style="stroke:#222222;stroke-width:1.0;"/><line style="stroke:#181818;stroke-width:1.0;" x1="146.6934" x2="146.6934" y1="83.5938" y2="103.5938"/><polygon fill="#181818" points="142.6934,93.5938,146.6934,103.5938,150.6934,93.5938,146.6934,97.5938" style="stroke:#181818;stroke-width:1.0;"/><line style="stroke:#181818;stroke-width:1.0;" x1="146.6934" x2="146.6934" y1="327.5073" y2="347.5073"/><polygon fill="#181818" points="142.6934,337.5073,146.6934,347.5073,150.6934,337.5073,146.6934,341.5073" style="stroke:#181818;stroke-width:1.0;"/><line style="stroke:#181818;stroke-width:1.0;" x1="146.6934" x2="146.6934" y1="522.5464" y2="551.644"/><polygon fill="#181818" points="142.6934,541.644,146.6934,551.644,150.6934,541.644,146.6934,545.644" style="stroke:#181818;stroke-width:1.0;"/><line style="stroke:#181818;stroke-width:1.0;" x1="146.6934" x2="146.6934" y1="451.7729" y2="488.5776"/><polygon fill="#181818" points="142.6934,478.5776,146.6934,488.5776,150.6934,478.5776,146.6934,482.5776" style="stroke:#181818;stroke-width:1.0;"/><line style="stroke:#181818;stroke-width:1.0;" x1="146.6934" x2="146.6934" y1="585.6128" y2="595.6128"/><line style="stroke:#181818;stroke-width:1.0;" x1="146.6934" x2="203.4805" y1="595.6128" y2="595.6128"/><polygon fill="#181818" points="199.4805,531.644,203.4805,521.644,207.4805,531.644,203.4805,527.644" style="stroke:#181818;stroke-width:1.0;"/><line style="stroke:#181818;stroke-width:1.0;" x1="203.4805" x2="203.4805" y1="439.7729" y2="595.6128"/><line style="stroke:#181818;stroke-width:1.0;" x1="203.4805" x2="179.0508" y1="439.7729" y2="439.7729"/><polygon fill="#181818" points="189.0508,435.7729,179.0508,439.7729,189.0508,443.7729,185.0508,439.7729" style="stroke:#181818;stroke-width:1.0;"/><line style="stroke:#181818;stroke-width:1.0;" x1="114.3359" x2="89.9063" y1="439.7729" y2="439.7729"/><polygon fill="#181818" points="85.9063,517.644,89.9063,527.644,93.9063,517.644,89.9063,521.644" style="stroke:#181818;stroke-width:1.0;"/><line style="stroke:#181818;stroke-width:1.0;" x1="89.9063" x2="89.9063" y1="439.7729" y2="607.6128"/><line style="stroke:#181818;stroke-width:1.0;" x1="89.9063" x2="146.6934" y1="607.6128" y2="607.6128"/><line style="stroke:#181818;stroke-width:1.0;" x1="146.6934" x2="146.6934" y1="607.6128" y2="639.6128"/><polygon fill="#181818" points="142.6934,629.6128,146.6934,639.6128,150.6934,629.6128,146.6934,633.6128" style="stroke:#181818;stroke-width:1.0;"/><line style="stroke:#181818;stroke-width:1.0;" x1="146.6934" x2="146.6934" y1="381.4761" y2="427.7729"/><polygon fill="#181818" points="142.6934,417.7729,146.6934,427.7729,150.6934,417.7729,146.6934,421.7729" style="stroke:#181818;stroke-width:1.0;"/><line style="stroke:#181818;stroke-width:1.0;" x1="146.6934" x2="146.6934" y1="261.8281" y2="293.5386"/><polygon fill="#181818" points="142.6934,283.5386,146.6934,293.5386,150.6934,283.5386,146.6934,287.5386" style="stroke:#181818;stroke-width:1.0;"/><line style="stroke:#181818;stroke-width:1.0;" x1="146.6934" x2="146.6934" y1="687.5503" y2="697.5503"/><line style="stroke:#181818;stroke-width:1.0;" x1="146.6934" x2="298.1299" y1="697.5503" y2="697.5503"/><line style="stroke:#181818;stroke-width:1.0;" x1="298.1299" x2="298.1299" y1="484.5776" y2="697.5503"/><polygon fill="#181818" points="294.1299,494.5776,298.1299,484.5776,302.1299,494.5776,298.1299,490.5776" style="stroke:#181818;stroke-width:1.0;"/><line style="stroke:#181818;stroke-width:1.0;" x1="298.1299" x2="298.1299" y1="249.8281" y2="450.6089"/><line style="stroke:#181818;stroke-width:1.0;" x1="298.1299" x2="181.5732" y1="249.8281" y2="249.8281"/><polygon fill="#181818" points="191.5732,245.8281,181.5732,249.8281,191.5732,253.8281,187.5732,249.8281" style="stroke:#181818;stroke-width:1.0;"/><line style="stroke:#181818;stroke-width:1.0;" x1="111.8135" x2="27" y1="249.8281" y2="249.8281"/><polygon fill="#181818" points="23,463.5933,27,473.5933,31,463.5933,27,467.5933" style="stroke:#181818;stroke-width:1.0;"/><line style="stroke:#181818;stroke-width:1.0;" x1="27" x2="27" y1="249.8281" y2="709.5503"/><line style="stroke:#181818;stroke-width:1.0;" x1="27" x2="146.6934" y1="709.5503" y2="709.5503"/><line style="stroke:#181818;stroke-width:1.0;" x1="146.6934" x2="146.6934" y1="709.5503" y2="741.5503"/><polygon fill="#181818" points="142.6934,731.5503,146.6934,741.5503,150.6934,731.5503,146.6934,735.5503" style="stroke:#181818;stroke-width:1.0;"/><line style="stroke:#181818;stroke-width:1.0;" x1="146.6934" x2="146.6934" y1="217.8281" y2="237.8281"/><polygon fill="#181818" points="142.6934,227.8281,146.6934,237.8281,150.6934,227.8281,146.6934,231.8281" style="stroke:#181818;stroke-width:1.0;"/><line style="stroke:#181818;stroke-width:1.0;" x1="146.6934" x2="146.6934" y1="137.5625" y2="183.8594"/><polygon fill="#181818" points="142.6934,173.8594,146.6934,183.8594,150.6934,173.8594,146.6934,177.8594" style="stroke:#181818;stroke-width:1.0;"/><!--SRC=[XP8nRzim48Lt_eg3izXruyHEMpIsJ21fqIb3WAnTAF5a7qpn19AAe1J-xwKaHtQCfEL0W7oyUzyZwNTaI-LK0NTPe6SA3VmH4CSljk69NX3cYsxTJJz95MpruKWx7iZY3pRie45Zk1w4UvNjDeuhgtivhPnfQcOzd3WwV7cx5ng3aBBfZ-x5NWW_O3ug5oWGsmF4FJkDhlD84hBFv2arA2LOjZWa-KZVYzWikWtXDQbDQyCv_BP97al1gWBNCJRxKcKeawpBS_5rVhD8KJvoZMvMABBZINBLQJAvQWib51YsCR3m8K8BiQJO3J-3Gr-Pi5e9KGvXBcvJ_UsxXZosDipb8LrNGh26wzKAaYGelvEoK-ej6HmJ932_dW1v6FTWour3j3Au2YV3jIvxozXdVjwdap4gz9vo0gXpTPlftlSKyNNqG0WI_izpplLf3Oltx8-0bvSVwMXrp_Hgw53BN1b_uhS_HdrgVC1YnbMObIxUhh7ZqG82GzWYZ60QdvtYF8AoVTWsIBlPSquwXbXQLk648erVlLPEBsawFQVy5rtxhmENVm40]--></g></svg>