<svg xmlns="http://www.w3.org/2000/svg" xmlns:xlink="http://www.w3.org/1999/xlink" contentStyleType="text/css" height="683px" preserveAspectRatio="none" style="width:550px;height:683px;background:#FFFFFF;" version="1.1" viewBox="0 0 550 683" width="550px" zoomAndPan="magnify"><title>Activity diagram of </title><defs/><g><text fill="#000000" font-family="sans-serif" font-size="14" font-weight="bold" lengthAdjust="spacing" textLength="151.0537" x="195.5593" y="32.9951">Activity diagram of</text><text fill="#5132BE" font-family="name=monospace" font-size="14" font-weight="bold" lengthAdjust="spacing" textLength="107.8369" x="186.9768" y="49.292">SqrRoot.main</text><text fill="#000000" font-family="sans-serif" font-size="14" font-weight="bold" lengthAdjust="spacing" textLength="60.3818" x="299.6877" y="49.292">method</text><ellipse cx="286.4458" cy="73.5938" fill="#222222" rx="10" ry="10" style="stroke:#222222;stroke-width:1.0;"/><rect fill="#F1F1F1" height="33.9688" rx="12.5" ry="12.5" style="stroke:#181818;stroke-width:0.5;" width="163.6719" x="204.6099" y="103.5938"/><text fill="#000000" font-family="sans-serif" font-size="12" lengthAdjust="spacing" textLength="143.6719" x="214.6099" y="124.7324">double num, sroot, rerr;</text><rect fill="#9BD68D" height="483.0229" style="stroke:#000000;stroke-width:1.5;" width="528.0464" x="11" y="147.5625"/><path d="M74.6074,147.5625 L74.6074,156.8594 L64.6074,166.8594 L11,166.8594 " fill="none" style="stroke:#000000;stroke-width:1.5;"/><text fill="#000000" font-family="sans-serif" font-size="14" lengthAdjust="spacing" textLength="53.6074" x="14" y="161.5576">for loop</text><rect fill="#F1F1F1" height="33.9688" style="stroke:#181818;stroke-width:0.5;" width="87.7109" x="242.5903" y="183.8594"/><text fill="#000000" font-family="sans-serif" font-size="12" lengthAdjust="spacing" textLength="67.7109" x="252.5903" y="204.998">num = 1.0;</text><path d="M39,283.5386 L39,338.937 A0,0 0 0 0 39,338.937 L183.4937,338.937 A0,0 0 0 0 183.4937,338.937 L183.4937,315.2378 L203.4937,311.2378 L183.4937,307.2378 L183.4937,293.5386 L173.4937,283.5386 L39,283.5386 A0,0 0 0 0 39,283.5386 " fill="#FEFFDD" style="stroke:#181818;stroke-width:0.5;"/><path d="M173.4937,283.5386 L173.4937,293.5386 L183.4937,293.5386 L173.4937,283.5386 " fill="#FEFFDD" style="stroke:#181818;stroke-width:0.5;"/><text fill="#000000" font-family="sans-serif" font-size="13" font-style="italic" lengthAdjust="spacing" textLength="25.4668" x="45" y="300.6055">sqrt</text><text fill="#000000" font-family="sans-serif" font-size="13" lengthAdjust="spacing" textLength="83.8018" x="74.5991" y="300.6055">takes double</text><text fill="#000000" font-family="sans-serif" font-size="13" lengthAdjust="spacing" textLength="119.3613" x="45" y="315.7383">as input and gives</text><text fill="#000000" font-family="sans-serif" font-size="13" lengthAdjust="spacing" textLength="110.189" x="45" y="330.8711">output as double</text><rect fill="#F1F1F1" height="33.9688" style="stroke:#181818;stroke-width:0.5;" width="165.9043" x="203.4937" y="294.2534"/><line style="stroke:#181818;stroke-width:0.5;" x1="208.4937" x2="208.4937" y1="294.2534" y2="328.2222"/><line style="stroke:#181818;stroke-width:0.5;" x1="364.3979" x2="364.3979" y1="294.2534" y2="328.2222"/><text fill="#000000" font-family="sans-serif" font-size="12" lengthAdjust="spacing" textLength="145.9043" x="213.4937" y="315.3921">sroot = Math.sqrt(num);</text><polygon fill="#F1F1F1" points="166.1753,358.937,406.7163,358.937,416.7163,382.9058,406.7163,406.8745,166.1753,406.8745" style="stroke:#181818;stroke-width:0.5;"/><text fill="#000000" font-family="sans-serif" font-size="12" lengthAdjust="spacing" textLength="216.7266" x="176.1753" y="380.0757">System.out.println("Square root of "</text><text fill="#000000" font-family="sans-serif" font-size="12" lengthAdjust="spacing" textLength="143.6895" x="176.1753" y="394.0444">+ num + " is " + sroot);</text><rect fill="#F1F1F1" height="33.9688" style="stroke:#181818;stroke-width:0.5;" width="186.9102" x="192.9907" y="454.6792"/><text fill="#000000" font-family="sans-serif" font-size="12" lengthAdjust="spacing" textLength="166.9102" x="202.9907" y="475.8179">rerr = num - (sroot * sroot);</text><polygon fill="#F1F1F1" points="134.8979,508.6479,437.9937,508.6479,447.9937,525.6323,437.9937,542.6167,134.8979,542.6167" style="stroke:#181818;stroke-width:0.5;"/><text fill="#000000" font-family="sans-serif" font-size="12" lengthAdjust="spacing" textLength="283.0957" x="144.8979" y="529.7866">System.out.println("Rounding error is " + rerr);</text><polygon fill="#F1F1F1" points="214.1606,562.6167,358.731,562.6167,368.731,579.6011,358.731,596.5854,214.1606,596.5854" style="stroke:#181818;stroke-width:0.5;"/><text fill="#000000" font-family="sans-serif" font-size="12" lengthAdjust="spacing" textLength="124.5703" x="224.1606" y="583.7554">System.out.println();</text><polygon fill="#DEB887" points="236.3042,237.8281,336.5874,237.8281,348.5874,249.8281,336.5874,261.8281,236.3042,261.8281,224.3042,249.8281,236.3042,237.8281" style="stroke:#181818;stroke-width:0.5;"/><text fill="#008000" font-family="sans-serif" font-size="11" lengthAdjust="spacing" textLength="22.5747" x="290.4458" y="272.0386">true</text><text fill="#000000" font-family="sans-serif" font-size="14" font-weight="bold" lengthAdjust="spacing" textLength="100.2832" x="236.3042" y="254.6748">num &lt; 100.0</text><text fill="#FF0000" font-family="sans-serif" font-size="11" lengthAdjust="spacing" textLength="26.168" x="198.1362" y="247.2339">false</text><rect fill="#F1F1F1" height="33.9688" style="stroke:#181818;stroke-width:0.5;" width="71.0527" x="457.9937" y="412.1753"/><text fill="#000000" font-family="sans-serif" font-size="12" lengthAdjust="spacing" textLength="51.0527" x="467.9937" y="433.314">num++;</text><ellipse cx="286.4458" cy="661.5854" fill="none" rx="11" ry="11" style="stroke:#222222;stroke-width:1.0;"/><ellipse cx="286.4458" cy="661.5854" fill="#222222" rx="6" ry="6" style="stroke:#222222;stroke-width:1.0;"/><line style="stroke:#181818;stroke-width:1.0;" x1="286.4458" x2="286.4458" y1="83.5938" y2="103.5938"/><polygon fill="#181818" points="282.4458,93.5938,286.4458,103.5938,290.4458,93.5938,286.4458,97.5938" style="stroke:#181818;stroke-width:1.0;"/><line style="stroke:#181818;stroke-width:1.0;" x1="286.4458" x2="286.4458" y1="328.2222" y2="358.937"/><polygon fill="#181818" points="282.4458,348.937,286.4458,358.937,290.4458,348.937,286.4458,352.937" style="stroke:#181818;stroke-width:1.0;"/><line style="stroke:#181818;stroke-width:1.0;" x1="286.4458" x2="286.4458" y1="406.8745" y2="454.6792"/><polygon fill="#181818" points="282.4458,444.6792,286.4458,454.6792,290.4458,444.6792,286.4458,448.6792" style="stroke:#181818;stroke-width:1.0;"/><text fill="#000000" font-family="sans-serif" font-size="11" lengthAdjust="spacing" textLength="142.6831" x="290.4458" y="434.585">// compute rounding error</text><line style="stroke:#181818;stroke-width:1.0;" x1="286.4458" x2="286.4458" y1="488.6479" y2="508.6479"/><polygon fill="#181818" points="282.4458,498.6479,286.4458,508.6479,290.4458,498.6479,286.4458,502.6479" style="stroke:#181818;stroke-width:1.0;"/><line style="stroke:#181818;stroke-width:1.0;" x1="286.4458" x2="286.4458" y1="542.6167" y2="562.6167"/><polygon fill="#181818" points="282.4458,552.6167,286.4458,562.6167,290.4458,552.6167,286.4458,556.6167" style="stroke:#181818;stroke-width:1.0;"/><line style="stroke:#181818;stroke-width:1.0;" x1="286.4458" x2="286.4458" y1="261.8281" y2="294.2534"/><polygon fill="#181818" points="282.4458,284.2534,286.4458,294.2534,290.4458,284.2534,286.4458,288.2534" style="stroke:#181818;stroke-width:1.0;"/><line style="stroke:#181818;stroke-width:1.0;" x1="286.4458" x2="286.4458" y1="596.5854" y2="606.5854"/><line style="stroke:#181818;stroke-width:1.0;" x1="286.4458" x2="493.52" y1="606.5854" y2="606.5854"/><line style="stroke:#181818;stroke-width:1.0;" x1="493.52" x2="493.52" y1="446.144" y2="606.5854"/><polygon fill="#181818" points="489.52,456.144,493.52,446.144,497.52,456.144,493.52,452.144" style="stroke:#181818;stroke-width:1.0;"/><line style="stroke:#181818;stroke-width:1.0;" x1="493.52" x2="493.52" y1="249.8281" y2="412.1753"/><line style="stroke:#181818;stroke-width:1.0;" x1="493.52" x2="348.5874" y1="249.8281" y2="249.8281"/><polygon fill="#181818" points="358.5874,245.8281,348.5874,249.8281,358.5874,253.8281,354.5874,249.8281" style="stroke:#181818;stroke-width:1.0;"/><line style="stroke:#181818;stroke-width:1.0;" x1="224.3042" x2="27" y1="249.8281" y2="249.8281"/><polygon fill="#181818" points="23,425.1597,27,435.1597,31,425.1597,27,429.1597" style="stroke:#181818;stroke-width:1.0;"/><line style="stroke:#181818;stroke-width:1.0;" x1="27" x2="27" y1="249.8281" y2="618.5854"/><line style="stroke:#181818;stroke-width:1.0;" x1="27" x2="286.4458" y1="618.5854" y2="618.5854"/><line style="stroke:#181818;stroke-width:1.0;" x1="286.4458" x2="286.4458" y1="618.5854" y2="650.5854"/><polygon fill="#181818" points="282.4458,640.5854,286.4458,650.5854,290.4458,640.5854,286.4458,644.5854" style="stroke:#181818;stroke-width:1.0;"/><line style="stroke:#181818;stroke-width:1.0;" x1="286.4458" x2="286.4458" y1="217.8281" y2="237.8281"/><polygon fill="#181818" points="282.4458,227.8281,286.4458,237.8281,290.4458,227.8281,286.4458,231.8281" style="stroke:#181818;stroke-width:1.0;"/><line style="stroke:#181818;stroke-width:1.0;" x1="286.4458" x2="286.4458" y1="137.5625" y2="183.8594"/><polygon fill="#181818" points="282.4458,173.8594,286.4458,183.8594,290.4458,173.8594,286.4458,177.8594" style="stroke:#181818;stroke-width:1.0;"/><!--SRC=[VLFTRzem47_FNt5gNs2q0ReFRP1QMZVjQPEcyigB4nzWuVY2xO3OrFzzPuU6jXBpG-JuxduVTxRVQjj89sluMWMzr-48VpFWzODiMEW_2DExz9y-txMioQfJIbm_jSLlPCZ14OsXGnzuaDLsxQYrgWkNhJF70v7gCyuC7rwVXQD1ACbqgK_PKvRvNkPlwO8Eckn9n0CvXIvn58MsU-rrQL08i6InTt8fpj2CndIzUwNbElBG2fQsM74jM5dZFVictyWAHL4bGzSVf-_lIXIBdNia2dajjIt6AIQASImKK6FOiEFC1rQTPJD5BPE3RUiRy8whRi2XS_DvbZMzh-ilfVhqMS6AIGnHSp8wuoguXsa-cS-XA8BqMo5IvB3H1WSnNC1qCiadGz0U1ftEsTeXMX5SYyE-pRD4pcY_PDZaVkT2B1ycuCPHXQfrU4AFor90c46XHSmjnbf0a5lqS3AqjD83JwWD8FbwhFMUOqjBRKX7ptbd_iNH1wnpJiWRfsqmTd2rsBNI8IHbtFqh1XZ5Li68zspeYZT9TwUp0sUHFUgj68-XefgF8mnVFMtNmFqbDpzJnuQpymXy2uEk4UzU0h_ex4MjZw_GdzL5w3VY_eTo8RNabtEGJiM1ZqPl9Q5LQTxzV1qgiPB6ytZZGmdK_0C0]--></g></svg>