<svg xmlns="http://www.w3.org/2000/svg" xmlns:xlink="http://www.w3.org/1999/xlink" contentStyleType="text/css" height="230px" preserveAspectRatio="none" style="width:194px;height:230px;background:#FFFFFF;" version="1.1" viewBox="0 0 194 230" width="194px" zoomAndPan="magnify"><title>Class diagram of </title><defs/><g><text fill="#000000" font-family="sans-serif" font-size="14" font-weight="bold" lengthAdjust="spacing" textLength="131.8721" x="21.8137" y="22.9951">Class diagram of</text><text fill="#5132BE" font-family="name=monospace" font-size="14" font-weight="bold" lengthAdjust="spacing" textLength="98.0957" x="19.0964" y="39.292">SwitchDemo</text><text fill="#000000" font-family="sans-serif" font-size="14" font-weight="bold" lengthAdjust="spacing" textLength="39.2109" x="122.0662" y="39.292">class</text><!--class SwitchDemo--><g id="elem_SwitchDemo"><rect codeLine="3" fill="#F1F1F1" height="48" id="SwitchDemo" rx="2.5" ry="2.5" style="stroke:#181818;stroke-width:0.5;" width="119.8828" x="36.5" y="60.5938"/><ellipse cx="51.5" cy="76.5938" fill="#ADD1B2" rx="11" ry="11" style="stroke:#181818;stroke-width:1.0;"/><path d="M50.9688,83.5156 Q49.2188,83.5156 48.0781,82.7813 Q46.9531,82.0313 46.3906,80.6875 Q45.8438,79.3281 45.8438,77.5313 Q45.8438,75.5 46.5,74.0469 Q47.1563,72.5938 48.4375,71.8125 Q49.7188,71.0313 51.5938,71.0313 Q52.4844,71.0313 53.1563,71.2188 Q53.8281,71.3906 54.5156,71.7344 L53.7031,73.75 Q53.0781,73.4375 52.5313,73.3125 Q52,73.1875 51.5156,73.1875 Q50.3438,73.1875 49.6406,73.7188 Q48.9375,74.25 48.6406,75.2031 Q48.3438,76.1563 48.3438,77.4219 Q48.3438,79.4375 49.0625,80.4063 Q49.7813,81.3594 51.375,81.3594 Q51.9688,81.3594 52.5938,81.2031 Q53.2188,81.0469 54.0469,80.6719 L54.0469,82.8906 Q53.3125,83.2031 52.5156,83.3594 Q51.7344,83.5156 50.9688,83.5156 Z " fill="#000000"/><text fill="#000000" font-family="sans-serif" font-size="14" lengthAdjust="spacing" textLength="87.8828" x="65.5" y="81.4404">SwitchDemo</text><line style="stroke:#181818;stroke-width:0.5;" x1="37.5" x2="155.3828" y1="92.5938" y2="92.5938"/><line style="stroke:#181818;stroke-width:0.5;" x1="37.5" x2="155.3828" y1="100.5938" y2="100.5938"/></g><g id="elem_GMN3"><path d="M6,168.5938 L6,223.9922 A0,0 0 0 0 6,223.9922 L187.3735,223.9922 A0,0 0 0 0 187.3735,223.9922 L187.3735,178.5938 L177.3735,168.5938 L100.5,168.5938 L96.5,108.8138 L92.5,168.5938 L6,168.5938 A0,0 0 0 0 6,168.5938 " fill="#FEFFDD" style="stroke:#181818;stroke-width:0.5;"/><path d="M177.3735,168.5938 L177.3735,178.5938 L187.3735,178.5938 L177.3735,168.5938 " fill="#FEFFDD" style="stroke:#181818;stroke-width:0.5;"/><text fill="#000000" font-family="sans-serif" font-size="13" lengthAdjust="spacing" textLength="141.2861" x="12" y="185.6606">file: SwitchDemo.java</text><text fill="#000000" font-family="sans-serif" font-size="13" lengthAdjust="spacing" textLength="4.1323" x="12" y="200.7935">&#160;</text><text fill="#000000" font-family="sans-serif" font-size="13" lengthAdjust="spacing" textLength="160.3735" x="12" y="215.9263">Demonstrate the switch.</text></g><!--SRC=[JOsn3i8m34JtV8KbzbQ0M5380d_0okAcBWrAxAgnO43yEqqOYWTREh-xqw2Hu1mnP-W3tcTC80FSs0x22eo9JabOyeIUdFKIPORDORlVTUIkhw1-l50IszQFissnEV0bq9XwOCNWRM0Pyp4iIj29gjI-5Qd0428T_yJcWK_yMSig4cUTSSdGaI1Ni374FPJWBm00]--></g></svg>