<svg xmlns="http://www.w3.org/2000/svg" xmlns:xlink="http://www.w3.org/1999/xlink" contentStyleType="text/css" height="567px" preserveAspectRatio="none" style="width:1513px;height:567px;background:#FFFFFF;" version="1.1" viewBox="0 0 1513 567" width="1513px" zoomAndPan="magnify"><title>Activity diagram of </title><defs/><g><text fill="#000000" font-family="sans-serif" font-size="14" font-weight="bold" lengthAdjust="spacing" textLength="151.0537" x="677.5332" y="32.9951">Activity diagram of</text><text fill="#5132BE" font-family="name=monospace" font-size="14" font-weight="bold" lengthAdjust="spacing" textLength="155.0117" x="645.3633" y="49.292">SwitchDemo.main()</text><text fill="#000000" font-family="sans-serif" font-size="14" font-weight="bold" lengthAdjust="spacing" textLength="60.3818" x="805.249" y="49.292">method</text><ellipse cx="737.2539" cy="73.5938" fill="#222222" rx="10" ry="10" style="stroke:#222222;stroke-width:1.0;"/><rect fill="#F1F1F1" height="33.9688" rx="12.5" ry="12.5" style="stroke:#181818;stroke-width:0.5;" width="46.8359" x="713.8359" y="103.5938"/><text fill="#000000" font-family="sans-serif" font-size="12" lengthAdjust="spacing" textLength="26.8359" x="723.8359" y="124.7324">int i;</text><rect fill="#9BD68D" height="366.4956" style="stroke:#000000;stroke-width:1.5;" width="1491.9941" x="11" y="147.5625"/><path d="M74.6074,147.5625 L74.6074,156.8594 L64.6074,166.8594 L11,166.8594 " fill="none" style="stroke:#000000;stroke-width:1.5;"/><text fill="#000000" font-family="sans-serif" font-size="14" lengthAdjust="spacing" textLength="53.6074" x="14" y="161.5576">for loop</text><rect fill="#F1F1F1" height="33.9688" style="stroke:#181818;stroke-width:0.5;" width="52.6953" x="710.9063" y="183.8594"/><text fill="#000000" font-family="sans-serif" font-size="12" lengthAdjust="spacing" textLength="32.6953" x="720.9063" y="204.998">i = 0;</text><rect fill="#F7F790" height="196.5195" style="stroke:#000000;stroke-width:1.5;" width="1396.5078" x="39" y="283.5386"/><path d="M170.2217,283.5386 L170.2217,292.8354 L160.2217,302.8354 L39,302.8354 " fill="none" style="stroke:#000000;stroke-width:1.5;"/><text fill="#000000" font-family="sans-serif" font-size="14" lengthAdjust="spacing" textLength="121.2217" x="42" y="297.5337">switch statement</text><polygon fill="#DEB887" points="725.2539,319.8354,749.2539,319.8354,761.2539,331.8354,749.2539,343.8354,725.2539,343.8354,713.2539,331.8354,725.2539,319.8354" style="stroke:#181818;stroke-width:0.5;"/><text fill="#000000" font-family="sans-serif" font-size="14" font-weight="bold" lengthAdjust="spacing" textLength="4.7988" x="734.8545" y="336.6821">i</text><polygon fill="#F1F1F1" points="49,379.4448,251.1152,379.4448,261.1152,396.4292,251.1152,413.4136,49,413.4136" style="stroke:#181818;stroke-width:0.5;"/><text fill="#000000" font-family="sans-serif" font-size="12" lengthAdjust="spacing" textLength="182.1152" x="59" y="400.5835">System.out.println("i is zero");</text><polygon fill="#F1F1F1" points="271.1152,379.4448,469.6035,379.4448,479.6035,396.4292,469.6035,413.4136,271.1152,413.4136" style="stroke:#181818;stroke-width:0.5;"/><text fill="#000000" font-family="sans-serif" font-size="12" lengthAdjust="spacing" textLength="178.4883" x="281.1152" y="400.5835">System.out.println("i is one");</text><polygon fill="#F1F1F1" points="489.6035,379.4448,687.623,379.4448,697.623,396.4292,687.623,413.4136,489.6035,413.4136" style="stroke:#181818;stroke-width:0.5;"/><text fill="#000000" font-family="sans-serif" font-size="12" lengthAdjust="spacing" textLength="178.0195" x="499.6035" y="400.5835">System.out.println("i is two");</text><polygon fill="#F1F1F1" points="717.623,379.4448,925.791,379.4448,935.791,396.4292,925.791,413.4136,717.623,413.4136" style="stroke:#181818;stroke-width:0.5;"/><text fill="#000000" font-family="sans-serif" font-size="12" lengthAdjust="spacing" textLength="188.168" x="727.623" y="400.5835">System.out.println("i is three");</text><polygon fill="#F1F1F1" points="945.791,379.4448,1146.0547,379.4448,1156.0547,396.4292,1146.0547,413.4136,945.791,413.4136" style="stroke:#181818;stroke-width:0.5;"/><text fill="#000000" font-family="sans-serif" font-size="12" lengthAdjust="spacing" textLength="180.2637" x="955.791" y="400.5835">System.out.println("i is four");</text><polygon fill="#F1F1F1" points="1166.0547,379.4448,1415.5078,379.4448,1425.5078,396.4292,1415.5078,413.4136,1166.0547,413.4136" style="stroke:#181818;stroke-width:0.5;"/><text fill="#000000" font-family="sans-serif" font-size="12" lengthAdjust="spacing" textLength="229.4531" x="1176.0547" y="400.5835">System.out.println("i is five or more");</text><polygon fill="#DEB887" points="737.2539,444.0581,737.2539,444.0581,749.2539,456.0581,737.2539,468.0581,737.2539,468.0581,725.2539,456.0581,737.2539,444.0581" style="stroke:#181818;stroke-width:0.5;"/><polygon fill="#DEB887" points="714.374,237.8281,760.1338,237.8281,772.1338,249.8281,760.1338,261.8281,714.374,261.8281,702.374,249.8281,714.374,237.8281" style="stroke:#181818;stroke-width:0.5;"/><text fill="#008000" font-family="sans-serif" font-size="11" lengthAdjust="spacing" textLength="22.5747" x="741.2539" y="272.0386">true</text><text fill="#000000" font-family="sans-serif" font-size="14" font-weight="bold" lengthAdjust="spacing" textLength="45.7598" x="714.374" y="254.6748">i &lt; 10</text><text fill="#FF0000" font-family="sans-serif" font-size="11" lengthAdjust="spacing" textLength="26.168" x="676.2061" y="247.2339">false</text><rect fill="#F1F1F1" height="33.9688" style="stroke:#181818;stroke-width:0.5;" width="47.4863" x="1445.5078" y="390.0894"/><text fill="#000000" font-family="sans-serif" font-size="12" lengthAdjust="spacing" textLength="27.4863" x="1455.5078" y="411.228">i++;</text><ellipse cx="737.2539" cy="545.0581" fill="none" rx="11" ry="11" style="stroke:#222222;stroke-width:1.0;"/><ellipse cx="737.2539" cy="545.0581" fill="#222222" rx="6" ry="6" style="stroke:#222222;stroke-width:1.0;"/><line style="stroke:#181818;stroke-width:1.0;" x1="737.2539" x2="737.2539" y1="83.5938" y2="103.5938"/><polygon fill="#181818" points="733.2539,93.5938,737.2539,103.5938,741.2539,93.5938,737.2539,97.5938" style="stroke:#181818;stroke-width:1.0;"/><line style="stroke:#181818;stroke-width:1.0;" x1="713.2539" x2="150.0576" y1="331.8354" y2="331.8354"/><line style="stroke:#181818;stroke-width:1.0;" x1="150.0576" x2="150.0576" y1="331.8354" y2="379.4448"/><polygon fill="#181818" points="146.0576,369.4448,150.0576,379.4448,154.0576,369.4448,150.0576,373.4448" style="stroke:#181818;stroke-width:1.0;"/><text fill="#000000" font-family="sans-serif" font-size="11" lengthAdjust="spacing" textLength="6.9985" x="150.0576" y="359.4482">0</text><line style="stroke:#181818;stroke-width:1.0;" x1="761.2539" x2="1290.7813" y1="331.8354" y2="331.8354"/><line style="stroke:#181818;stroke-width:1.0;" x1="1290.7813" x2="1290.7813" y1="331.8354" y2="379.4448"/><polygon fill="#181818" points="1286.7813,369.4448,1290.7813,379.4448,1294.7813,369.4448,1290.7813,373.4448" style="stroke:#181818;stroke-width:1.0;"/><text fill="#000000" font-family="sans-serif" font-size="11" lengthAdjust="spacing" textLength="38.7041" x="1290.7813" y="359.4482">default</text><line style="stroke:#181818;stroke-width:1.0;" x1="370.3594" x2="370.3594" y1="331.8354" y2="379.4448"/><polygon fill="#181818" points="366.3594,369.4448,370.3594,379.4448,374.3594,369.4448,370.3594,373.4448" style="stroke:#181818;stroke-width:1.0;"/><text fill="#000000" font-family="sans-serif" font-size="11" lengthAdjust="spacing" textLength="6.9985" x="370.3594" y="354.4482">1</text><line style="stroke:#181818;stroke-width:1.0;" x1="588.6133" x2="588.6133" y1="331.8354" y2="379.4448"/><polygon fill="#181818" points="584.6133,369.4448,588.6133,379.4448,592.6133,369.4448,588.6133,373.4448" style="stroke:#181818;stroke-width:1.0;"/><text fill="#000000" font-family="sans-serif" font-size="11" lengthAdjust="spacing" textLength="6.9985" x="588.6133" y="354.4482">2</text><line style="stroke:#181818;stroke-width:1.0;" x1="821.707" x2="821.707" y1="331.8354" y2="379.4448"/><polygon fill="#181818" points="817.707,369.4448,821.707,379.4448,825.707,369.4448,821.707,373.4448" style="stroke:#181818;stroke-width:1.0;"/><text fill="#000000" font-family="sans-serif" font-size="11" lengthAdjust="spacing" textLength="6.9985" x="821.707" y="354.4482">3</text><line style="stroke:#181818;stroke-width:1.0;" x1="1045.9229" x2="1045.9229" y1="331.8354" y2="379.4448"/><polygon fill="#181818" points="1041.9229,369.4448,1045.9229,379.4448,1049.9229,369.4448,1045.9229,373.4448" style="stroke:#181818;stroke-width:1.0;"/><text fill="#000000" font-family="sans-serif" font-size="11" lengthAdjust="spacing" textLength="6.9985" x="1045.9229" y="354.4482">4</text><line style="stroke:#181818;stroke-width:1.0;" x1="150.0576" x2="150.0576" y1="413.4136" y2="456.0581"/><line style="stroke:#181818;stroke-width:1.0;" x1="150.0576" x2="725.2539" y1="456.0581" y2="456.0581"/><polygon fill="#181818" points="715.2539,452.0581,725.2539,456.0581,715.2539,460.0581,719.2539,456.0581" style="stroke:#181818;stroke-width:1.0;"/><line style="stroke:#181818;stroke-width:1.0;" x1="1290.7813" x2="1290.7813" y1="413.4136" y2="456.0581"/><line style="stroke:#181818;stroke-width:1.0;" x1="1290.7813" x2="749.2539" y1="456.0581" y2="456.0581"/><polygon fill="#181818" points="759.2539,452.0581,749.2539,456.0581,759.2539,460.0581,755.2539,456.0581" style="stroke:#181818;stroke-width:1.0;"/><line style="stroke:#181818;stroke-width:1.0;" x1="370.3594" x2="370.3594" y1="413.4136" y2="456.0581"/><polygon fill="#181818" points="366.3594,446.0581,370.3594,456.0581,374.3594,446.0581,370.3594,450.0581" style="stroke:#181818;stroke-width:1.0;"/><line style="stroke:#181818;stroke-width:1.0;" x1="588.6133" x2="588.6133" y1="413.4136" y2="456.0581"/><polygon fill="#181818" points="584.6133,446.0581,588.6133,456.0581,592.6133,446.0581,588.6133,450.0581" style="stroke:#181818;stroke-width:1.0;"/><line style="stroke:#181818;stroke-width:1.0;" x1="821.707" x2="821.707" y1="413.4136" y2="456.0581"/><polygon fill="#181818" points="817.707,446.0581,821.707,456.0581,825.707,446.0581,821.707,450.0581" style="stroke:#181818;stroke-width:1.0;"/><line style="stroke:#181818;stroke-width:1.0;" x1="1045.9229" x2="1045.9229" y1="413.4136" y2="456.0581"/><polygon fill="#181818" points="1041.9229,446.0581,1045.9229,456.0581,1049.9229,446.0581,1045.9229,450.0581" style="stroke:#181818;stroke-width:1.0;"/><line style="stroke:#181818;stroke-width:1.0;" x1="737.2539" x2="737.2539" y1="261.8281" y2="319.8354"/><polygon fill="#181818" points="733.2539,309.8354,737.2539,319.8354,741.2539,309.8354,737.2539,313.8354" style="stroke:#181818;stroke-width:1.0;"/><line style="stroke:#181818;stroke-width:1.0;" x1="737.2539" x2="737.2539" y1="468.0581" y2="490.0581"/><line style="stroke:#181818;stroke-width:1.0;" x1="737.2539" x2="1469.251" y1="490.0581" y2="490.0581"/><line style="stroke:#181818;stroke-width:1.0;" x1="1469.251" x2="1469.251" y1="424.0581" y2="490.0581"/><polygon fill="#181818" points="1465.251,434.0581,1469.251,424.0581,1473.251,434.0581,1469.251,430.0581" style="stroke:#181818;stroke-width:1.0;"/><line style="stroke:#181818;stroke-width:1.0;" x1="1469.251" x2="1469.251" y1="249.8281" y2="390.0894"/><line style="stroke:#181818;stroke-width:1.0;" x1="1469.251" x2="772.1338" y1="249.8281" y2="249.8281"/><polygon fill="#181818" points="782.1338,245.8281,772.1338,249.8281,782.1338,253.8281,778.1338,249.8281" style="stroke:#181818;stroke-width:1.0;"/><line style="stroke:#181818;stroke-width:1.0;" x1="702.374" x2="27" y1="249.8281" y2="249.8281"/><polygon fill="#181818" points="23,403.0737,27,413.0737,31,403.0737,27,407.0737" style="stroke:#181818;stroke-width:1.0;"/><line style="stroke:#181818;stroke-width:1.0;" x1="27" x2="27" y1="249.8281" y2="502.0581"/><line style="stroke:#181818;stroke-width:1.0;" x1="27" x2="737.2539" y1="502.0581" y2="502.0581"/><line style="stroke:#181818;stroke-width:1.0;" x1="737.2539" x2="737.2539" y1="502.0581" y2="534.0581"/><polygon fill="#181818" points="733.2539,524.0581,737.2539,534.0581,741.2539,524.0581,737.2539,528.0581" style="stroke:#181818;stroke-width:1.0;"/><line style="stroke:#181818;stroke-width:1.0;" x1="737.2539" x2="737.2539" y1="217.8281" y2="237.8281"/><polygon fill="#181818" points="733.2539,227.8281,737.2539,237.8281,741.2539,227.8281,737.2539,231.8281" style="stroke:#181818;stroke-width:1.0;"/><line style="stroke:#181818;stroke-width:1.0;" x1="737.2539" x2="737.2539" y1="137.5625" y2="183.8594"/><polygon fill="#181818" points="733.2539,173.8594,737.2539,183.8594,741.2539,173.8594,737.2539,177.8594" style="stroke:#181818;stroke-width:1.0;"/><!--SRC=[bPJ1Rjim38RlUWgklTWea2Pfjww9Qs1TiTCE1GBij8jiqmaHMJGaEKOwvDr7su6xhjYGy63OfFJf_od2VaksravNy2KFjAEmXryA9Bwn3IjwGPZD- -_-yKIwObiSbtJndIn-PSCEzcWCjsFXKUVRjUF65aCvQvpPjyp5kEBrXDktkR0t21cROUb17PJoeyndxG85OdiKySYkGDUVaIHaT-GfCvYcODdYwEHVTK5_g9rULneQZpzGsBasgvP2lW6sIibP8cRiJK5wtQdW4dxQf1GoM5tXWtI5VQrpJ9EyjtlvSNOppp0TK4zOyQJIPACukUuNfCbrjpk52iD6cg9y46DABKYGj5mgLOz6B- -pujFd0ahX6kRww7n1y03JvHAI96Y_JTC-ssx8O4IGm6mQ0tc81aMBjKEqQN0DncEx_pYZl2llxgVW1-kY9c25ekNrghiOoX75y2RTHQuzHjFuNRwNkjfxuKsu2PFQYKLZemlgrBsWuukuDo75kWb76-_8itF9ShqdWUVdWaDxckARiy4RkQAJqBVdeajkt4da0alTc70sdtO8CfuLk_ywG5iC8pHc3-DR9d-CLhjYGLTNVq-rxEi7UvncXqLQQkDbcBlVG-3wDm00]--></g></svg>