<svg xmlns="http://www.w3.org/2000/svg" xmlns:xlink="http://www.w3.org/1999/xlink" contentStyleType="text/css" height="322px" preserveAspectRatio="none" style="width:671px;height:322px;background:#FFFFFF;" version="1.1" viewBox="0 0 671 322" width="671px" zoomAndPan="magnify"><title>Activity diagram of </title><defs/><g><text fill="#000000" font-family="sans-serif" font-size="14" font-weight="bold" lengthAdjust="spacing" textLength="151.0537" x="256.4658" y="32.9951">Activity diagram of</text><text fill="#000000" font-family="sans-serif" font-size="14" font-weight="bold" lengthAdjust="spacing" textLength="264.9609" x="201.9492" y="49.292">general form of switch statement</text><ellipse cx="335.9297" cy="73.5938" fill="#222222" rx="10" ry="10" style="stroke:#222222;stroke-width:1.0;"/><rect fill="#F7F790" height="175.875" style="stroke:#000000;stroke-width:1.5;" width="649.8594" x="11" y="93.5938"/><path d="M142.2217,93.5938 L142.2217,102.8906 L132.2217,112.8906 L11,112.8906 " fill="none" style="stroke:#000000;stroke-width:1.5;"/><text fill="#000000" font-family="sans-serif" font-size="14" lengthAdjust="spacing" textLength="121.2217" x="14" y="107.5889">switch statement</text><polygon fill="#DEB887" points="299.0396,129.8906,372.8198,129.8906,384.8198,141.8906,372.8198,153.8906,299.0396,153.8906,287.0396,141.8906,299.0396,129.8906" style="stroke:#181818;stroke-width:0.5;"/><text fill="#000000" font-family="sans-serif" font-size="14" font-weight="bold" lengthAdjust="spacing" textLength="73.7803" x="299.0396" y="146.7373">condition</text><rect fill="#F1F1F1" height="33.9688" rx="12.5" ry="12.5" style="stroke:#181818;stroke-width:0.5;" width="147.4648" x="21" y="189.5"/><text fill="#000000" font-family="sans-serif" font-size="12" lengthAdjust="spacing" textLength="127.4648" x="31" y="210.6387">statement sequence;</text><rect fill="#F1F1F1" height="33.9688" rx="12.5" ry="12.5" style="stroke:#181818;stroke-width:0.5;" width="147.4648" x="178.4648" y="189.5"/><text fill="#000000" font-family="sans-serif" font-size="12" lengthAdjust="spacing" textLength="127.4648" x="188.4648" y="210.6387">statement sequence;</text><rect fill="#F1F1F1" height="33.9688" rx="12.5" ry="12.5" style="stroke:#181818;stroke-width:0.5;" width="147.4648" x="345.9297" y="189.5"/><text fill="#000000" font-family="sans-serif" font-size="12" lengthAdjust="spacing" textLength="127.4648" x="355.9297" y="210.6387">statement sequence;</text><rect fill="#F1F1F1" height="33.9688" rx="12.5" ry="12.5" style="stroke:#181818;stroke-width:0.5;" width="147.4648" x="503.3945" y="189.5"/><text fill="#000000" font-family="sans-serif" font-size="12" lengthAdjust="spacing" textLength="127.4648" x="513.3945" y="210.6387">statement sequence;</text><polygon fill="#DEB887" points="335.9297,233.4688,335.9297,233.4688,347.9297,245.4688,335.9297,257.4688,335.9297,257.4688,323.9297,245.4688,335.9297,233.4688" style="stroke:#181818;stroke-width:0.5;"/><ellipse cx="335.9297" cy="300.4688" fill="none" rx="11" ry="11" style="stroke:#222222;stroke-width:1.0;"/><ellipse cx="335.9297" cy="300.4688" fill="#222222" rx="6" ry="6" style="stroke:#222222;stroke-width:1.0;"/><line style="stroke:#181818;stroke-width:1.0;" x1="287.0396" x2="94.7324" y1="141.8906" y2="141.8906"/><line style="stroke:#181818;stroke-width:1.0;" x1="94.7324" x2="94.7324" y1="141.8906" y2="189.5"/><polygon fill="#181818" points="90.7324,179.5,94.7324,189.5,98.7324,179.5,94.7324,183.5" style="stroke:#181818;stroke-width:1.0;"/><text fill="#000000" font-family="sans-serif" font-size="11" lengthAdjust="spacing" textLength="54.8174" x="94.7324" y="169.5034">constant1</text><line style="stroke:#181818;stroke-width:1.0;" x1="384.8198" x2="577.127" y1="141.8906" y2="141.8906"/><line style="stroke:#181818;stroke-width:1.0;" x1="577.127" x2="577.127" y1="141.8906" y2="189.5"/><polygon fill="#181818" points="573.127,179.5,577.127,189.5,581.127,179.5,577.127,183.5" style="stroke:#181818;stroke-width:1.0;"/><text fill="#000000" font-family="sans-serif" font-size="11" lengthAdjust="spacing" textLength="38.7041" x="577.127" y="169.5034">default</text><line style="stroke:#181818;stroke-width:1.0;" x1="252.1973" x2="252.1973" y1="141.8906" y2="189.5"/><polygon fill="#181818" points="248.1973,179.5,252.1973,189.5,256.1973,179.5,252.1973,183.5" style="stroke:#181818;stroke-width:1.0;"/><text fill="#000000" font-family="sans-serif" font-size="11" lengthAdjust="spacing" textLength="54.8174" x="252.1973" y="164.5034">constant2</text><line style="stroke:#181818;stroke-width:1.0;" x1="419.6621" x2="419.6621" y1="141.8906" y2="189.5"/><polygon fill="#181818" points="415.6621,179.5,419.6621,189.5,423.6621,179.5,419.6621,183.5" style="stroke:#181818;stroke-width:1.0;"/><text fill="#000000" font-family="sans-serif" font-size="11" lengthAdjust="spacing" textLength="54.8174" x="419.6621" y="164.5034">constant3</text><line style="stroke:#181818;stroke-width:1.0;" x1="94.7324" x2="94.7324" y1="223.4688" y2="245.4688"/><line style="stroke:#181818;stroke-width:1.0;" x1="94.7324" x2="323.9297" y1="245.4688" y2="245.4688"/><polygon fill="#181818" points="313.9297,241.4688,323.9297,245.4688,313.9297,249.4688,317.9297,245.4688" style="stroke:#181818;stroke-width:1.0;"/><line style="stroke:#181818;stroke-width:1.0;" x1="577.127" x2="577.127" y1="223.4688" y2="245.4688"/><line style="stroke:#181818;stroke-width:1.0;" x1="577.127" x2="347.9297" y1="245.4688" y2="245.4688"/><polygon fill="#181818" points="357.9297,241.4688,347.9297,245.4688,357.9297,249.4688,353.9297,245.4688" style="stroke:#181818;stroke-width:1.0;"/><line style="stroke:#181818;stroke-width:1.0;" x1="252.1973" x2="252.1973" y1="223.4688" y2="245.4688"/><polygon fill="#181818" points="248.1973,235.4688,252.1973,245.4688,256.1973,235.4688,252.1973,239.4688" style="stroke:#181818;stroke-width:1.0;"/><line style="stroke:#181818;stroke-width:1.0;" x1="419.6621" x2="419.6621" y1="223.4688" y2="245.4688"/><polygon fill="#181818" points="415.6621,235.4688,419.6621,245.4688,423.6621,235.4688,419.6621,239.4688" style="stroke:#181818;stroke-width:1.0;"/><line style="stroke:#181818;stroke-width:1.0;" x1="335.9297" x2="335.9297" y1="83.5938" y2="129.8906"/><polygon fill="#181818" points="331.9297,119.8906,335.9297,129.8906,339.9297,119.8906,335.9297,123.8906" style="stroke:#181818;stroke-width:1.0;"/><line style="stroke:#181818;stroke-width:1.0;" x1="335.9297" x2="335.9297" y1="257.4688" y2="289.4688"/><polygon fill="#181818" points="331.9297,279.4688,335.9297,289.4688,339.9297,279.4688,335.9297,283.4688" style="stroke:#181818;stroke-width:1.0;"/><!--SRC=[dL71JiCm3BttAo9nOJSsa2ROD8c1E750uiebRTnYBRLBugugQFzEcbQP420nV8WKl_ViznA_GsgqqxMwBGJtABtwo5Ie1oPvndTGyqMyn-CUTSra9ifGZqXmnvQTwi5QxXAmrSMkSjoI6U6yTRRlc4rY73TSVUr9Rq7bR4Vg8JjacKysdxGJ56IQJ6pP6N1nntgDj4UFkONDHX4Jf2I_uM5qc1RMfVG6TJNiuLAzK0K4JbjLieiTtw4KhygB5gY191YJu2VBckJgh5oMo-kBRzJ9xjW-By8hHlvCfUo5zZ00GK8odwN-K3V7EHxUMg02LgkVbOj_AozFLXeeTMlbhpeWC-QFNohSV080]--></g></svg>