<svg xmlns="http://www.w3.org/2000/svg" xmlns:xlink="http://www.w3.org/1999/xlink" contentStyleType="text/css" height="400px" preserveAspectRatio="none" style="width:789px;height:400px;background:#FFFFFF;" version="1.1" viewBox="0 0 789 400" width="789px" zoomAndPan="magnify"><title>Activity diagram of </title><defs/><g><text fill="#000000" font-family="sans-serif" font-size="14" font-weight="bold" lengthAdjust="spacing" textLength="151.0537" x="315.5278" y="32.9951">Activity diagram of</text><text fill="#000000" font-family="sans-serif" font-size="14" font-weight="bold" lengthAdjust="spacing" textLength="188.6924" x="296.7085" y="49.292">code snippet of stacked</text><text fill="#000000" font-family="sans-serif" font-size="14" font-weight="bold" lengthAdjust="spacing" textLength="206.6641" x="290.1597" y="65.5889">cases of switch statement</text><ellipse cx="389.4917" cy="89.8906" fill="#222222" rx="10" ry="10" style="stroke:#222222;stroke-width:1.0;"/><rect fill="#F7F790" height="237.1719" style="stroke:#000000;stroke-width:1.5;" width="766.9834" x="11" y="109.8906"/><path d="M142.2217,109.8906 L142.2217,119.1875 L132.2217,129.1875 L11,129.1875 " fill="none" style="stroke:#000000;stroke-width:1.5;"/><text fill="#000000" font-family="sans-serif" font-size="14" lengthAdjust="spacing" textLength="121.2217" x="14" y="123.8857">switch statement</text><polygon fill="#DEB887" points="377.4917,146.1875,401.4917,146.1875,413.4917,158.1875,401.4917,170.1875,377.4917,170.1875,365.4917,158.1875,377.4917,146.1875" style="stroke:#181818;stroke-width:0.5;"/><text fill="#000000" font-family="sans-serif" font-size="14" font-weight="bold" lengthAdjust="spacing" textLength="4.7988" x="387.0923" y="163.0342">i</text><path d="M21,205.7969 L21,246.0625 A0,0 0 0 0 21,246.0625 L124.2974,246.0625 A0,0 0 0 0 124.2974,246.0625 L124.2974,229.9297 L144.2974,225.9297 L124.2974,221.9297 L124.2974,215.7969 L114.2974,205.7969 L21,205.7969 A0,0 0 0 0 21,205.7969 " fill="#FEFFDD" style="stroke:#181818;stroke-width:0.5;"/><path d="M114.2974,205.7969 L114.2974,215.7969 L124.2974,215.7969 L114.2974,205.7969 " fill="#FEFFDD" style="stroke:#181818;stroke-width:0.5;"/><text fill="#000000" font-family="sans-serif" font-size="13" lengthAdjust="spacing" textLength="78.165" x="27" y="222.8638">Fall through</text><text fill="#000000" font-family="sans-serif" font-size="13" lengthAdjust="spacing" textLength="59.4712" x="27" y="237.9966">to case 2</text><ellipse cx="154.2974" cy="225.9297" fill="#F1F1F1" rx="10" ry="10" style="stroke:#181818;stroke-width:0.5;"/><path d="M152.5942,229.1797 L156.7349,229.1797 L156.7349,230.1797 L151.1724,230.1797 L151.1724,229.1797 Q151.8442,228.4922 153.0005,227.3203 Q154.1724,226.1328 154.4692,225.7891 Q155.0474,225.1641 155.2661,224.7266 Q155.5005,224.2734 155.5005,223.8516 Q155.5005,223.1484 155.0005,222.7109 Q154.5161,222.2734 153.7349,222.2734 Q153.1724,222.2734 152.5474,222.4609 Q151.938,222.6484 151.2349,223.0547 L151.2349,221.8516 Q151.9536,221.5703 152.563,221.4297 Q153.188,221.2734 153.7036,221.2734 Q155.063,221.2734 155.8755,221.9609 Q156.688,222.6328 156.688,223.7734 Q156.688,224.3047 156.4849,224.7891 Q156.2817,225.2734 155.7505,225.9297 Q155.5942,226.1016 154.813,226.9141 Q154.0317,227.7266 152.5942,229.1797 Z " fill="#000000"/><ellipse cx="307.5947" cy="215.7969" fill="#F1F1F1" rx="10" ry="10" style="stroke:#181818;stroke-width:0.5;"/><path d="M305.8916,219.0469 L310.0322,219.0469 L310.0322,220.0469 L304.4697,220.0469 L304.4697,219.0469 Q305.1416,218.3594 306.2979,217.1875 Q307.4697,216 307.7666,215.6563 Q308.3447,215.0313 308.5635,214.5938 Q308.7979,214.1406 308.7979,213.7188 Q308.7979,213.0156 308.2979,212.5781 Q307.8135,212.1406 307.0322,212.1406 Q306.4697,212.1406 305.8447,212.3281 Q305.2354,212.5156 304.5322,212.9219 L304.5322,211.7188 Q305.251,211.4375 305.8604,211.2969 Q306.4854,211.1406 307.001,211.1406 Q308.3604,211.1406 309.1729,211.8281 Q309.9854,212.5 309.9854,213.6406 Q309.9854,214.1719 309.7822,214.6563 Q309.5791,215.1406 309.0479,215.7969 Q308.8916,215.9688 308.1104,216.7813 Q307.3291,217.5938 305.8916,219.0469 Z " fill="#000000"/><path d="M174.2974,260.7969 L174.2974,301.0625 A0,0 0 0 0 174.2974,301.0625 L277.5947,301.0625 A0,0 0 0 0 277.5947,301.0625 L277.5947,284.9297 L297.5947,280.9297 L277.5947,276.9297 L277.5947,270.7969 L267.5947,260.7969 L174.2974,260.7969 A0,0 0 0 0 174.2974,260.7969 " fill="#FEFFDD" style="stroke:#181818;stroke-width:0.5;"/><path d="M267.5947,260.7969 L267.5947,270.7969 L277.5947,270.7969 L267.5947,260.7969 " fill="#FEFFDD" style="stroke:#181818;stroke-width:0.5;"/><text fill="#000000" font-family="sans-serif" font-size="13" lengthAdjust="spacing" textLength="78.165" x="180.2974" y="277.8638">Fall through</text><text fill="#000000" font-family="sans-serif" font-size="13" lengthAdjust="spacing" textLength="59.4712" x="180.2974" y="292.9966">to case 3</text><ellipse cx="307.5947" cy="280.9297" fill="#F1F1F1" rx="10" ry="10" style="stroke:#181818;stroke-width:0.5;"/><path d="M308.4697,280.7109 Q309.3135,280.8984 309.7822,281.4766 Q310.2666,282.0391 310.2666,282.8828 Q310.2666,284.1797 309.376,284.8984 Q308.4854,285.6016 306.8447,285.6016 Q306.2979,285.6016 305.7041,285.4922 Q305.126,285.3828 304.5166,285.1641 L304.5166,284.0234 Q305.001,284.3047 305.5791,284.4609 Q306.1729,284.6016 306.8135,284.6016 Q307.9229,284.6016 308.501,284.1641 Q309.0947,283.7266 309.0947,282.8828 Q309.0947,282.1172 308.5479,281.6797 Q308.001,281.2422 307.0479,281.2422 L306.0166,281.2422 L306.0166,280.2734 L307.0947,280.2734 Q307.9541,280.2734 308.4229,279.9297 Q308.8916,279.5703 308.8916,278.9141 Q308.8916,278.2422 308.4072,277.8828 Q307.9385,277.5234 307.0479,277.5234 Q306.5479,277.5234 305.9854,277.6328 Q305.4385,277.7266 304.7666,277.9453 L304.7666,276.8984 Q305.4541,276.7109 306.0322,276.6172 Q306.626,276.5234 307.1416,276.5234 Q308.501,276.5234 309.2822,277.1328 Q310.0635,277.7422 310.0635,278.7891 Q310.0635,279.5234 309.6416,280.0234 Q309.2354,280.5234 308.4697,280.7109 Z " fill="#000000"/><ellipse cx="440.8926" cy="215.7969" fill="#F1F1F1" rx="10" ry="10" style="stroke:#181818;stroke-width:0.5;"/><path d="M441.7676,215.5781 Q442.6113,215.7656 443.0801,216.3438 Q443.5645,216.9063 443.5645,217.75 Q443.5645,219.0469 442.6738,219.7656 Q441.7832,220.4688 440.1426,220.4688 Q439.5957,220.4688 439.002,220.3594 Q438.4238,220.25 437.8145,220.0313 L437.8145,218.8906 Q438.2988,219.1719 438.877,219.3281 Q439.4707,219.4688 440.1113,219.4688 Q441.2207,219.4688 441.7988,219.0313 Q442.3926,218.5938 442.3926,217.75 Q442.3926,216.9844 441.8457,216.5469 Q441.2988,216.1094 440.3457,216.1094 L439.3145,216.1094 L439.3145,215.1406 L440.3926,215.1406 Q441.252,215.1406 441.7207,214.7969 Q442.1895,214.4375 442.1895,213.7813 Q442.1895,213.1094 441.7051,212.75 Q441.2363,212.3906 440.3457,212.3906 Q439.8457,212.3906 439.2832,212.5 Q438.7363,212.5938 438.0645,212.8125 L438.0645,211.7656 Q438.752,211.5781 439.3301,211.4844 Q439.9238,211.3906 440.4395,211.3906 Q441.7988,211.3906 442.5801,212 Q443.3613,212.6094 443.3613,213.6563 Q443.3613,214.3906 442.9395,214.8906 Q442.5332,215.3906 441.7676,215.5781 Z " fill="#000000"/><polygon fill="#F1F1F1" points="327.5947,260.7969,554.1904,260.7969,564.1904,277.7813,554.1904,294.7656,327.5947,294.7656" style="stroke:#181818;stroke-width:0.5;"/><text fill="#000000" font-family="sans-serif" font-size="12" lengthAdjust="spacing" textLength="206.5957" x="337.5947" y="281.9355">System.out.println("i is 1, 2 or 3");</text><polygon fill="#F1F1F1" points="574.1904,205.7969,757.9834,205.7969,767.9834,222.7813,757.9834,239.7656,574.1904,239.7656" style="stroke:#181818;stroke-width:0.5;"/><text fill="#000000" font-family="sans-serif" font-size="12" lengthAdjust="spacing" textLength="163.793" x="584.1904" y="226.9355">System.out.println("i is 4");</text><polygon fill="#DEB887" points="389.4917,311.0625,389.4917,311.0625,401.4917,323.0625,389.4917,335.0625,389.4917,335.0625,377.4917,323.0625,389.4917,311.0625" style="stroke:#181818;stroke-width:0.5;"/><ellipse cx="389.4917" cy="378.0625" fill="none" rx="11" ry="11" style="stroke:#222222;stroke-width:1.0;"/><ellipse cx="389.4917" cy="378.0625" fill="#222222" rx="6" ry="6" style="stroke:#222222;stroke-width:1.0;"/><line style="stroke:#181818;stroke-width:1.0;" x1="307.5947" x2="307.5947" y1="225.7969" y2="270.9297"/><polygon fill="#181818" points="303.5947,260.9297,307.5947,270.9297,311.5947,260.9297,307.5947,264.9297" style="stroke:#181818;stroke-width:1.0;"/><line style="stroke:#181818;stroke-width:1.0;" x1="440.8926" x2="440.8926" y1="225.7969" y2="260.7969"/><polygon fill="#181818" points="436.8926,250.7969,440.8926,260.7969,444.8926,250.7969,440.8926,254.7969" style="stroke:#181818;stroke-width:1.0;"/><line style="stroke:#181818;stroke-width:1.0;" x1="365.4917" x2="154.2974" y1="158.1875" y2="158.1875"/><line style="stroke:#181818;stroke-width:1.0;" x1="154.2974" x2="154.2974" y1="158.1875" y2="215.9297"/><polygon fill="#181818" points="150.2974,205.9297,154.2974,215.9297,158.2974,205.9297,154.2974,209.9297" style="stroke:#181818;stroke-width:1.0;"/><text fill="#000000" font-family="sans-serif" font-size="11" lengthAdjust="spacing" textLength="6.9985" x="154.2974" y="190.8667">1</text><line style="stroke:#181818;stroke-width:1.0;" x1="413.4917" x2="666.0869" y1="158.1875" y2="158.1875"/><line style="stroke:#181818;stroke-width:1.0;" x1="666.0869" x2="666.0869" y1="158.1875" y2="205.7969"/><polygon fill="#181818" points="662.0869,195.7969,666.0869,205.7969,670.0869,195.7969,666.0869,199.7969" style="stroke:#181818;stroke-width:1.0;"/><text fill="#000000" font-family="sans-serif" font-size="11" lengthAdjust="spacing" textLength="6.9985" x="666.0869" y="185.8003">4</text><line style="stroke:#181818;stroke-width:1.0;" x1="307.5947" x2="307.5947" y1="158.1875" y2="205.7969"/><polygon fill="#181818" points="303.5947,195.7969,307.5947,205.7969,311.5947,195.7969,307.5947,199.7969" style="stroke:#181818;stroke-width:1.0;"/><text fill="#000000" font-family="sans-serif" font-size="11" lengthAdjust="spacing" textLength="6.9985" x="307.5947" y="180.8003">2</text><line style="stroke:#181818;stroke-width:1.0;" x1="440.8926" x2="440.8926" y1="158.1875" y2="205.7969"/><polygon fill="#181818" points="436.8926,195.7969,440.8926,205.7969,444.8926,195.7969,440.8926,199.7969" style="stroke:#181818;stroke-width:1.0;"/><text fill="#000000" font-family="sans-serif" font-size="11" lengthAdjust="spacing" textLength="6.9985" x="440.8926" y="180.8003">3</text><line style="stroke:#181818;stroke-width:1.0;" x1="440.8926" x2="440.8926" y1="294.7656" y2="323.0625"/><line style="stroke:#181818;stroke-width:1.0;" x1="440.8926" x2="401.4917" y1="323.0625" y2="323.0625"/><polygon fill="#181818" points="411.4917,319.0625,401.4917,323.0625,411.4917,327.0625,407.4917,323.0625" style="stroke:#181818;stroke-width:1.0;"/><line style="stroke:#181818;stroke-width:1.0;" x1="666.0869" x2="666.0869" y1="239.7656" y2="323.0625"/><line style="stroke:#181818;stroke-width:1.0;" x1="666.0869" x2="401.4917" y1="323.0625" y2="323.0625"/><polygon fill="#181818" points="411.4917,319.0625,401.4917,323.0625,411.4917,327.0625,407.4917,323.0625" style="stroke:#181818;stroke-width:1.0;"/><line style="stroke:#181818;stroke-width:1.0;" x1="389.4917" x2="389.4917" y1="99.8906" y2="146.1875"/><polygon fill="#181818" points="385.4917,136.1875,389.4917,146.1875,393.4917,136.1875,389.4917,140.1875" style="stroke:#181818;stroke-width:1.0;"/><line style="stroke:#181818;stroke-width:1.0;" x1="389.4917" x2="389.4917" y1="335.0625" y2="367.0625"/><polygon fill="#181818" points="385.4917,357.0625,389.4917,367.0625,393.4917,357.0625,389.4917,361.0625" style="stroke:#181818;stroke-width:1.0;"/><!--SRC=[bLB1QiCm3BtdAqHtIM6KDIcKjI6mRlIqmw3NNTpQRKHTAzXAIpRwxtEIuX6sTPiE1adFxpt9TdiqfR3Y00yRnYDo3UyH-5YIuHM-AHWdRTuUJoWEPEG5qiGp6lL8cYpKIciwXSP2RFOxIvMHNNjTMLsVY6H0V2fC-ZMkjO8rwGvwZivHv8BD5s4P6SbSJ2p8IcLRZIn3SqI7Qwto70mP5IRvgN-EF9bN2yDB5Bj6XhRmQZOa5JY3PQcugJZsGodPT8HJhYsTa3T5qs5rK8QzLVOEewWCFc-sq-tq_kuBz390Luvn264B3Niy7eQyYJZfvuPOmGoMGclWmYzwLtXVJErbI7fOgRpnea-VNAUFq__8fR_AfTVfPwlQ-QsCgE9HQT6mDl400HsCRo41_t_ImN0-XoppYBBYFE_JJ_vAD_cEHXdPlKBxrPZA3m00]--></g></svg>