<svg xmlns="http://www.w3.org/2000/svg" xmlns:xlink="http://www.w3.org/1999/xlink" contentStyleType="text/css" height="464px" preserveAspectRatio="none" style="width:252px;height:464px;background:#FFFFFF;" version="1.1" viewBox="0 0 252 464" width="252px" zoomAndPan="magnify"><title>Activity diagram of </title><defs/><g><text fill="#000000" font-family="sans-serif" font-size="14" font-weight="bold" lengthAdjust="spacing" textLength="151.0537" x="46.5774" y="32.9951">Activity diagram of</text><text fill="#000000" font-family="sans-serif" font-size="14" font-weight="bold" lengthAdjust="spacing" textLength="176.2783" x="36.4021" y="49.292">nested if code snippet</text><ellipse cx="147.7462" cy="73.5938" fill="#222222" rx="10" ry="10" style="stroke:#222222;stroke-width:1.0;"/><polygon fill="#F1F1F1" points="126.5062,103.5938,168.9862,103.5938,180.9862,115.5938,168.9862,127.5938,126.5062,127.5938,114.5062,115.5938,126.5062,103.5938" style="stroke:#181818;stroke-width:0.5;"/><text fill="#000000" font-family="sans-serif" font-size="11" lengthAdjust="spacing" textLength="42.48" x="126.5062" y="119.4019">i == 10</text><text fill="#008000" font-family="sans-serif" font-size="11" lengthAdjust="spacing" textLength="22.5747" x="91.9315" y="112.9995">true</text><text fill="#FF0000" font-family="sans-serif" font-size="11" lengthAdjust="spacing" textLength="26.168" x="180.9862" y="112.9995">false</text><rect fill="#F1F1F1" height="33.9688" rx="12.5" ry="12.5" style="stroke:#181818;stroke-width:0.5;" width="56.6973" x="54.4099" y="185.9961"/><text fill="#000000" font-family="sans-serif" font-size="12" lengthAdjust="spacing" textLength="36.6973" x="64.4099" y="207.1348">a = b;</text><polygon fill="#F1F1F1" points="66.127,137.5938,99.3901,137.5938,111.3901,149.5938,99.3901,161.5938,66.127,161.5938,54.127,149.5938,66.127,137.5938" style="stroke:#181818;stroke-width:0.5;"/><text fill="#008000" font-family="sans-serif" font-size="11" lengthAdjust="spacing" textLength="22.5747" x="86.7585" y="171.8042">true</text><text fill="#000000" font-family="sans-serif" font-size="11" lengthAdjust="spacing" textLength="33.2632" x="66.127" y="153.4019">i &lt; 20</text><polygon fill="#F1F1F1" points="82.7585,239.9648,94.7585,251.9648,82.7585,263.9648,70.7585,251.9648,82.7585,239.9648" style="stroke:#181818;stroke-width:0.5;"/><polygon fill="#F1F1F1" points="60.9707,283.9648,104.5464,283.9648,116.5464,295.9648,104.5464,307.9648,60.9707,307.9648,48.9707,295.9648,60.9707,283.9648" style="stroke:#181818;stroke-width:0.5;"/><text fill="#000000" font-family="sans-serif" font-size="11" lengthAdjust="spacing" textLength="43.5757" x="60.9707" y="299.7729">k &gt; 100</text><text fill="#008000" font-family="sans-serif" font-size="11" lengthAdjust="spacing" textLength="22.5747" x="26.396" y="293.3706">true</text><text fill="#FF0000" font-family="sans-serif" font-size="11" lengthAdjust="spacing" textLength="26.168" x="116.5464" y="293.3706">false</text><rect fill="#F1F1F1" height="33.9688" rx="12.5" ry="12.5" style="stroke:#181818;stroke-width:0.5;" width="55.9414" x="11" y="317.9648"/><text fill="#000000" font-family="sans-serif" font-size="12" lengthAdjust="spacing" textLength="35.9414" x="21" y="339.1035">c = d;</text><rect fill="#F1F1F1" height="33.9688" rx="12.5" ry="12.5" style="stroke:#181818;stroke-width:0.5;" width="55.6777" x="98.7075" y="317.9648"/><text fill="#000000" font-family="sans-serif" font-size="12" lengthAdjust="spacing" textLength="35.6777" x="108.7075" y="339.1035">a = c;</text><polygon fill="#F1F1F1" points="82.7585,357.9336,94.7585,369.9336,82.7585,381.9336,70.7585,369.9336,82.7585,357.9336" style="stroke:#181818;stroke-width:0.5;"/><rect fill="#F1F1F1" height="33.9688" rx="12.5" ry="12.5" style="stroke:#181818;stroke-width:0.5;" width="56.6973" x="184.3853" y="137.5938"/><text fill="#000000" font-family="sans-serif" font-size="12" lengthAdjust="spacing" textLength="36.6973" x="194.3853" y="158.7324">a = d;</text><polygon fill="#F1F1F1" points="147.7462,387.9336,159.7462,399.9336,147.7462,411.9336,135.7462,399.9336,147.7462,387.9336" style="stroke:#181818;stroke-width:0.5;"/><ellipse cx="147.7462" cy="442.9336" fill="none" rx="11" ry="11" style="stroke:#222222;stroke-width:1.0;"/><ellipse cx="147.7462" cy="442.9336" fill="#222222" rx="6" ry="6" style="stroke:#222222;stroke-width:1.0;"/><line style="stroke:#181818;stroke-width:1.0;" x1="82.7585" x2="82.7585" y1="161.5938" y2="185.9961"/><polygon fill="#181818" points="78.7585,175.9961,82.7585,185.9961,86.7585,175.9961,82.7585,179.9961" style="stroke:#181818;stroke-width:1.0;"/><line style="stroke:#181818;stroke-width:1.0;" x1="111.3901" x2="123.3901" y1="149.5938" y2="149.5938"/><polygon fill="#181818" points="119.3901,192.9805,123.3901,202.9805,127.3901,192.9805,123.3901,196.9805" style="stroke:#181818;stroke-width:1.0;"/><line style="stroke:#181818;stroke-width:1.0;" x1="123.3901" x2="123.3901" y1="149.5938" y2="251.9648"/><line style="stroke:#181818;stroke-width:1.0;" x1="123.3901" x2="94.7585" y1="251.9648" y2="251.9648"/><polygon fill="#181818" points="104.7585,247.9648,94.7585,251.9648,104.7585,255.9648,100.7585,251.9648" style="stroke:#181818;stroke-width:1.0;"/><line style="stroke:#181818;stroke-width:1.0;" x1="82.7585" x2="82.7585" y1="219.9648" y2="239.9648"/><polygon fill="#181818" points="78.7585,229.9648,82.7585,239.9648,86.7585,229.9648,82.7585,233.9648" style="stroke:#181818;stroke-width:1.0;"/><line style="stroke:#181818;stroke-width:1.0;" x1="48.9707" x2="38.9707" y1="295.9648" y2="295.9648"/><line style="stroke:#181818;stroke-width:1.0;" x1="38.9707" x2="38.9707" y1="295.9648" y2="317.9648"/><polygon fill="#181818" points="34.9707,307.9648,38.9707,317.9648,42.9707,307.9648,38.9707,311.9648" style="stroke:#181818;stroke-width:1.0;"/><line style="stroke:#181818;stroke-width:1.0;" x1="116.5464" x2="126.5464" y1="295.9648" y2="295.9648"/><line style="stroke:#181818;stroke-width:1.0;" x1="126.5464" x2="126.5464" y1="295.9648" y2="317.9648"/><polygon fill="#181818" points="122.5464,307.9648,126.5464,317.9648,130.5464,307.9648,126.5464,311.9648" style="stroke:#181818;stroke-width:1.0;"/><line style="stroke:#181818;stroke-width:1.0;" x1="38.9707" x2="38.9707" y1="351.9336" y2="369.9336"/><line style="stroke:#181818;stroke-width:1.0;" x1="38.9707" x2="70.7585" y1="369.9336" y2="369.9336"/><polygon fill="#181818" points="60.7585,365.9336,70.7585,369.9336,60.7585,373.9336,64.7585,369.9336" style="stroke:#181818;stroke-width:1.0;"/><line style="stroke:#181818;stroke-width:1.0;" x1="126.5464" x2="126.5464" y1="351.9336" y2="369.9336"/><line style="stroke:#181818;stroke-width:1.0;" x1="126.5464" x2="94.7585" y1="369.9336" y2="369.9336"/><polygon fill="#181818" points="104.7585,365.9336,94.7585,369.9336,104.7585,373.9336,100.7585,369.9336" style="stroke:#181818;stroke-width:1.0;"/><line style="stroke:#181818;stroke-width:1.0;" x1="82.7585" x2="82.7585" y1="263.9648" y2="283.9648"/><polygon fill="#181818" points="78.7585,273.9648,82.7585,283.9648,86.7585,273.9648,82.7585,277.9648" style="stroke:#181818;stroke-width:1.0;"/><line style="stroke:#181818;stroke-width:1.0;" x1="114.5062" x2="82.7585" y1="115.5938" y2="115.5938"/><line style="stroke:#181818;stroke-width:1.0;" x1="82.7585" x2="82.7585" y1="115.5938" y2="137.5938"/><polygon fill="#181818" points="78.7585,127.5938,82.7585,137.5938,86.7585,127.5938,82.7585,131.5938" style="stroke:#181818;stroke-width:1.0;"/><line style="stroke:#181818;stroke-width:1.0;" x1="180.9862" x2="212.7339" y1="115.5938" y2="115.5938"/><line style="stroke:#181818;stroke-width:1.0;" x1="212.7339" x2="212.7339" y1="115.5938" y2="137.5938"/><polygon fill="#181818" points="208.7339,127.5938,212.7339,137.5938,216.7339,127.5938,212.7339,131.5938" style="stroke:#181818;stroke-width:1.0;"/><line style="stroke:#181818;stroke-width:1.0;" x1="82.7585" x2="82.7585" y1="381.9336" y2="399.9336"/><line style="stroke:#181818;stroke-width:1.0;" x1="82.7585" x2="135.7462" y1="399.9336" y2="399.9336"/><polygon fill="#181818" points="125.7462,395.9336,135.7462,399.9336,125.7462,403.9336,129.7462,399.9336" style="stroke:#181818;stroke-width:1.0;"/><line style="stroke:#181818;stroke-width:1.0;" x1="212.7339" x2="212.7339" y1="171.5625" y2="399.9336"/><line style="stroke:#181818;stroke-width:1.0;" x1="212.7339" x2="159.7462" y1="399.9336" y2="399.9336"/><polygon fill="#181818" points="169.7462,395.9336,159.7462,399.9336,169.7462,403.9336,165.7462,399.9336" style="stroke:#181818;stroke-width:1.0;"/><line style="stroke:#181818;stroke-width:1.0;" x1="147.7462" x2="147.7462" y1="83.5938" y2="103.5938"/><polygon fill="#181818" points="143.7462,93.5938,147.7462,103.5938,151.7462,93.5938,147.7462,97.5938" style="stroke:#181818;stroke-width:1.0;"/><line style="stroke:#181818;stroke-width:1.0;" x1="147.7462" x2="147.7462" y1="411.9336" y2="431.9336"/><polygon fill="#181818" points="143.7462,421.9336,147.7462,431.9336,151.7462,421.9336,147.7462,425.9336" style="stroke:#181818;stroke-width:1.0;"/><!--SRC=[ZP2x3i8m34NtVCKTsmqO-vBu3vQGECMY95LYaFXxqg0YmG3SnP9rVAvaOPa8UoDyOxd3iXwZlY0u7Bod96J13YPOGl8ypoHA9T4n3tOLe- -ntTIG4tbKdGbJYCqOYVmWyKgrGau1E-n-SKiQZHx7jYqByfRTgZXZo5L_EKnssDKn9NhHaUpWTDvy59gtmcyd1L_SJpJ_8ipg0G00]--></g></svg>