<svg xmlns="http://www.w3.org/2000/svg" xmlns:xlink="http://www.w3.org/1999/xlink" contentStyleType="text/css" height="511px" preserveAspectRatio="none" style="width:254px;height:511px;background:#FFFFFF;" version="1.1" viewBox="0 0 254 511" width="254px" zoomAndPan="magnify"><title>Activity diagram of </title><defs/><g><text fill="#000000" font-family="sans-serif" font-size="14" font-weight="bold" lengthAdjust="spacing" textLength="151.0537" x="48.0342" y="32.9951">Activity diagram of</text><text fill="#5132BE" font-family="name=monospace" font-size="14" font-weight="bold" lengthAdjust="spacing" textLength="146.7402" x="20" y="49.292">WhileDemo.main()</text><text fill="#000000" font-family="sans-serif" font-size="14" font-weight="bold" lengthAdjust="spacing" textLength="60.3818" x="171.6143" y="49.292">method</text><ellipse cx="121.7202" cy="73.5938" fill="#222222" rx="10" ry="10" style="stroke:#222222;stroke-width:1.0;"/><rect fill="#F1F1F1" height="33.9688" rx="12.5" ry="12.5" style="stroke:#181818;stroke-width:0.5;" width="68.5508" x="87.4448" y="103.5938"/><text fill="#000000" font-family="sans-serif" font-size="12" lengthAdjust="spacing" textLength="48.5508" x="97.4448" y="124.7324">char ch;</text><rect fill="#F1F1F1" height="33.9688" style="stroke:#181818;stroke-width:0.5;" width="69.8809" x="86.7798" y="191.7661"/><text fill="#000000" font-family="sans-serif" font-size="12" lengthAdjust="spacing" textLength="49.8809" x="96.7798" y="212.9048">ch = 'a';</text><rect fill="#DFA9CD" height="223.0425" style="stroke:#000000;stroke-width:1.5;" width="226.3291" x="14.3335" y="235.7349"/><path d="M95.4067,235.7349 L95.4067,245.0317 L85.4067,255.0317 L14.3335,255.0317 " fill="none" style="stroke:#000000;stroke-width:1.5;"/><text fill="#000000" font-family="sans-serif" font-size="14" lengthAdjust="spacing" textLength="71.0732" x="17.3335" y="249.73">while loop</text><polygon fill="#F1F1F1" points="42.3335,327.7422,201.1069,327.7422,211.1069,344.7266,201.1069,361.7109,42.3335,361.7109" style="stroke:#181818;stroke-width:0.5;"/><text fill="#000000" font-family="sans-serif" font-size="12" lengthAdjust="spacing" textLength="138.7734" x="52.3335" y="348.8809">System.out.println(ch);</text><rect fill="#F1F1F1" height="33.9688" style="stroke:#181818;stroke-width:0.5;" width="58.3555" x="92.5425" y="390.8086"/><text fill="#000000" font-family="sans-serif" font-size="12" lengthAdjust="spacing" textLength="38.3555" x="102.5425" y="411.9473">ch++;</text><polygon fill="#DEB887" points="87.6226,272.0317,155.8179,272.0317,167.8179,284.0317,155.8179,296.0317,87.6226,296.0317,75.6226,284.0317,87.6226,272.0317" style="stroke:#181818;stroke-width:0.5;"/><text fill="#008000" font-family="sans-serif" font-size="11" lengthAdjust="spacing" textLength="22.5747" x="125.7202" y="306.2422">true</text><text fill="#000000" font-family="sans-serif" font-size="14" font-weight="bold" lengthAdjust="spacing" textLength="68.1953" x="87.6226" y="288.8784">ch &lt;= 'z'</text><text fill="#FF0000" font-family="sans-serif" font-size="11" lengthAdjust="spacing" textLength="26.168" x="49.4546" y="281.4375">false</text><ellipse cx="121.7202" cy="489.7773" fill="none" rx="11" ry="11" style="stroke:#222222;stroke-width:1.0;"/><ellipse cx="121.7202" cy="489.7773" fill="#222222" rx="6" ry="6" style="stroke:#222222;stroke-width:1.0;"/><line style="stroke:#181818;stroke-width:1.0;" x1="121.7202" x2="121.7202" y1="83.5938" y2="103.5938"/><polygon fill="#181818" points="117.7202,93.5938,121.7202,103.5938,125.7202,93.5938,121.7202,97.5938" style="stroke:#181818;stroke-width:1.0;"/><line style="stroke:#181818;stroke-width:1.0;" x1="121.7202" x2="121.7202" y1="137.5625" y2="191.7661"/><polygon fill="#181818" points="117.7202,181.7661,121.7202,191.7661,125.7202,181.7661,121.7202,185.7661" style="stroke:#181818;stroke-width:1.0;"/><text fill="#000000" font-family="sans-serif" font-size="11" lengthAdjust="spacing" textLength="99.4458" x="125.7202" y="158.8672">print the alphabet</text><text fill="#000000" font-family="sans-serif" font-size="11" lengthAdjust="spacing" textLength="102.7866" x="125.7202" y="171.6719">using a while loop.</text><line style="stroke:#181818;stroke-width:1.0;" x1="121.7202" x2="121.7202" y1="361.7109" y2="390.8086"/><polygon fill="#181818" points="117.7202,380.8086,121.7202,390.8086,125.7202,380.8086,121.7202,384.8086" style="stroke:#181818;stroke-width:1.0;"/><line style="stroke:#181818;stroke-width:1.0;" x1="121.7202" x2="121.7202" y1="296.0317" y2="327.7422"/><polygon fill="#181818" points="117.7202,317.7422,121.7202,327.7422,125.7202,317.7422,121.7202,321.7422" style="stroke:#181818;stroke-width:1.0;"/><line style="stroke:#181818;stroke-width:1.0;" x1="121.7202" x2="121.7202" y1="424.7773" y2="434.7773"/><line style="stroke:#181818;stroke-width:1.0;" x1="121.7202" x2="223.1069" y1="434.7773" y2="434.7773"/><polygon fill="#181818" points="219.1069,370.8086,223.1069,360.8086,227.1069,370.8086,223.1069,366.8086" style="stroke:#181818;stroke-width:1.0;"/><line style="stroke:#181818;stroke-width:1.0;" x1="223.1069" x2="223.1069" y1="284.0317" y2="434.7773"/><line style="stroke:#181818;stroke-width:1.0;" x1="223.1069" x2="167.8179" y1="284.0317" y2="284.0317"/><polygon fill="#181818" points="177.8179,280.0317,167.8179,284.0317,177.8179,288.0317,173.8179,284.0317" style="stroke:#181818;stroke-width:1.0;"/><line style="stroke:#181818;stroke-width:1.0;" x1="75.6226" x2="30.3335" y1="284.0317" y2="284.0317"/><polygon fill="#181818" points="26.3335,356.8086,30.3335,366.8086,34.3335,356.8086,30.3335,360.8086" style="stroke:#181818;stroke-width:1.0;"/><line style="stroke:#181818;stroke-width:1.0;" x1="30.3335" x2="30.3335" y1="284.0317" y2="446.7773"/><line style="stroke:#181818;stroke-width:1.0;" x1="30.3335" x2="121.7202" y1="446.7773" y2="446.7773"/><line style="stroke:#181818;stroke-width:1.0;" x1="121.7202" x2="121.7202" y1="446.7773" y2="478.7773"/><polygon fill="#181818" points="117.7202,468.7773,121.7202,478.7773,125.7202,468.7773,121.7202,472.7773" style="stroke:#181818;stroke-width:1.0;"/><line style="stroke:#181818;stroke-width:1.0;" x1="121.7202" x2="121.7202" y1="225.7349" y2="272.0317"/><polygon fill="#181818" points="117.7202,262.0317,121.7202,272.0317,125.7202,262.0317,121.7202,266.0317" style="stroke:#181818;stroke-width:1.0;"/><!--SRC=[TP5BJ-im48Nt_XKZiMWhH16Fkw0nbdY8rLqWiM1pDvDusepgU2BReGfN_UyuQGcmm0jBdfdZxnmxRjct6B21kohn6wSU_Yl8wqbyUk5tWelByJnkZuoDU7iS6TPVzlGWJWBqv9pifiOzLjjDaCxRGxliWkjt8dQQ-29S_wobtX6KuWwZUxLNAausdp4aJYp-QE9UWgKmChHc_yQHIqV6W1TFKvBV-dkLBykqARnbt0mOMSC_hzTP2XuRkisn9RPOaT7LcEVapyNLPKdcjMP7ZzJ8ia7syuK-7_j6dmzY0msbEeTMCMNZIgsg6WDKTL4eTMRQm1cGQW9qROqbfKpj8liD8Eo6cy69jCjYqC4jp71M5A1rmhWrHgbsUemJkyQRoduJ7TzdBCopMcVv-sm1765-oB3Q129lKkXeCVt0wgMFYPgbT6avsdC-gnSZDjVQBcNmD5pLfwVV7Gr5ylRWuXCJo9erkfWfmrScQJy0]--></g></svg>