<svg xmlns="http://www.w3.org/2000/svg" xmlns:xlink="http://www.w3.org/1999/xlink" contentStyleType="text/css" height="138px" preserveAspectRatio="none" style="width:219px;height:138px;background:#FFFFFF;" version="1.1" viewBox="0 0 219 138" width="219px" zoomAndPan="magnify"><title>Class digram of </title><defs/><g><text fill="#000000" font-family="sans-serif" font-size="14" font-weight="bold" lengthAdjust="spacing" textLength="122.4248" x="42.0347" y="22.9951">Class digram of</text><text fill="#000000" font-family="sans-serif" font-size="14" font-weight="bold" lengthAdjust="spacing" textLength="125.0293" x="43.1694" y="39.292">`Example` class</text><!--class Example--><g id="elem_Example"><rect codeLine="4" fill="#F1F1F1" height="64.2969" id="Example" rx="2.5" ry="2.5" style="stroke:#181818;stroke-width:0.5;" width="198.3682" x="7" y="60.5938"/><ellipse cx="71.5654" cy="76.5938" fill="#ADD1B2" rx="11" ry="11" style="stroke:#181818;stroke-width:1.0;"/><path d="M71.0342,83.5156 Q69.2842,83.5156 68.1436,82.7813 Q67.0186,82.0313 66.4561,80.6875 Q65.9092,79.3281 65.9092,77.5313 Q65.9092,75.5 66.5654,74.0469 Q67.2217,72.5938 68.5029,71.8125 Q69.7842,71.0313 71.6592,71.0313 Q72.5498,71.0313 73.2217,71.2188 Q73.8936,71.3906 74.5811,71.7344 L73.7686,73.75 Q73.1436,73.4375 72.5967,73.3125 Q72.0654,73.1875 71.5811,73.1875 Q70.4092,73.1875 69.7061,73.7188 Q69.0029,74.25 68.7061,75.2031 Q68.4092,76.1563 68.4092,77.4219 Q68.4092,79.4375 69.1279,80.4063 Q69.8467,81.3594 71.4404,81.3594 Q72.0342,81.3594 72.6592,81.2031 Q73.2842,81.0469 74.1123,80.6719 L74.1123,82.8906 Q73.3779,83.2031 72.5811,83.3594 Q71.7998,83.5156 71.0342,83.5156 Z " fill="#000000"/><text fill="#000000" font-family="sans-serif" font-size="14" lengthAdjust="spacing" textLength="60.7373" x="92.0654" y="81.4404">Example</text><line style="stroke:#181818;stroke-width:0.5;" x1="8" x2="204.3682" y1="92.5938" y2="92.5938"/><line style="stroke:#181818;stroke-width:0.5;" x1="8" x2="204.3682" y1="100.5938" y2="100.5938"/><ellipse cx="18" cy="114.2422" fill="#84BE84" rx="3" ry="3" style="stroke:#038048;stroke-width:1.0;"/><text fill="#000000" font-family="sans-serif" font-size="14" lengthAdjust="spacing" text-decoration="underline" textLength="172.3682" x="27" y="117.5889">main(String[] args): void</text></g><!--SRC=[BOdD2eCm40Rl-nJVqU8RU9K-GOzLS34nNSYF98iKGjxTMfpBm8oAUelHSoamuZ87f0rJN9vV3hkt2zRh4Vs5kw8IVjHWzPDCGuzQb5NMXi0IkvTcYUuzWxChZm574aEDJW00]--></g></svg>