<svg xmlns="http://www.w3.org/2000/svg" xmlns:xlink="http://www.w3.org/1999/xlink" contentStyleType="text/css" height="131px" preserveAspectRatio="none" style="width:444px;height:131px;background:#FFFFFF;" version="1.1" viewBox="0 0 444 131" width="444px" zoomAndPan="magnify"><title>Class diagram of </title><defs/><g><text fill="#000000" font-family="sans-serif" font-size="14" font-weight="bold" lengthAdjust="spacing" textLength="131.8721" x="146.9165" y="22.9951">Class diagram of</text><text fill="#000000" font-family="sans-serif" font-size="14" font-weight="bold" lengthAdjust="spacing" textLength="132.1045" x="149.2373" y="39.292">BlockDemo class</text><!--class BlockDemo--><g id="elem_BlockDemo"><rect codeLine="3" fill="#F1F1F1" height="64.2969" id="BlockDemo" rx="2.5" ry="2.5" style="stroke:#181818;stroke-width:0.5;" width="198.3682" x="7" y="60.5938"/><ellipse cx="62.2036" cy="76.5938" fill="#ADD1B2" rx="11" ry="11" style="stroke:#181818;stroke-width:1.0;"/><path d="M61.6724,83.5156 Q59.9224,83.5156 58.7817,82.7813 Q57.6567,82.0313 57.0942,80.6875 Q56.5474,79.3281 56.5474,77.5313 Q56.5474,75.5 57.2036,74.0469 Q57.8599,72.5938 59.1411,71.8125 Q60.4224,71.0313 62.2974,71.0313 Q63.188,71.0313 63.8599,71.2188 Q64.5317,71.3906 65.2192,71.7344 L64.4067,73.75 Q63.7817,73.4375 63.2349,73.3125 Q62.7036,73.1875 62.2192,73.1875 Q61.0474,73.1875 60.3442,73.7188 Q59.6411,74.25 59.3442,75.2031 Q59.0474,76.1563 59.0474,77.4219 Q59.0474,79.4375 59.7661,80.4063 Q60.4849,81.3594 62.0786,81.3594 Q62.6724,81.3594 63.2974,81.2031 Q63.9224,81.0469 64.7505,80.6719 L64.7505,82.8906 Q64.0161,83.2031 63.2192,83.3594 Q62.438,83.5156 61.6724,83.5156 Z " fill="#000000"/><text fill="#000000" font-family="sans-serif" font-size="14" lengthAdjust="spacing" textLength="79.4609" x="82.7036" y="81.4404">BlockDemo</text><line style="stroke:#181818;stroke-width:0.5;" x1="8" x2="204.3682" y1="92.5938" y2="92.5938"/><line style="stroke:#181818;stroke-width:0.5;" x1="8" x2="204.3682" y1="100.5938" y2="100.5938"/><ellipse cx="18" cy="114.2422" fill="#84BE84" rx="3" ry="3" style="stroke:#038048;stroke-width:1.0;"/><text fill="#000000" font-family="sans-serif" font-size="14" lengthAdjust="spacing" text-decoration="underline" textLength="172.3682" x="27" y="117.5889">main(String[] args): void</text></g><g id="elem_GMN3"><path d="M240,80.0938 L240,88.5938 L205.21,92.5938 L240,96.5938 L240,105.2266 A0,0 0 0 0 240,105.2266 L437.5791,105.2266 A0,0 0 0 0 437.5791,105.2266 L437.5791,90.0938 L427.5791,80.0938 L240,80.0938 A0,0 0 0 0 240,80.0938 " fill="#FEFFDD" style="stroke:#181818;stroke-width:0.5;"/><path d="M427.5791,80.0938 L427.5791,90.0938 L437.5791,90.0938 L427.5791,80.0938 " fill="#FEFFDD" style="stroke:#181818;stroke-width:0.5;"/><text fill="#000000" font-family="sans-serif" font-size="13" lengthAdjust="spacing" textLength="176.5791" x="246" y="97.1606">Demonstrate Block of code</text></g><!--SRC=[HOqn3W8n40FxlC8bY1zS2Vo04YXMoP9RaMIbP4KJvUzShZat8zcMRMA9SKlK6e9Gh9IX7xpADQd_tZah_0oTsu73xWwRUcPRDGnSq9kHYH_89ENqi2ebFj-W6jjvmKybkE6A6gDAN6tU76iB9agpIbjXzsV1Q-0_]--></g></svg>