<svg xmlns="http://www.w3.org/2000/svg" xmlns:xlink="http://www.w3.org/1999/xlink" contentStyleType="text/css" height="1002px" preserveAspectRatio="none" style="width:610px;height:1002px;background:#FFFFFF;" version="1.1" viewBox="0 0 610 1002" width="610px" zoomAndPan="magnify"><title>Activity diagram of </title><defs/><g><text fill="#000000" font-family="sans-serif" font-size="14" font-weight="bold" lengthAdjust="spacing" textLength="151.0537" x="225.7024" y="32.9951">Activity diagram of</text><text fill="#000000" font-family="sans-serif" font-size="14" font-weight="bold" lengthAdjust="spacing" textLength="323.0869" x="142.1228" y="49.292">JBG_HS_Ch01_SelfTest_10.main() method</text><ellipse cx="281.1011" cy="73.5938" fill="#222222" rx="10" ry="10" style="stroke:#222222;stroke-width:1.0;"/><rect fill="#F1F1F1" height="33.9688" rx="12.5" ry="12.5" style="stroke:#181818;stroke-width:0.5;" width="157.5078" x="202.3472" y="103.5938"/><text fill="#000000" font-family="sans-serif" font-size="12" lengthAdjust="spacing" textLength="137.5078" x="212.3472" y="124.7324">double inches, meters;</text><rect fill="#F1F1F1" height="33.9688" rx="12.5" ry="12.5" style="stroke:#181818;stroke-width:0.5;" width="89.6738" x="236.2642" y="157.5625"/><text fill="#000000" font-family="sans-serif" font-size="12" lengthAdjust="spacing" textLength="69.6738" x="246.2642" y="178.7012">int counter;</text><rect fill="#F1F1F1" height="33.9688" rx="12.5" ry="12.5" style="stroke:#181818;stroke-width:0.5;" width="161.1582" x="200.522" y="211.5313"/><text fill="#000000" font-family="sans-serif" font-size="12" lengthAdjust="spacing" textLength="141.1582" x="210.522" y="232.6699">int inchesPerFeet = 12;</text><rect fill="#F1F1F1" height="33.9688" rx="12.5" ry="12.5" style="stroke:#181818;stroke-width:0.5;" width="157.3789" x="202.4116" y="265.5"/><text fill="#000000" font-family="sans-serif" font-size="12" lengthAdjust="spacing" textLength="137.3789" x="212.4116" y="286.6387">int runForNFeets = 12;</text><rect fill="#F1F1F1" height="33.9688" style="stroke:#181818;stroke-width:0.5;" width="95.5332" x="233.3345" y="319.4688"/><text fill="#000000" font-family="sans-serif" font-size="12" lengthAdjust="spacing" textLength="75.5332" x="243.3345" y="340.6074">counter = 0;</text><rect fill="#9BD68D" height="586.3237" style="stroke:#000000;stroke-width:1.5;" width="588.3325" x="11" y="363.4375"/><path d="M74.6074,363.4375 L74.6074,372.7344 L64.6074,382.7344 L11,382.7344 " fill="none" style="stroke:#000000;stroke-width:1.5;"/><text fill="#000000" font-family="sans-serif" font-size="14" lengthAdjust="spacing" textLength="53.6074" x="14" y="377.4326">for loop</text><rect fill="#F1F1F1" height="33.9688" style="stroke:#181818;stroke-width:0.5;" width="88.1387" x="237.0317" y="399.7344"/><text fill="#000000" font-family="sans-serif" font-size="12" lengthAdjust="spacing" textLength="68.1387" x="247.0317" y="420.873">inches = 1;</text><path d="M39,513.8315 L39,538.9644 A0,0 0 0 0 39,538.9644 L176.6636,538.9644 A0,0 0 0 0 176.6636,538.9644 L176.6636,531.8315 L196.6636,526.3979 L176.6636,523.8315 L176.6636,523.8315 L166.6636,513.8315 L39,513.8315 A0,0 0 0 0 39,513.8315 " fill="#FEFFDD" style="stroke:#181818;stroke-width:0.5;"/><path d="M166.6636,513.8315 L166.6636,523.8315 L176.6636,523.8315 L166.6636,513.8315 " fill="#FEFFDD" style="stroke:#181818;stroke-width:0.5;"/><text fill="#000000" font-family="sans-serif" font-size="13" lengthAdjust="spacing" textLength="116.6636" x="45" y="530.8984">convert to meters</text><rect fill="#F1F1F1" height="33.9688" style="stroke:#181818;stroke-width:0.5;" width="168.875" x="196.6636" y="509.4136"/><text fill="#000000" font-family="sans-serif" font-size="12" lengthAdjust="spacing" textLength="148.875" x="206.6636" y="530.5522">meters = inches / 39.37;</text><polygon fill="#F1F1F1" points="75.7993,563.3823,486.4028,563.3823,496.4028,580.3667,486.4028,597.3511,75.7993,597.3511" style="stroke:#181818;stroke-width:0.5;"/><text fill="#000000" font-family="sans-serif" font-size="12" lengthAdjust="spacing" textLength="390.6035" x="85.7993" y="584.521">System.out.println(inches + " inches is " + meters + " meters.");</text><rect fill="#F1F1F1" height="33.9688" style="stroke:#181818;stroke-width:0.5;" width="90.3242" x="235.939" y="617.3511"/><text fill="#000000" font-family="sans-serif" font-size="12" lengthAdjust="spacing" textLength="70.3242" x="245.939" y="638.4897">counter++;</text><path d="M81.3174,680.1558 L81.3174,720.4214 L212.2842,720.4214 L212.2842,690.1558 L202.2842,680.1558 L81.3174,680.1558 " fill="#FEFFDD" style="stroke:#181818;stroke-width:0.5;"/><path d="M202.2842,680.1558 L202.2842,690.1558 L212.2842,690.1558 L202.2842,680.1558 " fill="#FEFFDD" style="stroke:#181818;stroke-width:0.5;"/><text fill="#000000" font-family="sans-serif" font-size="13" lengthAdjust="spacing" textLength="102.4639" x="87.3174" y="697.2227">every 10th line,</text><text fill="#000000" font-family="sans-serif" font-size="13" lengthAdjust="spacing" textLength="109.9668" x="87.3174" y="712.3555">print a blank line</text><polygon fill="#F1F1F1" points="208.8159,768.8237,353.3862,768.8237,363.3862,785.8081,353.3862,802.7925,208.8159,802.7925" style="stroke:#181818;stroke-width:0.5;"/><text fill="#000000" font-family="sans-serif" font-size="12" lengthAdjust="spacing" textLength="124.5703" x="218.8159" y="789.9624">System.out.println();</text><path d="M51.9116,842.2104 L51.9116,867.3433 A0,0 0 0 0 51.9116,867.3433 L213.3345,867.3433 A0,0 0 0 0 213.3345,867.3433 L213.3345,860.2104 L233.3345,854.7769 L213.3345,852.2104 L213.3345,852.2104 L203.3345,842.2104 L51.9116,842.2104 A0,0 0 0 0 51.9116,842.2104 " fill="#FEFFDD" style="stroke:#181818;stroke-width:0.5;"/><path d="M203.3345,842.2104 L203.3345,852.2104 L213.3345,852.2104 L203.3345,842.2104 " fill="#FEFFDD" style="stroke:#181818;stroke-width:0.5;"/><text fill="#000000" font-family="sans-serif" font-size="13" lengthAdjust="spacing" textLength="140.4229" x="57.9116" y="859.2773">reset the line counter</text><rect fill="#F1F1F1" height="33.9688" style="stroke:#181818;stroke-width:0.5;" width="95.5332" x="233.3345" y="837.7925"/><text fill="#000000" font-family="sans-serif" font-size="12" lengthAdjust="spacing" textLength="75.5332" x="243.3345" y="858.9312">counter = 0;</text><polygon fill="#DEB887" points="224.2842,720.4214,337.918,720.4214,349.918,732.4214,337.918,744.4214,224.2842,744.4214,212.2842,732.4214,224.2842,720.4214" style="stroke:#FFFF00;stroke-width:0.5;"/><text fill="#008000" font-family="sans-serif" font-size="11" lengthAdjust="spacing" textLength="22.5747" x="285.1011" y="754.6318">true</text><text fill="#000000" font-family="sans-serif" font-size="14" font-weight="bold" lengthAdjust="spacing" textLength="113.6338" x="224.2842" y="737.2681">counter == 12</text><polygon fill="#DEB887" points="281.1011,891.7612,293.1011,903.7612,281.1011,915.7612,269.1011,903.7612,281.1011,891.7612" style="stroke:#FFFF00;stroke-width:0.5;"/><polygon fill="#DEB887" points="113.6411,453.7031,448.561,453.7031,460.561,465.7031,448.561,477.7031,113.6411,477.7031,101.6411,465.7031,113.6411,453.7031" style="stroke:#FFFF00;stroke-width:0.5;"/><text fill="#008000" font-family="sans-serif" font-size="11" lengthAdjust="spacing" textLength="22.5747" x="285.1011" y="487.9136">true</text><text fill="#000000" font-family="sans-serif" font-size="14" font-weight="bold" lengthAdjust="spacing" textLength="334.9199" x="113.6411" y="470.5498">inches &lt;= (inchesPerFeet * runForNFeets)</text><text fill="#FF0000" font-family="sans-serif" font-size="11" lengthAdjust="spacing" textLength="26.168" x="75.4731" y="463.1089">false</text><rect fill="#F1F1F1" height="33.9688" style="stroke:#181818;stroke-width:0.5;" width="82.9297" x="506.4028" y="661.3198"/><text fill="#000000" font-family="sans-serif" font-size="12" lengthAdjust="spacing" textLength="62.9297" x="516.4028" y="682.4585">inches++;</text><ellipse cx="281.1011" cy="980.7612" fill="none" rx="11" ry="11" style="stroke:#222222;stroke-width:1.0;"/><ellipse cx="281.1011" cy="980.7612" fill="#222222" rx="6" ry="6" style="stroke:#222222;stroke-width:1.0;"/><line style="stroke:#181818;stroke-width:1.0;" x1="281.1011" x2="281.1011" y1="83.5938" y2="103.5938"/><polygon fill="#181818" points="277.1011,93.5938,281.1011,103.5938,285.1011,93.5938,281.1011,97.5938" style="stroke:#181818;stroke-width:1.0;"/><line style="stroke:#181818;stroke-width:1.0;" x1="281.1011" x2="281.1011" y1="137.5625" y2="157.5625"/><polygon fill="#181818" points="277.1011,147.5625,281.1011,157.5625,285.1011,147.5625,281.1011,151.5625" style="stroke:#181818;stroke-width:1.0;"/><line style="stroke:#181818;stroke-width:1.0;" x1="281.1011" x2="281.1011" y1="191.5313" y2="211.5313"/><polygon fill="#181818" points="277.1011,201.5313,281.1011,211.5313,285.1011,201.5313,281.1011,205.5313" style="stroke:#181818;stroke-width:1.0;"/><line style="stroke:#181818;stroke-width:1.0;" x1="281.1011" x2="281.1011" y1="245.5" y2="265.5"/><polygon fill="#181818" points="277.1011,255.5,281.1011,265.5,285.1011,255.5,281.1011,259.5" style="stroke:#181818;stroke-width:1.0;"/><line style="stroke:#181818;stroke-width:1.0;" x1="281.1011" x2="281.1011" y1="299.4688" y2="319.4688"/><polygon fill="#181818" points="277.1011,309.4688,281.1011,319.4688,285.1011,309.4688,281.1011,313.4688" style="stroke:#181818;stroke-width:1.0;"/><line style="stroke:#181818;stroke-width:1.0;" x1="281.1011" x2="281.1011" y1="543.3823" y2="563.3823"/><polygon fill="#181818" points="277.1011,553.3823,281.1011,563.3823,285.1011,553.3823,281.1011,557.3823" style="stroke:#181818;stroke-width:1.0;"/><line style="stroke:#181818;stroke-width:1.0;" x1="281.1011" x2="281.1011" y1="597.3511" y2="617.3511"/><polygon fill="#181818" points="277.1011,607.3511,281.1011,617.3511,285.1011,607.3511,281.1011,611.3511" style="stroke:#181818;stroke-width:1.0;"/><line style="stroke:#181818;stroke-width:1.0;" x1="281.1011" x2="281.1011" y1="802.7925" y2="837.7925"/><polygon fill="#181818" points="277.1011,827.7925,281.1011,837.7925,285.1011,827.7925,281.1011,831.7925" style="stroke:#181818;stroke-width:1.0;"/><line style="stroke:#181818;stroke-width:1.0;" x1="281.1011" x2="281.1011" y1="744.4214" y2="768.8237"/><polygon fill="#181818" points="277.1011,758.8237,281.1011,768.8237,285.1011,758.8237,281.1011,762.8237" style="stroke:#181818;stroke-width:1.0;"/><line style="stroke:#181818;stroke-width:1.0;" x1="349.918" x2="373.3862" y1="732.4214" y2="732.4214"/><polygon fill="#181818" points="369.3862,810.2925,373.3862,820.2925,377.3862,810.2925,373.3862,814.2925" style="stroke:#181818;stroke-width:1.0;"/><line style="stroke:#181818;stroke-width:1.0;" x1="373.3862" x2="373.3862" y1="732.4214" y2="903.7612"/><line style="stroke:#181818;stroke-width:1.0;" x1="373.3862" x2="293.1011" y1="903.7612" y2="903.7612"/><polygon fill="#181818" points="303.1011,899.7612,293.1011,903.7612,303.1011,907.7612,299.1011,903.7612" style="stroke:#181818;stroke-width:1.0;"/><line style="stroke:#181818;stroke-width:1.0;" x1="281.1011" x2="281.1011" y1="871.7612" y2="891.7612"/><polygon fill="#181818" points="277.1011,881.7612,281.1011,891.7612,285.1011,881.7612,281.1011,885.7612" style="stroke:#181818;stroke-width:1.0;"/><line style="stroke:#181818;stroke-width:1.0;" x1="281.1011" x2="281.1011" y1="651.3198" y2="720.4214"/><polygon fill="#181818" points="277.1011,710.4214,281.1011,720.4214,285.1011,710.4214,281.1011,714.4214" style="stroke:#181818;stroke-width:1.0;"/><line style="stroke:#181818;stroke-width:1.0;" x1="281.1011" x2="281.1011" y1="477.7031" y2="509.4136"/><polygon fill="#181818" points="277.1011,499.4136,281.1011,509.4136,285.1011,499.4136,281.1011,503.4136" style="stroke:#181818;stroke-width:1.0;"/><line style="stroke:#181818;stroke-width:1.0;" x1="281.1011" x2="281.1011" y1="915.7612" y2="925.7612"/><line style="stroke:#181818;stroke-width:1.0;" x1="281.1011" x2="547.8677" y1="925.7612" y2="925.7612"/><line style="stroke:#181818;stroke-width:1.0;" x1="547.8677" x2="547.8677" y1="695.2886" y2="925.7612"/><polygon fill="#181818" points="543.8677,705.2886,547.8677,695.2886,551.8677,705.2886,547.8677,701.2886" style="stroke:#181818;stroke-width:1.0;"/><line style="stroke:#181818;stroke-width:1.0;" x1="547.8677" x2="547.8677" y1="465.7031" y2="661.3198"/><line style="stroke:#181818;stroke-width:1.0;" x1="547.8677" x2="460.561" y1="465.7031" y2="465.7031"/><polygon fill="#181818" points="470.561,461.7031,460.561,465.7031,470.561,469.7031,466.561,465.7031" style="stroke:#181818;stroke-width:1.0;"/><line style="stroke:#181818;stroke-width:1.0;" x1="101.6411" x2="27" y1="465.7031" y2="465.7031"/><polygon fill="#181818" points="23,674.3042,27,684.3042,31,674.3042,27,678.3042" style="stroke:#181818;stroke-width:1.0;"/><line style="stroke:#181818;stroke-width:1.0;" x1="27" x2="27" y1="465.7031" y2="937.7612"/><line style="stroke:#181818;stroke-width:1.0;" x1="27" x2="281.1011" y1="937.7612" y2="937.7612"/><line style="stroke:#181818;stroke-width:1.0;" x1="281.1011" x2="281.1011" y1="937.7612" y2="969.7612"/><polygon fill="#181818" points="277.1011,959.7612,281.1011,969.7612,285.1011,959.7612,281.1011,963.7612" style="stroke:#181818;stroke-width:1.0;"/><line style="stroke:#181818;stroke-width:1.0;" x1="281.1011" x2="281.1011" y1="433.7031" y2="453.7031"/><polygon fill="#181818" points="277.1011,443.7031,281.1011,453.7031,285.1011,443.7031,281.1011,447.7031" style="stroke:#181818;stroke-width:1.0;"/><line style="stroke:#181818;stroke-width:1.0;" x1="281.1011" x2="281.1011" y1="353.4375" y2="399.7344"/><polygon fill="#181818" points="277.1011,389.7344,281.1011,399.7344,285.1011,389.7344,281.1011,393.7344" style="stroke:#181818;stroke-width:1.0;"/><!--SRC=[VLFRQjj047tNLmpkYrK7nMvAsyYAeGcufPHIS1yBPcMDhCNhNRCxYb5B_Zspkjbockw3q5pFcREpYQDAuI80Ffyt91ybLV2tDlrP6aqh-GTXzgxtPLBiZSxEilpvBZK-66KiLAYKEGw2zsApsrfJwgn9IKkhggCnsI3h1FR-fT_JXDIeKybJq7oJwtO6aiGv_HJCSsl57amEl_Mt-o_hhwlrGp6ThLUeyb_eQ3sRHdiXzJY4FLB1R097mb8Gn9afK-ubzQP0T-N3QDry7iHI4snu4BOxiqdwYNQ9I737KdKHM-gbiJ-yttM186xBsJ6Tpo59IBZTOX441uQM98s6DxTfzk5J1ZbBfOmvj5B73PBlT5xeGyT2AXotyUGEnaDIRmTKmX2aWt6oyNSHRosYNf0jCUobZPk16QbjUGqtjz7DnqjOVxGXX9X5qOze2SYqQfsQhIf7k8zCIT71iYvATqmdCEeGcD68xHRO1vhVQ1JMg5nzACdhrFTjXPnC_aLBvkDUQ2zz25IW_k_Khv6z8318V-KoptDQWImwlWac0OgVIhT4VIRgJEQNeY9BMi5iIaLTTCMBN9C20QaIUbTx-wAKNzbHsApTavUwC4QzABqA5hD5BfHZ4Pxyyfl3Cm00]--></g></svg>