<svg xmlns="http://www.w3.org/2000/svg" xmlns:xlink="http://www.w3.org/1999/xlink" contentStyleType="text/css" height="138px" preserveAspectRatio="none" style="width:219px;height:138px;background:#FFFFFF;" version="1.1" viewBox="0 0 219 138" width="219px" zoomAndPan="magnify"><title>Class diagram of </title><defs/><g><text fill="#000000" font-family="sans-serif" font-size="14" font-weight="bold" lengthAdjust="spacing" textLength="131.8721" x="37.311" y="22.9951">Class diagram of</text><text fill="#000000" font-family="sans-serif" font-size="14" font-weight="bold" lengthAdjust="spacing" textLength="100.707" x="55.3306" y="39.292">IfDemo class</text><!--class IfDemo--><g id="elem_IfDemo"><rect codeLine="3" fill="#F1F1F1" height="64.2969" id="IfDemo" rx="2.5" ry="2.5" style="stroke:#181818;stroke-width:0.5;" width="198.3682" x="7" y="60.5938"/><ellipse cx="76.6069" cy="76.5938" fill="#ADD1B2" rx="11" ry="11" style="stroke:#181818;stroke-width:1.0;"/><path d="M76.0757,83.5156 Q74.3257,83.5156 73.1851,82.7813 Q72.0601,82.0313 71.4976,80.6875 Q70.9507,79.3281 70.9507,77.5313 Q70.9507,75.5 71.6069,74.0469 Q72.2632,72.5938 73.5444,71.8125 Q74.8257,71.0313 76.7007,71.0313 Q77.5913,71.0313 78.2632,71.2188 Q78.9351,71.3906 79.6226,71.7344 L78.8101,73.75 Q78.1851,73.4375 77.6382,73.3125 Q77.1069,73.1875 76.6226,73.1875 Q75.4507,73.1875 74.7476,73.7188 Q74.0444,74.25 73.7476,75.2031 Q73.4507,76.1563 73.4507,77.4219 Q73.4507,79.4375 74.1694,80.4063 Q74.8882,81.3594 76.4819,81.3594 Q77.0757,81.3594 77.7007,81.2031 Q78.3257,81.0469 79.1538,80.6719 L79.1538,82.8906 Q78.4194,83.2031 77.6226,83.3594 Q76.8413,83.5156 76.0757,83.5156 Z " fill="#000000"/><text fill="#000000" font-family="sans-serif" font-size="14" lengthAdjust="spacing" textLength="50.6543" x="97.1069" y="81.4404">IfDemo</text><line style="stroke:#181818;stroke-width:0.5;" x1="8" x2="204.3682" y1="92.5938" y2="92.5938"/><line style="stroke:#181818;stroke-width:0.5;" x1="8" x2="204.3682" y1="100.5938" y2="100.5938"/><ellipse cx="18" cy="114.2422" fill="#84BE84" rx="3" ry="3" style="stroke:#038048;stroke-width:1.0;"/><text fill="#000000" font-family="sans-serif" font-size="14" lengthAdjust="spacing" text-decoration="underline" textLength="172.3682" x="27" y="117.5889">main(String[] args): void</text></g><!--SRC=[BOax2e0m40NxdEALYZUmrSRQKYqM4-D2Ff0iDY5tzuFJ3Cm8YpCO7EKCpMGJUSG3QvYEqVY8_JrAVSBVYi93yKREg2iwb2mal5Tuuj3CaZZOPGCbcziULsIjwWq0]--></g></svg>