<svg xmlns="http://www.w3.org/2000/svg" xmlns:xlink="http://www.w3.org/1999/xlink" contentStyleType="text/css" height="1518px" preserveAspectRatio="none" style="width:422px;height:1518px;background:#FFFFFF;" version="1.1" viewBox="0 0 422 1518" width="422px" zoomAndPan="magnify"><title>Activity diagram of </title><defs/><g><text fill="#000000" font-family="sans-serif" font-size="14" font-weight="bold" lengthAdjust="spacing" textLength="151.0537" x="131.7932" y="32.9951">Activity diagram of</text><text fill="#000000" font-family="sans-serif" font-size="14" font-weight="bold" lengthAdjust="spacing" textLength="178.7939" x="120.3601" y="49.292">IfDemo.main() method</text><ellipse cx="244.1235" cy="73.5938" fill="#222222" rx="10" ry="10" style="stroke:#222222;stroke-width:1.0;"/><path d="M10,100.4453 L10,140.7109 A0,0 0 0 0 10,140.7109 L183.9595,140.7109 A0,0 0 0 0 183.9595,140.7109 L183.9595,124.5781 L203.9595,120.5781 L183.9595,116.5781 L183.9595,110.4453 L173.9595,100.4453 L10,100.4453 A0,0 0 0 0 10,100.4453 " fill="#FEFFDD" style="stroke:#181818;stroke-width:0.5;"/><path d="M173.9595,100.4453 L173.9595,110.4453 L183.9595,110.4453 L173.9595,100.4453 " fill="#FEFFDD" style="stroke:#181818;stroke-width:0.5;"/><text fill="#000000" font-family="sans-serif" font-size="13" lengthAdjust="spacing" textLength="148.8271" x="16" y="117.5122">Declaration of multiple</text><text fill="#000000" font-family="sans-serif" font-size="13" lengthAdjust="spacing" textLength="148.5859" x="16" y="132.645">variables of same type</text><rect fill="#F1F1F1" height="33.9688" rx="12.5" ry="12.5" style="stroke:#181818;stroke-width:0.5;" width="80.3281" x="203.9595" y="103.5938"/><text fill="#000000" font-family="sans-serif" font-size="12" lengthAdjust="spacing" textLength="60.3281" x="213.9595" y="124.7324">int a, b, c;</text><rect fill="#F1F1F1" height="33.9688" style="stroke:#181818;stroke-width:0.5;" width="56.7148" x="215.7661" y="160.7109"/><text fill="#000000" font-family="sans-serif" font-size="12" lengthAdjust="spacing" textLength="36.7148" x="225.7661" y="181.8496">a = 2;</text><rect fill="#F1F1F1" height="33.9688" style="stroke:#181818;stroke-width:0.5;" width="56.9785" x="215.6343" y="214.6797"/><text fill="#000000" font-family="sans-serif" font-size="12" lengthAdjust="spacing" textLength="36.9785" x="225.6343" y="235.8184">b = 3;</text><polygon fill="#F1F1F1" points="121.1665,317.0508,367.0806,317.0508,377.0806,334.0352,367.0806,351.0195,121.1665,351.0195" style="stroke:#181818;stroke-width:0.5;"/><text fill="#000000" font-family="sans-serif" font-size="12" lengthAdjust="spacing" textLength="225.9141" x="131.1665" y="338.1895">System.out.println("a is less than b");</text><polygon fill="#F1F1F1" points="229.157,268.6484,259.0901,268.6484,271.0901,280.6484,259.0901,292.6484,229.157,292.6484,217.157,280.6484,229.157,268.6484" style="stroke:#181818;stroke-width:0.5;"/><text fill="#000000" font-family="sans-serif" font-size="11" lengthAdjust="spacing" textLength="22.5747" x="248.1235" y="302.8589">true</text><text fill="#000000" font-family="sans-serif" font-size="11" lengthAdjust="spacing" textLength="29.9331" x="229.157" y="284.4565">a &lt; b</text><polygon fill="#F1F1F1" points="244.1235,371.0195,256.1235,383.0195,244.1235,395.0195,232.1235,383.0195,244.1235,371.0195" style="stroke:#181818;stroke-width:0.5;"/><path d="M16.4358,405.0195 L16.4358,430.1523 L212.5486,430.1523 L212.5486,415.0195 L202.5486,405.0195 L16.4358,405.0195 " fill="#FEFFDD" style="stroke:#181818;stroke-width:0.5;"/><path d="M202.5486,405.0195 L202.5486,415.0195 L212.5486,415.0195 L202.5486,405.0195 " fill="#FEFFDD" style="stroke:#181818;stroke-width:0.5;"/><text fill="#000000" font-family="sans-serif" font-size="13" lengthAdjust="spacing" textLength="175.1128" x="22.4358" y="422.0864">this won't display anything</text><polygon fill="#F1F1F1" points="111.7329,478.5547,376.5142,478.5547,386.5142,495.5391,376.5142,512.5234,111.7329,512.5234" style="stroke:#181818;stroke-width:0.5;"/><text fill="#000000" font-family="sans-serif" font-size="12" lengthAdjust="spacing" textLength="244.7813" x="121.7329" y="499.6934">System.out.println("you won't see this");</text><polygon fill="#F1F1F1" points="224.5486,430.1523,263.6985,430.1523,275.6985,442.1523,263.6985,454.1523,224.5486,454.1523,212.5486,442.1523,224.5486,430.1523" style="stroke:#181818;stroke-width:0.5;"/><text fill="#000000" font-family="sans-serif" font-size="11" lengthAdjust="spacing" textLength="22.5747" x="248.1235" y="464.3628">true</text><text fill="#000000" font-family="sans-serif" font-size="11" lengthAdjust="spacing" textLength="39.1499" x="224.5486" y="445.9604">a == b</text><polygon fill="#F1F1F1" points="244.1235,532.5234,256.1235,544.5234,244.1235,556.5234,232.1235,544.5234,244.1235,532.5234" style="stroke:#181818;stroke-width:0.5;"/><polygon fill="#F1F1F1" points="171.8384,576.5234,316.4087,576.5234,326.4087,593.5078,316.4087,610.4922,171.8384,610.4922" style="stroke:#181818;stroke-width:0.5;"/><text fill="#000000" font-family="sans-serif" font-size="12" lengthAdjust="spacing" textLength="124.5703" x="181.8384" y="597.6621">System.out.println();</text><path d="M82.0947,634.9102 L82.0947,660.043 A0,0 0 0 0 82.0947,660.043 L186.4966,660.043 A0,0 0 0 0 186.4966,660.043 L186.4966,652.9102 L206.4966,647.4766 L186.4966,644.9102 L186.4966,644.9102 L176.4966,634.9102 L82.0947,634.9102 A0,0 0 0 0 82.0947,634.9102 " fill="#FEFFDD" style="stroke:#181818;stroke-width:0.5;"/><path d="M176.4966,634.9102 L176.4966,644.9102 L186.4966,644.9102 L176.4966,634.9102 " fill="#FEFFDD" style="stroke:#181818;stroke-width:0.5;"/><text fill="#000000" font-family="sans-serif" font-size="13" lengthAdjust="spacing" textLength="83.4019" x="88.0947" y="651.9771">c contains -1</text><rect fill="#F1F1F1" height="33.9688" style="stroke:#181818;stroke-width:0.5;" width="75.2539" x="206.4966" y="630.4922"/><text fill="#000000" font-family="sans-serif" font-size="12" lengthAdjust="spacing" textLength="55.2539" x="216.4966" y="651.6309">c = a - b;</text><polygon fill="#F1F1F1" points="127.8257,684.4609,360.4214,684.4609,370.4214,701.4453,360.4214,718.4297,127.8257,718.4297" style="stroke:#181818;stroke-width:0.5;"/><text fill="#000000" font-family="sans-serif" font-size="12" lengthAdjust="spacing" textLength="212.5957" x="137.8257" y="705.5996">System.out.println("c contains -1");</text><polygon fill="#F1F1F1" points="114.73,786.832,373.5171,786.832,383.5171,803.8164,373.5171,820.8008,114.73,820.8008" style="stroke:#181818;stroke-width:0.5;"/><text fill="#000000" font-family="sans-serif" font-size="12" lengthAdjust="spacing" textLength="238.7871" x="124.73" y="807.9707">System.out.println("c is non-negative");</text><polygon fill="#F1F1F1" points="224.887,738.4297,263.3601,738.4297,275.3601,750.4297,263.3601,762.4297,224.887,762.4297,212.887,750.4297,224.887,738.4297" style="stroke:#181818;stroke-width:0.5;"/><text fill="#000000" font-family="sans-serif" font-size="11" lengthAdjust="spacing" textLength="22.5747" x="248.1235" y="772.6401">true</text><text fill="#000000" font-family="sans-serif" font-size="11" lengthAdjust="spacing" textLength="38.4731" x="224.887" y="754.2378">c &gt;= 0</text><polygon fill="#F1F1F1" points="244.1235,840.8008,256.1235,852.8008,244.1235,864.8008,232.1235,852.8008,244.1235,840.8008" style="stroke:#181818;stroke-width:0.5;"/><polygon fill="#F1F1F1" points="128.1714,933.2031,360.0757,933.2031,370.0757,950.1875,360.0757,967.1719,128.1714,967.1719" style="stroke:#181818;stroke-width:0.5;"/><text fill="#000000" font-family="sans-serif" font-size="12" lengthAdjust="spacing" textLength="211.9043" x="138.1714" y="954.3418">System.out.println("c is negative");</text><polygon fill="#F1F1F1" points="229.4954,884.8008,258.7517,884.8008,270.7517,896.8008,258.7517,908.8008,229.4954,908.8008,217.4954,896.8008,229.4954,884.8008" style="stroke:#181818;stroke-width:0.5;"/><text fill="#000000" font-family="sans-serif" font-size="11" lengthAdjust="spacing" textLength="22.5747" x="248.1235" y="919.0112">true</text><text fill="#000000" font-family="sans-serif" font-size="11" lengthAdjust="spacing" textLength="29.2563" x="229.4954" y="900.6089">c &lt; 0</text><polygon fill="#F1F1F1" points="244.1235,987.1719,256.1235,999.1719,244.1235,1011.1719,232.1235,999.1719,244.1235,987.1719" style="stroke:#181818;stroke-width:0.5;"/><polygon fill="#F1F1F1" points="171.8384,1031.1719,316.4087,1031.1719,326.4087,1048.1563,316.4087,1065.1406,171.8384,1065.1406" style="stroke:#181818;stroke-width:0.5;"/><text fill="#000000" font-family="sans-serif" font-size="12" lengthAdjust="spacing" textLength="124.5703" x="181.8384" y="1052.3105">System.out.println();</text><rect fill="#F1F1F1" height="33.9688" style="stroke:#181818;stroke-width:0.5;" width="167.9551" x="160.146" y="1085.1406"/><text fill="#000000" font-family="sans-serif" font-size="12" lengthAdjust="spacing" textLength="147.9551" x="170.146" y="1106.2793">c = b - a; // c contains -1</text><polygon fill="#F1F1F1" points="129.9907,1139.1094,358.2563,1139.1094,368.2563,1156.0938,358.2563,1173.0781,129.9907,1173.0781" style="stroke:#181818;stroke-width:0.5;"/><text fill="#000000" font-family="sans-serif" font-size="12" lengthAdjust="spacing" textLength="208.2656" x="139.9907" y="1160.248">System.out.println("c contains 1");</text><polygon fill="#F1F1F1" points="114.73,1241.4805,373.5171,1241.4805,383.5171,1258.4648,373.5171,1275.4492,114.73,1275.4492" style="stroke:#181818;stroke-width:0.5;"/><text fill="#000000" font-family="sans-serif" font-size="12" lengthAdjust="spacing" textLength="238.7871" x="124.73" y="1262.6191">System.out.println("c is non-negative");</text><polygon fill="#F1F1F1" points="224.887,1193.0781,263.3601,1193.0781,275.3601,1205.0781,263.3601,1217.0781,224.887,1217.0781,212.887,1205.0781,224.887,1193.0781" style="stroke:#181818;stroke-width:0.5;"/><text fill="#000000" font-family="sans-serif" font-size="11" lengthAdjust="spacing" textLength="22.5747" x="248.1235" y="1227.2886">true</text><text fill="#000000" font-family="sans-serif" font-size="11" lengthAdjust="spacing" textLength="38.4731" x="224.887" y="1208.8862">c &gt;= 0</text><polygon fill="#F1F1F1" points="244.1235,1295.4492,256.1235,1307.4492,244.1235,1319.4492,232.1235,1307.4492,244.1235,1295.4492" style="stroke:#181818;stroke-width:0.5;"/><polygon fill="#F1F1F1" points="128.1714,1387.8516,360.0757,1387.8516,370.0757,1404.8359,360.0757,1421.8203,128.1714,1421.8203" style="stroke:#181818;stroke-width:0.5;"/><text fill="#000000" font-family="sans-serif" font-size="12" lengthAdjust="spacing" textLength="211.9043" x="138.1714" y="1408.9902">System.out.println("c is negative");</text><polygon fill="#F1F1F1" points="229.4954,1339.4492,258.7517,1339.4492,270.7517,1351.4492,258.7517,1363.4492,229.4954,1363.4492,217.4954,1351.4492,229.4954,1339.4492" style="stroke:#181818;stroke-width:0.5;"/><text fill="#000000" font-family="sans-serif" font-size="11" lengthAdjust="spacing" textLength="22.5747" x="248.1235" y="1373.6597">true</text><text fill="#000000" font-family="sans-serif" font-size="11" lengthAdjust="spacing" textLength="29.2563" x="229.4954" y="1355.2573">c &lt; 0</text><polygon fill="#F1F1F1" points="244.1235,1441.8203,256.1235,1453.8203,244.1235,1465.8203,232.1235,1453.8203,244.1235,1441.8203" style="stroke:#181818;stroke-width:0.5;"/><ellipse cx="244.1235" cy="1496.8203" fill="none" rx="11" ry="11" style="stroke:#222222;stroke-width:1.0;"/><ellipse cx="244.1235" cy="1496.8203" fill="#222222" rx="6" ry="6" style="stroke:#222222;stroke-width:1.0;"/><line style="stroke:#181818;stroke-width:1.0;" x1="244.1235" x2="244.1235" y1="83.5938" y2="103.5938"/><polygon fill="#181818" points="240.1235,93.5938,244.1235,103.5938,248.1235,93.5938,244.1235,97.5938" style="stroke:#181818;stroke-width:1.0;"/><line style="stroke:#181818;stroke-width:1.0;" x1="244.1235" x2="244.1235" y1="137.5625" y2="160.7109"/><polygon fill="#181818" points="240.1235,150.7109,244.1235,160.7109,248.1235,150.7109,244.1235,154.7109" style="stroke:#181818;stroke-width:1.0;"/><line style="stroke:#181818;stroke-width:1.0;" x1="244.1235" x2="244.1235" y1="194.6797" y2="214.6797"/><polygon fill="#181818" points="240.1235,204.6797,244.1235,214.6797,248.1235,204.6797,244.1235,208.6797" style="stroke:#181818;stroke-width:1.0;"/><line style="stroke:#181818;stroke-width:1.0;" x1="244.1235" x2="244.1235" y1="292.6484" y2="317.0508"/><polygon fill="#181818" points="240.1235,307.0508,244.1235,317.0508,248.1235,307.0508,244.1235,311.0508" style="stroke:#181818;stroke-width:1.0;"/><line style="stroke:#181818;stroke-width:1.0;" x1="271.0901" x2="387.0806" y1="280.6484" y2="280.6484"/><polygon fill="#181818" points="383.0806,324.0352,387.0806,334.0352,391.0806,324.0352,387.0806,328.0352" style="stroke:#181818;stroke-width:1.0;"/><line style="stroke:#181818;stroke-width:1.0;" x1="387.0806" x2="387.0806" y1="280.6484" y2="383.0195"/><line style="stroke:#181818;stroke-width:1.0;" x1="387.0806" x2="256.1235" y1="383.0195" y2="383.0195"/><polygon fill="#181818" points="266.1235,379.0195,256.1235,383.0195,266.1235,387.0195,262.1235,383.0195" style="stroke:#181818;stroke-width:1.0;"/><line style="stroke:#181818;stroke-width:1.0;" x1="244.1235" x2="244.1235" y1="351.0195" y2="371.0195"/><polygon fill="#181818" points="240.1235,361.0195,244.1235,371.0195,248.1235,361.0195,244.1235,365.0195" style="stroke:#181818;stroke-width:1.0;"/><line style="stroke:#181818;stroke-width:1.0;" x1="244.1235" x2="244.1235" y1="248.6484" y2="268.6484"/><polygon fill="#181818" points="240.1235,258.6484,244.1235,268.6484,248.1235,258.6484,244.1235,262.6484" style="stroke:#181818;stroke-width:1.0;"/><line style="stroke:#181818;stroke-width:1.0;" x1="244.1235" x2="244.1235" y1="454.1523" y2="478.5547"/><polygon fill="#181818" points="240.1235,468.5547,244.1235,478.5547,248.1235,468.5547,244.1235,472.5547" style="stroke:#181818;stroke-width:1.0;"/><line style="stroke:#181818;stroke-width:1.0;" x1="275.6985" x2="396.5142" y1="442.1523" y2="442.1523"/><polygon fill="#181818" points="392.5142,485.5391,396.5142,495.5391,400.5142,485.5391,396.5142,489.5391" style="stroke:#181818;stroke-width:1.0;"/><line style="stroke:#181818;stroke-width:1.0;" x1="396.5142" x2="396.5142" y1="442.1523" y2="544.5234"/><line style="stroke:#181818;stroke-width:1.0;" x1="396.5142" x2="256.1235" y1="544.5234" y2="544.5234"/><polygon fill="#181818" points="266.1235,540.5234,256.1235,544.5234,266.1235,548.5234,262.1235,544.5234" style="stroke:#181818;stroke-width:1.0;"/><line style="stroke:#181818;stroke-width:1.0;" x1="244.1235" x2="244.1235" y1="512.5234" y2="532.5234"/><polygon fill="#181818" points="240.1235,522.5234,244.1235,532.5234,248.1235,522.5234,244.1235,526.5234" style="stroke:#181818;stroke-width:1.0;"/><line style="stroke:#181818;stroke-width:1.0;" x1="244.1235" x2="244.1235" y1="395.0195" y2="430.1523"/><polygon fill="#181818" points="240.1235,420.1523,244.1235,430.1523,248.1235,420.1523,244.1235,424.1523" style="stroke:#181818;stroke-width:1.0;"/><line style="stroke:#181818;stroke-width:1.0;" x1="244.1235" x2="244.1235" y1="556.5234" y2="576.5234"/><polygon fill="#181818" points="240.1235,566.5234,244.1235,576.5234,248.1235,566.5234,244.1235,570.5234" style="stroke:#181818;stroke-width:1.0;"/><line style="stroke:#181818;stroke-width:1.0;" x1="244.1235" x2="244.1235" y1="610.4922" y2="630.4922"/><polygon fill="#181818" points="240.1235,620.4922,244.1235,630.4922,248.1235,620.4922,244.1235,624.4922" style="stroke:#181818;stroke-width:1.0;"/><line style="stroke:#181818;stroke-width:1.0;" x1="244.1235" x2="244.1235" y1="664.4609" y2="684.4609"/><polygon fill="#181818" points="240.1235,674.4609,244.1235,684.4609,248.1235,674.4609,244.1235,678.4609" style="stroke:#181818;stroke-width:1.0;"/><line style="stroke:#181818;stroke-width:1.0;" x1="244.1235" x2="244.1235" y1="762.4297" y2="786.832"/><polygon fill="#181818" points="240.1235,776.832,244.1235,786.832,248.1235,776.832,244.1235,780.832" style="stroke:#181818;stroke-width:1.0;"/><line style="stroke:#181818;stroke-width:1.0;" x1="275.3601" x2="393.5171" y1="750.4297" y2="750.4297"/><polygon fill="#181818" points="389.5171,793.8164,393.5171,803.8164,397.5171,793.8164,393.5171,797.8164" style="stroke:#181818;stroke-width:1.0;"/><line style="stroke:#181818;stroke-width:1.0;" x1="393.5171" x2="393.5171" y1="750.4297" y2="852.8008"/><line style="stroke:#181818;stroke-width:1.0;" x1="393.5171" x2="256.1235" y1="852.8008" y2="852.8008"/><polygon fill="#181818" points="266.1235,848.8008,256.1235,852.8008,266.1235,856.8008,262.1235,852.8008" style="stroke:#181818;stroke-width:1.0;"/><line style="stroke:#181818;stroke-width:1.0;" x1="244.1235" x2="244.1235" y1="820.8008" y2="840.8008"/><polygon fill="#181818" points="240.1235,830.8008,244.1235,840.8008,248.1235,830.8008,244.1235,834.8008" style="stroke:#181818;stroke-width:1.0;"/><line style="stroke:#181818;stroke-width:1.0;" x1="244.1235" x2="244.1235" y1="718.4297" y2="738.4297"/><polygon fill="#181818" points="240.1235,728.4297,244.1235,738.4297,248.1235,728.4297,244.1235,732.4297" style="stroke:#181818;stroke-width:1.0;"/><line style="stroke:#181818;stroke-width:1.0;" x1="244.1235" x2="244.1235" y1="908.8008" y2="933.2031"/><polygon fill="#181818" points="240.1235,923.2031,244.1235,933.2031,248.1235,923.2031,244.1235,927.2031" style="stroke:#181818;stroke-width:1.0;"/><line style="stroke:#181818;stroke-width:1.0;" x1="270.7517" x2="380.0757" y1="896.8008" y2="896.8008"/><polygon fill="#181818" points="376.0757,940.1875,380.0757,950.1875,384.0757,940.1875,380.0757,944.1875" style="stroke:#181818;stroke-width:1.0;"/><line style="stroke:#181818;stroke-width:1.0;" x1="380.0757" x2="380.0757" y1="896.8008" y2="999.1719"/><line style="stroke:#181818;stroke-width:1.0;" x1="380.0757" x2="256.1235" y1="999.1719" y2="999.1719"/><polygon fill="#181818" points="266.1235,995.1719,256.1235,999.1719,266.1235,1003.1719,262.1235,999.1719" style="stroke:#181818;stroke-width:1.0;"/><line style="stroke:#181818;stroke-width:1.0;" x1="244.1235" x2="244.1235" y1="967.1719" y2="987.1719"/><polygon fill="#181818" points="240.1235,977.1719,244.1235,987.1719,248.1235,977.1719,244.1235,981.1719" style="stroke:#181818;stroke-width:1.0;"/><line style="stroke:#181818;stroke-width:1.0;" x1="244.1235" x2="244.1235" y1="864.8008" y2="884.8008"/><polygon fill="#181818" points="240.1235,874.8008,244.1235,884.8008,248.1235,874.8008,244.1235,878.8008" style="stroke:#181818;stroke-width:1.0;"/><line style="stroke:#181818;stroke-width:1.0;" x1="244.1235" x2="244.1235" y1="1011.1719" y2="1031.1719"/><polygon fill="#181818" points="240.1235,1021.1719,244.1235,1031.1719,248.1235,1021.1719,244.1235,1025.1719" style="stroke:#181818;stroke-width:1.0;"/><line style="stroke:#181818;stroke-width:1.0;" x1="244.1235" x2="244.1235" y1="1065.1406" y2="1085.1406"/><polygon fill="#181818" points="240.1235,1075.1406,244.1235,1085.1406,248.1235,1075.1406,244.1235,1079.1406" style="stroke:#181818;stroke-width:1.0;"/><line style="stroke:#181818;stroke-width:1.0;" x1="244.1235" x2="244.1235" y1="1119.1094" y2="1139.1094"/><polygon fill="#181818" points="240.1235,1129.1094,244.1235,1139.1094,248.1235,1129.1094,244.1235,1133.1094" style="stroke:#181818;stroke-width:1.0;"/><line style="stroke:#181818;stroke-width:1.0;" x1="244.1235" x2="244.1235" y1="1217.0781" y2="1241.4805"/><polygon fill="#181818" points="240.1235,1231.4805,244.1235,1241.4805,248.1235,1231.4805,244.1235,1235.4805" style="stroke:#181818;stroke-width:1.0;"/><line style="stroke:#181818;stroke-width:1.0;" x1="275.3601" x2="393.5171" y1="1205.0781" y2="1205.0781"/><polygon fill="#181818" points="389.5171,1248.4648,393.5171,1258.4648,397.5171,1248.4648,393.5171,1252.4648" style="stroke:#181818;stroke-width:1.0;"/><line style="stroke:#181818;stroke-width:1.0;" x1="393.5171" x2="393.5171" y1="1205.0781" y2="1307.4492"/><line style="stroke:#181818;stroke-width:1.0;" x1="393.5171" x2="256.1235" y1="1307.4492" y2="1307.4492"/><polygon fill="#181818" points="266.1235,1303.4492,256.1235,1307.4492,266.1235,1311.4492,262.1235,1307.4492" style="stroke:#181818;stroke-width:1.0;"/><line style="stroke:#181818;stroke-width:1.0;" x1="244.1235" x2="244.1235" y1="1275.4492" y2="1295.4492"/><polygon fill="#181818" points="240.1235,1285.4492,244.1235,1295.4492,248.1235,1285.4492,244.1235,1289.4492" style="stroke:#181818;stroke-width:1.0;"/><line style="stroke:#181818;stroke-width:1.0;" x1="244.1235" x2="244.1235" y1="1173.0781" y2="1193.0781"/><polygon fill="#181818" points="240.1235,1183.0781,244.1235,1193.0781,248.1235,1183.0781,244.1235,1187.0781" style="stroke:#181818;stroke-width:1.0;"/><line style="stroke:#181818;stroke-width:1.0;" x1="244.1235" x2="244.1235" y1="1363.4492" y2="1387.8516"/><polygon fill="#181818" points="240.1235,1377.8516,244.1235,1387.8516,248.1235,1377.8516,244.1235,1381.8516" style="stroke:#181818;stroke-width:1.0;"/><line style="stroke:#181818;stroke-width:1.0;" x1="270.7517" x2="380.0757" y1="1351.4492" y2="1351.4492"/><polygon fill="#181818" points="376.0757,1394.8359,380.0757,1404.8359,384.0757,1394.8359,380.0757,1398.8359" style="stroke:#181818;stroke-width:1.0;"/><line style="stroke:#181818;stroke-width:1.0;" x1="380.0757" x2="380.0757" y1="1351.4492" y2="1453.8203"/><line style="stroke:#181818;stroke-width:1.0;" x1="380.0757" x2="256.1235" y1="1453.8203" y2="1453.8203"/><polygon fill="#181818" points="266.1235,1449.8203,256.1235,1453.8203,266.1235,1457.8203,262.1235,1453.8203" style="stroke:#181818;stroke-width:1.0;"/><line style="stroke:#181818;stroke-width:1.0;" x1="244.1235" x2="244.1235" y1="1421.8203" y2="1441.8203"/><polygon fill="#181818" points="240.1235,1431.8203,244.1235,1441.8203,248.1235,1431.8203,244.1235,1435.8203" style="stroke:#181818;stroke-width:1.0;"/><line style="stroke:#181818;stroke-width:1.0;" x1="244.1235" x2="244.1235" y1="1319.4492" y2="1339.4492"/><polygon fill="#181818" points="240.1235,1329.4492,244.1235,1339.4492,248.1235,1329.4492,244.1235,1333.4492" style="stroke:#181818;stroke-width:1.0;"/><line style="stroke:#181818;stroke-width:1.0;" x1="244.1235" x2="244.1235" y1="1465.8203" y2="1485.8203"/><polygon fill="#181818" points="240.1235,1475.8203,244.1235,1485.8203,248.1235,1475.8203,244.1235,1479.8203" style="stroke:#181818;stroke-width:1.0;"/><!--SRC=[rPAxRiCm34LtVSL5bjf07driVWGeaALprooqB2T2RSgmw1J- -yg1XoHmstIiHkBYa3oKMAaDNhNOavK1fQL3HmrSXJs_LJlJk7L3bgCOZP6ZAvNoGfsenBA0bYYMq6cgs8b1WftHDNKarl68QFfQR1luUpvHPwceZH_hdXe36LgZL4B8yPoco38X_x7TggG8bPVBYh9LHCXGn92ZOKJIzIQ6GdZ9- -35D6lNoxhjmb0rHmk2zGYzVCWJerZ4Prp8jBq4eE7ILXCsps-utsC7r-FJyOF0cp3_qVfvy2HZ34pvqlgsfW74GwZo8Umzq-06fX8TJ11MA2vjJ7GDxLZ2QJnMJ_EynLNcTjQmlSOsn-ETs-jHAZjUiJc42v_C_F9dRFP7we_4-rqLmHMbs6okxLn-fTyy_MDDNbpx1G00]--></g></svg>