<svg xmlns="http://www.w3.org/2000/svg" xmlns:xlink="http://www.w3.org/1999/xlink" contentStyleType="text/css" height="138px" preserveAspectRatio="none" style="width:219px;height:138px;background:#FFFFFF;" version="1.1" viewBox="0 0 219 138" width="219px" zoomAndPan="magnify"><title>Class diagram of </title><defs/><g><text fill="#000000" font-family="sans-serif" font-size="14" font-weight="bold" lengthAdjust="spacing" textLength="131.8721" x="37.311" y="22.9951">Class diagram of</text><text fill="#000000" font-family="sans-serif" font-size="14" font-weight="bold" lengthAdjust="spacing" textLength="109.4023" x="50.9829" y="39.292">GalToLit class</text><!--class GalToLit--><g id="elem_GalToLit"><rect codeLine="3" fill="#F1F1F1" height="64.2969" id="GalToLit" rx="2.5" ry="2.5" style="stroke:#181818;stroke-width:0.5;" width="198.3682" x="7" y="60.5938"/><ellipse cx="73.1274" cy="76.5938" fill="#ADD1B2" rx="11" ry="11" style="stroke:#181818;stroke-width:1.0;"/><path d="M72.5962,83.5156 Q70.8462,83.5156 69.7056,82.7813 Q68.5806,82.0313 68.0181,80.6875 Q67.4712,79.3281 67.4712,77.5313 Q67.4712,75.5 68.1274,74.0469 Q68.7837,72.5938 70.0649,71.8125 Q71.3462,71.0313 73.2212,71.0313 Q74.1118,71.0313 74.7837,71.2188 Q75.4556,71.3906 76.1431,71.7344 L75.3306,73.75 Q74.7056,73.4375 74.1587,73.3125 Q73.6274,73.1875 73.1431,73.1875 Q71.9712,73.1875 71.2681,73.7188 Q70.5649,74.25 70.2681,75.2031 Q69.9712,76.1563 69.9712,77.4219 Q69.9712,79.4375 70.6899,80.4063 Q71.4087,81.3594 73.0024,81.3594 Q73.5962,81.3594 74.2212,81.2031 Q74.8462,81.0469 75.6743,80.6719 L75.6743,82.8906 Q74.9399,83.2031 74.1431,83.3594 Q73.3618,83.5156 72.5962,83.5156 Z " fill="#000000"/><text fill="#000000" font-family="sans-serif" font-size="14" lengthAdjust="spacing" textLength="57.6133" x="93.6274" y="81.4404">GalToLit</text><line style="stroke:#181818;stroke-width:0.5;" x1="8" x2="204.3682" y1="92.5938" y2="92.5938"/><line style="stroke:#181818;stroke-width:0.5;" x1="8" x2="204.3682" y1="100.5938" y2="100.5938"/><ellipse cx="18" cy="114.2422" fill="#84BE84" rx="3" ry="3" style="stroke:#038048;stroke-width:1.0;"/><text fill="#000000" font-family="sans-serif" font-size="14" lengthAdjust="spacing" text-decoration="underline" textLength="172.3682" x="27" y="117.5889">main(String[] args): void</text></g><!--SRC=[FOah3e0m40LzJ_4aX1jW4HWSE41iA9HD-adQ3QRftVa8namo8onsHsSf9MWc4yaX75XyJtOA0mkszodr2N_D2W_PxN86NT0W9o7XhS0H-sgKoDxCAoYQLBUu0cjLRW00]--></g></svg>