<svg xmlns="http://www.w3.org/2000/svg" xmlns:xlink="http://www.w3.org/1999/xlink" contentStyleType="text/css" height="594px" preserveAspectRatio="none" style="width:411px;height:594px;background:#FFFFFF;" version="1.1" viewBox="0 0 411 594" width="411px" zoomAndPan="magnify"><title>Activity diagram of </title><defs/><g><text fill="#000000" font-family="sans-serif" font-size="14" font-weight="bold" lengthAdjust="spacing" textLength="151.0537" x="126.1533" y="32.9951">Activity diagram of</text><text fill="#000000" font-family="sans-serif" font-size="14" font-weight="bold" lengthAdjust="spacing" textLength="210.1914" x="99.0215" y="49.292">BlockDemo.main() method</text><ellipse cx="224.3857" cy="73.5938" fill="#222222" rx="10" ry="10" style="stroke:#222222;stroke-width:1.0;"/><path d="M10,93.5938 L10,148.9922 A0,0 0 0 0 10,148.9922 L155.2363,148.9922 A0,0 0 0 0 155.2363,148.9922 L155.2363,125.293 L175.2363,121.293 L155.2363,117.293 L155.2363,103.5938 L145.2363,93.5938 L10,93.5938 A0,0 0 0 0 10,93.5938 " fill="#FEFFDD" style="stroke:#181818;stroke-width:0.5;"/><path d="M145.2363,93.5938 L145.2363,103.5938 L155.2363,103.5938 L145.2363,93.5938 " fill="#FEFFDD" style="stroke:#181818;stroke-width:0.5;"/><text fill="#000000" font-family="sans-serif" font-size="13" lengthAdjust="spacing" textLength="120.104" x="16" y="110.6606">Comma separated</text><text fill="#000000" font-family="sans-serif" font-size="13" lengthAdjust="spacing" textLength="109.6621" x="16" y="125.7935">multiple variable</text><text fill="#000000" font-family="sans-serif" font-size="13" lengthAdjust="spacing" textLength="73.1885" x="16" y="140.9263">declaration</text><rect fill="#F1F1F1" height="33.9688" rx="12.5" ry="12.5" style="stroke:#181818;stroke-width:0.5;" width="98.2988" x="175.2363" y="104.3086"/><text fill="#000000" font-family="sans-serif" font-size="12" lengthAdjust="spacing" textLength="78.2988" x="185.2363" y="125.4473">double i, j, d;</text><rect fill="#F1F1F1" height="33.9688" style="stroke:#181818;stroke-width:0.5;" width="52.6953" x="198.0381" y="168.9922"/><text fill="#000000" font-family="sans-serif" font-size="12" lengthAdjust="spacing" textLength="32.6953" x="208.0381" y="190.1309">i = 5;</text><rect fill="#F1F1F1" height="33.9688" style="stroke:#181818;stroke-width:0.5;" width="60.3301" x="194.2207" y="222.9609"/><text fill="#000000" font-family="sans-serif" font-size="12" lengthAdjust="spacing" textLength="40.3301" x="204.2207" y="244.0996">j = 10;</text><path d="M56.3135,266.9297 L56.3135,307.1953 L191.1841,307.1953 L191.1841,276.9297 L181.1841,266.9297 L56.3135,266.9297 " fill="#FEFFDD" style="stroke:#181818;stroke-width:0.5;"/><path d="M181.1841,266.9297 L181.1841,276.9297 L191.1841,276.9297 L181.1841,266.9297 " fill="#FEFFDD" style="stroke:#181818;stroke-width:0.5;"/><text fill="#000000" font-family="sans-serif" font-size="13" lengthAdjust="spacing" textLength="109.7383" x="62.3135" y="283.9966">the target of this</text><text fill="#000000" font-family="sans-serif" font-size="13" lengthAdjust="spacing" textLength="73.4297" x="62.3135" y="299.1294">if is a block</text><polygon fill="#F1F1F1" points="83.5371,355.5977,365.2344,355.5977,375.2344,372.582,365.2344,389.5664,83.5371,389.5664" style="stroke:#181818;stroke-width:0.5;"/><text fill="#000000" font-family="sans-serif" font-size="12" lengthAdjust="spacing" textLength="261.6973" x="93.5371" y="376.7363">System.out.println("i does not equal zero");</text><rect fill="#F1F1F1" height="33.9688" style="stroke:#181818;stroke-width:0.5;" width="67.6836" x="190.5439" y="409.5664"/><text fill="#000000" font-family="sans-serif" font-size="12" lengthAdjust="spacing" textLength="47.6836" x="200.5439" y="430.7051">d = j / i;</text><polygon fill="#F1F1F1" points="116.1533,463.5352,332.6182,463.5352,342.6182,480.5195,332.6182,497.5039,116.1533,497.5039" style="stroke:#181818;stroke-width:0.5;"/><text fill="#000000" font-family="sans-serif" font-size="12" lengthAdjust="spacing" textLength="196.4648" x="126.1533" y="484.6738">System.out.println("j / i is " + d);</text><polygon fill="#DEB887" points="203.1841,307.1953,245.5874,307.1953,257.5874,319.1953,245.5874,331.1953,203.1841,331.1953,191.1841,319.1953,203.1841,307.1953" style="stroke:#FFFF00;stroke-width:0.5;"/><text fill="#008000" font-family="sans-serif" font-size="11" lengthAdjust="spacing" textLength="22.5747" x="228.3857" y="341.4058">true</text><text fill="#000000" font-family="sans-serif" font-size="14" font-weight="bold" lengthAdjust="spacing" textLength="42.4033" x="203.1841" y="324.042">i != 0</text><polygon fill="#DEB887" points="224.3857,517.5039,236.3857,529.5039,224.3857,541.5039,212.3857,529.5039,224.3857,517.5039" style="stroke:#FFFF00;stroke-width:0.5;"/><ellipse cx="224.3857" cy="572.5039" fill="none" rx="11" ry="11" style="stroke:#222222;stroke-width:1.0;"/><ellipse cx="224.3857" cy="572.5039" fill="#222222" rx="6" ry="6" style="stroke:#222222;stroke-width:1.0;"/><line style="stroke:#181818;stroke-width:1.0;" x1="224.3857" x2="224.3857" y1="83.5938" y2="104.3086"/><polygon fill="#181818" points="220.3857,94.3086,224.3857,104.3086,228.3857,94.3086,224.3857,98.3086" style="stroke:#181818;stroke-width:1.0;"/><line style="stroke:#181818;stroke-width:1.0;" x1="224.3857" x2="224.3857" y1="138.2773" y2="168.9922"/><polygon fill="#181818" points="220.3857,158.9922,224.3857,168.9922,228.3857,158.9922,224.3857,162.9922" style="stroke:#181818;stroke-width:1.0;"/><line style="stroke:#181818;stroke-width:1.0;" x1="224.3857" x2="224.3857" y1="202.9609" y2="222.9609"/><polygon fill="#181818" points="220.3857,212.9609,224.3857,222.9609,228.3857,212.9609,224.3857,216.9609" style="stroke:#181818;stroke-width:1.0;"/><line style="stroke:#181818;stroke-width:1.0;" x1="224.3857" x2="224.3857" y1="389.5664" y2="409.5664"/><polygon fill="#181818" points="220.3857,399.5664,224.3857,409.5664,228.3857,399.5664,224.3857,403.5664" style="stroke:#181818;stroke-width:1.0;"/><line style="stroke:#181818;stroke-width:1.0;" x1="224.3857" x2="224.3857" y1="443.5352" y2="463.5352"/><polygon fill="#181818" points="220.3857,453.5352,224.3857,463.5352,228.3857,453.5352,224.3857,457.5352" style="stroke:#181818;stroke-width:1.0;"/><line style="stroke:#181818;stroke-width:1.0;" x1="224.3857" x2="224.3857" y1="331.1953" y2="355.5977"/><polygon fill="#181818" points="220.3857,345.5977,224.3857,355.5977,228.3857,345.5977,224.3857,349.5977" style="stroke:#181818;stroke-width:1.0;"/><line style="stroke:#181818;stroke-width:1.0;" x1="257.5874" x2="385.2344" y1="319.1953" y2="319.1953"/><polygon fill="#181818" points="381.2344,416.5508,385.2344,426.5508,389.2344,416.5508,385.2344,420.5508" style="stroke:#181818;stroke-width:1.0;"/><line style="stroke:#181818;stroke-width:1.0;" x1="385.2344" x2="385.2344" y1="319.1953" y2="529.5039"/><line style="stroke:#181818;stroke-width:1.0;" x1="385.2344" x2="236.3857" y1="529.5039" y2="529.5039"/><polygon fill="#181818" points="246.3857,525.5039,236.3857,529.5039,246.3857,533.5039,242.3857,529.5039" style="stroke:#181818;stroke-width:1.0;"/><line style="stroke:#181818;stroke-width:1.0;" x1="224.3857" x2="224.3857" y1="497.5039" y2="517.5039"/><polygon fill="#181818" points="220.3857,507.5039,224.3857,517.5039,228.3857,507.5039,224.3857,511.5039" style="stroke:#181818;stroke-width:1.0;"/><line style="stroke:#181818;stroke-width:1.0;" x1="224.3857" x2="224.3857" y1="256.9297" y2="307.1953"/><polygon fill="#181818" points="220.3857,297.1953,224.3857,307.1953,228.3857,297.1953,224.3857,301.1953" style="stroke:#181818;stroke-width:1.0;"/><line style="stroke:#181818;stroke-width:1.0;" x1="224.3857" x2="224.3857" y1="541.5039" y2="561.5039"/><polygon fill="#181818" points="220.3857,551.5039,224.3857,561.5039,228.3857,551.5039,224.3857,555.5039" style="stroke:#181818;stroke-width:1.0;"/><!--SRC=[TL5BJyCm3BxdLvYTEZ5j3C6bwoen42TkN7V96dVpbiGbTK4Tuh-JR3m621yYnVaUzfUYbTvYgI3MJINqJDB3w-6QwfwzFD8UONhvrJEa7NjpWahrG1vlsNA07gtbbn-F2rtjre4xRuwGLHTi_y9iVg2-pQx-zjEOi6BxJNbJnxEOVEmW917pjKMSSnsq0wvXwHUMgzqTEXuxJJuRWaFPH7_LYWwYL6wuMqKsZM0x0ZERAS-2aCCjEwUXnKO7BMYYbEkiK1EnppgGJgIbDrZP123sKOjW3jUp6HI5w7PNbYhVnixquhIbgCu8pkPmCGJPe8Uig58s-JeW-b92XyF3WlbZtmgwCNSoRW9viJuR41Z65kACW4-Tjh37m8FXmI02cqxAuv_c9ZflOG9qQlwlxW49rC80pi7yqaDlgFxC9SuCCRerIWfODf6pz5GdhePLIZjbourw1m00]--></g></svg>