<svg xmlns="http://www.w3.org/2000/svg" xmlns:xlink="http://www.w3.org/1999/xlink" contentStyleType="text/css" height="138px" preserveAspectRatio="none" style="width:273px;height:138px;background:#FFFFFF;" version="1.1" viewBox="0 0 273 138" width="273px" zoomAndPan="magnify"><title>Class diagram of </title><defs/><g><text fill="#000000" font-family="sans-serif" font-size="14" font-weight="bold" lengthAdjust="spacing" textLength="131.8721" x="64.127" y="22.9951">Class diagram of</text><text fill="#000000" font-family="sans-serif" font-size="14" font-weight="bold" lengthAdjust="spacing" textLength="245" x="10" y="39.292">JBG_HS_Ch01_SelfTest_10 class</text><!--class JBG_HS_Ch01_SelfTest_10--><g id="elem_JBG_HS_Ch01_SelfTest_10"><rect codeLine="3" fill="#F1F1F1" height="64.2969" id="JBG_HS_Ch01_SelfTest_10" rx="2.5" ry="2.5" style="stroke:#181818;stroke-width:0.5;" width="214.54" x="25.73" y="60.5938"/><ellipse cx="40.73" cy="76.5938" fill="#ADD1B2" rx="11" ry="11" style="stroke:#181818;stroke-width:1.0;"/><path d="M40.1987,83.5156 Q38.4487,83.5156 37.3081,82.7813 Q36.1831,82.0313 35.6206,80.6875 Q35.0737,79.3281 35.0737,77.5313 Q35.0737,75.5 35.73,74.0469 Q36.3862,72.5938 37.6675,71.8125 Q38.9487,71.0313 40.8237,71.0313 Q41.7144,71.0313 42.3862,71.2188 Q43.0581,71.3906 43.7456,71.7344 L42.9331,73.75 Q42.3081,73.4375 41.7612,73.3125 Q41.23,73.1875 40.7456,73.1875 Q39.5737,73.1875 38.8706,73.7188 Q38.1675,74.25 37.8706,75.2031 Q37.5737,76.1563 37.5737,77.4219 Q37.5737,79.4375 38.2925,80.4063 Q39.0112,81.3594 40.605,81.3594 Q41.1987,81.3594 41.8237,81.2031 Q42.4487,81.0469 43.2769,80.6719 L43.2769,82.8906 Q42.5425,83.2031 41.7456,83.3594 Q40.9644,83.5156 40.1987,83.5156 Z " fill="#000000"/><text fill="#000000" font-family="sans-serif" font-size="14" lengthAdjust="spacing" textLength="182.54" x="54.73" y="81.4404">JBG_HS_Ch01_SelfTest_10</text><line style="stroke:#181818;stroke-width:0.5;" x1="26.73" x2="239.27" y1="92.5938" y2="92.5938"/><line style="stroke:#181818;stroke-width:0.5;" x1="26.73" x2="239.27" y1="100.5938" y2="100.5938"/><ellipse cx="36.73" cy="114.2422" fill="#84BE84" rx="3" ry="3" style="stroke:#038048;stroke-width:1.0;"/><text fill="#000000" font-family="sans-serif" font-size="14" lengthAdjust="spacing" text-decoration="underline" textLength="172.3682" x="45.73" y="117.5889">main(String[] args): void</text></g><!--SRC=[TSgj3i8m58PXtwlu90IpMIGJ46nni3GdQzUTf3z9Uu9fUky3FAzvpICimM4AL2iiaoyKaLUyqlroDJTjfcqOZNPXVRWgPXomVAbIl-4VQWgVMdIoPTjnGgj2maj794u7BOMJVywWuklnZ7Tcg_eE]--></g></svg>