<svg xmlns="http://www.w3.org/2000/svg" xmlns:xlink="http://www.w3.org/1999/xlink" contentStyleType="text/css" height="751px" preserveAspectRatio="none" style="width:519px;height:751px;background:#FFFFFF;" version="1.1" viewBox="0 0 519 751" width="519px" zoomAndPan="magnify"><title>Activity diagram of </title><defs/><g><text fill="#000000" font-family="sans-serif" font-size="14" font-weight="bold" lengthAdjust="spacing" textLength="151.0537" x="180.4658" y="32.9951">Activity diagram of</text><text fill="#000000" font-family="sans-serif" font-size="14" font-weight="bold" lengthAdjust="spacing" textLength="213.4453" x="151.707" y="49.292">"Example3.main()" method</text><ellipse cx="338.8105" cy="73.5938" fill="#222222" rx="10" ry="10" style="stroke:#222222;stroke-width:1.0;"/><path d="M84.5928,108.0117 L84.5928,133.1445 A0,0 0 0 0 84.5928,133.1445 L293.5088,133.1445 A0,0 0 0 0 293.5088,133.1445 L293.5088,126.0117 L313.5088,120.5781 L293.5088,118.0117 L293.5088,118.0117 L283.5088,108.0117 L84.5928,108.0117 A0,0 0 0 0 84.5928,108.0117 " fill="#FEFFDD" style="stroke:#181818;stroke-width:0.5;"/><path d="M283.5088,108.0117 L283.5088,118.0117 L293.5088,118.0117 L283.5088,108.0117 " fill="#FEFFDD" style="stroke:#181818;stroke-width:0.5;"/><text fill="#000000" font-family="sans-serif" font-size="13" lengthAdjust="spacing" textLength="187.916" x="90.5928" y="125.0786">This declares an int variable.</text><rect fill="#F1F1F1" height="33.9688" rx="12.5" ry="12.5" style="stroke:#181818;stroke-width:0.5;" width="50.6035" x="313.5088" y="103.5938"/><text fill="#000000" font-family="sans-serif" font-size="12" lengthAdjust="spacing" textLength="30.6035" x="323.5088" y="124.7324">int v;</text><path d="M10,161.9805 L10,187.1133 A0,0 0 0 0 10,187.1133 L280.8818,187.1133 A0,0 0 0 0 280.8818,187.1133 L280.8818,179.9805 L300.8818,174.5469 L280.8818,171.9805 L280.8818,171.9805 L270.8818,161.9805 L10,161.9805 A0,0 0 0 0 10,161.9805 " fill="#FEFFDD" style="stroke:#181818;stroke-width:0.5;"/><path d="M270.8818,161.9805 L270.8818,171.9805 L280.8818,171.9805 L270.8818,161.9805 " fill="#FEFFDD" style="stroke:#181818;stroke-width:0.5;"/><text fill="#000000" font-family="sans-serif" font-size="13" lengthAdjust="spacing" textLength="249.8818" x="16" y="179.0474">This declares a floating-point variable.</text><rect fill="#F1F1F1" height="33.9688" rx="12.5" ry="12.5" style="stroke:#181818;stroke-width:0.5;" width="75.8574" x="300.8818" y="157.5625"/><text fill="#000000" font-family="sans-serif" font-size="12" lengthAdjust="spacing" textLength="55.8574" x="310.8818" y="178.7012">double x;</text><path d="M121.4795,215.9492 L121.4795,241.082 A0,0 0 0 0 121.4795,241.082 L286.7617,241.082 A0,0 0 0 0 286.7617,241.082 L286.7617,233.9492 L306.7617,228.5156 L286.7617,225.9492 L286.7617,225.9492 L276.7617,215.9492 L121.4795,215.9492 A0,0 0 0 0 121.4795,215.9492 " fill="#FEFFDD" style="stroke:#181818;stroke-width:0.5;"/><path d="M276.7617,215.9492 L276.7617,225.9492 L286.7617,225.9492 L276.7617,215.9492 " fill="#FEFFDD" style="stroke:#181818;stroke-width:0.5;"/><text fill="#000000" font-family="sans-serif" font-size="13" lengthAdjust="spacing" textLength="144.2822" x="127.4795" y="233.0161">Assign v the value 10.</text><rect fill="#F1F1F1" height="33.9688" style="stroke:#181818;stroke-width:0.5;" width="64.0977" x="306.7617" y="211.5313"/><text fill="#000000" font-family="sans-serif" font-size="12" lengthAdjust="spacing" textLength="44.0977" x="316.7617" y="232.6699">v = 10;</text><path d="M103.3516,269.918 L103.3516,295.0508 A0,0 0 0 0 103.3516,295.0508 L281.0371,295.0508 A0,0 0 0 0 281.0371,295.0508 L281.0371,287.918 L301.0371,282.4844 L281.0371,279.918 L281.0371,279.918 L271.0371,269.918 L103.3516,269.918 A0,0 0 0 0 103.3516,269.918 " fill="#FEFFDD" style="stroke:#181818;stroke-width:0.5;"/><path d="M271.0371,269.918 L271.0371,279.918 L281.0371,279.918 L271.0371,269.918 " fill="#FEFFDD" style="stroke:#181818;stroke-width:0.5;"/><text fill="#000000" font-family="sans-serif" font-size="13" lengthAdjust="spacing" textLength="156.6855" x="109.3516" y="286.9849">Assign x the value 10.0.</text><rect fill="#F1F1F1" height="33.9688" style="stroke:#181818;stroke-width:0.5;" width="75.5469" x="301.0371" y="265.5"/><text fill="#000000" font-family="sans-serif" font-size="12" lengthAdjust="spacing" textLength="55.5469" x="311.0371" y="286.6387">x = 10.0;</text><polygon fill="#F1F1F1" points="189.7617,319.4688,487.8594,319.4688,497.8594,336.4531,487.8594,353.4375,189.7617,353.4375" style="stroke:#181818;stroke-width:0.5;"/><text fill="#000000" font-family="sans-serif" font-size="12" lengthAdjust="spacing" textLength="278.0977" x="199.7617" y="340.6074">System.out.println("Original value of v: " + v);</text><polygon fill="#F1F1F1" points="189.7617,373.4375,487.8594,373.4375,497.8594,390.4219,487.8594,407.4063,189.7617,407.4063" style="stroke:#181818;stroke-width:0.5;"/><text fill="#000000" font-family="sans-serif" font-size="12" lengthAdjust="spacing" textLength="278.0977" x="199.7617" y="394.5762">System.out.println("Original value of x: " + x);</text><polygon fill="#F1F1F1" points="204.29,427.4063,473.3311,427.4063,483.3311,444.3906,473.3311,461.375,204.29,461.375" style="stroke:#181818;stroke-width:0.5;"/><text fill="#000000" font-family="sans-serif" font-size="12" lengthAdjust="spacing" textLength="249.041" x="214.29" y="448.5449">System.out.println();  // Print a blank line.</text><rect fill="#F1F1F1" height="33.9688" style="stroke:#181818;stroke-width:0.5;" width="75.2363" x="301.1924" y="502.7739"/><text fill="#000000" font-family="sans-serif" font-size="12" lengthAdjust="spacing" textLength="55.2363" x="311.1924" y="523.9126">v = v / 4;</text><rect fill="#F1F1F1" height="33.9688" style="stroke:#181818;stroke-width:0.5;" width="75.2363" x="301.1924" y="556.7427"/><text fill="#000000" font-family="sans-serif" font-size="12" lengthAdjust="spacing" textLength="55.2363" x="311.1924" y="577.8813">x = x / 4;</text><polygon fill="#F1F1F1" points="200.0596,610.7114,477.5615,610.7114,487.5615,627.6958,477.5615,644.6802,200.0596,644.6802" style="stroke:#181818;stroke-width:0.5;"/><text fill="#000000" font-family="sans-serif" font-size="12" lengthAdjust="spacing" textLength="257.502" x="210.0596" y="631.8501">System.out.println("v after division: " + v);</text><polygon fill="#F1F1F1" points="200.0596,664.6802,477.5615,664.6802,487.5615,681.6646,477.5615,698.6489,200.0596,698.6489" style="stroke:#181818;stroke-width:0.5;"/><text fill="#000000" font-family="sans-serif" font-size="12" lengthAdjust="spacing" textLength="257.502" x="210.0596" y="685.8188">System.out.println("x after division: " + x);</text><ellipse cx="338.8105" cy="729.6489" fill="none" rx="11" ry="11" style="stroke:#222222;stroke-width:1.0;"/><ellipse cx="338.8105" cy="729.6489" fill="#222222" rx="6" ry="6" style="stroke:#222222;stroke-width:1.0;"/><line style="stroke:#181818;stroke-width:1.0;" x1="338.8105" x2="338.8105" y1="83.5938" y2="103.5938"/><polygon fill="#181818" points="334.8105,93.5938,338.8105,103.5938,342.8105,93.5938,338.8105,97.5938" style="stroke:#181818;stroke-width:1.0;"/><line style="stroke:#181818;stroke-width:1.0;" x1="338.8105" x2="338.8105" y1="137.5625" y2="157.5625"/><polygon fill="#181818" points="334.8105,147.5625,338.8105,157.5625,342.8105,147.5625,338.8105,151.5625" style="stroke:#181818;stroke-width:1.0;"/><line style="stroke:#181818;stroke-width:1.0;" x1="338.8105" x2="338.8105" y1="191.5313" y2="211.5313"/><polygon fill="#181818" points="334.8105,201.5313,338.8105,211.5313,342.8105,201.5313,338.8105,205.5313" style="stroke:#181818;stroke-width:1.0;"/><line style="stroke:#181818;stroke-width:1.0;" x1="338.8105" x2="338.8105" y1="245.5" y2="265.5"/><polygon fill="#181818" points="334.8105,255.5,338.8105,265.5,342.8105,255.5,338.8105,259.5" style="stroke:#181818;stroke-width:1.0;"/><line style="stroke:#181818;stroke-width:1.0;" x1="338.8105" x2="338.8105" y1="299.4688" y2="319.4688"/><polygon fill="#181818" points="334.8105,309.4688,338.8105,319.4688,342.8105,309.4688,338.8105,313.4688" style="stroke:#181818;stroke-width:1.0;"/><line style="stroke:#181818;stroke-width:1.0;" x1="338.8105" x2="338.8105" y1="353.4375" y2="373.4375"/><polygon fill="#181818" points="334.8105,363.4375,338.8105,373.4375,342.8105,363.4375,338.8105,367.4375" style="stroke:#181818;stroke-width:1.0;"/><line style="stroke:#181818;stroke-width:1.0;" x1="338.8105" x2="338.8105" y1="407.4063" y2="427.4063"/><polygon fill="#181818" points="334.8105,417.4063,338.8105,427.4063,342.8105,417.4063,338.8105,421.4063" style="stroke:#181818;stroke-width:1.0;"/><line style="stroke:#181818;stroke-width:1.0;" x1="338.8105" x2="338.8105" y1="461.375" y2="502.7739"/><polygon fill="#181818" points="334.8105,492.7739,338.8105,502.7739,342.8105,492.7739,338.8105,496.7739" style="stroke:#181818;stroke-width:1.0;"/><text fill="#000000" font-family="sans-serif" font-size="11" lengthAdjust="spacing" textLength="123.7769" x="342.8105" y="482.6797">Now, divide both by 4.</text><line style="stroke:#181818;stroke-width:1.0;" x1="338.8105" x2="338.8105" y1="536.7427" y2="556.7427"/><polygon fill="#181818" points="334.8105,546.7427,338.8105,556.7427,342.8105,546.7427,338.8105,550.7427" style="stroke:#181818;stroke-width:1.0;"/><line style="stroke:#181818;stroke-width:1.0;" x1="338.8105" x2="338.8105" y1="590.7114" y2="610.7114"/><polygon fill="#181818" points="334.8105,600.7114,338.8105,610.7114,342.8105,600.7114,338.8105,604.7114" style="stroke:#181818;stroke-width:1.0;"/><line style="stroke:#181818;stroke-width:1.0;" x1="338.8105" x2="338.8105" y1="644.6802" y2="664.6802"/><polygon fill="#181818" points="334.8105,654.6802,338.8105,664.6802,342.8105,654.6802,338.8105,658.6802" style="stroke:#181818;stroke-width:1.0;"/><line style="stroke:#181818;stroke-width:1.0;" x1="338.8105" x2="338.8105" y1="698.6489" y2="718.6489"/><polygon fill="#181818" points="334.8105,708.6489,338.8105,718.6489,342.8105,708.6489,338.8105,712.6489" style="stroke:#181818;stroke-width:1.0;"/><!--SRC=[bP8_JyCm5CHtVufJfbRG54Idf5Jgm0f8CB8un4sUwjYH_MBSRu-RWaIhWihcF_SxlJkRYRN2-fqf4EzGasoSx60tU3FPGvHThzLTtaaoasc6Jd5hQo4yIyUY8CC8PIcCPOK2horvrEfTIwSyfC5uBnt9IgjSYAAsGreX_efWewraCisijwTmm3rkRyeIooLBlrsjlZtMtbDZ4C2jIeGULDBjYJWI-HzCF6P6wcNdMNMv7JZlNHf2cqdsvAWX8_MNDBKJ2cIuGfYEvadS3vpiBwJZWOuNqDCIcC_nlD-cWYejpHQQZCgFK35RFTgFw_I0WMg5odABQeT5NXwQ2vXZyRE8iPruUde-G83Si7AZkITh_f4zdaLFWwSFPVjF]--></g></svg>