<svg xmlns="http://www.w3.org/2000/svg" xmlns:xlink="http://www.w3.org/1999/xlink" contentStyleType="text/css" height="473px" preserveAspectRatio="none" style="width:448px;height:473px;background:#FFFFFF;" version="1.1" viewBox="0 0 448 473" width="448px" zoomAndPan="magnify"><title>Activity diagram of </title><defs/><g><text fill="#000000" font-family="sans-serif" font-size="14" font-weight="bold" lengthAdjust="spacing" textLength="151.0537" x="144.8389" y="32.9951">Activity diagram of</text><text fill="#000000" font-family="sans-serif" font-size="14" font-weight="bold" lengthAdjust="spacing" textLength="208.168" x="118.7188" y="49.292">"ForDemo.main()" method</text><ellipse cx="184.2988" cy="73.5938" fill="#222222" rx="10" ry="10" style="stroke:#222222;stroke-width:1.0;"/><rect fill="#F1F1F1" height="33.9688" rx="12.5" ry="12.5" style="stroke:#181818;stroke-width:0.5;" width="77.3574" x="145.6201" y="103.5938"/><text fill="#000000" font-family="sans-serif" font-size="12" lengthAdjust="spacing" textLength="57.3574" x="155.6201" y="124.7324">int count;</text><rect fill="#9BD68D" height="219.0391" style="stroke:#000000;stroke-width:1.5;" width="426.6055" x="11" y="147.5625"/><path d="M74.6074,147.5625 L74.6074,156.8594 L64.6074,166.8594 L11,166.8594 " fill="none" style="stroke:#000000;stroke-width:1.5;"/><text fill="#000000" font-family="sans-serif" font-size="14" lengthAdjust="spacing" textLength="53.6074" x="14" y="161.5576">for loop</text><rect fill="#F1F1F1" height="33.9688" style="stroke:#181818;stroke-width:0.5;" width="83.2168" x="142.6904" y="183.8594"/><text fill="#000000" font-family="sans-serif" font-size="12" lengthAdjust="spacing" textLength="63.2168" x="152.6904" y="204.998">count = 0;</text><polygon fill="#F1F1F1" points="39,298.6328,329.5977,298.6328,339.5977,315.6172,329.5977,332.6016,39,332.6016" style="stroke:#181818;stroke-width:0.5;"/><text fill="#000000" font-family="sans-serif" font-size="12" lengthAdjust="spacing" textLength="270.5977" x="49" y="319.7715">System.out.println("This is count: " + count);</text><polygon fill="#DEB887" points="157.1775,237.8281,211.4202,237.8281,223.4202,249.8281,211.4202,261.8281,157.1775,261.8281,145.1775,249.8281,157.1775,237.8281" style="stroke:#FFFF00;stroke-width:0.5;"/><text fill="#008000" font-family="sans-serif" font-size="11" lengthAdjust="spacing" textLength="22.5747" x="188.2988" y="272.0386">true</text><text fill="#000000" font-family="sans-serif" font-size="11" lengthAdjust="spacing" textLength="54.2427" x="157.1775" y="253.6362">count &lt; 5</text><text fill="#FF0000" font-family="sans-serif" font-size="11" lengthAdjust="spacing" textLength="26.168" x="119.0095" y="247.2339">false</text><rect fill="#F1F1F1" height="33.9688" style="stroke:#181818;stroke-width:0.5;" width="78.0078" x="349.5977" y="280.2305"/><text fill="#000000" font-family="sans-serif" font-size="12" lengthAdjust="spacing" textLength="58.0078" x="359.5977" y="301.3691">count++;</text><polygon fill="#F1F1F1" points="88.3037,386.6016,280.2939,386.6016,290.2939,403.5859,280.2939,420.5703,88.3037,420.5703" style="stroke:#181818;stroke-width:0.5;"/><text fill="#000000" font-family="sans-serif" font-size="12" lengthAdjust="spacing" textLength="171.9902" x="98.3037" y="407.7402">System.out.println("Done!");</text><ellipse cx="184.2988" cy="451.5703" fill="none" rx="11" ry="11" style="stroke:#222222;stroke-width:1.0;"/><ellipse cx="184.2988" cy="451.5703" fill="#222222" rx="6" ry="6" style="stroke:#222222;stroke-width:1.0;"/><line style="stroke:#181818;stroke-width:1.0;" x1="184.2988" x2="184.2988" y1="83.5938" y2="103.5938"/><polygon fill="#181818" points="180.2988,93.5938,184.2988,103.5938,188.2988,93.5938,184.2988,97.5938" style="stroke:#181818;stroke-width:1.0;"/><line style="stroke:#181818;stroke-width:1.0;" x1="184.2988" x2="184.2988" y1="261.8281" y2="298.6328"/><polygon fill="#181818" points="180.2988,288.6328,184.2988,298.6328,188.2988,288.6328,184.2988,292.6328" style="stroke:#181818;stroke-width:1.0;"/><line style="stroke:#181818;stroke-width:1.0;" x1="184.2988" x2="184.2988" y1="332.6016" y2="342.6016"/><line style="stroke:#181818;stroke-width:1.0;" x1="184.2988" x2="388.6016" y1="342.6016" y2="342.6016"/><line style="stroke:#181818;stroke-width:1.0;" x1="388.6016" x2="388.6016" y1="314.1992" y2="342.6016"/><polygon fill="#181818" points="384.6016,324.1992,388.6016,314.1992,392.6016,324.1992,388.6016,320.1992" style="stroke:#181818;stroke-width:1.0;"/><line style="stroke:#181818;stroke-width:1.0;" x1="388.6016" x2="388.6016" y1="249.8281" y2="280.2305"/><line style="stroke:#181818;stroke-width:1.0;" x1="388.6016" x2="223.4202" y1="249.8281" y2="249.8281"/><polygon fill="#181818" points="233.4202,245.8281,223.4202,249.8281,233.4202,253.8281,229.4202,249.8281" style="stroke:#181818;stroke-width:1.0;"/><line style="stroke:#181818;stroke-width:1.0;" x1="145.1775" x2="27" y1="249.8281" y2="249.8281"/><polygon fill="#181818" points="23,293.2148,27,303.2148,31,293.2148,27,297.2148" style="stroke:#181818;stroke-width:1.0;"/><line style="stroke:#181818;stroke-width:1.0;" x1="27" x2="27" y1="249.8281" y2="354.6016"/><line style="stroke:#181818;stroke-width:1.0;" x1="27" x2="184.2988" y1="354.6016" y2="354.6016"/><line style="stroke:#181818;stroke-width:1.0;" x1="184.2988" x2="184.2988" y1="354.6016" y2="386.6016"/><polygon fill="#181818" points="180.2988,376.6016,184.2988,386.6016,188.2988,376.6016,184.2988,380.6016" style="stroke:#181818;stroke-width:1.0;"/><line style="stroke:#181818;stroke-width:1.0;" x1="184.2988" x2="184.2988" y1="217.8281" y2="237.8281"/><polygon fill="#181818" points="180.2988,227.8281,184.2988,237.8281,188.2988,227.8281,184.2988,231.8281" style="stroke:#181818;stroke-width:1.0;"/><line style="stroke:#181818;stroke-width:1.0;" x1="184.2988" x2="184.2988" y1="137.5625" y2="183.8594"/><polygon fill="#181818" points="180.2988,173.8594,184.2988,183.8594,188.2988,173.8594,184.2988,177.8594" style="stroke:#181818;stroke-width:1.0;"/><line style="stroke:#181818;stroke-width:1.0;" x1="184.2988" x2="184.2988" y1="420.5703" y2="440.5703"/><polygon fill="#181818" points="180.2988,430.5703,184.2988,440.5703,188.2988,430.5703,184.2988,434.5703" style="stroke:#181818;stroke-width:1.0;"/><!--SRC=[RP1DJyCm38Rl-HMcN5fL6bn0q9PAmCI96novP8stHKlZAdMfAhJ_ZlkX0HDM52NE6x-FNRGyE2mLI3nMR3yj3_0rNSSmLjVapQ_C6A_MupCv2Z2WSzJ_UNpIrM4NgFDcbcowu8QUo9nKHpNlnTLYpfOT_jYBwIxe6cWB7pvweR36cbQrjZvE8gYHzr9CjQm3gynwXahSEC-LQYHbsPA7o_kDkRqpi1K2HzGi7MIJ51xWEi-XA5YtXt9kljzROOZdzm9k4h0jn4Krzf3j0g8lENIOdBh8teQMiLvHnwic28RpSVI-br-ofZ8PH93EnsIo4sdJyM8unaPcrUjWPgmqFOT2RnQk1IIWARVQjS9nLEfVX3Lvl8ZE36LQr7m3]--></g></svg>