<svg xmlns="http://www.w3.org/2000/svg" xmlns:xlink="http://www.w3.org/1999/xlink" contentStyleType="text/css" height="138px" preserveAspectRatio="none" style="width:219px;height:138px;background:#FFFFFF;" version="1.1" viewBox="0 0 219 138" width="219px" zoomAndPan="magnify"><title>Class diagram of </title><defs/><g><text fill="#000000" font-family="sans-serif" font-size="14" font-weight="bold" lengthAdjust="spacing" textLength="131.8721" x="37.311" y="22.9951">Class diagram of</text><text fill="#000000" font-family="sans-serif" font-size="14" font-weight="bold" lengthAdjust="spacing" textLength="130.0811" x="40.6436" y="39.292">"ForDemo" class</text><!--class ForDemo--><g id="elem_ForDemo"><rect codeLine="3" fill="#F1F1F1" height="64.2969" id="ForDemo" rx="2.5" ry="2.5" style="stroke:#181818;stroke-width:0.5;" width="198.3682" x="7" y="60.5938"/><ellipse cx="69.9487" cy="76.5938" fill="#ADD1B2" rx="11" ry="11" style="stroke:#181818;stroke-width:1.0;"/><path d="M69.4175,83.5156 Q67.6675,83.5156 66.5269,82.7813 Q65.4019,82.0313 64.8394,80.6875 Q64.2925,79.3281 64.2925,77.5313 Q64.2925,75.5 64.9487,74.0469 Q65.605,72.5938 66.8862,71.8125 Q68.1675,71.0313 70.0425,71.0313 Q70.9331,71.0313 71.605,71.2188 Q72.2769,71.3906 72.9644,71.7344 L72.1519,73.75 Q71.5269,73.4375 70.98,73.3125 Q70.4487,73.1875 69.9644,73.1875 Q68.7925,73.1875 68.0894,73.7188 Q67.3862,74.25 67.0894,75.2031 Q66.7925,76.1563 66.7925,77.4219 Q66.7925,79.4375 67.5112,80.4063 Q68.23,81.3594 69.8237,81.3594 Q70.4175,81.3594 71.0425,81.2031 Q71.6675,81.0469 72.4956,80.6719 L72.4956,82.8906 Q71.7612,83.2031 70.9644,83.3594 Q70.1831,83.5156 69.4175,83.5156 Z " fill="#000000"/><text fill="#000000" font-family="sans-serif" font-size="14" lengthAdjust="spacing" textLength="63.9707" x="90.4487" y="81.4404">ForDemo</text><line style="stroke:#181818;stroke-width:0.5;" x1="8" x2="204.3682" y1="92.5938" y2="92.5938"/><line style="stroke:#181818;stroke-width:0.5;" x1="8" x2="204.3682" y1="100.5938" y2="100.5938"/><ellipse cx="18" cy="114.2422" fill="#84BE84" rx="3" ry="3" style="stroke:#038048;stroke-width:1.0;"/><text fill="#000000" font-family="sans-serif" font-size="14" lengthAdjust="spacing" text-decoration="underline" textLength="172.3682" x="27" y="117.5889">main(String[] args): void</text></g><!--SRC=[BOaz2eKm40RxdEB3IdatUAtY1Inz5ek9SS5a8LbU4t9tVt2QWHbbFHpwWtA6PVA90cJ3BpQZfC45QR3UqvX7U2kAmKK9JdUn5H-KhAIyLWJYs4wQEFfv0IMVko_-mjRK4m00]--></g></svg>