<svg xmlns="http://www.w3.org/2000/svg" xmlns:xlink="http://www.w3.org/1999/xlink" contentStyleType="text/css" height="434px" preserveAspectRatio="none" style="width:501px;height:434px;background:#FFFFFF;" version="1.1" viewBox="0 0 501 434" width="501px" zoomAndPan="magnify"><title>Activity diagram of </title><defs/><g><text fill="#000000" font-family="sans-serif" font-size="14" font-weight="bold" lengthAdjust="spacing" textLength="151.0537" x="171.3787" y="32.9951">Activity diagram of</text><text fill="#000000" font-family="sans-serif" font-size="14" font-weight="bold" lengthAdjust="spacing" textLength="323.0869" x="87.7991" y="49.292">JBG_HS_Ch01_SelfTest_09.main() method</text><ellipse cx="303.3218" cy="73.5938" fill="#222222" rx="10" ry="10" style="stroke:#222222;stroke-width:1.0;"/><path d="M27.9482,108.0117 L27.9482,133.1445 A0,0 0 0 0 27.9482,133.1445 L178.7134,133.1445 A0,0 0 0 0 178.7134,133.1445 L178.7134,126.0117 L198.7134,120.5781 L178.7134,118.0117 L178.7134,118.0117 L168.7134,108.0117 L27.9482,108.0117 A0,0 0 0 0 27.9482,108.0117 " fill="#FEFFDD" style="stroke:#181818;stroke-width:0.5;"/><path d="M168.7134,108.0117 L168.7134,118.0117 L178.7134,118.0117 L168.7134,108.0117 " fill="#FEFFDD" style="stroke:#181818;stroke-width:0.5;"/><text fill="#000000" font-family="sans-serif" font-size="13" lengthAdjust="spacing" textLength="129.7651" x="33.9482" y="125.0786">variable declaration</text><rect fill="#F1F1F1" height="33.9688" rx="12.5" ry="12.5" style="stroke:#181818;stroke-width:0.5;" width="209.2168" x="198.7134" y="103.5938"/><text fill="#000000" font-family="sans-serif" font-size="12" lengthAdjust="spacing" textLength="189.2168" x="208.7134" y="124.7324">double yourWeightOnEarthKgs;</text><path d="M27.7168,161.9805 L27.7168,187.1133 A0,0 0 0 0 27.7168,187.1133 L178.4819,187.1133 A0,0 0 0 0 178.4819,187.1133 L178.4819,179.9805 L198.4819,174.5469 L178.4819,171.9805 L178.4819,171.9805 L168.4819,161.9805 L27.7168,161.9805 A0,0 0 0 0 27.7168,161.9805 " fill="#FEFFDD" style="stroke:#181818;stroke-width:0.5;"/><path d="M168.4819,161.9805 L168.4819,171.9805 L178.4819,171.9805 L168.4819,161.9805 " fill="#FEFFDD" style="stroke:#181818;stroke-width:0.5;"/><text fill="#000000" font-family="sans-serif" font-size="13" lengthAdjust="spacing" textLength="129.7651" x="33.7168" y="179.0474">variable declaration</text><rect fill="#F1F1F1" height="33.9688" rx="12.5" ry="12.5" style="stroke:#181818;stroke-width:0.5;" width="209.6797" x="198.4819" y="157.5625"/><text fill="#000000" font-family="sans-serif" font-size="12" lengthAdjust="spacing" textLength="189.6797" x="208.4819" y="178.7012">double yourWeightOnMoonKgs;</text><rect fill="#F1F1F1" height="33.9688" style="stroke:#181818;stroke-width:0.5;" width="208.9063" x="198.8687" y="211.5313"/><text fill="#000000" font-family="sans-serif" font-size="12" lengthAdjust="spacing" textLength="188.9063" x="208.8687" y="232.6699">yourWeightOnEarthKgs = 63.2;</text><path d="M10,269.918 L10,295.0508 A0,0 0 0 0 10,295.0508 L101.5923,295.0508 A0,0 0 0 0 101.5923,295.0508 L101.5923,287.918 L121.5923,282.4844 L101.5923,279.918 L101.5923,279.918 L91.5923,269.918 L10,269.918 A0,0 0 0 0 10,269.918 " fill="#FEFFDD" style="stroke:#181818;stroke-width:0.5;"/><path d="M91.5923,269.918 L91.5923,279.918 L101.5923,279.918 L91.5923,269.918 " fill="#FEFFDD" style="stroke:#181818;stroke-width:0.5;"/><text fill="#000000" font-family="sans-serif" font-size="13" lengthAdjust="spacing" textLength="70.5923" x="16" y="286.9849">calculation</text><rect fill="#F1F1F1" height="33.9688" style="stroke:#181818;stroke-width:0.5;" width="363.459" x="121.5923" y="265.5"/><text fill="#000000" font-family="sans-serif" font-size="12" lengthAdjust="spacing" textLength="343.459" x="131.5923" y="286.6387">yourWeightOnMoonKgs = yourWeightOnEarthKgs * 0.17;</text><polygon fill="#F1F1F1" points="136.9585,319.4688,469.6851,319.4688,479.6851,350.4219,469.6851,381.375,136.9585,381.375" style="stroke:#181818;stroke-width:0.5;"/><text fill="#000000" font-family="sans-serif" font-size="12" lengthAdjust="spacing" textLength="308.9121" x="146.9585" y="340.6074">System.out.println("Your weight on earth which is "</text><text fill="#000000" font-family="sans-serif" font-size="12" lengthAdjust="spacing" textLength="282.832" x="146.9585" y="354.5762">+ yourWeightOnEarthKgs + "Kgs ; is equal to "</text><text fill="#000000" font-family="sans-serif" font-size="12" lengthAdjust="spacing" textLength="293.8125" x="146.9585" y="368.5449">+ yourWeightOnMoonKgs + "Kgs on the moon.")</text><ellipse cx="303.3218" cy="412.375" fill="none" rx="11" ry="11" style="stroke:#222222;stroke-width:1.0;"/><ellipse cx="303.3218" cy="412.375" fill="#222222" rx="6" ry="6" style="stroke:#222222;stroke-width:1.0;"/><line style="stroke:#181818;stroke-width:1.0;" x1="303.3218" x2="303.3218" y1="83.5938" y2="103.5938"/><polygon fill="#181818" points="299.3218,93.5938,303.3218,103.5938,307.3218,93.5938,303.3218,97.5938" style="stroke:#181818;stroke-width:1.0;"/><line style="stroke:#181818;stroke-width:1.0;" x1="303.3218" x2="303.3218" y1="137.5625" y2="157.5625"/><polygon fill="#181818" points="299.3218,147.5625,303.3218,157.5625,307.3218,147.5625,303.3218,151.5625" style="stroke:#181818;stroke-width:1.0;"/><line style="stroke:#181818;stroke-width:1.0;" x1="303.3218" x2="303.3218" y1="191.5313" y2="211.5313"/><polygon fill="#181818" points="299.3218,201.5313,303.3218,211.5313,307.3218,201.5313,303.3218,205.5313" style="stroke:#181818;stroke-width:1.0;"/><line style="stroke:#181818;stroke-width:1.0;" x1="303.3218" x2="303.3218" y1="245.5" y2="265.5"/><polygon fill="#181818" points="299.3218,255.5,303.3218,265.5,307.3218,255.5,303.3218,259.5" style="stroke:#181818;stroke-width:1.0;"/><line style="stroke:#181818;stroke-width:1.0;" x1="303.3218" x2="303.3218" y1="299.4688" y2="319.4688"/><polygon fill="#181818" points="299.3218,309.4688,303.3218,319.4688,307.3218,309.4688,303.3218,313.4688" style="stroke:#181818;stroke-width:1.0;"/><line style="stroke:#181818;stroke-width:1.0;" x1="303.3218" x2="303.3218" y1="381.375" y2="401.375"/><polygon fill="#181818" points="299.3218,391.375,303.3218,401.375,307.3218,391.375,303.3218,395.375" style="stroke:#181818;stroke-width:1.0;"/><!--SRC=[XPBRIiD048Rlzoc6NBKAiQsYsCI0BHxmW1SHH132DjacIpSxTJDfYUAxksdJWnfmBX8o-_s7a90a9U0o9hcGL44YUMfu3ZY5DtqtkebkmsYSzVfHADJqMHGKzSxTd4lTwK8kACE4-GLLIWGCx6nzFbUFzLoZfb1-2EWFjZkRagDEzgXw7gGMOrHee19AuVB7uOZ7izHWgPCrCYcDgfPey_UfNTZ9ttrT4oQeTf8ljhxwHyqx5CGDCJPCi9nOkCBIl0YPPlIah-n9TfyMdiSqae0XBBYHlCOI4IjkE4dKhT97HFs_aWtRuk02Je_TWUU1xnClPa7m2spCBTSgFu2Usp_RbpSTOgxYKcsYmweWaRjOaZitKfFI7UVL-i5oPGYeGTIMiCnad84imB4_o65xvY4uzSshCV5USWM4BVocUOFR2Ce4v7RhEjswi6qpBoa8WDaFW_Dl]--></g></svg>