<svg xmlns="http://www.w3.org/2000/svg" xmlns:xlink="http://www.w3.org/1999/xlink" contentStyleType="text/css" height="406px" preserveAspectRatio="none" style="width:518px;height:406px;background:#FFFFFF;" version="1.1" viewBox="0 0 518 406" width="518px" zoomAndPan="magnify"><title>Activity diagram of</title><defs/><g><text fill="#000000" font-family="sans-serif" font-size="14" font-weight="bold" lengthAdjust="spacing" textLength="151.0537" x="182.0347" y="32.9951">Activity diagram of</text><text fill="#000000" font-family="sans-serif" font-size="14" font-weight="bold" lengthAdjust="spacing" textLength="187.4893" x="163.8169" y="49.292">GalToLit.main() method</text><ellipse cx="289.165" cy="73.5938" fill="#222222" rx="10" ry="10" style="stroke:#222222;stroke-width:1.0;"/><path d="M10,108.0117 L10,133.1445 A0,0 0 0 0 10,133.1445 L213.3682,133.1445 A0,0 0 0 0 213.3682,133.1445 L213.3682,126.0117 L233.3682,120.5781 L213.3682,118.0117 L213.3682,118.0117 L203.3682,108.0117 L10,108.0117 A0,0 0 0 0 10,108.0117 " fill="#FEFFDD" style="stroke:#181818;stroke-width:0.5;"/><path d="M203.3682,108.0117 L203.3682,118.0117 L213.3682,118.0117 L203.3682,108.0117 " fill="#FEFFDD" style="stroke:#181818;stroke-width:0.5;"/><text fill="#000000" font-family="sans-serif" font-size="13" lengthAdjust="spacing" textLength="182.3682" x="16" y="125.0786">holds the number of gallons</text><rect fill="#F1F1F1" height="33.9688" rx="12.5" ry="12.5" style="stroke:#181818;stroke-width:0.5;" width="111.5938" x="233.3682" y="103.5938"/><text fill="#000000" font-family="sans-serif" font-size="12" lengthAdjust="spacing" textLength="91.5938" x="243.3682" y="124.7324">double gallons;</text><path d="M35.1484,161.9805 L35.1484,187.1133 A0,0 0 0 0 35.1484,187.1133 L219.8164,187.1133 A0,0 0 0 0 219.8164,187.1133 L219.8164,179.9805 L239.8164,174.5469 L219.8164,171.9805 L219.8164,171.9805 L209.8164,161.9805 L35.1484,161.9805 A0,0 0 0 0 35.1484,161.9805 " fill="#FEFFDD" style="stroke:#181818;stroke-width:0.5;"/><path d="M209.8164,161.9805 L209.8164,171.9805 L219.8164,171.9805 L209.8164,161.9805 " fill="#FEFFDD" style="stroke:#181818;stroke-width:0.5;"/><text fill="#000000" font-family="sans-serif" font-size="13" lengthAdjust="spacing" textLength="163.668" x="41.1484" y="179.0474">holds conversion to liters</text><rect fill="#F1F1F1" height="33.9688" rx="12.5" ry="12.5" style="stroke:#181818;stroke-width:0.5;" width="98.6973" x="239.8164" y="157.5625"/><text fill="#000000" font-family="sans-serif" font-size="12" lengthAdjust="spacing" textLength="78.6973" x="249.8164" y="178.7012">double liters;</text><path d="M65.0425,215.9492 L65.0425,241.082 A0,0 0 0 0 65.0425,241.082 L219.248,241.082 A0,0 0 0 0 219.248,241.082 L219.248,233.9492 L239.248,228.5156 L219.248,225.9492 L219.248,225.9492 L209.248,215.9492 L65.0425,215.9492 A0,0 0 0 0 65.0425,215.9492 " fill="#FEFFDD" style="stroke:#181818;stroke-width:0.5;"/><path d="M209.248,215.9492 L209.248,225.9492 L219.248,225.9492 L209.248,215.9492 " fill="#FEFFDD" style="stroke:#181818;stroke-width:0.5;"/><text fill="#000000" font-family="sans-serif" font-size="13" lengthAdjust="spacing" textLength="133.2056" x="71.0425" y="233.0161">start with 10 gallons</text><rect fill="#F1F1F1" height="33.9688" style="stroke:#181818;stroke-width:0.5;" width="99.834" x="239.248" y="211.5313"/><text fill="#000000" font-family="sans-serif" font-size="12" lengthAdjust="spacing" textLength="79.834" x="249.248" y="232.6699">gallons = 10;</text><path d="M59.8779,269.918 L59.8779,295.0508 A0,0 0 0 0 59.8779,295.0508 L184.1035,295.0508 A0,0 0 0 0 184.1035,295.0508 L184.1035,287.918 L204.1035,282.4844 L184.1035,279.918 L184.1035,279.918 L174.1035,269.918 L59.8779,269.918 A0,0 0 0 0 59.8779,269.918 " fill="#FEFFDD" style="stroke:#181818;stroke-width:0.5;"/><path d="M174.1035,269.918 L174.1035,279.918 L184.1035,279.918 L174.1035,269.918 " fill="#FEFFDD" style="stroke:#181818;stroke-width:0.5;"/><text fill="#000000" font-family="sans-serif" font-size="13" lengthAdjust="spacing" textLength="103.2256" x="65.8779" y="286.9849">convert to liters</text><rect fill="#F1F1F1" height="33.9688" style="stroke:#181818;stroke-width:0.5;" width="170.123" x="204.1035" y="265.5"/><text fill="#000000" font-family="sans-serif" font-size="12" lengthAdjust="spacing" textLength="150.123" x="214.1035" y="286.6387">liters = gallons * 3.7854;</text><polygon fill="#F1F1F1" points="92.207,319.4688,486.123,319.4688,496.123,336.4531,486.123,353.4375,92.207,353.4375" style="stroke:#181818;stroke-width:0.5;"/><text fill="#000000" font-family="sans-serif" font-size="12" lengthAdjust="spacing" textLength="373.916" x="102.207" y="340.6074">System.out.println(gallons + " gallons is " + liters + " liters.");</text><ellipse cx="289.165" cy="384.4375" fill="none" rx="11" ry="11" style="stroke:#222222;stroke-width:1.0;"/><ellipse cx="289.165" cy="384.4375" fill="#222222" rx="6" ry="6" style="stroke:#222222;stroke-width:1.0;"/><line style="stroke:#181818;stroke-width:1.0;" x1="289.165" x2="289.165" y1="83.5938" y2="103.5938"/><polygon fill="#181818" points="285.165,93.5938,289.165,103.5938,293.165,93.5938,289.165,97.5938" style="stroke:#181818;stroke-width:1.0;"/><line style="stroke:#181818;stroke-width:1.0;" x1="289.165" x2="289.165" y1="137.5625" y2="157.5625"/><polygon fill="#181818" points="285.165,147.5625,289.165,157.5625,293.165,147.5625,289.165,151.5625" style="stroke:#181818;stroke-width:1.0;"/><line style="stroke:#181818;stroke-width:1.0;" x1="289.165" x2="289.165" y1="191.5313" y2="211.5313"/><polygon fill="#181818" points="285.165,201.5313,289.165,211.5313,293.165,201.5313,289.165,205.5313" style="stroke:#181818;stroke-width:1.0;"/><line style="stroke:#181818;stroke-width:1.0;" x1="289.165" x2="289.165" y1="245.5" y2="265.5"/><polygon fill="#181818" points="285.165,255.5,289.165,265.5,293.165,255.5,289.165,259.5" style="stroke:#181818;stroke-width:1.0;"/><line style="stroke:#181818;stroke-width:1.0;" x1="289.165" x2="289.165" y1="299.4688" y2="319.4688"/><polygon fill="#181818" points="285.165,309.4688,289.165,319.4688,293.165,309.4688,289.165,313.4688" style="stroke:#181818;stroke-width:1.0;"/><line style="stroke:#181818;stroke-width:1.0;" x1="289.165" x2="289.165" y1="353.4375" y2="373.4375"/><polygon fill="#181818" points="285.165,363.4375,289.165,373.4375,293.165,363.4375,289.165,367.4375" style="stroke:#181818;stroke-width:1.0;"/><!--SRC=[RSvFImCn40NmUpx5q5Dh8IWgocujUFBYJOzUqcxi3YOpI_Asqczls7yWUaioytilO0HFpqVmcN6XXjqfkKZw-I4lBhphAyD6nxBUKFHejJ4cmoMOgj7-KEZ9XQ2Iwzg8mbD5hOOc4rfFqiU3JoLhNbfGOFZqnnnLpkMPLGWwxHXJJPYUwEQwhcctWyjV-_riX-_GDwCjywN9LAClQlPNT6iV7k_l_iaOc_6hzksIuQFL7hPBB0YodfEsj5fIEPVBTcB3P3pQrMOeAhxhKQeojFi1]--></g></svg>