<svg xmlns="http://www.w3.org/2000/svg" xmlns:xlink="http://www.w3.org/1999/xlink" contentStyleType="text/css" height="514px" preserveAspectRatio="none" style="width:493px;height:514px;background:#FFFFFF;" version="1.1" viewBox="0 0 493 514" width="493px" zoomAndPan="magnify"><title>Activity diagram of </title><defs/><g><text fill="#000000" font-family="sans-serif" font-size="14" font-weight="bold" lengthAdjust="spacing" textLength="151.0537" x="167.0366" y="32.9951">Activity diagram of</text><text fill="#000000" font-family="sans-serif" font-size="14" font-weight="bold" lengthAdjust="spacing" textLength="212.8574" x="138.5718" y="49.292">`Example2.main()` method</text><ellipse cx="296.1992" cy="73.5938" fill="#222222" rx="10" ry="10" style="stroke:#222222;stroke-width:1.0;"/><path d="M58.3672,108.0117 L58.3672,133.1445 A0,0 0 0 0 58.3672,133.1445 L230.9873,133.1445 A0,0 0 0 0 230.9873,133.1445 L230.9873,126.0117 L250.9873,120.5781 L230.9873,118.0117 L230.9873,118.0117 L220.9873,108.0117 L58.3672,108.0117 A0,0 0 0 0 58.3672,108.0117 " fill="#FEFFDD" style="stroke:#181818;stroke-width:0.5;"/><path d="M220.9873,108.0117 L220.9873,118.0117 L230.9873,118.0117 L220.9873,108.0117 " fill="#FEFFDD" style="stroke:#181818;stroke-width:0.5;"/><text fill="#000000" font-family="sans-serif" font-size="13" lengthAdjust="spacing" textLength="151.6201" x="64.3672" y="125.0786">this declares a variable</text><rect fill="#F1F1F1" height="33.9688" rx="12.5" ry="12.5" style="stroke:#181818;stroke-width:0.5;" width="90.4238" x="250.9873" y="103.5938"/><text fill="#000000" font-family="sans-serif" font-size="12" lengthAdjust="spacing" textLength="70.4238" x="260.9873" y="124.7324">int myVar1;</text><path d="M15.4951,161.9805 L15.4951,187.1133 A0,0 0 0 0 15.4951,187.1133 L230.9873,187.1133 A0,0 0 0 0 230.9873,187.1133 L230.9873,179.9805 L250.9873,174.5469 L230.9873,171.9805 L230.9873,171.9805 L220.9873,161.9805 L15.4951,161.9805 A0,0 0 0 0 15.4951,161.9805 " fill="#FEFFDD" style="stroke:#181818;stroke-width:0.5;"/><path d="M220.9873,161.9805 L220.9873,171.9805 L230.9873,171.9805 L220.9873,161.9805 " fill="#FEFFDD" style="stroke:#181818;stroke-width:0.5;"/><text fill="#000000" font-family="sans-serif" font-size="13" lengthAdjust="spacing" textLength="194.4922" x="21.4951" y="179.0474">this declares another variable</text><rect fill="#F1F1F1" height="33.9688" rx="12.5" ry="12.5" style="stroke:#181818;stroke-width:0.5;" width="90.4238" x="250.9873" y="157.5625"/><text fill="#000000" font-family="sans-serif" font-size="12" lengthAdjust="spacing" textLength="70.4238" x="260.9873" y="178.7012">int myVar2;</text><path d="M10,215.9492 L10,241.082 A0,0 0 0 0 10,241.082 L216.6055,241.082 A0,0 0 0 0 216.6055,241.082 L216.6055,233.9492 L236.6055,228.5156 L216.6055,225.9492 L216.6055,225.9492 L206.6055,215.9492 L10,215.9492 A0,0 0 0 0 10,215.9492 " fill="#FEFFDD" style="stroke:#181818;stroke-width:0.5;"/><path d="M206.6055,215.9492 L206.6055,225.9492 L216.6055,225.9492 L206.6055,215.9492 " fill="#FEFFDD" style="stroke:#181818;stroke-width:0.5;"/><text fill="#000000" font-family="sans-serif" font-size="13" lengthAdjust="spacing" textLength="185.6055" x="16" y="233.0161">this assigns 1024 to myVar1</text><rect fill="#F1F1F1" height="33.9688" style="stroke:#181818;stroke-width:0.5;" width="119.1875" x="236.6055" y="211.5313"/><text fill="#000000" font-family="sans-serif" font-size="12" lengthAdjust="spacing" textLength="99.1875" x="246.6055" y="232.6699">myVar1 = 1024;</text><polygon fill="#F1F1F1" points="131.3975,265.5,461.001,265.5,471.001,282.4844,461.001,299.4688,131.3975,299.4688" style="stroke:#181818;stroke-width:0.5;"/><text fill="#000000" font-family="sans-serif" font-size="12" lengthAdjust="spacing" textLength="309.6035" x="141.3975" y="286.6387">System.out.println("myVar1 contains: " + myVar1);</text><rect fill="#F1F1F1" height="33.9688" style="stroke:#181818;stroke-width:0.5;" width="154.877" x="218.7607" y="319.4688"/><text fill="#000000" font-family="sans-serif" font-size="12" lengthAdjust="spacing" textLength="134.877" x="228.7607" y="340.6074">myVar2 = myVar1 / 2;</text><polygon fill="#F1F1F1" points="134.1484,373.4375,458.25,373.4375,468.25,390.4219,458.25,407.4063,134.1484,407.4063" style="stroke:#181818;stroke-width:0.5;"/><text fill="#000000" font-family="sans-serif" font-size="12" lengthAdjust="spacing" textLength="304.1016" x="144.1484" y="394.5762">System.out.print("myVar2 contains myVar1 / 2: ");</text><polygon fill="#F1F1F1" points="201.6543,427.4063,390.7441,427.4063,400.7441,444.3906,390.7441,461.375,201.6543,461.375" style="stroke:#181818;stroke-width:0.5;"/><text fill="#000000" font-family="sans-serif" font-size="12" lengthAdjust="spacing" textLength="169.0898" x="211.6543" y="448.5449">System.err.println(myVar2);</text><ellipse cx="296.1992" cy="492.375" fill="none" rx="11" ry="11" style="stroke:#222222;stroke-width:1.0;"/><ellipse cx="296.1992" cy="492.375" fill="#222222" rx="6" ry="6" style="stroke:#222222;stroke-width:1.0;"/><line style="stroke:#181818;stroke-width:1.0;" x1="296.1992" x2="296.1992" y1="83.5938" y2="103.5938"/><polygon fill="#181818" points="292.1992,93.5938,296.1992,103.5938,300.1992,93.5938,296.1992,97.5938" style="stroke:#181818;stroke-width:1.0;"/><line style="stroke:#181818;stroke-width:1.0;" x1="296.1992" x2="296.1992" y1="137.5625" y2="157.5625"/><polygon fill="#181818" points="292.1992,147.5625,296.1992,157.5625,300.1992,147.5625,296.1992,151.5625" style="stroke:#181818;stroke-width:1.0;"/><line style="stroke:#181818;stroke-width:1.0;" x1="296.1992" x2="296.1992" y1="191.5313" y2="211.5313"/><polygon fill="#181818" points="292.1992,201.5313,296.1992,211.5313,300.1992,201.5313,296.1992,205.5313" style="stroke:#181818;stroke-width:1.0;"/><line style="stroke:#181818;stroke-width:1.0;" x1="296.1992" x2="296.1992" y1="245.5" y2="265.5"/><polygon fill="#181818" points="292.1992,255.5,296.1992,265.5,300.1992,255.5,296.1992,259.5" style="stroke:#181818;stroke-width:1.0;"/><line style="stroke:#181818;stroke-width:1.0;" x1="296.1992" x2="296.1992" y1="299.4688" y2="319.4688"/><polygon fill="#181818" points="292.1992,309.4688,296.1992,319.4688,300.1992,309.4688,296.1992,313.4688" style="stroke:#181818;stroke-width:1.0;"/><line style="stroke:#181818;stroke-width:1.0;" x1="296.1992" x2="296.1992" y1="353.4375" y2="373.4375"/><polygon fill="#181818" points="292.1992,363.4375,296.1992,373.4375,300.1992,363.4375,296.1992,367.4375" style="stroke:#181818;stroke-width:1.0;"/><line style="stroke:#181818;stroke-width:1.0;" x1="296.1992" x2="296.1992" y1="407.4063" y2="427.4063"/><polygon fill="#181818" points="292.1992,417.4063,296.1992,427.4063,300.1992,417.4063,296.1992,421.4063" style="stroke:#181818;stroke-width:1.0;"/><line style="stroke:#181818;stroke-width:1.0;" x1="296.1992" x2="296.1992" y1="461.375" y2="481.375"/><polygon fill="#181818" points="292.1992,471.375,296.1992,481.375,300.1992,471.375,296.1992,475.375" style="stroke:#181818;stroke-width:1.0;"/><!--SRC=[TO_BRi9034NtynKMAn1IMaPT9HIfYtv1fQvOu2OkiJgFQ6mG-VkEO4fJKBVMFVTSAwiZU6cLZwmZT8pxX1xY9sp3xlM4Vd1aAuySveiTUD8-TiQ8Ob9ZQWuAVdp7j6eQ4w8IrA0z2tJKEamaW734nFZXQ9As_wRpjQVqovZwKW_Fi7gqJqq3wxMYV6qsVmfGXFT1pXdGM3Pb-cqK9L_5WrP3oduNvhFIsCQW-IsfOGRBGYpEWfmU3feLnMwplK0FOASRxWMbtbxh9sGstGX-S4hfkk_2touHZOFv1W00]--></g></svg>