<svg xmlns="http://www.w3.org/2000/svg" xmlns:xlink="http://www.w3.org/1999/xlink" contentStyleType="text/css" height="138px" preserveAspectRatio="none" style="width:219px;height:138px;background:#FFFFFF;" version="1.1" viewBox="0 0 219 138" width="219px" zoomAndPan="magnify"><title>Class diagram </title><defs/><g><text fill="#000000" font-family="sans-serif" font-size="14" font-weight="bold" lengthAdjust="spacing" textLength="111.2891" x="47.6025" y="22.9951">Class diagram</text><text fill="#000000" font-family="sans-serif" font-size="14" font-weight="bold" lengthAdjust="spacing" textLength="111.8564" x="49.7559" y="39.292">of "Example3"</text><!--class Example3--><g id="elem_Example3"><rect codeLine="3" fill="#F1F1F1" height="64.2969" id="Example3" rx="2.5" ry="2.5" style="stroke:#181818;stroke-width:0.5;" width="198.3682" x="7" y="60.5938"/><ellipse cx="67.1118" cy="76.5938" fill="#ADD1B2" rx="11" ry="11" style="stroke:#181818;stroke-width:1.0;"/><path d="M66.5806,83.5156 Q64.8306,83.5156 63.6899,82.7813 Q62.5649,82.0313 62.0024,80.6875 Q61.4556,79.3281 61.4556,77.5313 Q61.4556,75.5 62.1118,74.0469 Q62.7681,72.5938 64.0493,71.8125 Q65.3306,71.0313 67.2056,71.0313 Q68.0962,71.0313 68.7681,71.2188 Q69.4399,71.3906 70.1274,71.7344 L69.3149,73.75 Q68.6899,73.4375 68.1431,73.3125 Q67.6118,73.1875 67.1274,73.1875 Q65.9556,73.1875 65.2524,73.7188 Q64.5493,74.25 64.2524,75.2031 Q63.9556,76.1563 63.9556,77.4219 Q63.9556,79.4375 64.6743,80.4063 Q65.3931,81.3594 66.9868,81.3594 Q67.5806,81.3594 68.2056,81.2031 Q68.8306,81.0469 69.6587,80.6719 L69.6587,82.8906 Q68.9243,83.2031 68.1274,83.3594 Q67.3462,83.5156 66.5806,83.5156 Z " fill="#000000"/><text fill="#000000" font-family="sans-serif" font-size="14" lengthAdjust="spacing" textLength="69.6445" x="87.6118" y="81.4404">Example3</text><line style="stroke:#181818;stroke-width:0.5;" x1="8" x2="204.3682" y1="92.5938" y2="92.5938"/><line style="stroke:#181818;stroke-width:0.5;" x1="8" x2="204.3682" y1="100.5938" y2="100.5938"/><ellipse cx="18" cy="114.2422" fill="#84BE84" rx="3" ry="3" style="stroke:#038048;stroke-width:1.0;"/><text fill="#000000" font-family="sans-serif" font-size="14" lengthAdjust="spacing" text-decoration="underline" textLength="172.3682" x="27" y="117.5889">main(String[] args): void</text></g><!--SRC=[AyaioKbLSCv9B2vMICbCJ2zAp5M8oSjFKr1ohKZCBSX9DLRYuae6IyC45Agv582WEZUr92C_fLP1Mw6wk2In93EvLY4tCJDF8xYaA3ClFJfM8R4elLZJIg4iFpE5gvOB0000]--></g></svg>