<svg xmlns="http://www.w3.org/2000/svg" xmlns:xlink="http://www.w3.org/1999/xlink" contentStyleType="text/css" height="109px" preserveAspectRatio="none" style="width:587px;height:109px;background:#FFFFFF;" version="1.1" viewBox="0 0 587 109" width="587px" zoomAndPan="magnify"><defs/><g><line style="stroke:#333333;stroke-width:0.5;" x1="10" x2="10" y1="10" y2="80.2656"/><line style="stroke:#333333;stroke-width:0.5;" x1="570" x2="570" y1="10" y2="80.2656"/><line style="stroke:#333333;stroke-width:0.5;stroke-dasharray:3.0,5.0;" x1="15" x2="15" y1="10" y2="80.2656"/><line style="stroke:#333333;stroke-width:0.5;stroke-dasharray:3.0,5.0;" x1="65" x2="65" y1="10" y2="80.2656"/><line style="stroke:#333333;stroke-width:0.5;stroke-dasharray:3.0,5.0;" x1="115" x2="115" y1="10" y2="80.2656"/><line style="stroke:#333333;stroke-width:0.5;stroke-dasharray:3.0,5.0;" x1="165" x2="165" y1="10" y2="80.2656"/><line style="stroke:#333333;stroke-width:0.5;stroke-dasharray:3.0,5.0;" x1="215" x2="215" y1="10" y2="80.2656"/><line style="stroke:#333333;stroke-width:0.5;stroke-dasharray:3.0,5.0;" x1="265" x2="265" y1="10" y2="80.2656"/><line style="stroke:#333333;stroke-width:0.5;stroke-dasharray:3.0,5.0;" x1="315" x2="315" y1="10" y2="80.2656"/><line style="stroke:#333333;stroke-width:0.5;stroke-dasharray:3.0,5.0;" x1="365" x2="365" y1="10" y2="80.2656"/><line style="stroke:#333333;stroke-width:0.5;stroke-dasharray:3.0,5.0;" x1="415" x2="415" y1="10" y2="80.2656"/><line style="stroke:#333333;stroke-width:0.5;stroke-dasharray:3.0,5.0;" x1="465" x2="465" y1="10" y2="80.2656"/><line style="stroke:#333333;stroke-width:0.5;stroke-dasharray:3.0,5.0;" x1="515" x2="515" y1="10" y2="80.2656"/><line style="stroke:#333333;stroke-width:0.5;stroke-dasharray:3.0,5.0;" x1="565" x2="565" y1="10" y2="80.2656"/><line style="stroke:#333333;stroke-width:0.5;" x1="10" x2="570" y1="10" y2="10"/><text fill="#333333" font-family="sans-serif" font-size="14" font-weight="bold" lengthAdjust="spacing" textLength="125.6582" x="15" y="22.9951">Language name</text><line style="stroke:#333333;stroke-width:0.5;" x1="10" x2="141.6582" y1="27.2969" y2="27.2969"/><line style="stroke:#333333;stroke-width:0.5;" x1="141.6582" x2="151.6582" y1="27.2969" y2="10"/><polygon fill="#E2E2F0" points="77,46.2656,253,46.2656,265,58.2656,253,70.2656,77,70.2656,65,58.2656" style="stroke:#006400;stroke-width:1.5;"/><polygon fill="#E2E2F0" points="277,46.2656,565,46.2656,565,70.2656,277,70.2656,265,58.2656" style="stroke:#E2E2F0;stroke-width:1.5;"/><path d="M565,46.2656 L277,46.2656 L265,58.2656 L277,70.2656 L565,70.2656 " fill="#E2E2F0" style="stroke:#006400;stroke-width:1.5;"/><text fill="#333333" font-family="sans-serif" font-size="12" font-weight="bold" lengthAdjust="spacing" textLength="26.2793" x="151.8604" y="62.4199">Oak</text><text fill="#333333" font-family="sans-serif" font-size="12" font-weight="bold" lengthAdjust="spacing" textLength="28.4824" x="277" y="62.4199">Java</text><text fill="#333333" font-family="sans-serif" font-size="12" font-weight="bold" lengthAdjust="spacing" textLength="78.0879" x="277" y="43.4355">renamed to</text><line style="stroke:#333333;stroke-width:2.0;" x1="15" x2="15" y1="80.2656" y2="85.2656"/><line style="stroke:#333333;stroke-width:2.0;" x1="65" x2="65" y1="80.2656" y2="85.2656"/><line style="stroke:#333333;stroke-width:2.0;" x1="115" x2="115" y1="80.2656" y2="85.2656"/><line style="stroke:#333333;stroke-width:2.0;" x1="165" x2="165" y1="80.2656" y2="85.2656"/><line style="stroke:#333333;stroke-width:2.0;" x1="215" x2="215" y1="80.2656" y2="85.2656"/><line style="stroke:#333333;stroke-width:2.0;" x1="265" x2="265" y1="80.2656" y2="85.2656"/><line style="stroke:#333333;stroke-width:2.0;" x1="315" x2="315" y1="80.2656" y2="85.2656"/><line style="stroke:#333333;stroke-width:2.0;" x1="365" x2="365" y1="80.2656" y2="85.2656"/><line style="stroke:#333333;stroke-width:2.0;" x1="415" x2="415" y1="80.2656" y2="85.2656"/><line style="stroke:#333333;stroke-width:2.0;" x1="465" x2="465" y1="80.2656" y2="85.2656"/><line style="stroke:#333333;stroke-width:2.0;" x1="515" x2="515" y1="80.2656" y2="85.2656"/><line style="stroke:#333333;stroke-width:2.0;" x1="565" x2="565" y1="80.2656" y2="85.2656"/><line style="stroke:#333333;stroke-width:2.0;" x1="15" x2="565" y1="80.2656" y2="80.2656"/><text fill="#333333" font-family="sans-serif" font-size="11" lengthAdjust="spacing" textLength="27.9941" x="1.0029" y="96.4761">1990</text><text fill="#333333" font-family="sans-serif" font-size="11" lengthAdjust="spacing" textLength="27.9941" x="51.0029" y="96.4761">1991</text><text fill="#333333" font-family="sans-serif" font-size="11" lengthAdjust="spacing" textLength="27.9941" x="251.0029" y="96.4761">1995</text><text fill="#333333" font-family="sans-serif" font-size="11" lengthAdjust="spacing" textLength="27.9941" x="501.0029" y="96.4761">2000</text><!--SRC=[IyxFIyuiJbLGyadCIozDJ4zLo4lCJLLII2nMSEJYSZ2qj3I0K8PSZWgPnGfA_edPIX0HKwY8Ls9PefA2bK9HAaXhYa99Fb3UoC30W0i0]--></g></svg>