<svg xmlns="http://www.w3.org/2000/svg" xmlns:xlink="http://www.w3.org/1999/xlink" contentStyleType="text/css" height="138px" preserveAspectRatio="none" style="width:219px;height:138px;background:#FFFFFF;" version="1.1" viewBox="0 0 219 138" width="219px" zoomAndPan="magnify"><title>Class diagram of </title><defs/><g><text fill="#000000" font-family="sans-serif" font-size="14" font-weight="bold" lengthAdjust="spacing" textLength="131.8721" x="37.311" y="22.9951">Class diagram of</text><text fill="#000000" font-family="sans-serif" font-size="14" font-weight="bold" lengthAdjust="spacing" textLength="152.7148" x="29.3267" y="39.292">GalToLitTable class</text><!--class GalToLitTable--><g id="elem_GalToLitTable"><rect codeLine="3" fill="#F1F1F1" height="64.2969" id="GalToLitTable" rx="2.5" ry="2.5" style="stroke:#181818;stroke-width:0.5;" width="198.3682" x="7" y="60.5938"/><ellipse cx="53.8672" cy="76.5938" fill="#ADD1B2" rx="11" ry="11" style="stroke:#181818;stroke-width:1.0;"/><path d="M53.3359,83.5156 Q51.5859,83.5156 50.4453,82.7813 Q49.3203,82.0313 48.7578,80.6875 Q48.2109,79.3281 48.2109,77.5313 Q48.2109,75.5 48.8672,74.0469 Q49.5234,72.5938 50.8047,71.8125 Q52.0859,71.0313 53.9609,71.0313 Q54.8516,71.0313 55.5234,71.2188 Q56.1953,71.3906 56.8828,71.7344 L56.0703,73.75 Q55.4453,73.4375 54.8984,73.3125 Q54.3672,73.1875 53.8828,73.1875 Q52.7109,73.1875 52.0078,73.7188 Q51.3047,74.25 51.0078,75.2031 Q50.7109,76.1563 50.7109,77.4219 Q50.7109,79.4375 51.4297,80.4063 Q52.1484,81.3594 53.7422,81.3594 Q54.3359,81.3594 54.9609,81.2031 Q55.5859,81.0469 56.4141,80.6719 L56.4141,82.8906 Q55.6797,83.2031 54.8828,83.3594 Q54.1016,83.5156 53.3359,83.5156 Z " fill="#000000"/><text fill="#000000" font-family="sans-serif" font-size="14" lengthAdjust="spacing" textLength="96.1338" x="74.3672" y="81.4404">GalToLitTable</text><line style="stroke:#181818;stroke-width:0.5;" x1="8" x2="204.3682" y1="92.5938" y2="92.5938"/><line style="stroke:#181818;stroke-width:0.5;" x1="8" x2="204.3682" y1="100.5938" y2="100.5938"/><ellipse cx="18" cy="114.2422" fill="#84BE84" rx="3" ry="3" style="stroke:#038048;stroke-width:1.0;"/><text fill="#000000" font-family="sans-serif" font-size="14" lengthAdjust="spacing" text-decoration="underline" textLength="172.3682" x="27" y="117.5889">main(String[] args): void</text></g><!--SRC=[LOeh3iCm40MvJ_5WejuWDA0ah6PjmCPstPNyaUnLYEMxDmdBa04pmX8Sva2rmZBvGX7vYqzwKj1vOT6q7OCv1wKkuPwQma6BJdxPTZpGgf2mwOZ4QNX9uUJVAwZuEaxOCrlL_m00]--></g></svg>