<svg xmlns="http://www.w3.org/2000/svg" xmlns:xlink="http://www.w3.org/1999/xlink" contentStyleType="text/css" height="894px" preserveAspectRatio="none" style="width:595px;height:894px;background:#FFFFFF;" version="1.1" viewBox="0 0 595 894" width="595px" zoomAndPan="magnify"><title>Class diagram of </title><defs/><g><text fill="#000000" font-family="sans-serif" font-size="14" font-weight="bold" lengthAdjust="spacing" textLength="131.8721" x="227.7446" y="32.9951">Class diagram of</text><text fill="#000000" font-family="sans-serif" font-size="14" font-weight="bold" lengthAdjust="spacing" textLength="230.8018" x="180.7168" y="49.292">GalToLitTable.main() method</text><ellipse cx="270.2871" cy="73.5938" fill="#222222" rx="10" ry="10" style="stroke:#222222;stroke-width:1.0;"/><rect fill="#F1F1F1" height="33.9688" rx="12.5" ry="12.5" style="stroke:#181818;stroke-width:0.5;" width="149.1641" x="195.7051" y="103.5938"/><text fill="#000000" font-family="sans-serif" font-size="12" lengthAdjust="spacing" textLength="129.1641" x="205.7051" y="124.7324">double gallons, liters;</text><rect fill="#F1F1F1" height="33.9688" rx="12.5" ry="12.5" style="stroke:#181818;stroke-width:0.5;" width="89.6738" x="225.4502" y="157.5625"/><text fill="#000000" font-family="sans-serif" font-size="12" lengthAdjust="spacing" textLength="69.6738" x="235.4502" y="178.7012">int counter;</text><rect fill="#F1F1F1" height="33.9688" style="stroke:#181818;stroke-width:0.5;" width="95.5332" x="222.5205" y="211.5313"/><text fill="#000000" font-family="sans-serif" font-size="12" lengthAdjust="spacing" textLength="75.5332" x="232.5205" y="232.6699">counter = 0;</text><rect fill="#9BD68D" height="586.3237" style="stroke:#000000;stroke-width:1.5;" width="573.2354" x="11" y="255.5"/><path d="M74.6074,255.5 L74.6074,264.7969 L64.6074,274.7969 L11,274.7969 " fill="none" style="stroke:#000000;stroke-width:1.5;"/><text fill="#000000" font-family="sans-serif" font-size="14" lengthAdjust="spacing" textLength="53.6074" x="14" y="269.4951">for loop</text><rect fill="#F1F1F1" height="33.9688" style="stroke:#181818;stroke-width:0.5;" width="92.1992" x="224.1875" y="291.7969"/><text fill="#000000" font-family="sans-serif" font-size="12" lengthAdjust="spacing" textLength="72.1992" x="234.1875" y="312.9355">gallons = 1;</text><path d="M41,405.894 L41,431.0269 A0,0 0 0 0 41,431.0269 L165.2256,431.0269 A0,0 0 0 0 165.2256,431.0269 L165.2256,423.894 L185.2256,418.4604 L165.2256,415.894 L165.2256,415.894 L155.2256,405.894 L41,405.894 A0,0 0 0 0 41,405.894 " fill="#FEFFDD" style="stroke:#181818;stroke-width:0.5;"/><path d="M155.2256,405.894 L155.2256,415.894 L165.2256,415.894 L155.2256,405.894 " fill="#FEFFDD" style="stroke:#181818;stroke-width:0.5;"/><text fill="#000000" font-family="sans-serif" font-size="13" lengthAdjust="spacing" textLength="103.2256" x="47" y="422.9609">convert to liters</text><rect fill="#F1F1F1" height="33.9688" style="stroke:#181818;stroke-width:0.5;" width="170.123" x="185.2256" y="401.4761"/><text fill="#000000" font-family="sans-serif" font-size="12" lengthAdjust="spacing" textLength="150.123" x="195.2256" y="422.6147">liters = gallons * 3.7854;</text><polygon fill="#F1F1F1" points="73.3291,455.4448,467.2451,455.4448,477.2451,472.4292,467.2451,489.4136,73.3291,489.4136" style="stroke:#181818;stroke-width:0.5;"/><text fill="#000000" font-family="sans-serif" font-size="12" lengthAdjust="spacing" textLength="373.916" x="83.3291" y="476.5835">System.out.println(gallons + " gallons is " + liters + " liters.");</text><rect fill="#F1F1F1" height="33.9688" style="stroke:#181818;stroke-width:0.5;" width="90.3242" x="225.125" y="509.4136"/><text fill="#000000" font-family="sans-serif" font-size="12" lengthAdjust="spacing" textLength="70.3242" x="235.125" y="530.5522">counter++;</text><path d="M70.5034,572.2183 L70.5034,612.4839 L201.4702,612.4839 L201.4702,582.2183 L191.4702,572.2183 L70.5034,572.2183 " fill="#FEFFDD" style="stroke:#181818;stroke-width:0.5;"/><path d="M191.4702,572.2183 L191.4702,582.2183 L201.4702,582.2183 L191.4702,572.2183 " fill="#FEFFDD" style="stroke:#181818;stroke-width:0.5;"/><text fill="#000000" font-family="sans-serif" font-size="13" lengthAdjust="spacing" textLength="102.4639" x="76.5034" y="589.2852">every 10th line,</text><text fill="#000000" font-family="sans-serif" font-size="13" lengthAdjust="spacing" textLength="109.9668" x="76.5034" y="604.418">print a blank line</text><polygon fill="#F1F1F1" points="198.002,660.8862,342.5723,660.8862,352.5723,677.8706,342.5723,694.855,198.002,694.855" style="stroke:#181818;stroke-width:0.5;"/><text fill="#000000" font-family="sans-serif" font-size="12" lengthAdjust="spacing" textLength="124.5703" x="208.002" y="682.0249">System.out.println();</text><path d="M41.0977,734.2729 L41.0977,759.4058 A0,0 0 0 0 41.0977,759.4058 L202.5205,759.4058 A0,0 0 0 0 202.5205,759.4058 L202.5205,752.2729 L222.5205,746.8394 L202.5205,744.2729 L202.5205,744.2729 L192.5205,734.2729 L41.0977,734.2729 A0,0 0 0 0 41.0977,734.2729 " fill="#FEFFDD" style="stroke:#181818;stroke-width:0.5;"/><path d="M192.5205,734.2729 L192.5205,744.2729 L202.5205,744.2729 L192.5205,734.2729 " fill="#FEFFDD" style="stroke:#181818;stroke-width:0.5;"/><text fill="#000000" font-family="sans-serif" font-size="13" lengthAdjust="spacing" textLength="140.4229" x="47.0977" y="751.3398">reset the line counter</text><rect fill="#F1F1F1" height="33.9688" style="stroke:#181818;stroke-width:0.5;" width="95.5332" x="222.5205" y="729.855"/><text fill="#000000" font-family="sans-serif" font-size="12" lengthAdjust="spacing" textLength="75.5332" x="232.5205" y="750.9937">counter = 0;</text><polygon fill="#DEB887" points="213.4702,612.4839,327.104,612.4839,339.104,624.4839,327.104,636.4839,213.4702,636.4839,201.4702,624.4839,213.4702,612.4839" style="stroke:#FFFF00;stroke-width:0.5;"/><text fill="#008000" font-family="sans-serif" font-size="11" lengthAdjust="spacing" textLength="22.5747" x="274.2871" y="646.6943">true</text><text fill="#000000" font-family="sans-serif" font-size="14" font-weight="bold" lengthAdjust="spacing" textLength="113.6338" x="213.4702" y="629.3306">counter == 10</text><polygon fill="#DEB887" points="270.2871,783.8237,282.2871,795.8237,270.2871,807.8237,258.2871,795.8237,270.2871,783.8237" style="stroke:#FFFF00;stroke-width:0.5;"/><polygon fill="#DEB887" points="210.5786,345.7656,329.9956,345.7656,341.9956,357.7656,329.9956,369.7656,210.5786,369.7656,198.5786,357.7656,210.5786,345.7656" style="stroke:#FFFF00;stroke-width:0.5;"/><text fill="#008000" font-family="sans-serif" font-size="11" lengthAdjust="spacing" textLength="22.5747" x="274.2871" y="379.9761">true</text><text fill="#000000" font-family="sans-serif" font-size="14" font-weight="bold" lengthAdjust="spacing" textLength="119.417" x="210.5786" y="362.6123">gallons &lt;= 100</text><text fill="#FF0000" font-family="sans-serif" font-size="11" lengthAdjust="spacing" textLength="26.168" x="172.4106" y="355.1714">false</text><rect fill="#F1F1F1" height="33.9688" style="stroke:#181818;stroke-width:0.5;" width="86.9902" x="487.2451" y="553.3823"/><text fill="#000000" font-family="sans-serif" font-size="12" lengthAdjust="spacing" textLength="66.9902" x="497.2451" y="574.521">gallons++;</text><ellipse cx="270.2871" cy="872.8237" fill="none" rx="11" ry="11" style="stroke:#222222;stroke-width:1.0;"/><ellipse cx="270.2871" cy="872.8237" fill="#222222" rx="6" ry="6" style="stroke:#222222;stroke-width:1.0;"/><line style="stroke:#181818;stroke-width:1.0;" x1="270.2871" x2="270.2871" y1="83.5938" y2="103.5938"/><polygon fill="#181818" points="266.2871,93.5938,270.2871,103.5938,274.2871,93.5938,270.2871,97.5938" style="stroke:#181818;stroke-width:1.0;"/><line style="stroke:#181818;stroke-width:1.0;" x1="270.2871" x2="270.2871" y1="137.5625" y2="157.5625"/><polygon fill="#181818" points="266.2871,147.5625,270.2871,157.5625,274.2871,147.5625,270.2871,151.5625" style="stroke:#181818;stroke-width:1.0;"/><line style="stroke:#181818;stroke-width:1.0;" x1="270.2871" x2="270.2871" y1="191.5313" y2="211.5313"/><polygon fill="#181818" points="266.2871,201.5313,270.2871,211.5313,274.2871,201.5313,270.2871,205.5313" style="stroke:#181818;stroke-width:1.0;"/><line style="stroke:#181818;stroke-width:1.0;" x1="270.2871" x2="270.2871" y1="435.4448" y2="455.4448"/><polygon fill="#181818" points="266.2871,445.4448,270.2871,455.4448,274.2871,445.4448,270.2871,449.4448" style="stroke:#181818;stroke-width:1.0;"/><line style="stroke:#181818;stroke-width:1.0;" x1="270.2871" x2="270.2871" y1="489.4136" y2="509.4136"/><polygon fill="#181818" points="266.2871,499.4136,270.2871,509.4136,274.2871,499.4136,270.2871,503.4136" style="stroke:#181818;stroke-width:1.0;"/><line style="stroke:#181818;stroke-width:1.0;" x1="270.2871" x2="270.2871" y1="694.855" y2="729.855"/><polygon fill="#181818" points="266.2871,719.855,270.2871,729.855,274.2871,719.855,270.2871,723.855" style="stroke:#181818;stroke-width:1.0;"/><line style="stroke:#181818;stroke-width:1.0;" x1="270.2871" x2="270.2871" y1="636.4839" y2="660.8862"/><polygon fill="#181818" points="266.2871,650.8862,270.2871,660.8862,274.2871,650.8862,270.2871,654.8862" style="stroke:#181818;stroke-width:1.0;"/><line style="stroke:#181818;stroke-width:1.0;" x1="339.104" x2="362.5723" y1="624.4839" y2="624.4839"/><polygon fill="#181818" points="358.5723,702.355,362.5723,712.355,366.5723,702.355,362.5723,706.355" style="stroke:#181818;stroke-width:1.0;"/><line style="stroke:#181818;stroke-width:1.0;" x1="362.5723" x2="362.5723" y1="624.4839" y2="795.8237"/><line style="stroke:#181818;stroke-width:1.0;" x1="362.5723" x2="282.2871" y1="795.8237" y2="795.8237"/><polygon fill="#181818" points="292.2871,791.8237,282.2871,795.8237,292.2871,799.8237,288.2871,795.8237" style="stroke:#181818;stroke-width:1.0;"/><line style="stroke:#181818;stroke-width:1.0;" x1="270.2871" x2="270.2871" y1="763.8237" y2="783.8237"/><polygon fill="#181818" points="266.2871,773.8237,270.2871,783.8237,274.2871,773.8237,270.2871,777.8237" style="stroke:#181818;stroke-width:1.0;"/><line style="stroke:#181818;stroke-width:1.0;" x1="270.2871" x2="270.2871" y1="543.3823" y2="612.4839"/><polygon fill="#181818" points="266.2871,602.4839,270.2871,612.4839,274.2871,602.4839,270.2871,606.4839" style="stroke:#181818;stroke-width:1.0;"/><line style="stroke:#181818;stroke-width:1.0;" x1="270.2871" x2="270.2871" y1="369.7656" y2="401.4761"/><polygon fill="#181818" points="266.2871,391.4761,270.2871,401.4761,274.2871,391.4761,270.2871,395.4761" style="stroke:#181818;stroke-width:1.0;"/><line style="stroke:#181818;stroke-width:1.0;" x1="270.2871" x2="270.2871" y1="807.8237" y2="817.8237"/><line style="stroke:#181818;stroke-width:1.0;" x1="270.2871" x2="530.7402" y1="817.8237" y2="817.8237"/><line style="stroke:#181818;stroke-width:1.0;" x1="530.7402" x2="530.7402" y1="587.3511" y2="817.8237"/><polygon fill="#181818" points="526.7402,597.3511,530.7402,587.3511,534.7402,597.3511,530.7402,593.3511" style="stroke:#181818;stroke-width:1.0;"/><line style="stroke:#181818;stroke-width:1.0;" x1="530.7402" x2="530.7402" y1="357.7656" y2="553.3823"/><line style="stroke:#181818;stroke-width:1.0;" x1="530.7402" x2="341.9956" y1="357.7656" y2="357.7656"/><polygon fill="#181818" points="351.9956,353.7656,341.9956,357.7656,351.9956,361.7656,347.9956,357.7656" style="stroke:#181818;stroke-width:1.0;"/><line style="stroke:#181818;stroke-width:1.0;" x1="198.5786" x2="27" y1="357.7656" y2="357.7656"/><polygon fill="#181818" points="23,566.3667,27,576.3667,31,566.3667,27,570.3667" style="stroke:#181818;stroke-width:1.0;"/><line style="stroke:#181818;stroke-width:1.0;" x1="27" x2="27" y1="357.7656" y2="829.8237"/><line style="stroke:#181818;stroke-width:1.0;" x1="27" x2="270.2871" y1="829.8237" y2="829.8237"/><line style="stroke:#181818;stroke-width:1.0;" x1="270.2871" x2="270.2871" y1="829.8237" y2="861.8237"/><polygon fill="#181818" points="266.2871,851.8237,270.2871,861.8237,274.2871,851.8237,270.2871,855.8237" style="stroke:#181818;stroke-width:1.0;"/><line style="stroke:#181818;stroke-width:1.0;" x1="270.2871" x2="270.2871" y1="325.7656" y2="345.7656"/><polygon fill="#181818" points="266.2871,335.7656,270.2871,345.7656,274.2871,335.7656,270.2871,339.7656" style="stroke:#181818;stroke-width:1.0;"/><line style="stroke:#181818;stroke-width:1.0;" x1="270.2871" x2="270.2871" y1="245.5" y2="291.7969"/><polygon fill="#181818" points="266.2871,281.7969,270.2871,291.7969,274.2871,281.7969,270.2871,285.7969" style="stroke:#181818;stroke-width:1.0;"/><!--SRC=[VLDDRzim3BtxLn3P9LuABzswhNEy05k1xT9RUzn5ZkX4Y2mQ4jt06_hVHpcEyz5rF1WI-KW-Fj55uCxYCW6nRoisJuOx-DDVe_qWnm_cDyBr-z6dZQh9wHDKj7lZy8uiUUZGMjgT1R-hrNRjgNLw3obRRxiTaJv37PlTlFH7cb2IFQOy9_jlyMwOWGqBviwg42B9jLSrK0M_t4zb7-dUyACgBMQrCcwQGesy4GA1bUSaoJMr4eIr4l8kN84rZ3ui5abk7CDAkCjThaa-dE4hp1SBA0fMORjS9etKCMp8mPilfVvqgw6IIIrHCoYL3xKbyVeqCSPs6sDnUW0KWfZFKp01fiKgAfQlFQ9Ricyn7GN8znobtY7nBNp8Fjz-lBai7yqH8-GoYNj2py0qZ7Wizz05nZgZbhF6ozJMZOncC1cR2Ak9E8RcCR8_PfEqxolvJSlI-LXva6ms-nSnKqr7IUFWAV06tNydVutk1O4p-2lFTeeP9F8Oa2C96SpXuUr793fjgajPKKJjX3nl-gGhsRgU52WehNBRtZicbV8_x9JNXvLuAOmqwNTYbC6ZNbRA1b7XEP6jfUOl]--></g></svg>