<svg xmlns="http://www.w3.org/2000/svg" xmlns:xlink="http://www.w3.org/1999/xlink" contentStyleType="text/css" height="848px" preserveAspectRatio="none" style="width:517px;height:848px;background:#FFFFFF;" version="1.1" viewBox="0 0 517 848" width="517px" zoomAndPan="magnify"><title>Activity diagram of </title><defs/><g><text fill="#000000" font-family="sans-serif" font-size="14" font-weight="bold" lengthAdjust="spacing" textLength="151.0537" x="179.4448" y="32.9951">Activity diagram of</text><text fill="#5132BE" font-family="name=monospace" font-size="14" font-weight="bold" lengthAdjust="spacing" textLength="136.9443" x="156.3086" y="49.292">BoolDemo.main()</text><text fill="#000000" font-family="sans-serif" font-size="14" font-weight="bold" lengthAdjust="spacing" textLength="60.3818" x="298.127" y="49.292">method</text><ellipse cx="331.6162" cy="73.5938" fill="#222222" rx="10" ry="10" style="stroke:#222222;stroke-width:1.0;"/><rect fill="#F1F1F1" height="33.9688" rx="12.5" ry="12.5" style="stroke:#181818;stroke-width:0.5;" width="83.4512" x="289.8906" y="103.5938"/><text fill="#000000" font-family="sans-serif" font-size="12" lengthAdjust="spacing" textLength="63.4512" x="299.8906" y="124.7324">boolean b;</text><rect fill="#F1F1F1" height="33.9688" style="stroke:#181818;stroke-width:0.5;" width="77.8906" x="292.6709" y="157.5625"/><text fill="#000000" font-family="sans-serif" font-size="12" lengthAdjust="spacing" textLength="57.8906" x="302.6709" y="178.7012">b = false;</text><polygon fill="#F1F1F1" points="228.7451,211.5313,434.4873,211.5313,444.4873,228.5156,434.4873,245.5,228.7451,245.5" style="stroke:#181818;stroke-width:0.5;"/><text fill="#000000" font-family="sans-serif" font-size="12" lengthAdjust="spacing" textLength="185.7422" x="238.7451" y="232.6699">System.out.println("b is " + b);</text><rect fill="#F1F1F1" height="33.9688" style="stroke:#181818;stroke-width:0.5;" width="73.9707" x="294.6309" y="265.5"/><text fill="#000000" font-family="sans-serif" font-size="12" lengthAdjust="spacing" textLength="53.9707" x="304.6309" y="286.6387">b = true;</text><polygon fill="#F1F1F1" points="228.7451,319.4688,434.4873,319.4688,444.4873,336.4531,434.4873,353.4375,228.7451,353.4375" style="stroke:#181818;stroke-width:0.5;"/><text fill="#000000" font-family="sans-serif" font-size="12" lengthAdjust="spacing" textLength="185.7422" x="238.7451" y="340.6074">System.out.println("b is " + b);</text><path d="M128.2866,363.4375 L128.2866,403.7031 L307.6162,403.7031 L307.6162,373.4375 L297.6162,363.4375 L128.2866,363.4375 " fill="#FEFFDD" style="stroke:#181818;stroke-width:0.5;"/><path d="M297.6162,363.4375 L297.6162,373.4375 L307.6162,373.4375 L297.6162,363.4375 " fill="#FEFFDD" style="stroke:#181818;stroke-width:0.5;"/><text fill="#000000" font-family="sans-serif" font-size="13" lengthAdjust="spacing" textLength="131.1997" x="134.2866" y="380.5044">a boolean value can</text><text fill="#000000" font-family="sans-serif" font-size="13" lengthAdjust="spacing" textLength="158.3296" x="134.2866" y="395.6372">control the if statement.</text><polygon fill="#F1F1F1" points="203.1484,452.1055,460.084,452.1055,470.084,469.0898,460.084,486.0742,203.1484,486.0742" style="stroke:#181818;stroke-width:0.5;"/><text fill="#000000" font-family="sans-serif" font-size="12" lengthAdjust="spacing" textLength="236.9355" x="213.1484" y="473.2441">System.out.println("This is executed.");</text><polygon fill="#DEB887" points="319.6162,403.7031,343.6162,403.7031,355.6162,415.7031,343.6162,427.7031,319.6162,427.7031,307.6162,415.7031,319.6162,403.7031" style="stroke:#FFFF00;stroke-width:0.5;"/><text fill="#008000" font-family="sans-serif" font-size="11" lengthAdjust="spacing" textLength="22.5747" x="335.6162" y="437.9136">true</text><text fill="#000000" font-family="sans-serif" font-size="14" font-weight="bold" lengthAdjust="spacing" textLength="10.0215" x="326.6055" y="420.5498">b</text><polygon fill="#DEB887" points="331.6162,506.0742,343.6162,518.0742,331.6162,530.0742,319.6162,518.0742,331.6162,506.0742" style="stroke:#FFFF00;stroke-width:0.5;"/><rect fill="#F1F1F1" height="33.9688" style="stroke:#181818;stroke-width:0.5;" width="77.8906" x="292.6709" y="550.0742"/><text fill="#000000" font-family="sans-serif" font-size="12" lengthAdjust="spacing" textLength="57.8906" x="302.6709" y="571.2129">b = false;</text><polygon fill="#F1F1F1" points="191.415,652.4453,471.8174,652.4453,481.8174,669.4297,471.8174,686.4141,191.415,686.4141" style="stroke:#181818;stroke-width:0.5;"/><text fill="#000000" font-family="sans-serif" font-size="12" lengthAdjust="spacing" textLength="260.4023" x="201.415" y="673.584">System.out.println("This is not executed.");</text><polygon fill="#DEB887" points="319.6162,604.043,343.6162,604.043,355.6162,616.043,343.6162,628.043,319.6162,628.043,307.6162,616.043,319.6162,604.043" style="stroke:#FFFF00;stroke-width:0.5;"/><text fill="#008000" font-family="sans-serif" font-size="11" lengthAdjust="spacing" textLength="22.5747" x="335.6162" y="638.2534">true</text><text fill="#000000" font-family="sans-serif" font-size="14" font-weight="bold" lengthAdjust="spacing" textLength="10.0215" x="326.6055" y="620.8896">b</text><polygon fill="#DEB887" points="331.6162,706.4141,343.6162,718.4141,331.6162,730.4141,319.6162,718.4141,331.6162,706.4141" style="stroke:#FFFF00;stroke-width:0.5;"/><path d="M10,740.4141 L10,795.8125 A0,0 0 0 0 10,795.8125 L171.0928,795.8125 A0,0 0 0 0 171.0928,795.8125 L171.0928,772.1133 L191.0928,768.1133 L171.0928,764.1133 L171.0928,750.4141 L161.0928,740.4141 L10,740.4141 A0,0 0 0 0 10,740.4141 " fill="#FEFFDD" style="stroke:#181818;stroke-width:0.5;"/><path d="M161.0928,740.4141 L161.0928,750.4141 L171.0928,750.4141 L161.0928,740.4141 " fill="#FEFFDD" style="stroke:#181818;stroke-width:0.5;"/><text fill="#000000" font-family="sans-serif" font-size="13" lengthAdjust="spacing" textLength="88.0928" x="16" y="757.481">Outcome of a</text><text fill="#000000" font-family="sans-serif" font-size="13" lengthAdjust="spacing" textLength="135.9604" x="16" y="772.6138">relational operator is</text><text fill="#000000" font-family="sans-serif" font-size="13" lengthAdjust="spacing" textLength="107.8467" x="16" y="787.7466">a boolean value.</text><polygon fill="#F1F1F1" points="191.0928,751.1289,472.1396,751.1289,482.1396,768.1133,472.1396,785.0977,191.0928,785.0977" style="stroke:#181818;stroke-width:0.5;"/><text fill="#000000" font-family="sans-serif" font-size="12" lengthAdjust="spacing" textLength="261.0469" x="201.0928" y="772.2676">System.out.println("10 &gt; 9 is " + (10 &gt; 9));</text><ellipse cx="331.6162" cy="826.8125" fill="none" rx="11" ry="11" style="stroke:#222222;stroke-width:1.0;"/><ellipse cx="331.6162" cy="826.8125" fill="#222222" rx="6" ry="6" style="stroke:#222222;stroke-width:1.0;"/><line style="stroke:#181818;stroke-width:1.0;" x1="331.6162" x2="331.6162" y1="83.5938" y2="103.5938"/><polygon fill="#181818" points="327.6162,93.5938,331.6162,103.5938,335.6162,93.5938,331.6162,97.5938" style="stroke:#181818;stroke-width:1.0;"/><line style="stroke:#181818;stroke-width:1.0;" x1="331.6162" x2="331.6162" y1="137.5625" y2="157.5625"/><polygon fill="#181818" points="327.6162,147.5625,331.6162,157.5625,335.6162,147.5625,331.6162,151.5625" style="stroke:#181818;stroke-width:1.0;"/><line style="stroke:#181818;stroke-width:1.0;" x1="331.6162" x2="331.6162" y1="191.5313" y2="211.5313"/><polygon fill="#181818" points="327.6162,201.5313,331.6162,211.5313,335.6162,201.5313,331.6162,205.5313" style="stroke:#181818;stroke-width:1.0;"/><line style="stroke:#181818;stroke-width:1.0;" x1="331.6162" x2="331.6162" y1="245.5" y2="265.5"/><polygon fill="#181818" points="327.6162,255.5,331.6162,265.5,335.6162,255.5,331.6162,259.5" style="stroke:#181818;stroke-width:1.0;"/><line style="stroke:#181818;stroke-width:1.0;" x1="331.6162" x2="331.6162" y1="299.4688" y2="319.4688"/><polygon fill="#181818" points="327.6162,309.4688,331.6162,319.4688,335.6162,309.4688,331.6162,313.4688" style="stroke:#181818;stroke-width:1.0;"/><line style="stroke:#181818;stroke-width:1.0;" x1="331.6162" x2="331.6162" y1="427.7031" y2="452.1055"/><polygon fill="#181818" points="327.6162,442.1055,331.6162,452.1055,335.6162,442.1055,331.6162,446.1055" style="stroke:#181818;stroke-width:1.0;"/><line style="stroke:#181818;stroke-width:1.0;" x1="355.6162" x2="480.084" y1="415.7031" y2="415.7031"/><polygon fill="#181818" points="476.084,459.0898,480.084,469.0898,484.084,459.0898,480.084,463.0898" style="stroke:#181818;stroke-width:1.0;"/><line style="stroke:#181818;stroke-width:1.0;" x1="480.084" x2="480.084" y1="415.7031" y2="518.0742"/><line style="stroke:#181818;stroke-width:1.0;" x1="480.084" x2="343.6162" y1="518.0742" y2="518.0742"/><polygon fill="#181818" points="353.6162,514.0742,343.6162,518.0742,353.6162,522.0742,349.6162,518.0742" style="stroke:#181818;stroke-width:1.0;"/><line style="stroke:#181818;stroke-width:1.0;" x1="331.6162" x2="331.6162" y1="486.0742" y2="506.0742"/><polygon fill="#181818" points="327.6162,496.0742,331.6162,506.0742,335.6162,496.0742,331.6162,500.0742" style="stroke:#181818;stroke-width:1.0;"/><line style="stroke:#181818;stroke-width:1.0;" x1="331.6162" x2="331.6162" y1="353.4375" y2="403.7031"/><polygon fill="#181818" points="327.6162,393.7031,331.6162,403.7031,335.6162,393.7031,331.6162,397.7031" style="stroke:#181818;stroke-width:1.0;"/><line style="stroke:#181818;stroke-width:1.0;" x1="331.6162" x2="331.6162" y1="530.0742" y2="550.0742"/><polygon fill="#181818" points="327.6162,540.0742,331.6162,550.0742,335.6162,540.0742,331.6162,544.0742" style="stroke:#181818;stroke-width:1.0;"/><line style="stroke:#181818;stroke-width:1.0;" x1="331.6162" x2="331.6162" y1="628.043" y2="652.4453"/><polygon fill="#181818" points="327.6162,642.4453,331.6162,652.4453,335.6162,642.4453,331.6162,646.4453" style="stroke:#181818;stroke-width:1.0;"/><line style="stroke:#181818;stroke-width:1.0;" x1="355.6162" x2="491.8174" y1="616.043" y2="616.043"/><polygon fill="#181818" points="487.8174,659.4297,491.8174,669.4297,495.8174,659.4297,491.8174,663.4297" style="stroke:#181818;stroke-width:1.0;"/><line style="stroke:#181818;stroke-width:1.0;" x1="491.8174" x2="491.8174" y1="616.043" y2="718.4141"/><line style="stroke:#181818;stroke-width:1.0;" x1="491.8174" x2="343.6162" y1="718.4141" y2="718.4141"/><polygon fill="#181818" points="353.6162,714.4141,343.6162,718.4141,353.6162,722.4141,349.6162,718.4141" style="stroke:#181818;stroke-width:1.0;"/><line style="stroke:#181818;stroke-width:1.0;" x1="331.6162" x2="331.6162" y1="686.4141" y2="706.4141"/><polygon fill="#181818" points="327.6162,696.4141,331.6162,706.4141,335.6162,696.4141,331.6162,700.4141" style="stroke:#181818;stroke-width:1.0;"/><line style="stroke:#181818;stroke-width:1.0;" x1="331.6162" x2="331.6162" y1="584.043" y2="604.043"/><polygon fill="#181818" points="327.6162,594.043,331.6162,604.043,335.6162,594.043,331.6162,598.043" style="stroke:#181818;stroke-width:1.0;"/><line style="stroke:#181818;stroke-width:1.0;" x1="331.6162" x2="331.6162" y1="730.4141" y2="751.1289"/><polygon fill="#181818" points="327.6162,741.1289,331.6162,751.1289,335.6162,741.1289,331.6162,745.1289" style="stroke:#181818;stroke-width:1.0;"/><line style="stroke:#181818;stroke-width:1.0;" x1="331.6162" x2="331.6162" y1="785.0977" y2="815.8125"/><polygon fill="#181818" points="327.6162,805.8125,331.6162,815.8125,335.6162,805.8125,331.6162,809.8125" style="stroke:#181818;stroke-width:1.0;"/><!--SRC=[fL9DJzn03BtdLrZRIoAaR1VAWTqm4b1nGkg17lSoIPpT4HCxcZZGWFZlzMJvNAXwm8gYyVZDy_EJYrv6ZoO1ZRDAtAsJ4HwcDCObaroxUuJ5uSjTxMpBLBz1nRXoX1ViES28tlFTk-AvhMusWGUgTv1o27wyOwxVeLwR_VXu7sL2oVxroMEo-nVpfnd4YM9Ufb2Tcs1Ru0RML3HA0cHRF5Nnt7UsGbDKavflnukZmnBDERF_YItdhNMKPiLyAfjY7jyQQ56sgZZfnGP9acMfSBG4vMeLCpY5nleULoie2h7zZJ79ydhi1TkS1ycxu4WyfRCIN0ypE80ocx1Qx0Q9wCWXOVW2HUAQjCn0jaYGxiPRRW8YcSYRJOvzolXxgupwuH-i1i4wd-qn8zMkIOW5OGaMdeU_jNv0gFIqfafj2knZTt0Dg4_Q1adoVzdpLR6gvd-2F_TlyHqCd3oRcExIR8_WQTPVWrJSObmZgqC6z5OSa_N07GOhka3AiwOzJ_AuADpz1G00]--></g></svg>