<svg xmlns="http://www.w3.org/2000/svg" xmlns:xlink="http://www.w3.org/1999/xlink" contentStyleType="text/css" height="230px" preserveAspectRatio="none" style="width:174px;height:230px;background:#FFFFFF;" version="1.1" viewBox="0 0 174 230" width="174px" zoomAndPan="magnify"><title>Class diagram of </title><defs/><g><text fill="#000000" font-family="sans-serif" font-size="14" font-weight="bold" lengthAdjust="spacing" textLength="131.8721" x="11.8733" y="22.9951">Class diagram of</text><text fill="#5132BE" font-family="name=monospace" font-size="14" font-weight="bold" lengthAdjust="spacing" textLength="80.0693" x="18.1692" y="39.292">CastDemo</text><text fill="#000000" font-family="sans-serif" font-size="14" font-weight="bold" lengthAdjust="spacing" textLength="39.2109" x="103.1125" y="39.292">class</text><!--class CastDemo--><g id="elem_CastDemo"><rect codeLine="3" fill="#F1F1F1" height="48" id="CastDemo" rx="2.5" ry="2.5" style="stroke:#181818;stroke-width:0.5;" width="104.7344" x="34" y="60.5938"/><ellipse cx="49" cy="76.5938" fill="#ADD1B2" rx="11" ry="11" style="stroke:#181818;stroke-width:1.0;"/><path d="M48.4688,83.5156 Q46.7188,83.5156 45.5781,82.7813 Q44.4531,82.0313 43.8906,80.6875 Q43.3438,79.3281 43.3438,77.5313 Q43.3438,75.5 44,74.0469 Q44.6563,72.5938 45.9375,71.8125 Q47.2188,71.0313 49.0938,71.0313 Q49.9844,71.0313 50.6563,71.2188 Q51.3281,71.3906 52.0156,71.7344 L51.2031,73.75 Q50.5781,73.4375 50.0313,73.3125 Q49.5,73.1875 49.0156,73.1875 Q47.8438,73.1875 47.1406,73.7188 Q46.4375,74.25 46.1406,75.2031 Q45.8438,76.1563 45.8438,77.4219 Q45.8438,79.4375 46.5625,80.4063 Q47.2813,81.3594 48.875,81.3594 Q49.4688,81.3594 50.0938,81.2031 Q50.7188,81.0469 51.5469,80.6719 L51.5469,82.8906 Q50.8125,83.2031 50.0156,83.3594 Q49.2344,83.5156 48.4688,83.5156 Z " fill="#000000"/><text fill="#000000" font-family="sans-serif" font-size="14" lengthAdjust="spacing" textLength="72.7344" x="63" y="81.4404">CastDemo</text><line style="stroke:#181818;stroke-width:0.5;" x1="35" x2="137.7344" y1="92.5938" y2="92.5938"/><line style="stroke:#181818;stroke-width:0.5;" x1="35" x2="137.7344" y1="100.5938" y2="100.5938"/></g><g id="elem_GMN3"><path d="M6,168.5938 L6,223.9922 A0,0 0 0 0 6,223.9922 L167.4927,223.9922 A0,0 0 0 0 167.4927,223.9922 L167.4927,178.5938 L157.4927,168.5938 L90.5,168.5938 L86.5,108.8138 L82.5,168.5938 L6,168.5938 A0,0 0 0 0 6,168.5938 " fill="#FEFFDD" style="stroke:#181818;stroke-width:0.5;"/><path d="M157.4927,168.5938 L157.4927,178.5938 L167.4927,178.5938 L157.4927,168.5938 " fill="#FEFFDD" style="stroke:#181818;stroke-width:0.5;"/><text fill="#000000" font-family="sans-serif" font-size="13" lengthAdjust="spacing" textLength="127.2197" x="12" y="185.6606">file: CastDemo.java</text><text fill="#000000" font-family="sans-serif" font-size="13" lengthAdjust="spacing" textLength="4.1323" x="12" y="200.7935">&#160;</text><text fill="#000000" font-family="sans-serif" font-size="13" lengthAdjust="spacing" textLength="140.4927" x="12" y="215.9263">Demonstrate casting.</text></g><!--SRC=[FOsn3i8m34JtV8KbzbQ0M538KZwZYvkwLL1YeyPYGVmxIL3nO4ldTtSQD18C4NE6EU2wOG9PO6Ix22im9hebOSbFzEIiboWR72x7ysaYDs3MEoMnVTETxQl9WQznnhG3EmHl0sNCnx0emIIgqhfseBsN4Edwbxe7ll1dgwjAd7N3ulS52RnsXdY6clW5]--></g></svg>