<svg xmlns="http://www.w3.org/2000/svg" xmlns:xlink="http://www.w3.org/1999/xlink" contentStyleType="text/css" height="1071px" preserveAspectRatio="none" style="width:440px;height:1071px;background:#FFFFFF;" version="1.1" viewBox="0 0 440 1071" width="440px" zoomAndPan="magnify"><title>Activity diagram of </title><defs/><g><text fill="#000000" font-family="sans-serif" font-size="14" font-weight="bold" lengthAdjust="spacing" textLength="151.0537" x="140.8005" y="32.9951">Activity diagram of</text><text fill="#5132BE" font-family="name=monospace" font-size="14" font-weight="bold" lengthAdjust="spacing" textLength="136.9854" x="117.6438" y="49.292">CastDemo.main()</text><text fill="#000000" font-family="sans-serif" font-size="14" font-weight="bold" lengthAdjust="spacing" textLength="60.3818" x="259.5032" y="49.292">method</text><ellipse cx="244.0317" cy="73.5938" fill="#222222" rx="10" ry="10" style="stroke:#222222;stroke-width:1.0;"/><rect fill="#F1F1F1" height="33.9688" rx="12.5" ry="12.5" style="stroke:#181818;stroke-width:0.5;" width="90.5879" x="198.7378" y="103.5938"/><text fill="#000000" font-family="sans-serif" font-size="12" lengthAdjust="spacing" textLength="70.5879" x="208.7378" y="124.7324">double x, y;</text><rect fill="#F1F1F1" height="33.9688" rx="12.5" ry="12.5" style="stroke:#181818;stroke-width:0.5;" width="62.2813" x="212.8911" y="157.5625"/><text fill="#000000" font-family="sans-serif" font-size="12" lengthAdjust="spacing" textLength="42.2813" x="222.8911" y="178.7012">byte b;</text><rect fill="#F1F1F1" height="33.9688" rx="12.5" ry="12.5" style="stroke:#181818;stroke-width:0.5;" width="46.8359" x="220.6138" y="211.5313"/><text fill="#000000" font-family="sans-serif" font-size="12" lengthAdjust="spacing" textLength="26.8359" x="230.6138" y="232.6699">int i;</text><rect fill="#F1F1F1" height="33.9688" rx="12.5" ry="12.5" style="stroke:#181818;stroke-width:0.5;" width="68.5508" x="209.7563" y="265.5"/><text fill="#000000" font-family="sans-serif" font-size="12" lengthAdjust="spacing" textLength="48.5508" x="219.7563" y="286.6387">char ch;</text><rect fill="#F1F1F1" height="33.9688" style="stroke:#181818;stroke-width:0.5;" width="75.5469" x="206.2583" y="319.4688"/><text fill="#000000" font-family="sans-serif" font-size="12" lengthAdjust="spacing" textLength="55.5469" x="216.2583" y="340.6074">x = 10.0;</text><rect fill="#F1F1F1" height="33.9688" style="stroke:#181818;stroke-width:0.5;" width="67.9121" x="210.0757" y="373.4375"/><text fill="#000000" font-family="sans-serif" font-size="12" lengthAdjust="spacing" textLength="47.9121" x="220.0757" y="394.5762">y = 3.0;</text><path d="M26.8311,431.8242 L26.8311,456.957 A0,0 0 0 0 26.8311,456.957 L169.4712,456.957 A0,0 0 0 0 169.4712,456.957 L169.4712,449.8242 L189.4712,444.3906 L169.4712,441.8242 L169.4712,441.8242 L159.4712,431.8242 L26.8311,431.8242 A0,0 0 0 0 26.8311,431.8242 " fill="#FEFFDD" style="stroke:#181818;stroke-width:0.5;"/><path d="M159.4712,431.8242 L159.4712,441.8242 L169.4712,441.8242 L159.4712,431.8242 " fill="#FEFFDD" style="stroke:#181818;stroke-width:0.5;"/><text fill="#000000" font-family="sans-serif" font-size="13" lengthAdjust="spacing" textLength="121.6401" x="32.8311" y="448.8911">cast double too int</text><rect fill="#F1F1F1" height="33.9688" style="stroke:#181818;stroke-width:0.5;" width="109.1211" x="189.4712" y="427.4063"/><text fill="#000000" font-family="sans-serif" font-size="12" lengthAdjust="spacing" textLength="89.1211" x="199.4712" y="448.5449">i = (int) (x / y);</text><polygon fill="#F1F1F1" points="79.5347,481.375,408.5288,481.375,418.5288,498.3594,408.5288,515.3438,79.5347,515.3438" style="stroke:#181818;stroke-width:0.5;"/><text fill="#000000" font-family="sans-serif" font-size="12" lengthAdjust="spacing" textLength="308.9941" x="89.5347" y="502.5137">System.out.println("integer outcome of x / y: " + i);</text><rect fill="#F1F1F1" height="33.9688" style="stroke:#181818;stroke-width:0.5;" width="67.9648" x="210.0493" y="535.3438"/><text fill="#000000" font-family="sans-serif" font-size="12" lengthAdjust="spacing" textLength="47.9648" x="220.0493" y="556.4824">i = 100;</text><path d="M22.6255,586.1641 L22.6255,626.4297 A0,0 0 0 0 22.6255,626.4297 L177.7007,626.4297 A0,0 0 0 0 177.7007,626.4297 L177.7007,610.2969 L197.7007,606.2969 L177.7007,602.2969 L177.7007,596.1641 L167.7007,586.1641 L22.6255,586.1641 A0,0 0 0 0 22.6255,586.1641 " fill="#FEFFDD" style="stroke:#181818;stroke-width:0.5;"/><path d="M167.7007,586.1641 L167.7007,596.1641 L177.7007,596.1641 L167.7007,586.1641 " fill="#FEFFDD" style="stroke:#181818;stroke-width:0.5;"/><text fill="#000000" font-family="sans-serif" font-size="13" lengthAdjust="spacing" textLength="129.9429" x="28.6255" y="603.231">No loss of info here.</text><text fill="#000000" font-family="sans-serif" font-size="13" lengthAdjust="spacing" textLength="126.9023" x="28.6255" y="618.3638">byte can store 100.</text><rect fill="#F1F1F1" height="33.9688" style="stroke:#181818;stroke-width:0.5;" width="92.6621" x="197.7007" y="589.3125"/><text fill="#000000" font-family="sans-serif" font-size="12" lengthAdjust="spacing" textLength="72.6621" x="207.7007" y="610.4512">b = (byte) i;</text><polygon fill="#F1F1F1" points="119.2993,646.4297,368.7642,646.4297,378.7642,663.4141,368.7642,680.3984,119.2993,680.3984" style="stroke:#181818;stroke-width:0.5;"/><text fill="#000000" font-family="sans-serif" font-size="12" lengthAdjust="spacing" textLength="229.4648" x="129.2993" y="667.5684">System.out.println("Value of b: " + b);</text><rect fill="#F1F1F1" height="33.9688" style="stroke:#181818;stroke-width:0.5;" width="67.9648" x="210.0493" y="700.3984"/><text fill="#000000" font-family="sans-serif" font-size="12" lengthAdjust="spacing" textLength="47.9648" x="220.0493" y="721.5371">i = 257;</text><path d="M10,744.3672 L10,799.7656 A0,0 0 0 0 10,799.7656 L177.7007,799.7656 A0,0 0 0 0 177.7007,799.7656 L177.7007,776.0664 L197.7007,772.0664 L177.7007,768.0664 L177.7007,754.3672 L167.7007,744.3672 L10,744.3672 A0,0 0 0 0 10,744.3672 " fill="#FEFFDD" style="stroke:#181818;stroke-width:0.5;"/><path d="M167.7007,744.3672 L167.7007,754.3672 L177.7007,754.3672 L167.7007,744.3672 " fill="#FEFFDD" style="stroke:#181818;stroke-width:0.5;"/><text fill="#000000" font-family="sans-serif" font-size="13" lengthAdjust="spacing" textLength="142.5684" x="16" y="761.4341">Information loss here.</text><text fill="#000000" font-family="sans-serif" font-size="13" lengthAdjust="spacing" textLength="110.0049" x="16" y="776.5669">byte cannot hold</text><text fill="#000000" font-family="sans-serif" font-size="13" lengthAdjust="spacing" textLength="94.0532" x="16" y="791.6997">the value 257.</text><rect fill="#F1F1F1" height="33.9688" style="stroke:#181818;stroke-width:0.5;" width="92.6621" x="197.7007" y="755.082"/><text fill="#000000" font-family="sans-serif" font-size="12" lengthAdjust="spacing" textLength="72.6621" x="207.7007" y="776.2207">b = (byte) i;</text><polygon fill="#F1F1F1" points="119.2993,819.7656,368.7642,819.7656,378.7642,836.75,368.7642,853.7344,119.2993,853.7344" style="stroke:#181818;stroke-width:0.5;"/><text fill="#000000" font-family="sans-serif" font-size="12" lengthAdjust="spacing" textLength="229.4648" x="129.2993" y="840.9043">System.out.println("Value of b: " + b);</text><path d="M67.5186,878.1523 L67.5186,903.2852 A0,0 0 0 0 67.5186,903.2852 L191.7251,903.2852 A0,0 0 0 0 191.7251,903.2852 L191.7251,896.1523 L211.7251,890.7188 L191.7251,888.1523 L191.7251,888.1523 L181.7251,878.1523 L67.5186,878.1523 A0,0 0 0 0 67.5186,878.1523 " fill="#FEFFDD" style="stroke:#181818;stroke-width:0.5;"/><path d="M181.7251,878.1523 L181.7251,888.1523 L191.7251,888.1523 L181.7251,878.1523 " fill="#FEFFDD" style="stroke:#181818;stroke-width:0.5;"/><text fill="#000000" font-family="sans-serif" font-size="13" lengthAdjust="spacing" textLength="103.2065" x="73.5186" y="895.2192">ASCII code for x</text><rect fill="#F1F1F1" height="33.9688" style="stroke:#181818;stroke-width:0.5;" width="64.6133" x="211.7251" y="873.7344"/><text fill="#000000" font-family="sans-serif" font-size="12" lengthAdjust="spacing" textLength="44.6133" x="221.7251" y="894.873">b = 88;</text><path d="M22.9414,924.5547 L22.9414,964.8203 A0,0 0 0 0 22.9414,964.8203 L172.4243,964.8203 A0,0 0 0 0 172.4243,964.8203 L172.4243,948.6875 L192.4243,944.6875 L172.4243,940.6875 L172.4243,934.5547 L162.4243,924.5547 L22.9414,924.5547 A0,0 0 0 0 22.9414,924.5547 " fill="#FEFFDD" style="stroke:#181818;stroke-width:0.5;"/><path d="M162.4243,924.5547 L162.4243,934.5547 L172.4243,934.5547 L162.4243,924.5547 " fill="#FEFFDD" style="stroke:#181818;stroke-width:0.5;"/><text fill="#000000" font-family="sans-serif" font-size="13" lengthAdjust="spacing" textLength="89.2607" x="28.9414" y="941.6216">Cast between</text><text fill="#000000" font-family="sans-serif" font-size="13" lengthAdjust="spacing" textLength="128.4829" x="28.9414" y="956.7544">incompatible types.</text><rect fill="#F1F1F1" height="33.9688" style="stroke:#181818;stroke-width:0.5;" width="103.2148" x="192.4243" y="927.7031"/><text fill="#000000" font-family="sans-serif" font-size="12" lengthAdjust="spacing" textLength="83.2148" x="202.4243" y="948.8418">ch = (char) b;</text><polygon fill="#F1F1F1" points="139.2534,984.8203,348.8101,984.8203,358.8101,1001.8047,348.8101,1018.7891,139.2534,1018.7891" style="stroke:#181818;stroke-width:0.5;"/><text fill="#000000" font-family="sans-serif" font-size="12" lengthAdjust="spacing" textLength="189.5566" x="149.2534" y="1005.959">System.out.println("ch: " + ch);</text><ellipse cx="244.0317" cy="1049.7891" fill="none" rx="11" ry="11" style="stroke:#222222;stroke-width:1.0;"/><ellipse cx="244.0317" cy="1049.7891" fill="#222222" rx="6" ry="6" style="stroke:#222222;stroke-width:1.0;"/><line style="stroke:#181818;stroke-width:1.0;" x1="244.0317" x2="244.0317" y1="83.5938" y2="103.5938"/><polygon fill="#181818" points="240.0317,93.5938,244.0317,103.5938,248.0317,93.5938,244.0317,97.5938" style="stroke:#181818;stroke-width:1.0;"/><line style="stroke:#181818;stroke-width:1.0;" x1="244.0317" x2="244.0317" y1="137.5625" y2="157.5625"/><polygon fill="#181818" points="240.0317,147.5625,244.0317,157.5625,248.0317,147.5625,244.0317,151.5625" style="stroke:#181818;stroke-width:1.0;"/><line style="stroke:#181818;stroke-width:1.0;" x1="244.0317" x2="244.0317" y1="191.5313" y2="211.5313"/><polygon fill="#181818" points="240.0317,201.5313,244.0317,211.5313,248.0317,201.5313,244.0317,205.5313" style="stroke:#181818;stroke-width:1.0;"/><line style="stroke:#181818;stroke-width:1.0;" x1="244.0317" x2="244.0317" y1="245.5" y2="265.5"/><polygon fill="#181818" points="240.0317,255.5,244.0317,265.5,248.0317,255.5,244.0317,259.5" style="stroke:#181818;stroke-width:1.0;"/><line style="stroke:#181818;stroke-width:1.0;" x1="244.0317" x2="244.0317" y1="299.4688" y2="319.4688"/><polygon fill="#181818" points="240.0317,309.4688,244.0317,319.4688,248.0317,309.4688,244.0317,313.4688" style="stroke:#181818;stroke-width:1.0;"/><line style="stroke:#181818;stroke-width:1.0;" x1="244.0317" x2="244.0317" y1="353.4375" y2="373.4375"/><polygon fill="#181818" points="240.0317,363.4375,244.0317,373.4375,248.0317,363.4375,244.0317,367.4375" style="stroke:#181818;stroke-width:1.0;"/><line style="stroke:#181818;stroke-width:1.0;" x1="244.0317" x2="244.0317" y1="407.4063" y2="427.4063"/><polygon fill="#181818" points="240.0317,417.4063,244.0317,427.4063,248.0317,417.4063,244.0317,421.4063" style="stroke:#181818;stroke-width:1.0;"/><line style="stroke:#181818;stroke-width:1.0;" x1="244.0317" x2="244.0317" y1="461.375" y2="481.375"/><polygon fill="#181818" points="240.0317,471.375,244.0317,481.375,248.0317,471.375,244.0317,475.375" style="stroke:#181818;stroke-width:1.0;"/><line style="stroke:#181818;stroke-width:1.0;" x1="244.0317" x2="244.0317" y1="515.3438" y2="535.3438"/><polygon fill="#181818" points="240.0317,525.3438,244.0317,535.3438,248.0317,525.3438,244.0317,529.3438" style="stroke:#181818;stroke-width:1.0;"/><line style="stroke:#181818;stroke-width:1.0;" x1="244.0317" x2="244.0317" y1="569.3125" y2="589.3125"/><polygon fill="#181818" points="240.0317,579.3125,244.0317,589.3125,248.0317,579.3125,244.0317,583.3125" style="stroke:#181818;stroke-width:1.0;"/><line style="stroke:#181818;stroke-width:1.0;" x1="244.0317" x2="244.0317" y1="623.2813" y2="646.4297"/><polygon fill="#181818" points="240.0317,636.4297,244.0317,646.4297,248.0317,636.4297,244.0317,640.4297" style="stroke:#181818;stroke-width:1.0;"/><line style="stroke:#181818;stroke-width:1.0;" x1="244.0317" x2="244.0317" y1="680.3984" y2="700.3984"/><polygon fill="#181818" points="240.0317,690.3984,244.0317,700.3984,248.0317,690.3984,244.0317,694.3984" style="stroke:#181818;stroke-width:1.0;"/><line style="stroke:#181818;stroke-width:1.0;" x1="244.0317" x2="244.0317" y1="734.3672" y2="755.082"/><polygon fill="#181818" points="240.0317,745.082,244.0317,755.082,248.0317,745.082,244.0317,749.082" style="stroke:#181818;stroke-width:1.0;"/><line style="stroke:#181818;stroke-width:1.0;" x1="244.0317" x2="244.0317" y1="789.0508" y2="819.7656"/><polygon fill="#181818" points="240.0317,809.7656,244.0317,819.7656,248.0317,809.7656,244.0317,813.7656" style="stroke:#181818;stroke-width:1.0;"/><line style="stroke:#181818;stroke-width:1.0;" x1="244.0317" x2="244.0317" y1="853.7344" y2="873.7344"/><polygon fill="#181818" points="240.0317,863.7344,244.0317,873.7344,248.0317,863.7344,244.0317,867.7344" style="stroke:#181818;stroke-width:1.0;"/><line style="stroke:#181818;stroke-width:1.0;" x1="244.0317" x2="244.0317" y1="907.7031" y2="927.7031"/><polygon fill="#181818" points="240.0317,917.7031,244.0317,927.7031,248.0317,917.7031,244.0317,921.7031" style="stroke:#181818;stroke-width:1.0;"/><line style="stroke:#181818;stroke-width:1.0;" x1="244.0317" x2="244.0317" y1="961.6719" y2="984.8203"/><polygon fill="#181818" points="240.0317,974.8203,244.0317,984.8203,248.0317,974.8203,244.0317,978.8203" style="stroke:#181818;stroke-width:1.0;"/><line style="stroke:#181818;stroke-width:1.0;" x1="244.0317" x2="244.0317" y1="1018.7891" y2="1038.7891"/><polygon fill="#181818" points="240.0317,1028.7891,244.0317,1038.7891,248.0317,1028.7891,244.0317,1032.7891" style="stroke:#181818;stroke-width:1.0;"/><!--SRC=[dP9DJyCm38Rl_HKMN5Q1kWs4cBgkqZGkkt11uiGbJRqreechn1lhlyVf408s3d2AzJgs7t-muHPXgTdi3VTG6xNroW9juCKL6t8CJbbSM78KEgMnB3IrvE7oRdfxKs6vKe4Vq59cbN6Zj1WFxh8OnzWIB793TP84LfwJ9AzfLqczmpNqytcILpqZLD4oKib4GpVAWsx4JF83B60woIRpEHG5g_1QbadUYtZxNPDm4KUI8uNH0SRGfr_TZgHA3bfGuGE0YK2-9_bJ7nXjHZlEEYzAwqONyk0MFOYeoM8Snf0qXmku0dFCBSvknv_5fvFlb5K4YksbiQqJbaU2baA8gOtR43JeCPEH3mFHoa5WyXYpPkSPdrMx6yYg8rLrbkhcxlulL6j1yLQn8NV4-uab_w2XjXQ96uJz0255_WqPWMQpCoZBfzLw3Pfg1662GpoC21_F8uqdSn8HBn4gv3T49tp6oUuwwMLOTzzX-0LIDqSutVoaanrqxm00]--></g></svg>