<svg xmlns="http://www.w3.org/2000/svg" xmlns:xlink="http://www.w3.org/1999/xlink" contentStyleType="text/css" height="514px" preserveAspectRatio="none" style="width:385px;height:514px;background:#FFFFFF;" version="1.1" viewBox="0 0 385 514" width="385px" zoomAndPan="magnify"><title>Activity diagram of </title><defs/><g><text fill="#000000" font-family="sans-serif" font-size="14" font-weight="bold" lengthAdjust="spacing" textLength="151.0537" x="113.1167" y="32.9951">Activity diagram of</text><text fill="#5132BE" font-family="name=monospace" font-size="14" font-weight="bold" lengthAdjust="spacing" textLength="178.0283" x="69.4385" y="49.292">CharArithDemo.main()</text><text fill="#000000" font-family="sans-serif" font-size="14" font-weight="bold" lengthAdjust="spacing" textLength="60.3818" x="252.3408" y="49.292">method</text><ellipse cx="223.0996" cy="73.5938" fill="#222222" rx="10" ry="10" style="stroke:#222222;stroke-width:1.0;"/><rect fill="#F1F1F1" height="33.9688" rx="12.5" ry="12.5" style="stroke:#181818;stroke-width:0.5;" width="68.5508" x="188.8242" y="103.5938"/><text fill="#000000" font-family="sans-serif" font-size="12" lengthAdjust="spacing" textLength="48.5508" x="198.8242" y="124.7324">char ch;</text><rect fill="#F1F1F1" height="33.9688" style="stroke:#181818;stroke-width:0.5;" width="70.748" x="187.7256" y="157.5625"/><text fill="#000000" font-family="sans-serif" font-size="12" lengthAdjust="spacing" textLength="50.748" x="197.7256" y="178.7012">ch = 'X';</text><polygon fill="#F1F1F1" points="93.0381,211.5313,353.1611,211.5313,363.1611,228.5156,353.1611,245.5,93.0381,245.5" style="stroke:#181818;stroke-width:0.5;"/><text fill="#000000" font-family="sans-serif" font-size="12" lengthAdjust="spacing" textLength="240.123" x="103.0381" y="232.6699">System.out.println("ch contains " + ch);</text><path d="M67.0635,269.918 L67.0635,295.0508 A0,0 0 0 0 67.0635,295.0508 L173.9219,295.0508 A0,0 0 0 0 173.9219,295.0508 L173.9219,287.918 L193.9219,282.4844 L173.9219,279.918 L173.9219,279.918 L163.9219,269.918 L67.0635,269.918 A0,0 0 0 0 67.0635,269.918 " fill="#FEFFDD" style="stroke:#181818;stroke-width:0.5;"/><path d="M163.9219,269.918 L163.9219,279.918 L173.9219,279.918 L163.9219,269.918 " fill="#FEFFDD" style="stroke:#181818;stroke-width:0.5;"/><text fill="#000000" font-family="sans-serif" font-size="13" lengthAdjust="spacing" textLength="85.8584" x="73.0635" y="286.9849">increment ch</text><rect fill="#F1F1F1" height="33.9688" style="stroke:#181818;stroke-width:0.5;" width="58.3555" x="193.9219" y="265.5"/><text fill="#000000" font-family="sans-serif" font-size="12" lengthAdjust="spacing" textLength="38.3555" x="203.9219" y="286.6387">ch++;</text><polygon fill="#F1F1F1" points="99.3545,319.4688,346.8447,319.4688,356.8447,336.4531,346.8447,353.4375,99.3545,353.4375" style="stroke:#181818;stroke-width:0.5;"/><text fill="#000000" font-family="sans-serif" font-size="12" lengthAdjust="spacing" textLength="227.4902" x="109.3545" y="340.6074">System.out.println("ch is now " + ch);</text><path d="M10,377.8555 L10,402.9883 A0,0 0 0 0 10,402.9883 L167.5,402.9883 A0,0 0 0 0 167.5,402.9883 L167.5,395.8555 L187.5,390.4219 L167.5,387.8555 L167.5,387.8555 L157.5,377.8555 L10,377.8555 A0,0 0 0 0 10,377.8555 " fill="#FEFFDD" style="stroke:#181818;stroke-width:0.5;"/><path d="M157.5,377.8555 L157.5,387.8555 L167.5,387.8555 L157.5,377.8555 " fill="#FEFFDD" style="stroke:#181818;stroke-width:0.5;"/><text fill="#000000" font-family="sans-serif" font-size="13" lengthAdjust="spacing" textLength="136.5" x="16" y="394.9224">give ch the value 'Z'.</text><rect fill="#F1F1F1" height="33.9688" style="stroke:#181818;stroke-width:0.5;" width="71.1992" x="187.5" y="373.4375"/><text fill="#000000" font-family="sans-serif" font-size="12" lengthAdjust="spacing" textLength="51.1992" x="197.5" y="394.5762">ch = 90;</text><polygon fill="#F1F1F1" points="99.3545,427.4063,346.8447,427.4063,356.8447,444.3906,346.8447,461.375,99.3545,461.375" style="stroke:#181818;stroke-width:0.5;"/><text fill="#000000" font-family="sans-serif" font-size="12" lengthAdjust="spacing" textLength="227.4902" x="109.3545" y="448.5449">System.out.println("ch is now " + ch);</text><ellipse cx="223.0996" cy="492.375" fill="none" rx="11" ry="11" style="stroke:#222222;stroke-width:1.0;"/><ellipse cx="223.0996" cy="492.375" fill="#222222" rx="6" ry="6" style="stroke:#222222;stroke-width:1.0;"/><line style="stroke:#181818;stroke-width:1.0;" x1="223.0996" x2="223.0996" y1="83.5938" y2="103.5938"/><polygon fill="#181818" points="219.0996,93.5938,223.0996,103.5938,227.0996,93.5938,223.0996,97.5938" style="stroke:#181818;stroke-width:1.0;"/><line style="stroke:#181818;stroke-width:1.0;" x1="223.0996" x2="223.0996" y1="137.5625" y2="157.5625"/><polygon fill="#181818" points="219.0996,147.5625,223.0996,157.5625,227.0996,147.5625,223.0996,151.5625" style="stroke:#181818;stroke-width:1.0;"/><line style="stroke:#181818;stroke-width:1.0;" x1="223.0996" x2="223.0996" y1="191.5313" y2="211.5313"/><polygon fill="#181818" points="219.0996,201.5313,223.0996,211.5313,227.0996,201.5313,223.0996,205.5313" style="stroke:#181818;stroke-width:1.0;"/><line style="stroke:#181818;stroke-width:1.0;" x1="223.0996" x2="223.0996" y1="245.5" y2="265.5"/><polygon fill="#181818" points="219.0996,255.5,223.0996,265.5,227.0996,255.5,223.0996,259.5" style="stroke:#181818;stroke-width:1.0;"/><line style="stroke:#181818;stroke-width:1.0;" x1="223.0996" x2="223.0996" y1="299.4688" y2="319.4688"/><polygon fill="#181818" points="219.0996,309.4688,223.0996,319.4688,227.0996,309.4688,223.0996,313.4688" style="stroke:#181818;stroke-width:1.0;"/><line style="stroke:#181818;stroke-width:1.0;" x1="223.0996" x2="223.0996" y1="353.4375" y2="373.4375"/><polygon fill="#181818" points="219.0996,363.4375,223.0996,373.4375,227.0996,363.4375,223.0996,367.4375" style="stroke:#181818;stroke-width:1.0;"/><line style="stroke:#181818;stroke-width:1.0;" x1="223.0996" x2="223.0996" y1="407.4063" y2="427.4063"/><polygon fill="#181818" points="219.0996,417.4063,223.0996,427.4063,227.0996,417.4063,223.0996,421.4063" style="stroke:#181818;stroke-width:1.0;"/><line style="stroke:#181818;stroke-width:1.0;" x1="223.0996" x2="223.0996" y1="461.375" y2="481.375"/><polygon fill="#181818" points="219.0996,471.375,223.0996,481.375,227.0996,471.375,223.0996,475.375" style="stroke:#181818;stroke-width:1.0;"/><!--SRC=[dOynRy8m48Nt_8eJ7G922eMsGuc9HAawTMEfgYx6CSJ2yKNs1PHM_U-zX8g2MfRUODddzxvx9m8rLcSHSCqLcPsX1ZwwPrjFw6XftZMC9yTURcI9BZzHjVLid5wWHG-DjXRtPvyFKcqt7ckN7oIhsjjcZvYVgNw6tVxkjp5XXVR7yXaTJZ7wte4CiUQu1UVSU5a2hk7DYJL3mCbIppWyXaegdGdLfRcw6zzCLZfR5DBFlQ7YKPUObDAu_a2CEaqcHYqWWr9JmR6ZGD9J54qLUq0LQThTOGRnIvoc80J9iCsoQBfi0kaomPgIoXj7rlLxB5HCum41UZ1a_w3piAYgYLqjQpWyvJWa3LCmJdbTQbv55T55k0dWS7yPpJ7lh_-WRynEimEeqB2JjjOGlyR9F-S4mkeB]--></g></svg>