<svg xmlns="http://www.w3.org/2000/svg" xmlns:xlink="http://www.w3.org/1999/xlink" contentStyleType="text/css" height="1098px" preserveAspectRatio="none" style="width:436px;height:1098px;background:#FFFFFF;" version="1.1" viewBox="0 0 436 1098" width="436px" zoomAndPan="magnify"><title>Activity diagram of </title><defs/><g><text fill="#000000" font-family="sans-serif" font-size="14" font-weight="bold" lengthAdjust="spacing" textLength="151.0537" x="138.9331" y="32.9951">Activity diagram of</text><text fill="#5132BE" font-family="name=monospace" font-size="14" font-weight="bold" lengthAdjust="spacing" textLength="257.8311" x="55.3535" y="49.292">JBG_HS_Ch02_SelfTest_10.main()</text><text fill="#000000" font-family="sans-serif" font-size="14" font-weight="bold" lengthAdjust="spacing" textLength="60.3818" x="318.0586" y="49.292">method</text><ellipse cx="207.6035" cy="73.5938" fill="#222222" rx="10" ry="10" style="stroke:#222222;stroke-width:1.0;"/><rect fill="#F1F1F1" height="33.9688" rx="12.5" ry="12.5" style="stroke:#181818;stroke-width:0.5;" width="57.7988" x="178.7041" y="103.5938"/><text fill="#000000" font-family="sans-serif" font-size="12" lengthAdjust="spacing" textLength="37.7988" x="188.7041" y="124.7324">int i, j;</text><polygon fill="#F1F1F1" points="20,157.5625,395.207,157.5625,405.207,174.5469,395.207,191.5313,20,191.5313" style="stroke:#181818;stroke-width:0.5;"/><text fill="#000000" font-family="sans-serif" font-size="12" lengthAdjust="spacing" textLength="355.207" x="30" y="178.7012">System.out.println("Prime numbers between 2 and 100: ");</text><polygon fill="#F1F1F1" points="129.5439,211.5313,285.6631,211.5313,295.6631,228.5156,285.6631,245.5,129.5439,245.5" style="stroke:#181818;stroke-width:0.5;"/><text fill="#000000" font-family="sans-serif" font-size="12" lengthAdjust="spacing" textLength="136.1191" x="139.5439" y="232.6699">System.out.print("2 ");</text><rect fill="#9BD68D" height="735.7261" style="stroke:#000000;stroke-width:1.5;" width="388.3193" x="37.4746" y="255.5"/><path d="M101.082,255.5 L101.082,264.7969 L91.082,274.7969 L37.4746,274.7969 " fill="none" style="stroke:#000000;stroke-width:1.5;"/><text fill="#000000" font-family="sans-serif" font-size="14" lengthAdjust="spacing" textLength="53.6074" x="40.4746" y="269.4951">for loop</text><rect fill="#F1F1F1" height="33.9688" style="stroke:#181818;stroke-width:0.5;" width="52.6953" x="181.2559" y="291.7969"/><text fill="#000000" font-family="sans-serif" font-size="12" lengthAdjust="spacing" textLength="32.6953" x="191.2559" y="312.9355">i = 3;</text><rect fill="#F1F1F1" height="33.9688" style="stroke:#181818;stroke-width:0.5;" width="272.2578" x="71.4746" y="401.4761"/><text fill="#000000" font-family="sans-serif" font-size="12" lengthAdjust="spacing" textLength="252.2578" x="81.4746" y="422.6147">int upto = (int)(Math.sqrt((double) i)) + 1;</text><rect fill="#F1F1F1" height="33.9688" style="stroke:#181818;stroke-width:0.5;" width="162.3066" x="126.4502" y="455.4448"/><text fill="#000000" font-family="sans-serif" font-size="12" lengthAdjust="spacing" textLength="142.3066" x="136.4502" y="476.5835">boolean isPrime = true;</text><rect fill="#8CD06D" height="311.4414" style="stroke:#000000;stroke-width:1.5;" width="249.9219" x="106.3857" y="499.4136"/><path d="M169.9932,499.4136 L169.9932,508.7104 L159.9932,518.7104 L106.3857,518.7104 " fill="none" style="stroke:#000000;stroke-width:1.5;"/><text fill="#000000" font-family="sans-serif" font-size="14" lengthAdjust="spacing" textLength="53.6074" x="109.3857" y="513.4087">for loop</text><rect fill="#F1F1F1" height="33.9688" style="stroke:#181818;stroke-width:0.5;" width="52.6953" x="181.2559" y="535.7104"/><text fill="#000000" font-family="sans-serif" font-size="12" lengthAdjust="spacing" textLength="32.6953" x="191.2559" y="556.8491">j = 2;</text><rect fill="#F1F1F1" height="33.9688" rx="12.5" ry="12.5" style="stroke:#181818;stroke-width:0.5;" width="114.4355" x="150.3857" y="698.8862"/><text fill="#000000" font-family="sans-serif" font-size="12" lengthAdjust="spacing" textLength="94.4355" x="160.3857" y="720.0249">isPrime = false;</text><polygon fill="#DEB887" points="169.4419,650.4839,245.7651,650.4839,257.7651,662.4839,245.7651,674.4839,169.4419,674.4839,157.4419,662.4839,169.4419,650.4839" style="stroke:#FFFF00;stroke-width:0.5;"/><text fill="#008000" font-family="sans-serif" font-size="11" lengthAdjust="spacing" textLength="22.5747" x="211.6035" y="684.6943">true</text><text fill="#000000" font-family="sans-serif" font-size="14" font-weight="bold" lengthAdjust="spacing" textLength="76.3232" x="169.4419" y="667.3306">i % j == 0</text><polygon fill="#DEB887" points="207.6035,752.855,219.6035,764.855,207.6035,776.855,195.6035,764.855,207.6035,752.855" style="stroke:#FFFF00;stroke-width:0.5;"/><polygon fill="#DEB887" points="176.3154,589.6792,238.8916,589.6792,250.8916,601.6792,238.8916,613.6792,176.3154,613.6792,164.3154,601.6792,176.3154,589.6792" style="stroke:#FFFF00;stroke-width:0.5;"/><text fill="#008000" font-family="sans-serif" font-size="11" lengthAdjust="spacing" textLength="22.5747" x="211.6035" y="623.8896">true</text><text fill="#000000" font-family="sans-serif" font-size="14" font-weight="bold" lengthAdjust="spacing" textLength="62.5762" x="176.3154" y="606.5259">j &lt; upto</text><text fill="#FF0000" font-family="sans-serif" font-size="11" lengthAdjust="spacing" textLength="26.168" x="138.1475" y="599.085">false</text><rect fill="#F1F1F1" height="33.9688" style="stroke:#181818;stroke-width:0.5;" width="47.4863" x="298.8213" y="680.4839"/><text fill="#000000" font-family="sans-serif" font-size="12" lengthAdjust="spacing" textLength="27.4863" x="308.8213" y="701.6226">j++;</text><polygon fill="#F1F1F1" points="122.8525,879.2573,292.3545,879.2573,302.3545,896.2417,292.3545,913.2261,122.8525,913.2261" style="stroke:#181818;stroke-width:0.5;"/><text fill="#000000" font-family="sans-serif" font-size="12" lengthAdjust="spacing" textLength="149.502" x="132.8525" y="900.396">System.out.print(i + " ");</text><polygon fill="#DEB887" points="178.0142,830.855,237.1929,830.855,249.1929,842.855,237.1929,854.855,178.0142,854.855,166.0142,842.855,178.0142,830.855" style="stroke:#FFFF00;stroke-width:0.5;"/><text fill="#008000" font-family="sans-serif" font-size="11" lengthAdjust="spacing" textLength="22.5747" x="211.6035" y="865.0654">true</text><text fill="#000000" font-family="sans-serif" font-size="14" font-weight="bold" lengthAdjust="spacing" textLength="59.1787" x="178.0142" y="847.7017">isPrime</text><polygon fill="#DEB887" points="207.6035,933.2261,219.6035,945.2261,207.6035,957.2261,195.6035,945.2261,207.6035,933.2261" style="stroke:#FFFF00;stroke-width:0.5;"/><polygon fill="#DEB887" points="179.853,345.7656,235.354,345.7656,247.354,357.7656,235.354,369.7656,179.853,369.7656,167.853,357.7656,179.853,345.7656" style="stroke:#FFFF00;stroke-width:0.5;"/><text fill="#008000" font-family="sans-serif" font-size="11" lengthAdjust="spacing" textLength="22.5747" x="211.6035" y="379.9761">true</text><text fill="#000000" font-family="sans-serif" font-size="14" font-weight="bold" lengthAdjust="spacing" textLength="55.501" x="179.853" y="362.6123">i &lt; 100</text><text fill="#FF0000" font-family="sans-serif" font-size="11" lengthAdjust="spacing" textLength="26.168" x="141.6851" y="355.1714">false</text><rect fill="#F1F1F1" height="33.9688" style="stroke:#181818;stroke-width:0.5;" width="47.4863" x="368.3076" y="633.3667"/><text fill="#000000" font-family="sans-serif" font-size="12" lengthAdjust="spacing" textLength="27.4863" x="378.3076" y="654.5054">i++;</text><polygon fill="#F1F1F1" points="135.3184,1011.2261,279.8887,1011.2261,289.8887,1028.2104,279.8887,1045.1948,135.3184,1045.1948" style="stroke:#181818;stroke-width:0.5;"/><text fill="#000000" font-family="sans-serif" font-size="12" lengthAdjust="spacing" textLength="124.5703" x="145.3184" y="1032.3647">System.out.println();</text><ellipse cx="207.6035" cy="1076.1948" fill="none" rx="11" ry="11" style="stroke:#222222;stroke-width:1.0;"/><ellipse cx="207.6035" cy="1076.1948" fill="#222222" rx="6" ry="6" style="stroke:#222222;stroke-width:1.0;"/><line style="stroke:#181818;stroke-width:1.0;" x1="207.6035" x2="207.6035" y1="83.5938" y2="103.5938"/><polygon fill="#181818" points="203.6035,93.5938,207.6035,103.5938,211.6035,93.5938,207.6035,97.5938" style="stroke:#181818;stroke-width:1.0;"/><line style="stroke:#181818;stroke-width:1.0;" x1="207.6035" x2="207.6035" y1="137.5625" y2="157.5625"/><polygon fill="#181818" points="203.6035,147.5625,207.6035,157.5625,211.6035,147.5625,207.6035,151.5625" style="stroke:#181818;stroke-width:1.0;"/><line style="stroke:#181818;stroke-width:1.0;" x1="207.6035" x2="207.6035" y1="191.5313" y2="211.5313"/><polygon fill="#181818" points="203.6035,201.5313,207.6035,211.5313,211.6035,201.5313,207.6035,205.5313" style="stroke:#181818;stroke-width:1.0;"/><line style="stroke:#181818;stroke-width:1.0;" x1="207.6035" x2="207.6035" y1="435.4448" y2="455.4448"/><polygon fill="#181818" points="203.6035,445.4448,207.6035,455.4448,211.6035,445.4448,207.6035,449.4448" style="stroke:#181818;stroke-width:1.0;"/><line style="stroke:#181818;stroke-width:1.0;" x1="207.6035" x2="207.6035" y1="674.4839" y2="698.8862"/><polygon fill="#181818" points="203.6035,688.8862,207.6035,698.8862,211.6035,688.8862,207.6035,692.8862" style="stroke:#181818;stroke-width:1.0;"/><line style="stroke:#181818;stroke-width:1.0;" x1="257.7651" x2="274.8213" y1="662.4839" y2="662.4839"/><polygon fill="#181818" points="270.8213,705.8706,274.8213,715.8706,278.8213,705.8706,274.8213,709.8706" style="stroke:#181818;stroke-width:1.0;"/><line style="stroke:#181818;stroke-width:1.0;" x1="274.8213" x2="274.8213" y1="662.4839" y2="764.855"/><line style="stroke:#181818;stroke-width:1.0;" x1="274.8213" x2="219.6035" y1="764.855" y2="764.855"/><polygon fill="#181818" points="229.6035,760.855,219.6035,764.855,229.6035,768.855,225.6035,764.855" style="stroke:#181818;stroke-width:1.0;"/><line style="stroke:#181818;stroke-width:1.0;" x1="207.6035" x2="207.6035" y1="732.855" y2="752.855"/><polygon fill="#181818" points="203.6035,742.855,207.6035,752.855,211.6035,742.855,207.6035,746.855" style="stroke:#181818;stroke-width:1.0;"/><line style="stroke:#181818;stroke-width:1.0;" x1="207.6035" x2="207.6035" y1="613.6792" y2="650.4839"/><polygon fill="#181818" points="203.6035,640.4839,207.6035,650.4839,211.6035,640.4839,207.6035,644.4839" style="stroke:#181818;stroke-width:1.0;"/><line style="stroke:#181818;stroke-width:1.0;" x1="207.6035" x2="207.6035" y1="776.855" y2="786.855"/><line style="stroke:#181818;stroke-width:1.0;" x1="207.6035" x2="322.5645" y1="786.855" y2="786.855"/><line style="stroke:#181818;stroke-width:1.0;" x1="322.5645" x2="322.5645" y1="714.4526" y2="786.855"/><polygon fill="#181818" points="318.5645,724.4526,322.5645,714.4526,326.5645,724.4526,322.5645,720.4526" style="stroke:#181818;stroke-width:1.0;"/><line style="stroke:#181818;stroke-width:1.0;" x1="322.5645" x2="322.5645" y1="601.6792" y2="680.4839"/><line style="stroke:#181818;stroke-width:1.0;" x1="322.5645" x2="250.8916" y1="601.6792" y2="601.6792"/><polygon fill="#181818" points="260.8916,597.6792,250.8916,601.6792,260.8916,605.6792,256.8916,601.6792" style="stroke:#181818;stroke-width:1.0;"/><line style="stroke:#181818;stroke-width:1.0;" x1="164.3154" x2="128.3857" y1="601.6792" y2="601.6792"/><polygon fill="#181818" points="124.3857,693.4683,128.3857,703.4683,132.3857,693.4683,128.3857,697.4683" style="stroke:#181818;stroke-width:1.0;"/><line style="stroke:#181818;stroke-width:1.0;" x1="128.3857" x2="128.3857" y1="601.6792" y2="798.855"/><line style="stroke:#181818;stroke-width:1.0;" x1="128.3857" x2="207.6035" y1="798.855" y2="798.855"/><line style="stroke:#181818;stroke-width:1.0;" x1="207.6035" x2="207.6035" y1="798.855" y2="830.855"/><polygon fill="#181818" points="203.6035,820.855,207.6035,830.855,211.6035,820.855,207.6035,824.855" style="stroke:#181818;stroke-width:1.0;"/><line style="stroke:#181818;stroke-width:1.0;" x1="207.6035" x2="207.6035" y1="569.6792" y2="589.6792"/><polygon fill="#181818" points="203.6035,579.6792,207.6035,589.6792,211.6035,579.6792,207.6035,583.6792" style="stroke:#181818;stroke-width:1.0;"/><line style="stroke:#181818;stroke-width:1.0;" x1="207.6035" x2="207.6035" y1="489.4136" y2="535.7104"/><polygon fill="#181818" points="203.6035,525.7104,207.6035,535.7104,211.6035,525.7104,207.6035,529.7104" style="stroke:#181818;stroke-width:1.0;"/><line style="stroke:#181818;stroke-width:1.0;" x1="207.6035" x2="207.6035" y1="854.855" y2="879.2573"/><polygon fill="#181818" points="203.6035,869.2573,207.6035,879.2573,211.6035,869.2573,207.6035,873.2573" style="stroke:#181818;stroke-width:1.0;"/><line style="stroke:#181818;stroke-width:1.0;" x1="249.1929" x2="312.3545" y1="842.855" y2="842.855"/><polygon fill="#181818" points="308.3545,886.2417,312.3545,896.2417,316.3545,886.2417,312.3545,890.2417" style="stroke:#181818;stroke-width:1.0;"/><line style="stroke:#181818;stroke-width:1.0;" x1="312.3545" x2="312.3545" y1="842.855" y2="945.2261"/><line style="stroke:#181818;stroke-width:1.0;" x1="312.3545" x2="219.6035" y1="945.2261" y2="945.2261"/><polygon fill="#181818" points="229.6035,941.2261,219.6035,945.2261,229.6035,949.2261,225.6035,945.2261" style="stroke:#181818;stroke-width:1.0;"/><line style="stroke:#181818;stroke-width:1.0;" x1="207.6035" x2="207.6035" y1="913.2261" y2="933.2261"/><polygon fill="#181818" points="203.6035,923.2261,207.6035,933.2261,211.6035,923.2261,207.6035,927.2261" style="stroke:#181818;stroke-width:1.0;"/><line style="stroke:#181818;stroke-width:1.0;" x1="207.6035" x2="207.6035" y1="369.7656" y2="401.4761"/><polygon fill="#181818" points="203.6035,391.4761,207.6035,401.4761,211.6035,391.4761,207.6035,395.4761" style="stroke:#181818;stroke-width:1.0;"/><line style="stroke:#181818;stroke-width:1.0;" x1="207.6035" x2="207.6035" y1="957.2261" y2="967.2261"/><line style="stroke:#181818;stroke-width:1.0;" x1="207.6035" x2="392.0508" y1="967.2261" y2="967.2261"/><line style="stroke:#181818;stroke-width:1.0;" x1="392.0508" x2="392.0508" y1="667.3354" y2="967.2261"/><polygon fill="#181818" points="388.0508,677.3354,392.0508,667.3354,396.0508,677.3354,392.0508,673.3354" style="stroke:#181818;stroke-width:1.0;"/><line style="stroke:#181818;stroke-width:1.0;" x1="392.0508" x2="392.0508" y1="357.7656" y2="633.3667"/><line style="stroke:#181818;stroke-width:1.0;" x1="392.0508" x2="247.354" y1="357.7656" y2="357.7656"/><polygon fill="#181818" points="257.354,353.7656,247.354,357.7656,257.354,361.7656,253.354,357.7656" style="stroke:#181818;stroke-width:1.0;"/><line style="stroke:#181818;stroke-width:1.0;" x1="167.853" x2="59.4746" y1="357.7656" y2="357.7656"/><polygon fill="#181818" points="55.4746,646.3511,59.4746,656.3511,63.4746,646.3511,59.4746,650.3511" style="stroke:#181818;stroke-width:1.0;"/><line style="stroke:#181818;stroke-width:1.0;" x1="59.4746" x2="59.4746" y1="357.7656" y2="979.2261"/><line style="stroke:#181818;stroke-width:1.0;" x1="59.4746" x2="207.6035" y1="979.2261" y2="979.2261"/><line style="stroke:#181818;stroke-width:1.0;" x1="207.6035" x2="207.6035" y1="979.2261" y2="1011.2261"/><polygon fill="#181818" points="203.6035,1001.2261,207.6035,1011.2261,211.6035,1001.2261,207.6035,1005.2261" style="stroke:#181818;stroke-width:1.0;"/><line style="stroke:#181818;stroke-width:1.0;" x1="207.6035" x2="207.6035" y1="325.7656" y2="345.7656"/><polygon fill="#181818" points="203.6035,335.7656,207.6035,345.7656,211.6035,335.7656,207.6035,339.7656" style="stroke:#181818;stroke-width:1.0;"/><line style="stroke:#181818;stroke-width:1.0;" x1="207.6035" x2="207.6035" y1="245.5" y2="291.7969"/><polygon fill="#181818" points="203.6035,281.7969,207.6035,291.7969,211.6035,281.7969,207.6035,285.7969" style="stroke:#181818;stroke-width:1.0;"/><line style="stroke:#181818;stroke-width:1.0;" x1="207.6035" x2="207.6035" y1="1045.1948" y2="1065.1948"/><polygon fill="#181818" points="203.6035,1055.1948,207.6035,1065.1948,211.6035,1055.1948,207.6035,1059.1948" style="stroke:#181818;stroke-width:1.0;"/><!--SRC=[ZPDXQzim48Q_-rSSAGERZ3Hnjz8bZc4jR6DiCCW-3e8SdHEbikH9vuLqzB_lRBTE6sTRzS5OqjrxxtEI4azxZMa0FDwlIFrIj8VVpRGU7woXXRf3cCJTcbIYi4O-YQh75sNmnchhO8zQszsppMknkbqxMndPXcILq_kTjV9PrA7Oc_vwRHCogmyfzq7xJSuV64WHntGKx7FjH04sXnycoLa4Z2XmpkQjByKAqsJLk3bxExc8Cqm_NtzSVbeiRpRZUBb0dNz7Jyl9U5G8PS8eEM-Yq-IybagXGDemGE19E0g2gM9zzHgsinbF5djFM8niHQFIyOusuU2RKmM2gOeCdOSCQOTe80R1lPoCnrCOHBCP90adbHMbQLyb7CIzeA3ayegKDN3sBfENLn9oPjBMbWydD5KmXuicYuI_JTl3tcsKnb11KjUEG7a8stPCruvzfUGgZBfUDtHLIPQbGlwFmg-2DYF_qr4OIbjb6baZYc08a-DAJNvchKPXk4xRXZdK1Kw5Fk6vMidnPO-dqzooIdnAui2tPRxQzdy17uVAkIUlWANdm6sX3H_HI_BQ9dLmkT2UwNfXQAJAUwiPFu-TS7Aw7Gx_niEP3LBdng5CcpBHqOjun6ZDl92XVzSKd-MWTzrEWtG0gW_mB-Ftfv_AyHNtPCi_]--></g></svg>