<svg xmlns="http://www.w3.org/2000/svg" xmlns:xlink="http://www.w3.org/1999/xlink" contentStyleType="text/css" height="1323px" preserveAspectRatio="none" style="width:363px;height:1323px;background:#FFFFFF;" version="1.1" viewBox="0 0 363 1323" width="363px" zoomAndPan="magnify"><title>Activity diagram of </title><defs/><g><text fill="#000000" font-family="sans-serif" font-size="14" font-weight="bold" lengthAdjust="spacing" textLength="151.0537" x="102.5342" y="32.9951">Activity diagram of</text><text fill="#5132BE" font-family="name=monospace" font-size="14" font-weight="bold" lengthAdjust="spacing" textLength="178.0557" x="58.8423" y="49.292">LogicalOpTable.main()</text><text fill="#000000" font-family="sans-serif" font-size="14" font-weight="bold" lengthAdjust="spacing" textLength="60.3818" x="241.772" y="49.292">method</text><ellipse cx="175.998" cy="73.5938" fill="#222222" rx="10" ry="10" style="stroke:#222222;stroke-width:1.0;"/><polygon fill="#F1F1F1" points="126.6494,103.5938,225.3467,103.5938,235.3467,120.5781,225.3467,137.5625,126.6494,137.5625" style="stroke:#181818;stroke-width:0.5;"/><text fill="#000000" font-family="sans-serif" font-size="12" lengthAdjust="spacing" textLength="78.6973" x="136.6494" y="124.7324">boolean p, q;</text><polygon fill="#F1F1F1" points="20,157.5625,331.9961,157.5625,341.9961,174.5469,331.9961,191.5313,20,191.5313" style="stroke:#181818;stroke-width:0.5;"/><text fill="#000000" font-family="sans-serif" font-size="12" lengthAdjust="spacing" textLength="291.9961" x="30" y="178.7012">System.out.println("P\&#8203;tQ\&#8203;tAND\&#8203;tOR\&#8203;tXOR\&#8203;tNOT");</text><rect fill="#F1F1F1" height="33.9688" style="stroke:#181818;stroke-width:0.5;" width="73.9707" x="139.0127" y="211.5313"/><text fill="#000000" font-family="sans-serif" font-size="12" lengthAdjust="spacing" textLength="53.9707" x="149.0127" y="232.6699">p = true;</text><rect fill="#F1F1F1" height="33.9688" style="stroke:#181818;stroke-width:0.5;" width="73.9707" x="139.0127" y="265.5"/><text fill="#000000" font-family="sans-serif" font-size="12" lengthAdjust="spacing" textLength="53.9707" x="149.0127" y="286.6387">q = true;</text><polygon fill="#F1F1F1" points="55.2529,319.4688,296.7432,319.4688,306.7432,336.4531,296.7432,353.4375,55.2529,353.4375" style="stroke:#181818;stroke-width:0.5;"/><text fill="#000000" font-family="sans-serif" font-size="12" lengthAdjust="spacing" textLength="221.4902" x="65.2529" y="340.6074">System.out.print(p + "\&#8203;t" + q + "\&#8203;t");</text><polygon fill="#F1F1F1" points="23.9434,373.4375,328.0527,373.4375,338.0527,390.4219,328.0527,407.4063,23.9434,407.4063" style="stroke:#181818;stroke-width:0.5;"/><text fill="#000000" font-family="sans-serif" font-size="12" lengthAdjust="spacing" textLength="284.1094" x="33.9434" y="394.5762">System.out.print((p &amp; q) + "\&#8203;t" + (p | q) + "\&#8203;t");</text><polygon fill="#F1F1F1" points="44.0996,427.4063,307.8965,427.4063,317.8965,444.3906,307.8965,461.375,44.0996,461.375" style="stroke:#181818;stroke-width:0.5;"/><text fill="#000000" font-family="sans-serif" font-size="12" lengthAdjust="spacing" textLength="243.7969" x="54.0996" y="448.5449">System.out.println((p ^ q) + "\&#8203;t" + (!p));</text><rect fill="#F1F1F1" height="33.9688" style="stroke:#181818;stroke-width:0.5;" width="73.9707" x="139.0127" y="481.375"/><text fill="#000000" font-family="sans-serif" font-size="12" lengthAdjust="spacing" textLength="53.9707" x="149.0127" y="502.5137">p = true;</text><rect fill="#F1F1F1" height="33.9688" style="stroke:#181818;stroke-width:0.5;" width="77.8906" x="137.0527" y="535.3438"/><text fill="#000000" font-family="sans-serif" font-size="12" lengthAdjust="spacing" textLength="57.8906" x="147.0527" y="556.4824">q = false;</text><polygon fill="#F1F1F1" points="55.2529,589.3125,296.7432,589.3125,306.7432,606.2969,296.7432,623.2813,55.2529,623.2813" style="stroke:#181818;stroke-width:0.5;"/><text fill="#000000" font-family="sans-serif" font-size="12" lengthAdjust="spacing" textLength="221.4902" x="65.2529" y="610.4512">System.out.print(p + "\&#8203;t" + q + "\&#8203;t");</text><polygon fill="#F1F1F1" points="23.9434,643.2813,328.0527,643.2813,338.0527,660.2656,328.0527,677.25,23.9434,677.25" style="stroke:#181818;stroke-width:0.5;"/><text fill="#000000" font-family="sans-serif" font-size="12" lengthAdjust="spacing" textLength="284.1094" x="33.9434" y="664.4199">System.out.print((p &amp; q) + "\&#8203;t" + (p | q) + "\&#8203;t");</text><polygon fill="#F1F1F1" points="44.0996,697.25,307.8965,697.25,317.8965,714.2344,307.8965,731.2188,44.0996,731.2188" style="stroke:#181818;stroke-width:0.5;"/><text fill="#000000" font-family="sans-serif" font-size="12" lengthAdjust="spacing" textLength="243.7969" x="54.0996" y="718.3887">System.out.println((p ^ q) + "\&#8203;t" + (!p));</text><rect fill="#F1F1F1" height="33.9688" style="stroke:#181818;stroke-width:0.5;" width="77.8906" x="137.0527" y="751.2188"/><text fill="#000000" font-family="sans-serif" font-size="12" lengthAdjust="spacing" textLength="57.8906" x="147.0527" y="772.3574">p = false;</text><rect fill="#F1F1F1" height="33.9688" style="stroke:#181818;stroke-width:0.5;" width="73.9707" x="139.0127" y="805.1875"/><text fill="#000000" font-family="sans-serif" font-size="12" lengthAdjust="spacing" textLength="53.9707" x="149.0127" y="826.3262">q = true;</text><polygon fill="#F1F1F1" points="55.2529,859.1563,296.7432,859.1563,306.7432,876.1406,296.7432,893.125,55.2529,893.125" style="stroke:#181818;stroke-width:0.5;"/><text fill="#000000" font-family="sans-serif" font-size="12" lengthAdjust="spacing" textLength="221.4902" x="65.2529" y="880.2949">System.out.print(p + "\&#8203;t" + q + "\&#8203;t");</text><polygon fill="#F1F1F1" points="23.9434,913.125,328.0527,913.125,338.0527,930.1094,328.0527,947.0938,23.9434,947.0938" style="stroke:#181818;stroke-width:0.5;"/><text fill="#000000" font-family="sans-serif" font-size="12" lengthAdjust="spacing" textLength="284.1094" x="33.9434" y="934.2637">System.out.print((p &amp; q) + "\&#8203;t" + (p | q) + "\&#8203;t");</text><polygon fill="#F1F1F1" points="44.0996,967.0938,307.8965,967.0938,317.8965,984.0781,307.8965,1001.0625,44.0996,1001.0625" style="stroke:#181818;stroke-width:0.5;"/><text fill="#000000" font-family="sans-serif" font-size="12" lengthAdjust="spacing" textLength="243.7969" x="54.0996" y="988.2324">System.out.println((p ^ q) + "\&#8203;t" + (!p));</text><rect fill="#F1F1F1" height="33.9688" style="stroke:#181818;stroke-width:0.5;" width="77.8906" x="137.0527" y="1021.0625"/><text fill="#000000" font-family="sans-serif" font-size="12" lengthAdjust="spacing" textLength="57.8906" x="147.0527" y="1042.2012">p = false;</text><rect fill="#F1F1F1" height="33.9688" style="stroke:#181818;stroke-width:0.5;" width="77.8906" x="137.0527" y="1075.0313"/><text fill="#000000" font-family="sans-serif" font-size="12" lengthAdjust="spacing" textLength="57.8906" x="147.0527" y="1096.1699">q = false;</text><polygon fill="#F1F1F1" points="55.2529,1129,296.7432,1129,306.7432,1145.9844,296.7432,1162.9688,55.2529,1162.9688" style="stroke:#181818;stroke-width:0.5;"/><text fill="#000000" font-family="sans-serif" font-size="12" lengthAdjust="spacing" textLength="221.4902" x="65.2529" y="1150.1387">System.out.print(p + "\&#8203;t" + q + "\&#8203;t");</text><polygon fill="#F1F1F1" points="23.9434,1182.9688,328.0527,1182.9688,338.0527,1199.9531,328.0527,1216.9375,23.9434,1216.9375" style="stroke:#181818;stroke-width:0.5;"/><text fill="#000000" font-family="sans-serif" font-size="12" lengthAdjust="spacing" textLength="284.1094" x="33.9434" y="1204.1074">System.out.print((p &amp; q) + "\&#8203;t" + (p | q) + "\&#8203;t");</text><polygon fill="#F1F1F1" points="44.0996,1236.9375,307.8965,1236.9375,317.8965,1253.9219,307.8965,1270.9063,44.0996,1270.9063" style="stroke:#181818;stroke-width:0.5;"/><text fill="#000000" font-family="sans-serif" font-size="12" lengthAdjust="spacing" textLength="243.7969" x="54.0996" y="1258.0762">System.out.println((p ^ q) + "\&#8203;t" + (!p));</text><ellipse cx="175.998" cy="1301.9063" fill="none" rx="11" ry="11" style="stroke:#222222;stroke-width:1.0;"/><ellipse cx="175.998" cy="1301.9063" fill="#222222" rx="6" ry="6" style="stroke:#222222;stroke-width:1.0;"/><line style="stroke:#181818;stroke-width:1.0;" x1="175.998" x2="175.998" y1="83.5938" y2="103.5938"/><polygon fill="#181818" points="171.998,93.5938,175.998,103.5938,179.998,93.5938,175.998,97.5938" style="stroke:#181818;stroke-width:1.0;"/><line style="stroke:#181818;stroke-width:1.0;" x1="175.998" x2="175.998" y1="137.5625" y2="157.5625"/><polygon fill="#181818" points="171.998,147.5625,175.998,157.5625,179.998,147.5625,175.998,151.5625" style="stroke:#181818;stroke-width:1.0;"/><line style="stroke:#181818;stroke-width:1.0;" x1="175.998" x2="175.998" y1="191.5313" y2="211.5313"/><polygon fill="#181818" points="171.998,201.5313,175.998,211.5313,179.998,201.5313,175.998,205.5313" style="stroke:#181818;stroke-width:1.0;"/><line style="stroke:#181818;stroke-width:1.0;" x1="175.998" x2="175.998" y1="245.5" y2="265.5"/><polygon fill="#181818" points="171.998,255.5,175.998,265.5,179.998,255.5,175.998,259.5" style="stroke:#181818;stroke-width:1.0;"/><line style="stroke:#181818;stroke-width:1.0;" x1="175.998" x2="175.998" y1="299.4688" y2="319.4688"/><polygon fill="#181818" points="171.998,309.4688,175.998,319.4688,179.998,309.4688,175.998,313.4688" style="stroke:#181818;stroke-width:1.0;"/><line style="stroke:#181818;stroke-width:1.0;" x1="175.998" x2="175.998" y1="353.4375" y2="373.4375"/><polygon fill="#181818" points="171.998,363.4375,175.998,373.4375,179.998,363.4375,175.998,367.4375" style="stroke:#181818;stroke-width:1.0;"/><line style="stroke:#181818;stroke-width:1.0;" x1="175.998" x2="175.998" y1="407.4063" y2="427.4063"/><polygon fill="#181818" points="171.998,417.4063,175.998,427.4063,179.998,417.4063,175.998,421.4063" style="stroke:#181818;stroke-width:1.0;"/><line style="stroke:#181818;stroke-width:1.0;" x1="175.998" x2="175.998" y1="461.375" y2="481.375"/><polygon fill="#181818" points="171.998,471.375,175.998,481.375,179.998,471.375,175.998,475.375" style="stroke:#181818;stroke-width:1.0;"/><line style="stroke:#181818;stroke-width:1.0;" x1="175.998" x2="175.998" y1="515.3438" y2="535.3438"/><polygon fill="#181818" points="171.998,525.3438,175.998,535.3438,179.998,525.3438,175.998,529.3438" style="stroke:#181818;stroke-width:1.0;"/><line style="stroke:#181818;stroke-width:1.0;" x1="175.998" x2="175.998" y1="569.3125" y2="589.3125"/><polygon fill="#181818" points="171.998,579.3125,175.998,589.3125,179.998,579.3125,175.998,583.3125" style="stroke:#181818;stroke-width:1.0;"/><line style="stroke:#181818;stroke-width:1.0;" x1="175.998" x2="175.998" y1="623.2813" y2="643.2813"/><polygon fill="#181818" points="171.998,633.2813,175.998,643.2813,179.998,633.2813,175.998,637.2813" style="stroke:#181818;stroke-width:1.0;"/><line style="stroke:#181818;stroke-width:1.0;" x1="175.998" x2="175.998" y1="677.25" y2="697.25"/><polygon fill="#181818" points="171.998,687.25,175.998,697.25,179.998,687.25,175.998,691.25" style="stroke:#181818;stroke-width:1.0;"/><line style="stroke:#181818;stroke-width:1.0;" x1="175.998" x2="175.998" y1="731.2188" y2="751.2188"/><polygon fill="#181818" points="171.998,741.2188,175.998,751.2188,179.998,741.2188,175.998,745.2188" style="stroke:#181818;stroke-width:1.0;"/><line style="stroke:#181818;stroke-width:1.0;" x1="175.998" x2="175.998" y1="785.1875" y2="805.1875"/><polygon fill="#181818" points="171.998,795.1875,175.998,805.1875,179.998,795.1875,175.998,799.1875" style="stroke:#181818;stroke-width:1.0;"/><line style="stroke:#181818;stroke-width:1.0;" x1="175.998" x2="175.998" y1="839.1563" y2="859.1563"/><polygon fill="#181818" points="171.998,849.1563,175.998,859.1563,179.998,849.1563,175.998,853.1563" style="stroke:#181818;stroke-width:1.0;"/><line style="stroke:#181818;stroke-width:1.0;" x1="175.998" x2="175.998" y1="893.125" y2="913.125"/><polygon fill="#181818" points="171.998,903.125,175.998,913.125,179.998,903.125,175.998,907.125" style="stroke:#181818;stroke-width:1.0;"/><line style="stroke:#181818;stroke-width:1.0;" x1="175.998" x2="175.998" y1="947.0938" y2="967.0938"/><polygon fill="#181818" points="171.998,957.0938,175.998,967.0938,179.998,957.0938,175.998,961.0938" style="stroke:#181818;stroke-width:1.0;"/><line style="stroke:#181818;stroke-width:1.0;" x1="175.998" x2="175.998" y1="1001.0625" y2="1021.0625"/><polygon fill="#181818" points="171.998,1011.0625,175.998,1021.0625,179.998,1011.0625,175.998,1015.0625" style="stroke:#181818;stroke-width:1.0;"/><line style="stroke:#181818;stroke-width:1.0;" x1="175.998" x2="175.998" y1="1055.0313" y2="1075.0313"/><polygon fill="#181818" points="171.998,1065.0313,175.998,1075.0313,179.998,1065.0313,175.998,1069.0313" style="stroke:#181818;stroke-width:1.0;"/><line style="stroke:#181818;stroke-width:1.0;" x1="175.998" x2="175.998" y1="1109" y2="1129"/><polygon fill="#181818" points="171.998,1119,175.998,1129,179.998,1119,175.998,1123" style="stroke:#181818;stroke-width:1.0;"/><line style="stroke:#181818;stroke-width:1.0;" x1="175.998" x2="175.998" y1="1162.9688" y2="1182.9688"/><polygon fill="#181818" points="171.998,1172.9688,175.998,1182.9688,179.998,1172.9688,175.998,1176.9688" style="stroke:#181818;stroke-width:1.0;"/><line style="stroke:#181818;stroke-width:1.0;" x1="175.998" x2="175.998" y1="1216.9375" y2="1236.9375"/><polygon fill="#181818" points="171.998,1226.9375,175.998,1236.9375,179.998,1226.9375,175.998,1230.9375" style="stroke:#181818;stroke-width:1.0;"/><line style="stroke:#181818;stroke-width:1.0;" x1="175.998" x2="175.998" y1="1270.9063" y2="1290.9063"/><polygon fill="#181818" points="171.998,1280.9063,175.998,1290.9063,179.998,1280.9063,175.998,1284.9063" style="stroke:#181818;stroke-width:1.0;"/><!--SRC=[vP9VIyCm5CNV-ock5QHbqis9BriMcFWegtyc-324j4jdCCrDcrjXu8StxgNI5lIzR_UUa_nkJX9If2MiSrAVYewmL-9GYnAmW9rX1He28qgvAj6WioANdEMeiORpcwlhUIRvFHvKBdHgjoBJCYc5Cb7CfgT5d4r_21nAIU-u3m97egOWM6I8MWe3zXAgvH8OmuPiGvnxx_deI9Q9Ln9RAqFQHE73ZhrCvhFPBQV7jbnlxjecVMhhrz_D9js6SNU8XHLGtSYJJi9zU7LH3OdTuqGM9X2s-D2tLKVgZEipFEG2ghXFyiPNt_YBvw_8RtmR9fxP-F_n2w7TIFBteuxh_OVpZ-C3E4Bx3G00]--></g></svg>