<svg xmlns="http://www.w3.org/2000/svg" xmlns:xlink="http://www.w3.org/1999/xlink" contentStyleType="text/css" height="596px" preserveAspectRatio="none" style="width:327px;height:596px;background:#FFFFFF;" version="1.1" viewBox="0 0 327 596" width="327px" zoomAndPan="magnify"><title>Activity diagram of </title><defs/><g><text fill="#000000" font-family="sans-serif" font-size="14" font-weight="bold" lengthAdjust="spacing" textLength="151.0537" x="84.1533" y="32.9951">Activity diagram of</text><text fill="#5132BE" font-family="name=monospace" font-size="14" font-weight="bold" lengthAdjust="spacing" textLength="135.8096" x="61.5845" y="49.292">ModDemo.main()</text><text fill="#000000" font-family="sans-serif" font-size="14" font-weight="bold" lengthAdjust="spacing" textLength="60.3818" x="202.2681" y="49.292">method</text><ellipse cx="157.6172" cy="73.5938" fill="#222222" rx="10" ry="10" style="stroke:#222222;stroke-width:1.0;"/><rect fill="#F1F1F1" height="33.9688" rx="12.5" ry="12.5" style="stroke:#181818;stroke-width:0.5;" width="116.0176" x="99.6084" y="103.5938"/><text fill="#000000" font-family="sans-serif" font-size="12" lengthAdjust="spacing" textLength="96.0176" x="109.6084" y="124.7324">int iresult, irem;</text><rect fill="#F1F1F1" height="33.9688" rx="12.5" ry="12.5" style="stroke:#181818;stroke-width:0.5;" width="149.8379" x="82.6982" y="157.5625"/><text fill="#000000" font-family="sans-serif" font-size="12" lengthAdjust="spacing" textLength="129.8379" x="92.6982" y="178.7012">double dresult, drem;</text><rect fill="#F1F1F1" height="33.9688" style="stroke:#181818;stroke-width:0.5;" width="113.8496" x="100.6924" y="211.5313"/><text fill="#000000" font-family="sans-serif" font-size="12" lengthAdjust="spacing" textLength="93.8496" x="110.6924" y="232.6699">iresult = 10 / 3;</text><rect fill="#F1F1F1" height="33.9688" style="stroke:#181818;stroke-width:0.5;" width="111.002" x="102.1162" y="265.5"/><text fill="#000000" font-family="sans-serif" font-size="12" lengthAdjust="spacing" textLength="91.002" x="112.1162" y="286.6387">irem = 10 % 3;</text><rect fill="#F1F1F1" height="33.9688" style="stroke:#181818;stroke-width:0.5;" width="141.0313" x="87.1016" y="319.4688"/><text fill="#000000" font-family="sans-serif" font-size="12" lengthAdjust="spacing" textLength="121.0313" x="97.1016" y="340.6074">dresult = 10.0 / 3.0;</text><rect fill="#F1F1F1" height="33.9688" style="stroke:#181818;stroke-width:0.5;" width="138.1836" x="88.5254" y="373.4375"/><text fill="#000000" font-family="sans-serif" font-size="12" lengthAdjust="spacing" textLength="118.1836" x="98.5254" y="394.5762">drem = 10.0 % 3.0;</text><polygon fill="#F1F1F1" points="20,427.4063,295.2344,427.4063,305.2344,451.375,295.2344,475.3438,20,475.3438" style="stroke:#181818;stroke-width:0.5;"/><text fill="#000000" font-family="sans-serif" font-size="12" lengthAdjust="spacing" textLength="251.4199" x="30" y="448.5449">System.out.println("Result and remainder</text><text fill="#000000" font-family="sans-serif" font-size="12" lengthAdjust="spacing" textLength="208.6641" x="30" y="462.5137">of 10 / 3 : " + iresult + " " + irem);</text><polygon fill="#F1F1F1" points="20,495.3438,295.2344,495.3438,305.2344,519.3125,295.2344,543.2813,20,543.2813" style="stroke:#181818;stroke-width:0.5;"/><text fill="#000000" font-family="sans-serif" font-size="12" lengthAdjust="spacing" textLength="251.4199" x="30" y="516.4824">System.out.println("Result and remainder</text><text fill="#000000" font-family="sans-serif" font-size="12" lengthAdjust="spacing" textLength="240.1289" x="30" y="530.4512">of 10.0 / 3.0 : " + dresult + " " + drem);</text><ellipse cx="157.6172" cy="574.2813" fill="none" rx="11" ry="11" style="stroke:#222222;stroke-width:1.0;"/><ellipse cx="157.6172" cy="574.2813" fill="#222222" rx="6" ry="6" style="stroke:#222222;stroke-width:1.0;"/><line style="stroke:#181818;stroke-width:1.0;" x1="157.6172" x2="157.6172" y1="83.5938" y2="103.5938"/><polygon fill="#181818" points="153.6172,93.5938,157.6172,103.5938,161.6172,93.5938,157.6172,97.5938" style="stroke:#181818;stroke-width:1.0;"/><line style="stroke:#181818;stroke-width:1.0;" x1="157.6172" x2="157.6172" y1="137.5625" y2="157.5625"/><polygon fill="#181818" points="153.6172,147.5625,157.6172,157.5625,161.6172,147.5625,157.6172,151.5625" style="stroke:#181818;stroke-width:1.0;"/><line style="stroke:#181818;stroke-width:1.0;" x1="157.6172" x2="157.6172" y1="191.5313" y2="211.5313"/><polygon fill="#181818" points="153.6172,201.5313,157.6172,211.5313,161.6172,201.5313,157.6172,205.5313" style="stroke:#181818;stroke-width:1.0;"/><line style="stroke:#181818;stroke-width:1.0;" x1="157.6172" x2="157.6172" y1="245.5" y2="265.5"/><polygon fill="#181818" points="153.6172,255.5,157.6172,265.5,161.6172,255.5,157.6172,259.5" style="stroke:#181818;stroke-width:1.0;"/><line style="stroke:#181818;stroke-width:1.0;" x1="157.6172" x2="157.6172" y1="299.4688" y2="319.4688"/><polygon fill="#181818" points="153.6172,309.4688,157.6172,319.4688,161.6172,309.4688,157.6172,313.4688" style="stroke:#181818;stroke-width:1.0;"/><line style="stroke:#181818;stroke-width:1.0;" x1="157.6172" x2="157.6172" y1="353.4375" y2="373.4375"/><polygon fill="#181818" points="153.6172,363.4375,157.6172,373.4375,161.6172,363.4375,157.6172,367.4375" style="stroke:#181818;stroke-width:1.0;"/><line style="stroke:#181818;stroke-width:1.0;" x1="157.6172" x2="157.6172" y1="407.4063" y2="427.4063"/><polygon fill="#181818" points="153.6172,417.4063,157.6172,427.4063,161.6172,417.4063,157.6172,421.4063" style="stroke:#181818;stroke-width:1.0;"/><line style="stroke:#181818;stroke-width:1.0;" x1="157.6172" x2="157.6172" y1="475.3438" y2="495.3438"/><polygon fill="#181818" points="153.6172,485.3438,157.6172,495.3438,161.6172,485.3438,157.6172,489.3438" style="stroke:#181818;stroke-width:1.0;"/><line style="stroke:#181818;stroke-width:1.0;" x1="157.6172" x2="157.6172" y1="543.2813" y2="563.2813"/><polygon fill="#181818" points="153.6172,553.2813,157.6172,563.2813,161.6172,553.2813,157.6172,557.2813" style="stroke:#181818;stroke-width:1.0;"/><!--SRC=[bL5DJyCm3BttLrX3apQ1sdt0fSqgyI5ES65NBccJZMX9NAKfKq7yTzns7LjtmeSeyNj-VdPOwMijqm0exdElFfMluRjzDl6Crg_LbuJvufWJYXkqueJLn8koyX4rEgYbrhW_0nzuljiwhApeA5dbTBr756UilsQtb_d69cIe_qf-WkvaqM46hpnnZbEGpwtZ1d03xvPjI0GiDt95vh4iU2vJbhTkhkxcoqKcqrSKJz9WQBYoaocBMZHbKLEQWf7-Wmm7fUVE1q6iI4yvMLRQtpGNaoH1BB3Ao8FeywBB4xlBm0hcCuXWcIJ0cEVbBarRq7J8U828axAmBGndGuBfqV4G3U9rNNffGgnyM3XohErazDP9Slf2AgPPXNIq8LfJPmrY6C5rFnlTHltRJ5jrKYigttJ_htm_mg656BGGboretLZy0W00]--></g></svg>