<svg xmlns="http://www.w3.org/2000/svg" xmlns:xlink="http://www.w3.org/1999/xlink" contentStyleType="text/css" height="707px" preserveAspectRatio="none" style="width:544px;height:707px;background:#FFFFFF;" version="1.1" viewBox="0 0 544 707" width="544px" zoomAndPan="magnify"><title>Activity diagram of </title><defs/><g><text fill="#000000" font-family="sans-serif" font-size="14" font-weight="bold" lengthAdjust="spacing" textLength="151.0537" x="192.9927" y="32.9951">Activity diagram of</text><text fill="#5132BE" font-family="name=monospace" font-size="14" font-weight="bold" lengthAdjust="spacing" textLength="120.3398" x="178.1587" y="49.292">NestVar.main()</text><text fill="#000000" font-family="sans-serif" font-size="14" font-weight="bold" lengthAdjust="spacing" textLength="60.3818" x="303.3726" y="49.292">method</text><ellipse cx="184.2988" cy="73.5938" fill="#222222" rx="10" ry="10" style="stroke:#222222;stroke-width:1.0;"/><rect fill="#F1F1F1" height="33.9688" rx="12.5" ry="12.5" style="stroke:#181818;stroke-width:0.5;" width="77.3574" x="145.6201" y="103.5938"/><text fill="#000000" font-family="sans-serif" font-size="12" lengthAdjust="spacing" textLength="57.3574" x="155.6201" y="124.7324">int count;</text><rect fill="#9BD68D" height="507.2451" style="stroke:#000000;stroke-width:1.5;" width="522.9131" x="11" y="147.5625"/><path d="M74.6074,147.5625 L74.6074,156.8594 L64.6074,166.8594 L11,166.8594 " fill="none" style="stroke:#000000;stroke-width:1.5;"/><text fill="#000000" font-family="sans-serif" font-size="14" lengthAdjust="spacing" textLength="53.6074" x="14" y="161.5576">for loop</text><rect fill="#F1F1F1" height="33.9688" style="stroke:#181818;stroke-width:0.5;" width="83.2168" x="142.6904" y="183.8594"/><text fill="#000000" font-family="sans-serif" font-size="12" lengthAdjust="spacing" textLength="63.2168" x="152.6904" y="204.998">count = 0;</text><polygon fill="#F1F1F1" points="39,293.5386,329.5977,293.5386,339.5977,310.5229,329.5977,327.5073,39,327.5073" style="stroke:#181818;stroke-width:0.5;"/><text fill="#000000" font-family="sans-serif" font-size="12" lengthAdjust="spacing" textLength="270.5977" x="49" y="314.6772">System.out.println("This is count: " + count);</text><path d="M50.3223,351.9253 L50.3223,377.0581 A0,0 0 0 0 50.3223,377.0581 L125.6201,377.0581 A0,0 0 0 0 125.6201,377.0581 L125.6201,369.9253 L145.6201,364.4917 L125.6201,361.9253 L125.6201,361.9253 L115.6201,351.9253 L50.3223,351.9253 A0,0 0 0 0 50.3223,351.9253 " fill="#FEFFDD" style="stroke:#181818;stroke-width:0.5;"/><path d="M115.6201,351.9253 L115.6201,361.9253 L125.6201,361.9253 L115.6201,351.9253 " fill="#FEFFDD" style="stroke:#181818;stroke-width:0.5;"/><text fill="#000000" font-family="sans-serif" font-size="13" lengthAdjust="spacing" textLength="54.2979" x="56.3223" y="368.9922">illegal!!!</text><rect fill="#F1F1F1" height="33.9688" rx="12.5" ry="12.5" style="stroke:#181818;stroke-width:0.5;" width="77.3574" x="145.6201" y="347.5073"/><text fill="#000000" font-family="sans-serif" font-size="12" lengthAdjust="spacing" textLength="57.3574" x="155.6201" y="368.646">int count;</text><rect fill="#8CD06D" height="229.3315" style="stroke:#000000;stroke-width:1.5;" width="313.709" x="65.4482" y="391.4761"/><path d="M129.0557,391.4761 L129.0557,400.7729 L119.0557,410.7729 L65.4482,410.7729 " fill="none" style="stroke:#000000;stroke-width:1.5;"/><text fill="#000000" font-family="sans-serif" font-size="14" lengthAdjust="spacing" textLength="53.6074" x="68.4482" y="405.4712">for loop</text><rect fill="#F1F1F1" height="33.9688" style="stroke:#181818;stroke-width:0.5;" width="83.2168" x="142.6904" y="427.7729"/><text fill="#000000" font-family="sans-serif" font-size="12" lengthAdjust="spacing" textLength="63.2168" x="152.6904" y="448.9116">count = 0;</text><polygon fill="#F1F1F1" points="99.4482,538.8701,269.1494,538.8701,279.1494,562.8389,269.1494,586.8076,99.4482,586.8076" style="stroke:#181818;stroke-width:0.5;"/><text fill="#000000" font-family="sans-serif" font-size="12" lengthAdjust="spacing" textLength="145.8867" x="109.4482" y="560.0088">System.out.println("This</text><text fill="#000000" font-family="sans-serif" font-size="12" lengthAdjust="spacing" textLength="132.0352" x="109.4482" y="573.9775">program is in error!");</text><polygon fill="#DEB887" points="146.4175,481.7417,222.1802,481.7417,234.1802,493.7417,222.1802,505.7417,146.4175,505.7417,134.4175,493.7417,146.4175,481.7417" style="stroke:#FFFF00;stroke-width:0.5;"/><text fill="#008000" font-family="sans-serif" font-size="11" lengthAdjust="spacing" textLength="22.5747" x="188.2988" y="515.9521">true</text><text fill="#000000" font-family="sans-serif" font-size="14" font-weight="bold" lengthAdjust="spacing" textLength="75.7627" x="146.4175" y="498.5884">count &lt; 2</text><text fill="#FF0000" font-family="sans-serif" font-size="11" lengthAdjust="spacing" textLength="26.168" x="108.2495" y="491.1475">false</text><rect fill="#F1F1F1" height="33.9688" style="stroke:#181818;stroke-width:0.5;" width="78.0078" x="291.1494" y="527.4521"/><text fill="#000000" font-family="sans-serif" font-size="12" lengthAdjust="spacing" textLength="58.0078" x="301.1494" y="548.5908">count++;</text><polygon fill="#DEB887" points="141.5469,237.8281,227.0508,237.8281,239.0508,249.8281,227.0508,261.8281,141.5469,261.8281,129.5469,249.8281,141.5469,237.8281" style="stroke:#FFFF00;stroke-width:0.5;"/><text fill="#008000" font-family="sans-serif" font-size="11" lengthAdjust="spacing" textLength="22.5747" x="188.2988" y="272.0386">true</text><text fill="#000000" font-family="sans-serif" font-size="14" font-weight="bold" lengthAdjust="spacing" textLength="85.5039" x="141.5469" y="254.6748">count &lt; 10</text><text fill="#FF0000" font-family="sans-serif" font-size="11" lengthAdjust="spacing" textLength="26.168" x="103.3789" y="247.2339">false</text><rect fill="#F1F1F1" height="33.9688" style="stroke:#181818;stroke-width:0.5;" width="134.7559" x="389.1572" y="416.1245"/><text fill="#000000" font-family="sans-serif" font-size="12" lengthAdjust="spacing" textLength="114.7559" x="399.1572" y="437.2632">count = count + 1;</text><ellipse cx="184.2988" cy="685.8076" fill="none" rx="11" ry="11" style="stroke:#222222;stroke-width:1.0;"/><ellipse cx="184.2988" cy="685.8076" fill="#222222" rx="6" ry="6" style="stroke:#222222;stroke-width:1.0;"/><line style="stroke:#181818;stroke-width:1.0;" x1="184.2988" x2="184.2988" y1="83.5938" y2="103.5938"/><polygon fill="#181818" points="180.2988,93.5938,184.2988,103.5938,188.2988,93.5938,184.2988,97.5938" style="stroke:#181818;stroke-width:1.0;"/><line style="stroke:#181818;stroke-width:1.0;" x1="184.2988" x2="184.2988" y1="327.5073" y2="347.5073"/><polygon fill="#181818" points="180.2988,337.5073,184.2988,347.5073,188.2988,337.5073,184.2988,341.5073" style="stroke:#181818;stroke-width:1.0;"/><line style="stroke:#181818;stroke-width:1.0;" x1="184.2988" x2="184.2988" y1="505.7417" y2="538.8701"/><polygon fill="#181818" points="180.2988,528.8701,184.2988,538.8701,188.2988,528.8701,184.2988,532.8701" style="stroke:#181818;stroke-width:1.0;"/><line style="stroke:#181818;stroke-width:1.0;" x1="184.2988" x2="184.2988" y1="586.8076" y2="596.8076"/><line style="stroke:#181818;stroke-width:1.0;" x1="184.2988" x2="330.1533" y1="596.8076" y2="596.8076"/><line style="stroke:#181818;stroke-width:1.0;" x1="330.1533" x2="330.1533" y1="561.4209" y2="596.8076"/><polygon fill="#181818" points="326.1533,571.4209,330.1533,561.4209,334.1533,571.4209,330.1533,567.4209" style="stroke:#181818;stroke-width:1.0;"/><line style="stroke:#181818;stroke-width:1.0;" x1="330.1533" x2="330.1533" y1="493.7417" y2="527.4521"/><line style="stroke:#181818;stroke-width:1.0;" x1="330.1533" x2="234.1802" y1="493.7417" y2="493.7417"/><polygon fill="#181818" points="244.1802,489.7417,234.1802,493.7417,244.1802,497.7417,240.1802,493.7417" style="stroke:#181818;stroke-width:1.0;"/><line style="stroke:#181818;stroke-width:1.0;" x1="134.4175" x2="87.4482" y1="493.7417" y2="493.7417"/><polygon fill="#181818" points="83.4482,556.4365,87.4482,566.4365,91.4482,556.4365,87.4482,560.4365" style="stroke:#181818;stroke-width:1.0;"/><line style="stroke:#181818;stroke-width:1.0;" x1="87.4482" x2="87.4482" y1="493.7417" y2="630.8076"/><line style="stroke:#181818;stroke-width:1.0;" x1="87.4482" x2="456.5352" y1="630.8076" y2="630.8076"/><line style="stroke:#181818;stroke-width:1.0;" x1="456.5352" x2="456.5352" y1="450.0933" y2="630.8076"/><polygon fill="#181818" points="452.5352,460.0933,456.5352,450.0933,460.5352,460.0933,456.5352,456.0933" style="stroke:#181818;stroke-width:1.0;"/><line style="stroke:#181818;stroke-width:1.0;" x1="184.2988" x2="184.2988" y1="461.7417" y2="481.7417"/><polygon fill="#181818" points="180.2988,471.7417,184.2988,481.7417,188.2988,471.7417,184.2988,475.7417" style="stroke:#181818;stroke-width:1.0;"/><line style="stroke:#181818;stroke-width:1.0;" x1="184.2988" x2="184.2988" y1="381.4761" y2="427.7729"/><polygon fill="#181818" points="180.2988,417.7729,184.2988,427.7729,188.2988,417.7729,184.2988,421.7729" style="stroke:#181818;stroke-width:1.0;"/><line style="stroke:#181818;stroke-width:1.0;" x1="184.2988" x2="184.2988" y1="261.8281" y2="293.5386"/><polygon fill="#181818" points="180.2988,283.5386,184.2988,293.5386,188.2988,283.5386,184.2988,287.5386" style="stroke:#181818;stroke-width:1.0;"/><line style="stroke:#181818;stroke-width:1.0;" x1="456.5352" x2="456.5352" y1="249.8281" y2="416.1245"/><line style="stroke:#181818;stroke-width:1.0;" x1="456.5352" x2="239.0508" y1="249.8281" y2="249.8281"/><polygon fill="#181818" points="249.0508,245.8281,239.0508,249.8281,249.0508,253.8281,245.0508,249.8281" style="stroke:#181818;stroke-width:1.0;"/><line style="stroke:#181818;stroke-width:1.0;" x1="129.5469" x2="27" y1="249.8281" y2="249.8281"/><polygon fill="#181818" points="23,429.1089,27,439.1089,31,429.1089,27,433.1089" style="stroke:#181818;stroke-width:1.0;"/><line style="stroke:#181818;stroke-width:1.0;" x1="27" x2="27" y1="249.8281" y2="642.8076"/><line style="stroke:#181818;stroke-width:1.0;" x1="27" x2="184.2988" y1="642.8076" y2="642.8076"/><line style="stroke:#181818;stroke-width:1.0;" x1="184.2988" x2="184.2988" y1="642.8076" y2="674.8076"/><polygon fill="#181818" points="180.2988,664.8076,184.2988,674.8076,188.2988,664.8076,184.2988,668.8076" style="stroke:#181818;stroke-width:1.0;"/><line style="stroke:#181818;stroke-width:1.0;" x1="184.2988" x2="184.2988" y1="217.8281" y2="237.8281"/><polygon fill="#181818" points="180.2988,227.8281,184.2988,237.8281,188.2988,227.8281,184.2988,231.8281" style="stroke:#181818;stroke-width:1.0;"/><line style="stroke:#181818;stroke-width:1.0;" x1="184.2988" x2="184.2988" y1="137.5625" y2="183.8594"/><polygon fill="#181818" points="180.2988,173.8594,184.2988,183.8594,188.2988,173.8594,184.2988,177.8594" style="stroke:#181818;stroke-width:1.0;"/><!--SRC=[XL9DR-8m4BtdLmpq0aBYQzkg6zn8kolrLFNIgYSkJZo0LSSJEPD5QSL_NyU10AtOZg9ypBnvyzx4ekJQO1A1ZryPwx-QQ_W8dqqyaELd_OumctSvfMLELfsWcdZK5l-G8GSr6aFRi-9lcRsj7LLMjP2qSgRU4gapr77OzTTy8nDICiUMNTJUnMJlWJLxJEV2wrmxcGEjO6d5ofE0bJdUU_5K5ZB3H6H1pTNDxCSynUG9ItwLRfnBRGT3CGdLH4oQrWHov8qN79Ki7KTHh3rVvYtnOX55XSzfrcJXwcUgRkyKh3on8IhsQue35EvXkbY042pBjwJT-dQZ3GxQie3PT0YwX44hBLuxH9kmgt3O-OwVwv8n7rF5uy9v6SOE-YyRt-Mlm1D37qRjwp2Cyz2Yult0m76g_f2qn0WnQ6DmBKslrukwqec_kqnDRx_uwuWl-Zp4kT_vjtQ_jxsqXQFmgviTM43doFNw5wmV8lLdSYkTQXMFHfVqebL1SYVIeKfMqfGd6dV7JPtJ-aMqpn7CFW_u7_6kEMTK_0C0]--></g></svg>