<svg xmlns="http://www.w3.org/2000/svg" xmlns:xlink="http://www.w3.org/1999/xlink" contentStyleType="text/css" height="230px" preserveAspectRatio="none" style="width:175px;height:230px;background:#FFFFFF;" version="1.1" viewBox="0 0 175 230" width="175px" zoomAndPan="magnify"><title>Class diagram of </title><defs/><g><text fill="#000000" font-family="sans-serif" font-size="14" font-weight="bold" lengthAdjust="spacing" textLength="131.8721" x="12.5144" y="22.9951">Class diagram of</text><text fill="#5132BE" font-family="name=monospace" font-size="14" font-weight="bold" lengthAdjust="spacing" textLength="86.6934" x="15.4983" y="39.292">PromDemo</text><text fill="#000000" font-family="sans-serif" font-size="14" font-weight="bold" lengthAdjust="spacing" textLength="39.2109" x="107.0657" y="39.292">class</text><!--class PromDemo--><g id="elem_PromDemo"><rect codeLine="3" fill="#F1F1F1" height="48" id="PromDemo" rx="2.5" ry="2.5" style="stroke:#181818;stroke-width:0.5;" width="109.998" x="32.5" y="60.5938"/><ellipse cx="47.5" cy="76.5938" fill="#ADD1B2" rx="11" ry="11" style="stroke:#181818;stroke-width:1.0;"/><path d="M46.9688,83.5156 Q45.2188,83.5156 44.0781,82.7813 Q42.9531,82.0313 42.3906,80.6875 Q41.8438,79.3281 41.8438,77.5313 Q41.8438,75.5 42.5,74.0469 Q43.1563,72.5938 44.4375,71.8125 Q45.7188,71.0313 47.5938,71.0313 Q48.4844,71.0313 49.1563,71.2188 Q49.8281,71.3906 50.5156,71.7344 L49.7031,73.75 Q49.0781,73.4375 48.5313,73.3125 Q48,73.1875 47.5156,73.1875 Q46.3438,73.1875 45.6406,73.7188 Q44.9375,74.25 44.6406,75.2031 Q44.3438,76.1563 44.3438,77.4219 Q44.3438,79.4375 45.0625,80.4063 Q45.7813,81.3594 47.375,81.3594 Q47.9688,81.3594 48.5938,81.2031 Q49.2188,81.0469 50.0469,80.6719 L50.0469,82.8906 Q49.3125,83.2031 48.5156,83.3594 Q47.7344,83.5156 46.9688,83.5156 Z " fill="#000000"/><text fill="#000000" font-family="sans-serif" font-size="14" lengthAdjust="spacing" textLength="77.998" x="61.5" y="81.4404">PromDemo</text><line style="stroke:#181818;stroke-width:0.5;" x1="33.5" x2="141.498" y1="92.5938" y2="92.5938"/><line style="stroke:#181818;stroke-width:0.5;" x1="33.5" x2="141.498" y1="100.5938" y2="100.5938"/></g><g id="elem_GMN3"><path d="M6,168.5938 L6,223.9922 A0,0 0 0 0 6,223.9922 L168.7749,223.9922 A0,0 0 0 0 168.7749,223.9922 L168.7749,178.5938 L158.7749,168.5938 L91.5,168.5938 L87.5,108.8138 L83.5,168.5938 L6,168.5938 A0,0 0 0 0 6,168.5938 " fill="#FEFFDD" style="stroke:#181818;stroke-width:0.5;"/><path d="M158.7749,168.5938 L158.7749,178.5938 L168.7749,178.5938 L158.7749,168.5938 " fill="#FEFFDD" style="stroke:#181818;stroke-width:0.5;"/><text fill="#000000" font-family="sans-serif" font-size="13" lengthAdjust="spacing" textLength="132.1074" x="12" y="185.6606">file: PromDemo.java</text><text fill="#000000" font-family="sans-serif" font-size="13" lengthAdjust="spacing" textLength="4.1323" x="12" y="200.7935">&#160;</text><text fill="#000000" font-family="sans-serif" font-size="13" lengthAdjust="spacing" textLength="141.7749" x="12" y="215.9263">A promotion surprise!</text></g><!--SRC=[FKqx3i8m3Drp2YDsAa0iA4H2vG0SWCLjNHIKs5LYM11tfmagR_2Jti_gDH2q0NE6mUCzOGGPuSPs55PWZ7IAmf8dxCdPNe8aM1-s-rr7xfeaNYYARQhkR5DA3leoPqmbM4BmDZ33V0oB4dIYAlNN4gZsw0CT_zBcWI_yrSevmpGRebuOyZDDoMTQ6U81okGN]--></g></svg>