<svg xmlns="http://www.w3.org/2000/svg" xmlns:xlink="http://www.w3.org/1999/xlink" contentStyleType="text/css" height="582px" preserveAspectRatio="none" style="width:397px;height:582px;background:#FFFFFF;" version="1.1" viewBox="0 0 397 582" width="397px" zoomAndPan="magnify"><title>Activity diagram of </title><defs/><g><text fill="#000000" font-family="sans-serif" font-size="14" font-weight="bold" lengthAdjust="spacing" textLength="151.0537" x="119.1194" y="32.9951">Activity diagram of</text><text fill="#5132BE" font-family="name=monospace" font-size="14" font-weight="bold" lengthAdjust="spacing" textLength="143.6094" x="92.6506" y="49.292">PromDemo.main()</text><text fill="#000000" font-family="sans-serif" font-size="14" font-weight="bold" lengthAdjust="spacing" textLength="60.3818" x="241.134" y="49.292">method</text><ellipse cx="223.4272" cy="73.5938" fill="#222222" rx="10" ry="10" style="stroke:#222222;stroke-width:1.0;"/><rect fill="#F1F1F1" height="33.9688" rx="12.5" ry="12.5" style="stroke:#181818;stroke-width:0.5;" width="62.2813" x="192.2866" y="103.5938"/><text fill="#000000" font-family="sans-serif" font-size="12" lengthAdjust="spacing" textLength="42.2813" x="202.2866" y="124.7324">byte b;</text><rect fill="#F1F1F1" height="33.9688" rx="12.5" ry="12.5" style="stroke:#181818;stroke-width:0.5;" width="46.8359" x="200.0093" y="157.5625"/><text fill="#000000" font-family="sans-serif" font-size="12" lengthAdjust="spacing" textLength="26.8359" x="210.0093" y="178.7012">int i;</text><rect fill="#F1F1F1" height="33.9688" style="stroke:#181818;stroke-width:0.5;" width="64.6133" x="191.1206" y="211.5313"/><text fill="#000000" font-family="sans-serif" font-size="12" lengthAdjust="spacing" textLength="44.6133" x="201.1206" y="232.6699">b = 10;</text><path d="M10,255.5 L10,326.0313 A0,0 0 0 0 10,326.0313 L166.4653,326.0313 A0,0 0 0 0 166.4653,326.0313 L166.4653,294.7656 L186.4653,290.7656 L166.4653,286.7656 L166.4653,265.5 L156.4653,255.5 L10,255.5 A0,0 0 0 0 10,255.5 " fill="#FEFFDD" style="stroke:#181818;stroke-width:0.5;"/><path d="M156.4653,255.5 L156.4653,265.5 L166.4653,265.5 L156.4653,255.5 " fill="#FEFFDD" style="stroke:#181818;stroke-width:0.5;"/><text fill="#000000" font-family="sans-serif" font-size="13" lengthAdjust="spacing" textLength="131.333" x="16" y="272.5669">OK, no cast needed.</text><text fill="#000000" font-family="sans-serif" font-size="13" lengthAdjust="spacing" textLength="110.7539" x="16" y="287.6997">Because result is</text><text fill="#000000" font-family="sans-serif" font-size="13" lengthAdjust="spacing" textLength="126.7627" x="16" y="302.8325">already elevated to</text><text fill="#000000" font-family="sans-serif" font-size="13" lengthAdjust="spacing" textLength="21.0806" x="16" y="317.9653">int.</text><rect fill="#F1F1F1" height="33.9688" style="stroke:#181818;stroke-width:0.5;" width="73.9238" x="186.4653" y="273.7813"/><text fill="#000000" font-family="sans-serif" font-size="12" lengthAdjust="spacing" textLength="53.9238" x="196.4653" y="294.9199">i = b * b;</text><rect fill="#F1F1F1" height="33.9688" style="stroke:#181818;stroke-width:0.5;" width="64.6133" x="191.1206" y="346.0313"/><text fill="#000000" font-family="sans-serif" font-size="12" lengthAdjust="spacing" textLength="44.6133" x="201.1206" y="367.1699">b = 10;</text><path d="M18.2173,390 L18.2173,475.6641 A0,0 0 0 0 18.2173,475.6641 L139.6499,475.6641 A0,0 0 0 0 139.6499,475.6641 L139.6499,436.832 L159.6499,432.832 L139.6499,428.832 L139.6499,400 L129.6499,390 L18.2173,390 A0,0 0 0 0 18.2173,390 " fill="#FEFFDD" style="stroke:#181818;stroke-width:0.5;"/><path d="M129.6499,390 L129.6499,400 L139.6499,400 L129.6499,390 " fill="#FEFFDD" style="stroke:#181818;stroke-width:0.5;"/><text fill="#000000" font-family="sans-serif" font-size="13" lengthAdjust="spacing" textLength="90.2764" x="24.2173" y="407.0669">cast needed!!</text><text fill="#000000" font-family="sans-serif" font-size="13" lengthAdjust="spacing" textLength="96.3003" x="24.2173" y="422.1997">Cast is needed</text><text fill="#000000" font-family="sans-serif" font-size="13" lengthAdjust="spacing" textLength="92.5107" x="24.2173" y="437.3325">here to assign</text><text fill="#000000" font-family="sans-serif" font-size="13" lengthAdjust="spacing" textLength="66.5679" x="24.2173" y="452.4653">an int to a</text><text fill="#000000" font-family="sans-serif" font-size="13" lengthAdjust="spacing" textLength="34.252" x="24.2173" y="467.5981">byte!</text><rect fill="#F1F1F1" height="33.9688" style="stroke:#181818;stroke-width:0.5;" width="127.5547" x="159.6499" y="415.8477"/><text fill="#000000" font-family="sans-serif" font-size="12" lengthAdjust="spacing" textLength="107.5547" x="169.6499" y="436.9863">b = (byte) (b * b);</text><polygon fill="#F1F1F1" points="81.688,495.6641,365.1665,495.6641,375.1665,512.6484,365.1665,529.6328,81.688,529.6328" style="stroke:#181818;stroke-width:0.5;"/><text fill="#000000" font-family="sans-serif" font-size="12" lengthAdjust="spacing" textLength="263.4785" x="91.688" y="516.8027">System.out.println("i and b: " + i + " " + b);</text><ellipse cx="223.4272" cy="560.6328" fill="none" rx="11" ry="11" style="stroke:#222222;stroke-width:1.0;"/><ellipse cx="223.4272" cy="560.6328" fill="#222222" rx="6" ry="6" style="stroke:#222222;stroke-width:1.0;"/><line style="stroke:#181818;stroke-width:1.0;" x1="223.4272" x2="223.4272" y1="83.5938" y2="103.5938"/><polygon fill="#181818" points="219.4272,93.5938,223.4272,103.5938,227.4272,93.5938,223.4272,97.5938" style="stroke:#181818;stroke-width:1.0;"/><line style="stroke:#181818;stroke-width:1.0;" x1="223.4272" x2="223.4272" y1="137.5625" y2="157.5625"/><polygon fill="#181818" points="219.4272,147.5625,223.4272,157.5625,227.4272,147.5625,223.4272,151.5625" style="stroke:#181818;stroke-width:1.0;"/><line style="stroke:#181818;stroke-width:1.0;" x1="223.4272" x2="223.4272" y1="191.5313" y2="211.5313"/><polygon fill="#181818" points="219.4272,201.5313,223.4272,211.5313,227.4272,201.5313,223.4272,205.5313" style="stroke:#181818;stroke-width:1.0;"/><line style="stroke:#181818;stroke-width:1.0;" x1="223.4272" x2="223.4272" y1="245.5" y2="273.7813"/><polygon fill="#181818" points="219.4272,263.7813,223.4272,273.7813,227.4272,263.7813,223.4272,267.7813" style="stroke:#181818;stroke-width:1.0;"/><line style="stroke:#181818;stroke-width:1.0;" x1="223.4272" x2="223.4272" y1="307.75" y2="346.0313"/><polygon fill="#181818" points="219.4272,336.0313,223.4272,346.0313,227.4272,336.0313,223.4272,340.0313" style="stroke:#181818;stroke-width:1.0;"/><line style="stroke:#181818;stroke-width:1.0;" x1="223.4272" x2="223.4272" y1="380" y2="415.8477"/><polygon fill="#181818" points="219.4272,405.8477,223.4272,415.8477,227.4272,405.8477,223.4272,409.8477" style="stroke:#181818;stroke-width:1.0;"/><line style="stroke:#181818;stroke-width:1.0;" x1="223.4272" x2="223.4272" y1="449.8164" y2="495.6641"/><polygon fill="#181818" points="219.4272,485.6641,223.4272,495.6641,227.4272,485.6641,223.4272,489.6641" style="stroke:#181818;stroke-width:1.0;"/><line style="stroke:#181818;stroke-width:1.0;" x1="223.4272" x2="223.4272" y1="529.6328" y2="549.6328"/><polygon fill="#181818" points="219.4272,539.6328,223.4272,549.6328,227.4272,539.6328,223.4272,543.6328" style="stroke:#181818;stroke-width:1.0;"/><!--SRC=[RP1DJyCm38Rl_HLkkNI0EiR4fUqgyN7Z019NBcxZRH5DN2NkfFvxd844XnsYs8y_tZSHAoF1uo3sP6K1O_4Gq07luTEtU_O27Xtj77kE4mxKjGEF7E3gOREzxwbx3-nUo77bqFforQxFvQvTfzaE7CcHJPP5mI1PLlUB4FHDazLMLriDbC4EDdTD0sqh6B-wJekAUhXEdN_KiyxMyFPw2vvXmAZUY0oPIhq-qO1p90WKvr4tHsKu1aAp08rqGY43mafLkBgicb2P7AxqIkgh2_B_TFDSrpsdNEL-a88Z1KfA6ACz-6J3GtfiGfgb_NbMVonHo5KyIpK5BO- -B2oWDz3NKC0DM3t5EVgreQtJB6f4FvEdRm00]--></g></svg>