<svg xmlns="http://www.w3.org/2000/svg" xmlns:xlink="http://www.w3.org/1999/xlink" contentStyleType="text/css" height="1924px" preserveAspectRatio="none" style="width:334px;height:1924px;background:#FFFFFF;" version="1.1" viewBox="0 0 334 1924" width="334px" zoomAndPan="magnify"><title>Activity diagram of </title><defs/><g><text fill="#000000" font-family="sans-serif" font-size="14" font-weight="bold" lengthAdjust="spacing" textLength="151.0537" x="87.8779" y="32.9951">Activity diagram of</text><text fill="#5132BE" font-family="name=monospace" font-size="14" font-weight="bold" lengthAdjust="spacing" textLength="140.8066" x="62.8105" y="49.292">RelLogOps.main()</text><text fill="#000000" font-family="sans-serif" font-size="14" font-weight="bold" lengthAdjust="spacing" textLength="60.3818" x="208.4912" y="49.292">method</text><ellipse cx="154.3418" cy="73.5938" fill="#222222" rx="10" ry="10" style="stroke:#222222;stroke-width:1.0;"/><rect fill="#F1F1F1" height="33.9688" rx="12.5" ry="12.5" style="stroke:#181818;stroke-width:0.5;" width="57.7988" x="125.4424" y="103.5938"/><text fill="#000000" font-family="sans-serif" font-size="12" lengthAdjust="spacing" textLength="37.7988" x="135.4424" y="124.7324">int i, j;</text><rect fill="#F1F1F1" height="33.9688" rx="12.5" ry="12.5" style="stroke:#181818;stroke-width:0.5;" width="113.9668" x="97.3584" y="157.5625"/><text fill="#000000" font-family="sans-serif" font-size="12" lengthAdjust="spacing" textLength="93.9668" x="107.3584" y="178.7012">boolean b1, b2;</text><rect fill="#F1F1F1" height="33.9688" style="stroke:#181818;stroke-width:0.5;" width="60.3301" x="124.1768" y="211.5313"/><text fill="#000000" font-family="sans-serif" font-size="12" lengthAdjust="spacing" textLength="40.3301" x="134.1768" y="232.6699">i = 10;</text><rect fill="#F1F1F1" height="33.9688" style="stroke:#181818;stroke-width:0.5;" width="60.3301" x="124.1768" y="265.5"/><text fill="#000000" font-family="sans-serif" font-size="12" lengthAdjust="spacing" textLength="40.3301" x="134.1768" y="286.6387">j = 11;</text><polygon fill="#F1F1F1" points="64.3613,367.8711,244.3223,367.8711,254.3223,384.8555,244.3223,401.8398,64.3613,401.8398" style="stroke:#181818;stroke-width:0.5;"/><text fill="#000000" font-family="sans-serif" font-size="12" lengthAdjust="spacing" textLength="159.9609" x="74.3613" y="389.0098">System.out.println("i &lt; j");</text><polygon fill="#DEB887" points="138.8037,319.4688,169.8799,319.4688,181.8799,331.4688,169.8799,343.4688,138.8037,343.4688,126.8037,331.4688,138.8037,319.4688" style="stroke:#FFFF00;stroke-width:0.5;"/><text fill="#008000" font-family="sans-serif" font-size="11" lengthAdjust="spacing" textLength="22.5747" x="158.3418" y="353.6792">true</text><text fill="#000000" font-family="sans-serif" font-size="14" font-weight="bold" lengthAdjust="spacing" textLength="31.0762" x="138.8037" y="336.3154">i &lt; j</text><polygon fill="#DEB887" points="154.3418,421.8398,166.3418,433.8398,154.3418,445.8398,142.3418,433.8398,154.3418,421.8398" style="stroke:#FFFF00;stroke-width:0.5;"/><polygon fill="#F1F1F1" points="59.334,514.2422,249.3496,514.2422,259.3496,531.2266,249.3496,548.2109,59.334,548.2109" style="stroke:#181818;stroke-width:0.5;"/><text fill="#000000" font-family="sans-serif" font-size="12" lengthAdjust="spacing" textLength="170.0156" x="69.334" y="535.3809">System.out.println("i &lt;= j");</text><polygon fill="#DEB887" points="132.9385,465.8398,175.7451,465.8398,187.7451,477.8398,175.7451,489.8398,132.9385,489.8398,120.9385,477.8398,132.9385,465.8398" style="stroke:#FFFF00;stroke-width:0.5;"/><text fill="#008000" font-family="sans-serif" font-size="11" lengthAdjust="spacing" textLength="22.5747" x="158.3418" y="500.0503">true</text><text fill="#000000" font-family="sans-serif" font-size="14" font-weight="bold" lengthAdjust="spacing" textLength="42.8066" x="132.9385" y="482.6865">i &lt;= j</text><polygon fill="#DEB887" points="154.3418,568.2109,166.3418,580.2109,154.3418,592.2109,142.3418,580.2109,154.3418,568.2109" style="stroke:#FFFF00;stroke-width:0.5;"/><polygon fill="#F1F1F1" points="61.9561,660.6133,246.7275,660.6133,256.7275,677.5977,246.7275,694.582,61.9561,694.582" style="stroke:#181818;stroke-width:0.5;"/><text fill="#000000" font-family="sans-serif" font-size="12" lengthAdjust="spacing" textLength="164.7715" x="71.9561" y="681.752">System.out.println("i != j");</text><polygon fill="#DEB887" points="135.6113,612.2109,173.0723,612.2109,185.0723,624.2109,173.0723,636.2109,135.6113,636.2109,123.6113,624.2109,135.6113,612.2109" style="stroke:#FFFF00;stroke-width:0.5;"/><text fill="#008000" font-family="sans-serif" font-size="11" lengthAdjust="spacing" textLength="22.5747" x="158.3418" y="646.4214">true</text><text fill="#000000" font-family="sans-serif" font-size="14" font-weight="bold" lengthAdjust="spacing" textLength="37.4609" x="135.6113" y="629.0576">i != j</text><polygon fill="#DEB887" points="154.3418,714.582,166.3418,726.582,154.3418,738.582,142.3418,726.582,154.3418,714.582" style="stroke:#FFFF00;stroke-width:0.5;"/><polygon fill="#F1F1F1" points="20,806.9844,288.6836,806.9844,298.6836,823.9688,288.6836,840.9531,20,840.9531" style="stroke:#181818;stroke-width:0.5;"/><text fill="#000000" font-family="sans-serif" font-size="12" lengthAdjust="spacing" textLength="248.6836" x="30" y="828.123">System.out.println("This won't execute");</text><polygon fill="#DEB887" points="132.9385,758.582,175.7451,758.582,187.7451,770.582,175.7451,782.582,132.9385,782.582,120.9385,770.582,132.9385,758.582" style="stroke:#FFFF00;stroke-width:0.5;"/><text fill="#008000" font-family="sans-serif" font-size="11" lengthAdjust="spacing" textLength="22.5747" x="158.3418" y="792.7925">true</text><text fill="#000000" font-family="sans-serif" font-size="14" font-weight="bold" lengthAdjust="spacing" textLength="42.8066" x="132.9385" y="775.4287">i == j</text><polygon fill="#DEB887" points="154.3418,860.9531,166.3418,872.9531,154.3418,884.9531,142.3418,872.9531,154.3418,860.9531" style="stroke:#FFFF00;stroke-width:0.5;"/><polygon fill="#F1F1F1" points="20,953.3555,288.6836,953.3555,298.6836,970.3398,288.6836,987.3242,20,987.3242" style="stroke:#181818;stroke-width:0.5;"/><text fill="#000000" font-family="sans-serif" font-size="12" lengthAdjust="spacing" textLength="248.6836" x="30" y="974.4941">System.out.println("This won't execute");</text><polygon fill="#DEB887" points="132.9385,904.9531,175.7451,904.9531,187.7451,916.9531,175.7451,928.9531,132.9385,928.9531,120.9385,916.9531,132.9385,904.9531" style="stroke:#FFFF00;stroke-width:0.5;"/><text fill="#008000" font-family="sans-serif" font-size="11" lengthAdjust="spacing" textLength="22.5747" x="158.3418" y="939.1636">true</text><text fill="#000000" font-family="sans-serif" font-size="14" font-weight="bold" lengthAdjust="spacing" textLength="42.8066" x="132.9385" y="921.7998">i &gt;= j</text><polygon fill="#DEB887" points="154.3418,1007.3242,166.3418,1019.3242,154.3418,1031.3242,142.3418,1019.3242,154.3418,1007.3242" style="stroke:#FFFF00;stroke-width:0.5;"/><polygon fill="#F1F1F1" points="20,1099.7266,288.6836,1099.7266,298.6836,1116.7109,288.6836,1133.6953,20,1133.6953" style="stroke:#181818;stroke-width:0.5;"/><text fill="#000000" font-family="sans-serif" font-size="12" lengthAdjust="spacing" textLength="248.6836" x="30" y="1120.8652">System.out.println("This won't execute");</text><polygon fill="#DEB887" points="138.8037,1051.3242,169.8799,1051.3242,181.8799,1063.3242,169.8799,1075.3242,138.8037,1075.3242,126.8037,1063.3242,138.8037,1051.3242" style="stroke:#FFFF00;stroke-width:0.5;"/><text fill="#008000" font-family="sans-serif" font-size="11" lengthAdjust="spacing" textLength="22.5747" x="158.3418" y="1085.5347">true</text><text fill="#000000" font-family="sans-serif" font-size="14" font-weight="bold" lengthAdjust="spacing" textLength="31.0762" x="138.8037" y="1068.1709">i &gt; j</text><polygon fill="#DEB887" points="154.3418,1153.6953,166.3418,1165.6953,154.3418,1177.6953,142.3418,1165.6953,154.3418,1153.6953" style="stroke:#FFFF00;stroke-width:0.5;"/><rect fill="#F1F1F1" height="33.9688" style="stroke:#181818;stroke-width:0.5;" width="81.6055" x="113.5391" y="1197.6953"/><text fill="#000000" font-family="sans-serif" font-size="12" lengthAdjust="spacing" textLength="61.6055" x="123.5391" y="1218.834">b1 = true;</text><rect fill="#F1F1F1" height="33.9688" style="stroke:#181818;stroke-width:0.5;" width="85.5254" x="111.5791" y="1251.6641"/><text fill="#000000" font-family="sans-serif" font-size="12" lengthAdjust="spacing" textLength="65.5254" x="121.5791" y="1272.8027">b2 = false;</text><polygon fill="#F1F1F1" points="20,1354.0352,288.6836,1354.0352,298.6836,1371.0195,288.6836,1388.0039,20,1388.0039" style="stroke:#181818;stroke-width:0.5;"/><text fill="#000000" font-family="sans-serif" font-size="12" lengthAdjust="spacing" textLength="248.6836" x="30" y="1375.1738">System.out.println("This won't execute");</text><polygon fill="#DEB887" points="123.6006,1305.6328,185.083,1305.6328,197.083,1317.6328,185.083,1329.6328,123.6006,1329.6328,111.6006,1317.6328,123.6006,1305.6328" style="stroke:#FFFF00;stroke-width:0.5;"/><text fill="#008000" font-family="sans-serif" font-size="11" lengthAdjust="spacing" textLength="22.5747" x="158.3418" y="1339.8433">true</text><text fill="#000000" font-family="sans-serif" font-size="14" font-weight="bold" lengthAdjust="spacing" textLength="61.4824" x="123.6006" y="1322.4795">b1 &amp; b2</text><polygon fill="#DEB887" points="154.3418,1408.0039,166.3418,1420.0039,154.3418,1432.0039,142.3418,1420.0039,154.3418,1408.0039" style="stroke:#FFFF00;stroke-width:0.5;"/><polygon fill="#F1F1F1" points="24.7842,1500.4063,283.8994,1500.4063,293.8994,1517.3906,283.8994,1534.375,24.7842,1534.375" style="stroke:#181818;stroke-width:0.5;"/><text fill="#000000" font-family="sans-serif" font-size="12" lengthAdjust="spacing" textLength="239.1152" x="34.7842" y="1521.5449">System.out.println("!(b1 &amp; b2) is true");</text><polygon fill="#DEB887" points="114.0098,1452.0039,194.6738,1452.0039,206.6738,1464.0039,194.6738,1476.0039,114.0098,1476.0039,102.0098,1464.0039,114.0098,1452.0039" style="stroke:#FFFF00;stroke-width:0.5;"/><text fill="#008000" font-family="sans-serif" font-size="11" lengthAdjust="spacing" textLength="22.5747" x="158.3418" y="1486.2144">true</text><text fill="#000000" font-family="sans-serif" font-size="14" font-weight="bold" lengthAdjust="spacing" textLength="80.6641" x="114.0098" y="1468.8506">!(b1 &amp; b2)</text><polygon fill="#DEB887" points="154.3418,1554.375,166.3418,1566.375,154.3418,1578.375,142.3418,1566.375,154.3418,1554.375" style="stroke:#FFFF00;stroke-width:0.5;"/><polygon fill="#F1F1F1" points="34.5283,1646.7773,274.1553,1646.7773,284.1553,1663.7617,274.1553,1680.7461,34.5283,1680.7461" style="stroke:#181818;stroke-width:0.5;"/><text fill="#000000" font-family="sans-serif" font-size="12" lengthAdjust="spacing" textLength="219.627" x="44.5283" y="1667.916">System.out.println("b1 | b2 is true");</text><polygon fill="#DEB887" points="127.1484,1598.375,181.5352,1598.375,193.5352,1610.375,181.5352,1622.375,127.1484,1622.375,115.1484,1610.375,127.1484,1598.375" style="stroke:#FFFF00;stroke-width:0.5;"/><text fill="#008000" font-family="sans-serif" font-size="11" lengthAdjust="spacing" textLength="22.5747" x="158.3418" y="1632.5854">true</text><text fill="#000000" font-family="sans-serif" font-size="14" font-weight="bold" lengthAdjust="spacing" textLength="54.3867" x="127.1484" y="1615.2217">b1 | b2</text><polygon fill="#DEB887" points="154.3418,1700.7461,166.3418,1712.7461,154.3418,1724.7461,142.3418,1712.7461,154.3418,1700.7461" style="stroke:#FFFF00;stroke-width:0.5;"/><polygon fill="#F1F1F1" points="31.5225,1793.1484,277.1611,1793.1484,287.1611,1810.1328,277.1611,1827.1172,31.5225,1827.1172" style="stroke:#181818;stroke-width:0.5;"/><text fill="#000000" font-family="sans-serif" font-size="12" lengthAdjust="spacing" textLength="225.6387" x="41.5225" y="1814.2871">System.out.println("b1 ^ b2 is true");</text><polygon fill="#DEB887" points="123.8398,1744.7461,184.8438,1744.7461,196.8438,1756.7461,184.8438,1768.7461,123.8398,1768.7461,111.8398,1756.7461,123.8398,1744.7461" style="stroke:#FFFF00;stroke-width:0.5;"/><text fill="#008000" font-family="sans-serif" font-size="11" lengthAdjust="spacing" textLength="22.5747" x="158.3418" y="1778.9565">true</text><text fill="#000000" font-family="sans-serif" font-size="14" font-weight="bold" lengthAdjust="spacing" textLength="61.0039" x="123.8398" y="1761.5928">b1 ^ b2</text><polygon fill="#DEB887" points="154.3418,1847.1172,166.3418,1859.1172,154.3418,1871.1172,142.3418,1859.1172,154.3418,1847.1172" style="stroke:#FFFF00;stroke-width:0.5;"/><ellipse cx="154.3418" cy="1902.1172" fill="none" rx="11" ry="11" style="stroke:#222222;stroke-width:1.0;"/><ellipse cx="154.3418" cy="1902.1172" fill="#222222" rx="6" ry="6" style="stroke:#222222;stroke-width:1.0;"/><line style="stroke:#181818;stroke-width:1.0;" x1="154.3418" x2="154.3418" y1="83.5938" y2="103.5938"/><polygon fill="#181818" points="150.3418,93.5938,154.3418,103.5938,158.3418,93.5938,154.3418,97.5938" style="stroke:#181818;stroke-width:1.0;"/><line style="stroke:#181818;stroke-width:1.0;" x1="154.3418" x2="154.3418" y1="137.5625" y2="157.5625"/><polygon fill="#181818" points="150.3418,147.5625,154.3418,157.5625,158.3418,147.5625,154.3418,151.5625" style="stroke:#181818;stroke-width:1.0;"/><line style="stroke:#181818;stroke-width:1.0;" x1="154.3418" x2="154.3418" y1="191.5313" y2="211.5313"/><polygon fill="#181818" points="150.3418,201.5313,154.3418,211.5313,158.3418,201.5313,154.3418,205.5313" style="stroke:#181818;stroke-width:1.0;"/><line style="stroke:#181818;stroke-width:1.0;" x1="154.3418" x2="154.3418" y1="245.5" y2="265.5"/><polygon fill="#181818" points="150.3418,255.5,154.3418,265.5,158.3418,255.5,154.3418,259.5" style="stroke:#181818;stroke-width:1.0;"/><line style="stroke:#181818;stroke-width:1.0;" x1="154.3418" x2="154.3418" y1="343.4688" y2="367.8711"/><polygon fill="#181818" points="150.3418,357.8711,154.3418,367.8711,158.3418,357.8711,154.3418,361.8711" style="stroke:#181818;stroke-width:1.0;"/><line style="stroke:#181818;stroke-width:1.0;" x1="181.8799" x2="264.3223" y1="331.4688" y2="331.4688"/><polygon fill="#181818" points="260.3223,374.8555,264.3223,384.8555,268.3223,374.8555,264.3223,378.8555" style="stroke:#181818;stroke-width:1.0;"/><line style="stroke:#181818;stroke-width:1.0;" x1="264.3223" x2="264.3223" y1="331.4688" y2="433.8398"/><line style="stroke:#181818;stroke-width:1.0;" x1="264.3223" x2="166.3418" y1="433.8398" y2="433.8398"/><polygon fill="#181818" points="176.3418,429.8398,166.3418,433.8398,176.3418,437.8398,172.3418,433.8398" style="stroke:#181818;stroke-width:1.0;"/><line style="stroke:#181818;stroke-width:1.0;" x1="154.3418" x2="154.3418" y1="401.8398" y2="421.8398"/><polygon fill="#181818" points="150.3418,411.8398,154.3418,421.8398,158.3418,411.8398,154.3418,415.8398" style="stroke:#181818;stroke-width:1.0;"/><line style="stroke:#181818;stroke-width:1.0;" x1="154.3418" x2="154.3418" y1="299.4688" y2="319.4688"/><polygon fill="#181818" points="150.3418,309.4688,154.3418,319.4688,158.3418,309.4688,154.3418,313.4688" style="stroke:#181818;stroke-width:1.0;"/><line style="stroke:#181818;stroke-width:1.0;" x1="154.3418" x2="154.3418" y1="489.8398" y2="514.2422"/><polygon fill="#181818" points="150.3418,504.2422,154.3418,514.2422,158.3418,504.2422,154.3418,508.2422" style="stroke:#181818;stroke-width:1.0;"/><line style="stroke:#181818;stroke-width:1.0;" x1="187.7451" x2="269.3496" y1="477.8398" y2="477.8398"/><polygon fill="#181818" points="265.3496,521.2266,269.3496,531.2266,273.3496,521.2266,269.3496,525.2266" style="stroke:#181818;stroke-width:1.0;"/><line style="stroke:#181818;stroke-width:1.0;" x1="269.3496" x2="269.3496" y1="477.8398" y2="580.2109"/><line style="stroke:#181818;stroke-width:1.0;" x1="269.3496" x2="166.3418" y1="580.2109" y2="580.2109"/><polygon fill="#181818" points="176.3418,576.2109,166.3418,580.2109,176.3418,584.2109,172.3418,580.2109" style="stroke:#181818;stroke-width:1.0;"/><line style="stroke:#181818;stroke-width:1.0;" x1="154.3418" x2="154.3418" y1="548.2109" y2="568.2109"/><polygon fill="#181818" points="150.3418,558.2109,154.3418,568.2109,158.3418,558.2109,154.3418,562.2109" style="stroke:#181818;stroke-width:1.0;"/><line style="stroke:#181818;stroke-width:1.0;" x1="154.3418" x2="154.3418" y1="445.8398" y2="465.8398"/><polygon fill="#181818" points="150.3418,455.8398,154.3418,465.8398,158.3418,455.8398,154.3418,459.8398" style="stroke:#181818;stroke-width:1.0;"/><line style="stroke:#181818;stroke-width:1.0;" x1="154.3418" x2="154.3418" y1="636.2109" y2="660.6133"/><polygon fill="#181818" points="150.3418,650.6133,154.3418,660.6133,158.3418,650.6133,154.3418,654.6133" style="stroke:#181818;stroke-width:1.0;"/><line style="stroke:#181818;stroke-width:1.0;" x1="185.0723" x2="266.7275" y1="624.2109" y2="624.2109"/><polygon fill="#181818" points="262.7275,667.5977,266.7275,677.5977,270.7275,667.5977,266.7275,671.5977" style="stroke:#181818;stroke-width:1.0;"/><line style="stroke:#181818;stroke-width:1.0;" x1="266.7275" x2="266.7275" y1="624.2109" y2="726.582"/><line style="stroke:#181818;stroke-width:1.0;" x1="266.7275" x2="166.3418" y1="726.582" y2="726.582"/><polygon fill="#181818" points="176.3418,722.582,166.3418,726.582,176.3418,730.582,172.3418,726.582" style="stroke:#181818;stroke-width:1.0;"/><line style="stroke:#181818;stroke-width:1.0;" x1="154.3418" x2="154.3418" y1="694.582" y2="714.582"/><polygon fill="#181818" points="150.3418,704.582,154.3418,714.582,158.3418,704.582,154.3418,708.582" style="stroke:#181818;stroke-width:1.0;"/><line style="stroke:#181818;stroke-width:1.0;" x1="154.3418" x2="154.3418" y1="592.2109" y2="612.2109"/><polygon fill="#181818" points="150.3418,602.2109,154.3418,612.2109,158.3418,602.2109,154.3418,606.2109" style="stroke:#181818;stroke-width:1.0;"/><line style="stroke:#181818;stroke-width:1.0;" x1="154.3418" x2="154.3418" y1="782.582" y2="806.9844"/><polygon fill="#181818" points="150.3418,796.9844,154.3418,806.9844,158.3418,796.9844,154.3418,800.9844" style="stroke:#181818;stroke-width:1.0;"/><line style="stroke:#181818;stroke-width:1.0;" x1="187.7451" x2="308.6836" y1="770.582" y2="770.582"/><polygon fill="#181818" points="304.6836,813.9688,308.6836,823.9688,312.6836,813.9688,308.6836,817.9688" style="stroke:#181818;stroke-width:1.0;"/><line style="stroke:#181818;stroke-width:1.0;" x1="308.6836" x2="308.6836" y1="770.582" y2="872.9531"/><line style="stroke:#181818;stroke-width:1.0;" x1="308.6836" x2="166.3418" y1="872.9531" y2="872.9531"/><polygon fill="#181818" points="176.3418,868.9531,166.3418,872.9531,176.3418,876.9531,172.3418,872.9531" style="stroke:#181818;stroke-width:1.0;"/><line style="stroke:#181818;stroke-width:1.0;" x1="154.3418" x2="154.3418" y1="840.9531" y2="860.9531"/><polygon fill="#181818" points="150.3418,850.9531,154.3418,860.9531,158.3418,850.9531,154.3418,854.9531" style="stroke:#181818;stroke-width:1.0;"/><line style="stroke:#181818;stroke-width:1.0;" x1="154.3418" x2="154.3418" y1="738.582" y2="758.582"/><polygon fill="#181818" points="150.3418,748.582,154.3418,758.582,158.3418,748.582,154.3418,752.582" style="stroke:#181818;stroke-width:1.0;"/><line style="stroke:#181818;stroke-width:1.0;" x1="154.3418" x2="154.3418" y1="928.9531" y2="953.3555"/><polygon fill="#181818" points="150.3418,943.3555,154.3418,953.3555,158.3418,943.3555,154.3418,947.3555" style="stroke:#181818;stroke-width:1.0;"/><line style="stroke:#181818;stroke-width:1.0;" x1="187.7451" x2="308.6836" y1="916.9531" y2="916.9531"/><polygon fill="#181818" points="304.6836,960.3398,308.6836,970.3398,312.6836,960.3398,308.6836,964.3398" style="stroke:#181818;stroke-width:1.0;"/><line style="stroke:#181818;stroke-width:1.0;" x1="308.6836" x2="308.6836" y1="916.9531" y2="1019.3242"/><line style="stroke:#181818;stroke-width:1.0;" x1="308.6836" x2="166.3418" y1="1019.3242" y2="1019.3242"/><polygon fill="#181818" points="176.3418,1015.3242,166.3418,1019.3242,176.3418,1023.3242,172.3418,1019.3242" style="stroke:#181818;stroke-width:1.0;"/><line style="stroke:#181818;stroke-width:1.0;" x1="154.3418" x2="154.3418" y1="987.3242" y2="1007.3242"/><polygon fill="#181818" points="150.3418,997.3242,154.3418,1007.3242,158.3418,997.3242,154.3418,1001.3242" style="stroke:#181818;stroke-width:1.0;"/><line style="stroke:#181818;stroke-width:1.0;" x1="154.3418" x2="154.3418" y1="884.9531" y2="904.9531"/><polygon fill="#181818" points="150.3418,894.9531,154.3418,904.9531,158.3418,894.9531,154.3418,898.9531" style="stroke:#181818;stroke-width:1.0;"/><line style="stroke:#181818;stroke-width:1.0;" x1="154.3418" x2="154.3418" y1="1075.3242" y2="1099.7266"/><polygon fill="#181818" points="150.3418,1089.7266,154.3418,1099.7266,158.3418,1089.7266,154.3418,1093.7266" style="stroke:#181818;stroke-width:1.0;"/><line style="stroke:#181818;stroke-width:1.0;" x1="181.8799" x2="308.6836" y1="1063.3242" y2="1063.3242"/><polygon fill="#181818" points="304.6836,1106.7109,308.6836,1116.7109,312.6836,1106.7109,308.6836,1110.7109" style="stroke:#181818;stroke-width:1.0;"/><line style="stroke:#181818;stroke-width:1.0;" x1="308.6836" x2="308.6836" y1="1063.3242" y2="1165.6953"/><line style="stroke:#181818;stroke-width:1.0;" x1="308.6836" x2="166.3418" y1="1165.6953" y2="1165.6953"/><polygon fill="#181818" points="176.3418,1161.6953,166.3418,1165.6953,176.3418,1169.6953,172.3418,1165.6953" style="stroke:#181818;stroke-width:1.0;"/><line style="stroke:#181818;stroke-width:1.0;" x1="154.3418" x2="154.3418" y1="1133.6953" y2="1153.6953"/><polygon fill="#181818" points="150.3418,1143.6953,154.3418,1153.6953,158.3418,1143.6953,154.3418,1147.6953" style="stroke:#181818;stroke-width:1.0;"/><line style="stroke:#181818;stroke-width:1.0;" x1="154.3418" x2="154.3418" y1="1031.3242" y2="1051.3242"/><polygon fill="#181818" points="150.3418,1041.3242,154.3418,1051.3242,158.3418,1041.3242,154.3418,1045.3242" style="stroke:#181818;stroke-width:1.0;"/><line style="stroke:#181818;stroke-width:1.0;" x1="154.3418" x2="154.3418" y1="1177.6953" y2="1197.6953"/><polygon fill="#181818" points="150.3418,1187.6953,154.3418,1197.6953,158.3418,1187.6953,154.3418,1191.6953" style="stroke:#181818;stroke-width:1.0;"/><line style="stroke:#181818;stroke-width:1.0;" x1="154.3418" x2="154.3418" y1="1231.6641" y2="1251.6641"/><polygon fill="#181818" points="150.3418,1241.6641,154.3418,1251.6641,158.3418,1241.6641,154.3418,1245.6641" style="stroke:#181818;stroke-width:1.0;"/><line style="stroke:#181818;stroke-width:1.0;" x1="154.3418" x2="154.3418" y1="1329.6328" y2="1354.0352"/><polygon fill="#181818" points="150.3418,1344.0352,154.3418,1354.0352,158.3418,1344.0352,154.3418,1348.0352" style="stroke:#181818;stroke-width:1.0;"/><line style="stroke:#181818;stroke-width:1.0;" x1="197.083" x2="308.6836" y1="1317.6328" y2="1317.6328"/><polygon fill="#181818" points="304.6836,1361.0195,308.6836,1371.0195,312.6836,1361.0195,308.6836,1365.0195" style="stroke:#181818;stroke-width:1.0;"/><line style="stroke:#181818;stroke-width:1.0;" x1="308.6836" x2="308.6836" y1="1317.6328" y2="1420.0039"/><line style="stroke:#181818;stroke-width:1.0;" x1="308.6836" x2="166.3418" y1="1420.0039" y2="1420.0039"/><polygon fill="#181818" points="176.3418,1416.0039,166.3418,1420.0039,176.3418,1424.0039,172.3418,1420.0039" style="stroke:#181818;stroke-width:1.0;"/><line style="stroke:#181818;stroke-width:1.0;" x1="154.3418" x2="154.3418" y1="1388.0039" y2="1408.0039"/><polygon fill="#181818" points="150.3418,1398.0039,154.3418,1408.0039,158.3418,1398.0039,154.3418,1402.0039" style="stroke:#181818;stroke-width:1.0;"/><line style="stroke:#181818;stroke-width:1.0;" x1="154.3418" x2="154.3418" y1="1285.6328" y2="1305.6328"/><polygon fill="#181818" points="150.3418,1295.6328,154.3418,1305.6328,158.3418,1295.6328,154.3418,1299.6328" style="stroke:#181818;stroke-width:1.0;"/><line style="stroke:#181818;stroke-width:1.0;" x1="154.3418" x2="154.3418" y1="1476.0039" y2="1500.4063"/><polygon fill="#181818" points="150.3418,1490.4063,154.3418,1500.4063,158.3418,1490.4063,154.3418,1494.4063" style="stroke:#181818;stroke-width:1.0;"/><line style="stroke:#181818;stroke-width:1.0;" x1="206.6738" x2="303.8994" y1="1464.0039" y2="1464.0039"/><polygon fill="#181818" points="299.8994,1507.3906,303.8994,1517.3906,307.8994,1507.3906,303.8994,1511.3906" style="stroke:#181818;stroke-width:1.0;"/><line style="stroke:#181818;stroke-width:1.0;" x1="303.8994" x2="303.8994" y1="1464.0039" y2="1566.375"/><line style="stroke:#181818;stroke-width:1.0;" x1="303.8994" x2="166.3418" y1="1566.375" y2="1566.375"/><polygon fill="#181818" points="176.3418,1562.375,166.3418,1566.375,176.3418,1570.375,172.3418,1566.375" style="stroke:#181818;stroke-width:1.0;"/><line style="stroke:#181818;stroke-width:1.0;" x1="154.3418" x2="154.3418" y1="1534.375" y2="1554.375"/><polygon fill="#181818" points="150.3418,1544.375,154.3418,1554.375,158.3418,1544.375,154.3418,1548.375" style="stroke:#181818;stroke-width:1.0;"/><line style="stroke:#181818;stroke-width:1.0;" x1="154.3418" x2="154.3418" y1="1432.0039" y2="1452.0039"/><polygon fill="#181818" points="150.3418,1442.0039,154.3418,1452.0039,158.3418,1442.0039,154.3418,1446.0039" style="stroke:#181818;stroke-width:1.0;"/><line style="stroke:#181818;stroke-width:1.0;" x1="154.3418" x2="154.3418" y1="1622.375" y2="1646.7773"/><polygon fill="#181818" points="150.3418,1636.7773,154.3418,1646.7773,158.3418,1636.7773,154.3418,1640.7773" style="stroke:#181818;stroke-width:1.0;"/><line style="stroke:#181818;stroke-width:1.0;" x1="193.5352" x2="294.1553" y1="1610.375" y2="1610.375"/><polygon fill="#181818" points="290.1553,1653.7617,294.1553,1663.7617,298.1553,1653.7617,294.1553,1657.7617" style="stroke:#181818;stroke-width:1.0;"/><line style="stroke:#181818;stroke-width:1.0;" x1="294.1553" x2="294.1553" y1="1610.375" y2="1712.7461"/><line style="stroke:#181818;stroke-width:1.0;" x1="294.1553" x2="166.3418" y1="1712.7461" y2="1712.7461"/><polygon fill="#181818" points="176.3418,1708.7461,166.3418,1712.7461,176.3418,1716.7461,172.3418,1712.7461" style="stroke:#181818;stroke-width:1.0;"/><line style="stroke:#181818;stroke-width:1.0;" x1="154.3418" x2="154.3418" y1="1680.7461" y2="1700.7461"/><polygon fill="#181818" points="150.3418,1690.7461,154.3418,1700.7461,158.3418,1690.7461,154.3418,1694.7461" style="stroke:#181818;stroke-width:1.0;"/><line style="stroke:#181818;stroke-width:1.0;" x1="154.3418" x2="154.3418" y1="1578.375" y2="1598.375"/><polygon fill="#181818" points="150.3418,1588.375,154.3418,1598.375,158.3418,1588.375,154.3418,1592.375" style="stroke:#181818;stroke-width:1.0;"/><line style="stroke:#181818;stroke-width:1.0;" x1="154.3418" x2="154.3418" y1="1768.7461" y2="1793.1484"/><polygon fill="#181818" points="150.3418,1783.1484,154.3418,1793.1484,158.3418,1783.1484,154.3418,1787.1484" style="stroke:#181818;stroke-width:1.0;"/><line style="stroke:#181818;stroke-width:1.0;" x1="196.8438" x2="297.1611" y1="1756.7461" y2="1756.7461"/><polygon fill="#181818" points="293.1611,1800.1328,297.1611,1810.1328,301.1611,1800.1328,297.1611,1804.1328" style="stroke:#181818;stroke-width:1.0;"/><line style="stroke:#181818;stroke-width:1.0;" x1="297.1611" x2="297.1611" y1="1756.7461" y2="1859.1172"/><line style="stroke:#181818;stroke-width:1.0;" x1="297.1611" x2="166.3418" y1="1859.1172" y2="1859.1172"/><polygon fill="#181818" points="176.3418,1855.1172,166.3418,1859.1172,176.3418,1863.1172,172.3418,1859.1172" style="stroke:#181818;stroke-width:1.0;"/><line style="stroke:#181818;stroke-width:1.0;" x1="154.3418" x2="154.3418" y1="1827.1172" y2="1847.1172"/><polygon fill="#181818" points="150.3418,1837.1172,154.3418,1847.1172,158.3418,1837.1172,154.3418,1841.1172" style="stroke:#181818;stroke-width:1.0;"/><line style="stroke:#181818;stroke-width:1.0;" x1="154.3418" x2="154.3418" y1="1724.7461" y2="1744.7461"/><polygon fill="#181818" points="150.3418,1734.7461,154.3418,1744.7461,158.3418,1734.7461,154.3418,1738.7461" style="stroke:#181818;stroke-width:1.0;"/><line style="stroke:#181818;stroke-width:1.0;" x1="154.3418" x2="154.3418" y1="1871.1172" y2="1891.1172"/><polygon fill="#181818" points="150.3418,1881.1172,154.3418,1891.1172,158.3418,1881.1172,154.3418,1885.1172" style="stroke:#181818;stroke-width:1.0;"/><!--SRC=[lP9FQzj04CNl-XJZ55eRWbsvpKLUBRI5dWA5fiSIM4aZUvtLZj2Ewgf_ldj7Sch7BKcA8Ds3G6_UlDyCZ0hSETGHo7kJi_rYkOFlms__tfFdA_iD8LuUjCAQYdnnnzM_I-ln7Jbge4FdQ7TIV6loctL3hI_sbgnjNBSZAavSHzZhl_L-JCZ87Lj-HlklMjpkm9R5SzX2vbmtfW8guRDNfOI0DnMcCZo5skIeLJvCy-mYVhNCK7z4Tqdh3tMOLyRwwKmjXhfMYxvPGuMyaP6ZmARXA4gi9DfpsAvMKP8HEJGUilWSigKeKeOKufUh5IZ59jne7INRNehlIf4jfnOKR6V06_GmtS-Kh1j4hxbfSJQicLnrWR6QKylpkX6oyzEpeV5iDkH9eMvP4j4NjloTcuuEJXzEdenEdZoId8vC_hIn0NRaNp3WLynRneSe-lzGdXYIPB5SL9zsScRPKjJIk81_dfhudyjzFlNcamDe3EdO3OBipVUJnFbZv4AthV_4k1xFk7wS4PZgNm00]--></g></svg>