<svg xmlns="http://www.w3.org/2000/svg" xmlns:xlink="http://www.w3.org/1999/xlink" contentStyleType="text/css" height="692px" preserveAspectRatio="none" style="width:443px;height:692px;background:#FFFFFF;" version="1.1" viewBox="0 0 443 692" width="443px" zoomAndPan="magnify"><title>Activity diagram of </title><defs/><g><text fill="#000000" font-family="sans-serif" font-size="14" font-weight="bold" lengthAdjust="spacing" textLength="151.0537" x="142.0554" y="32.9951">Activity diagram of</text><text fill="#5132BE" font-family="name=monospace" font-size="14" font-weight="bold" lengthAdjust="spacing" textLength="149.7549" x="112.5139" y="49.292">ScopeDemo.main()</text><text fill="#000000" font-family="sans-serif" font-size="14" font-weight="bold" lengthAdjust="spacing" textLength="60.3818" x="267.1428" y="49.292">method</text><ellipse cx="252.0474" cy="73.5938" fill="#222222" rx="10" ry="10" style="stroke:#222222;stroke-width:1.0;"/><path d="M74.2173,100.4453 L74.2173,140.7109 A0,0 0 0 0 74.2173,140.7109 L206.7456,140.7109 A0,0 0 0 0 206.7456,140.7109 L206.7456,124.5781 L226.7456,120.5781 L206.7456,116.5781 L206.7456,110.4453 L196.7456,100.4453 L74.2173,100.4453 A0,0 0 0 0 74.2173,100.4453 " fill="#FEFFDD" style="stroke:#181818;stroke-width:0.5;"/><path d="M196.7456,100.4453 L196.7456,110.4453 L206.7456,110.4453 L196.7456,100.4453 " fill="#FEFFDD" style="stroke:#181818;stroke-width:0.5;"/><text fill="#000000" font-family="sans-serif" font-size="13" lengthAdjust="spacing" textLength="79.0981" x="80.2173" y="117.5122">known to all</text><text fill="#000000" font-family="sans-serif" font-size="13" lengthAdjust="spacing" textLength="111.5283" x="80.2173" y="132.645">code within main</text><rect fill="#F1F1F1" height="33.9688" rx="12.5" ry="12.5" style="stroke:#181818;stroke-width:0.5;" width="50.6035" x="226.7456" y="103.5938"/><text fill="#000000" font-family="sans-serif" font-size="12" lengthAdjust="spacing" textLength="30.6035" x="236.7456" y="124.7324">int x;</text><rect fill="#F1F1F1" height="33.9688" style="stroke:#181818;stroke-width:0.5;" width="64.0977" x="219.9985" y="160.7109"/><text fill="#000000" font-family="sans-serif" font-size="12" lengthAdjust="spacing" textLength="44.0977" x="229.9985" y="181.8496">x = 10;</text><path d="M84.6499,204.6797 L84.6499,229.8125 L209.1865,229.8125 L209.1865,214.6797 L199.1865,204.6797 L84.6499,204.6797 " fill="#FEFFDD" style="stroke:#181818;stroke-width:0.5;"/><path d="M199.1865,204.6797 L199.1865,214.6797 L209.1865,214.6797 L199.1865,204.6797 " fill="#FEFFDD" style="stroke:#181818;stroke-width:0.5;"/><text fill="#000000" font-family="sans-serif" font-size="13" lengthAdjust="spacing" textLength="103.5366" x="90.6499" y="221.7466">start new scope</text><path d="M89.7393,278.2148 L89.7393,318.4805 A0,0 0 0 0 89.7393,318.4805 L190.269,318.4805 A0,0 0 0 0 190.269,318.4805 L190.269,302.3477 L210.269,298.3477 L190.269,294.3477 L190.269,288.2148 L180.269,278.2148 L89.7393,278.2148 A0,0 0 0 0 89.7393,278.2148 " fill="#FEFFDD" style="stroke:#181818;stroke-width:0.5;"/><path d="M180.269,278.2148 L180.269,288.2148 L190.269,288.2148 L180.269,278.2148 " fill="#FEFFDD" style="stroke:#181818;stroke-width:0.5;"/><text fill="#000000" font-family="sans-serif" font-size="13" lengthAdjust="spacing" textLength="74.2231" x="95.7393" y="295.2817">known only</text><text fill="#000000" font-family="sans-serif" font-size="13" lengthAdjust="spacing" textLength="79.5298" x="95.7393" y="310.4146">to this block</text><rect fill="#F1F1F1" height="33.9688" style="stroke:#181818;stroke-width:0.5;" width="83.5566" x="210.269" y="281.3633"/><text fill="#000000" font-family="sans-serif" font-size="12" lengthAdjust="spacing" textLength="63.5566" x="220.269" y="302.502">int y = 20;</text><polygon fill="#F1F1F1" points="107.0562,374.0898,397.0386,374.0898,407.0386,391.0742,397.0386,408.0586,107.0562,408.0586" style="stroke:#181818;stroke-width:0.5;"/><text fill="#000000" font-family="sans-serif" font-size="12" lengthAdjust="spacing" textLength="269.9824" x="117.0562" y="395.2285">System.out.println("x and y: " + x + " " + y);</text><rect fill="#F1F1F1" height="33.9688" style="stroke:#181818;stroke-width:0.5;" width="77.1934" x="213.4507" y="428.0586"/><text fill="#000000" font-family="sans-serif" font-size="12" lengthAdjust="spacing" textLength="57.1934" x="223.4507" y="449.1973">x = y * 2;</text><polygon fill="#DEB887" points="221.1865,229.8125,282.9082,229.8125,294.9082,241.8125,282.9082,253.8125,221.1865,253.8125,209.1865,241.8125,221.1865,229.8125" style="stroke:#FFFF00;stroke-width:0.5;"/><text fill="#008000" font-family="sans-serif" font-size="11" lengthAdjust="spacing" textLength="22.5747" x="256.0474" y="264.0229">true</text><text fill="#000000" font-family="sans-serif" font-size="14" font-weight="bold" lengthAdjust="spacing" textLength="61.7217" x="221.1865" y="246.6592">x == 10</text><polygon fill="#DEB887" points="252.0474,482.0273,264.0474,494.0273,252.0474,506.0273,240.0474,494.0273,252.0474,482.0273" style="stroke:#FFFF00;stroke-width:0.5;"/><path d="M10,522.8789 L10,563.1445 A0,0 0 0 0 10,563.1445 L190.231,563.1445 A0,0 0 0 0 190.231,563.1445 L190.231,547.0117 L210.231,543.0117 L190.231,539.0117 L190.231,532.8789 L180.231,522.8789 L10,522.8789 A0,0 0 0 0 10,522.8789 " fill="#FEFFDD" style="stroke:#181818;stroke-width:0.5;"/><path d="M180.231,522.8789 L180.231,532.8789 L190.231,532.8789 L180.231,522.8789 " fill="#FEFFDD" style="stroke:#181818;stroke-width:0.5;"/><text fill="#000000" font-family="sans-serif" font-size="13" lengthAdjust="spacing" textLength="155.0986" x="16" y="539.9458">Error! y not known here</text><text fill="#000000" font-family="sans-serif" font-size="13" lengthAdjust="spacing" textLength="122.2939" x="16" y="555.0786">so commented out</text><rect fill="#F1F1F1" height="33.9688" style="stroke:#181818;stroke-width:0.5;" width="83.6328" x="210.231" y="526.0273"/><text fill="#000000" font-family="sans-serif" font-size="12" lengthAdjust="spacing" textLength="63.6328" x="220.231" y="547.166">// y = 100;</text><polygon fill="#F1F1F1" points="149.6919,605.9492,354.4028,605.9492,364.4028,622.9336,354.4028,639.918,149.6919,639.918" style="stroke:#181818;stroke-width:0.5;"/><text fill="#000000" font-family="sans-serif" font-size="12" lengthAdjust="spacing" textLength="184.7109" x="159.6919" y="627.0879">System.out.println("x is " + x);</text><ellipse cx="252.0474" cy="670.918" fill="none" rx="11" ry="11" style="stroke:#222222;stroke-width:1.0;"/><ellipse cx="252.0474" cy="670.918" fill="#222222" rx="6" ry="6" style="stroke:#222222;stroke-width:1.0;"/><line style="stroke:#181818;stroke-width:1.0;" x1="252.0474" x2="252.0474" y1="83.5938" y2="103.5938"/><polygon fill="#181818" points="248.0474,93.5938,252.0474,103.5938,256.0474,93.5938,252.0474,97.5938" style="stroke:#181818;stroke-width:1.0;"/><line style="stroke:#181818;stroke-width:1.0;" x1="252.0474" x2="252.0474" y1="137.5625" y2="160.7109"/><polygon fill="#181818" points="248.0474,150.7109,252.0474,160.7109,256.0474,150.7109,252.0474,154.7109" style="stroke:#181818;stroke-width:1.0;"/><line style="stroke:#181818;stroke-width:1.0;" x1="252.0474" x2="252.0474" y1="315.332" y2="374.0898"/><polygon fill="#181818" points="248.0474,364.0898,252.0474,374.0898,256.0474,364.0898,252.0474,368.0898" style="stroke:#181818;stroke-width:1.0;"/><text fill="#000000" font-family="sans-serif" font-size="11" lengthAdjust="spacing" textLength="69.2012" x="256.0474" y="339.7852">x and y both</text><text fill="#000000" font-family="sans-serif" font-size="11" lengthAdjust="spacing" textLength="68.0625" x="256.0474" y="352.5898">known here.</text><line style="stroke:#181818;stroke-width:1.0;" x1="252.0474" x2="252.0474" y1="408.0586" y2="428.0586"/><polygon fill="#181818" points="248.0474,418.0586,252.0474,428.0586,256.0474,418.0586,252.0474,422.0586" style="stroke:#181818;stroke-width:1.0;"/><line style="stroke:#181818;stroke-width:1.0;" x1="252.0474" x2="252.0474" y1="253.8125" y2="281.3633"/><polygon fill="#181818" points="248.0474,271.3633,252.0474,281.3633,256.0474,271.3633,252.0474,275.3633" style="stroke:#181818;stroke-width:1.0;"/><line style="stroke:#181818;stroke-width:1.0;" x1="294.9082" x2="417.0386" y1="241.8125" y2="241.8125"/><polygon fill="#181818" points="413.0386,365.1211,417.0386,375.1211,421.0386,365.1211,417.0386,369.1211" style="stroke:#181818;stroke-width:1.0;"/><line style="stroke:#181818;stroke-width:1.0;" x1="417.0386" x2="417.0386" y1="241.8125" y2="494.0273"/><line style="stroke:#181818;stroke-width:1.0;" x1="417.0386" x2="264.0474" y1="494.0273" y2="494.0273"/><polygon fill="#181818" points="274.0474,490.0273,264.0474,494.0273,274.0474,498.0273,270.0474,494.0273" style="stroke:#181818;stroke-width:1.0;"/><line style="stroke:#181818;stroke-width:1.0;" x1="252.0474" x2="252.0474" y1="462.0273" y2="482.0273"/><polygon fill="#181818" points="248.0474,472.0273,252.0474,482.0273,256.0474,472.0273,252.0474,476.0273" style="stroke:#181818;stroke-width:1.0;"/><line style="stroke:#181818;stroke-width:1.0;" x1="252.0474" x2="252.0474" y1="194.6797" y2="229.8125"/><polygon fill="#181818" points="248.0474,219.8125,252.0474,229.8125,256.0474,219.8125,252.0474,223.8125" style="stroke:#181818;stroke-width:1.0;"/><line style="stroke:#181818;stroke-width:1.0;" x1="252.0474" x2="252.0474" y1="506.0273" y2="526.0273"/><polygon fill="#181818" points="248.0474,516.0273,252.0474,526.0273,256.0474,516.0273,252.0474,520.0273" style="stroke:#181818;stroke-width:1.0;"/><line style="stroke:#181818;stroke-width:1.0;" x1="252.0474" x2="252.0474" y1="559.9961" y2="605.9492"/><polygon fill="#181818" points="248.0474,595.9492,252.0474,605.9492,256.0474,595.9492,252.0474,599.9492" style="stroke:#181818;stroke-width:1.0;"/><text fill="#000000" font-family="sans-serif" font-size="11" lengthAdjust="spacing" textLength="113.0615" x="256.0474" y="584.4492">x is still known here.</text><line style="stroke:#181818;stroke-width:1.0;" x1="252.0474" x2="252.0474" y1="639.918" y2="659.918"/><polygon fill="#181818" points="248.0474,649.918,252.0474,659.918,256.0474,649.918,252.0474,653.918" style="stroke:#181818;stroke-width:1.0;"/><!--SRC=[TL7BZjim3BphAzZqahHel4cxbzXheCzJRxdkHR6PM8Wi6Z9THotwxwNaTBDkiGHiIEIGCqCLFGUBfGA9ZnMR7uO3_4hN6D_8yTxyHDXidtArqIsv-XagndVZy3DPyX3GMXfdnK-wEfyy3QwU88V1sp0IrJFKZUp3__ae4mvaRos_rVGligi7DYoO9nUYy-Hr2tI4HrSSPGWutUA3YAU-qnMMHPNKlBxVlDyUiDnNrE4NR6dTQkEMgo9BzRB8OdC9BN8ZabNFshDIEoCJBtck73723iwEHWTCeAqLnefgXD5mOnp4UT9mWGVOtEKv50Nh_boMIfdZKh8nlG9kqC5o4hKxUKHNiXzmbNmcjY03jhC1iJJZ9sU3i8iCOUxXOAawgmHxLrv0oxi5MICtWfaQ6lIupYUEVUWPspKDlEwy45gtN5oRTh20jt2HRv5EOPLa2BGR-2ea6Gpm1hRF9QAhpV7lajBkmE48VTosB2NBagtDtSpN5VxLU_Al121tkEaLyJr1HMsBZh46KQ5Kz2UEUpQo_vct5tm9E7dwruayC7L_0000]--></g></svg>