<svg xmlns="http://www.w3.org/2000/svg" xmlns:xlink="http://www.w3.org/1999/xlink" contentStyleType="text/css" height="1191px" preserveAspectRatio="none" style="width:510px;height:1191px;background:#FFFFFF;" version="1.1" viewBox="0 0 510 1191" width="510px" zoomAndPan="magnify"><title>Activity diagram of </title><defs/><g><text fill="#000000" font-family="sans-serif" font-size="14" font-weight="bold" lengthAdjust="spacing" textLength="151.0537" x="175.8984" y="32.9951">Activity diagram of</text><text fill="#5132BE" font-family="name=monospace" font-size="14" font-weight="bold" lengthAdjust="spacing" textLength="105.2461" x="168.6113" y="49.292">SCops.main()</text><text fill="#000000" font-family="sans-serif" font-size="14" font-weight="bold" lengthAdjust="spacing" textLength="60.3818" x="278.7314" y="49.292">method</text><ellipse cx="288.4585" cy="73.5938" fill="#222222" rx="10" ry="10" style="stroke:#222222;stroke-width:1.0;"/><rect fill="#F1F1F1" height="33.9688" rx="12.5" ry="12.5" style="stroke:#181818;stroke-width:0.5;" width="81.5996" x="247.6587" y="103.5938"/><text fill="#000000" font-family="sans-serif" font-size="12" lengthAdjust="spacing" textLength="61.5996" x="257.6587" y="124.7324">int n, d, q;</text><rect fill="#F1F1F1" height="33.9688" style="stroke:#181818;stroke-width:0.5;" width="64.6016" x="256.1577" y="157.5625"/><text fill="#000000" font-family="sans-serif" font-size="12" lengthAdjust="spacing" textLength="44.6016" x="266.1577" y="178.7012">n = 10;</text><rect fill="#F1F1F1" height="33.9688" style="stroke:#181818;stroke-width:0.5;" width="56.9785" x="259.9692" y="211.5313"/><text fill="#000000" font-family="sans-serif" font-size="12" lengthAdjust="spacing" textLength="36.9785" x="269.9692" y="232.6699">d = 2;</text><polygon fill="#F1F1F1" points="143.9917,383.7036,432.9253,383.7036,442.9253,400.688,432.9253,417.6724,143.9917,417.6724" style="stroke:#181818;stroke-width:0.5;"/><text fill="#000000" font-family="sans-serif" font-size="12" lengthAdjust="spacing" textLength="268.9336" x="153.9917" y="404.8423">System.out.println(d + " is a factor of " + n);</text><polygon fill="#DEB887" points="238.7031,335.3013,338.2139,335.3013,350.2139,347.3013,338.2139,359.3013,238.7031,359.3013,226.7031,347.3013,238.7031,335.3013" style="stroke:#FFFF00;stroke-width:0.5;"/><text fill="#008000" font-family="sans-serif" font-size="11" lengthAdjust="spacing" textLength="22.5747" x="292.4585" y="369.5117">true</text><text fill="#000000" font-family="sans-serif" font-size="14" font-weight="bold" lengthAdjust="spacing" textLength="99.5107" x="238.7031" y="352.1479">(n % d) == 0</text><polygon fill="#DEB887" points="288.4585,437.6724,300.4585,449.6724,288.4585,461.6724,276.4585,449.6724,288.4585,437.6724" style="stroke:#FFFF00;stroke-width:0.5;"/><polygon fill="#DEB887" points="264.6455,286.8989,312.2715,286.8989,324.2715,298.8989,312.2715,310.8989,264.6455,310.8989,252.6455,298.8989,264.6455,286.8989" style="stroke:#FFFF00;stroke-width:0.5;"/><text fill="#008000" font-family="sans-serif" font-size="11" lengthAdjust="spacing" textLength="22.5747" x="292.4585" y="321.1094">true</text><text fill="#000000" font-family="sans-serif" font-size="14" font-weight="bold" lengthAdjust="spacing" textLength="47.626" x="264.6455" y="303.7456">d != 0</text><polygon fill="#DEB887" points="288.4585,481.6724,300.4585,493.6724,288.4585,505.6724,276.4585,493.6724,288.4585,481.6724" style="stroke:#FFFF00;stroke-width:0.5;"/><path d="M102.1914,530.0903 L102.1914,555.2231 A0,0 0 0 0 102.1914,555.2231 L239.9692,555.2231 A0,0 0 0 0 239.9692,555.2231 L239.9692,548.0903 L259.9692,542.6567 L239.9692,540.0903 L239.9692,540.0903 L229.9692,530.0903 L102.1914,530.0903 A0,0 0 0 0 102.1914,530.0903 " fill="#FEFFDD" style="stroke:#181818;stroke-width:0.5;"/><path d="M229.9692,530.0903 L229.9692,540.0903 L239.9692,540.0903 L229.9692,530.0903 " fill="#FEFFDD" style="stroke:#181818;stroke-width:0.5;"/><text fill="#000000" font-family="sans-serif" font-size="13" lengthAdjust="spacing" textLength="116.7778" x="108.1914" y="547.1572">now, set d to zero</text><rect fill="#F1F1F1" height="33.9688" style="stroke:#181818;stroke-width:0.5;" width="56.9785" x="259.9692" y="525.6724"/><text fill="#000000" font-family="sans-serif" font-size="12" lengthAdjust="spacing" textLength="36.9785" x="269.9692" y="546.811">d = 0;</text><path d="M53.6895,672.3599 L53.6895,697.4927 L226.7031,697.4927 L226.7031,682.3599 L216.7031,672.3599 L53.6895,672.3599 " fill="#FEFFDD" style="stroke:#181818;stroke-width:0.5;"/><path d="M216.7031,672.3599 L216.7031,682.3599 L226.7031,682.3599 L216.7031,672.3599 " fill="#FEFFDD" style="stroke:#181818;stroke-width:0.5;"/><text fill="#000000" font-family="sans-serif" font-size="13" lengthAdjust="spacing" textLength="152.0137" x="59.6895" y="689.4268">Will not enter the block</text><polygon fill="#F1F1F1" points="143.9917,745.895,432.9253,745.895,442.9253,762.8794,432.9253,779.8638,143.9917,779.8638" style="stroke:#181818;stroke-width:0.5;"/><text fill="#000000" font-family="sans-serif" font-size="12" lengthAdjust="spacing" textLength="268.9336" x="153.9917" y="767.0337">System.out.println(d + " is a factor of " + n);</text><polygon fill="#DEB887" points="238.7031,697.4927,338.2139,697.4927,350.2139,709.4927,338.2139,721.4927,238.7031,721.4927,226.7031,709.4927,238.7031,697.4927" style="stroke:#FFFF00;stroke-width:0.5;"/><text fill="#008000" font-family="sans-serif" font-size="11" lengthAdjust="spacing" textLength="22.5747" x="292.4585" y="731.7031">true</text><text fill="#000000" font-family="sans-serif" font-size="14" font-weight="bold" lengthAdjust="spacing" textLength="99.5107" x="238.7031" y="714.3394">(n % d) == 0</text><polygon fill="#DEB887" points="288.4585,799.8638,300.4585,811.8638,288.4585,823.8638,276.4585,811.8638,288.4585,799.8638" style="stroke:#FFFF00;stroke-width:0.5;"/><polygon fill="#DEB887" points="264.6455,626.6494,312.2715,626.6494,324.2715,638.6494,312.2715,650.6494,264.6455,650.6494,252.6455,638.6494,264.6455,626.6494" style="stroke:#FFFF00;stroke-width:0.5;"/><text fill="#008000" font-family="sans-serif" font-size="11" lengthAdjust="spacing" textLength="22.5747" x="292.4585" y="660.8599">true</text><text fill="#000000" font-family="sans-serif" font-size="14" font-weight="bold" lengthAdjust="spacing" textLength="47.626" x="264.6455" y="643.4961">d != 0</text><polygon fill="#DEB887" points="288.4585,843.8638,300.4585,855.8638,288.4585,867.8638,276.4585,855.8638,288.4585,843.8638" style="stroke:#FFFF00;stroke-width:0.5;"/><polygon fill="#DEB887" points="264.6455,947.6768,312.2715,947.6768,324.2715,959.6768,312.2715,971.6768,264.6455,971.6768,252.6455,959.6768,264.6455,947.6768" style="stroke:#FFFF00;stroke-width:0.5;"/><text fill="#000000" font-family="sans-serif" font-size="14" font-weight="bold" lengthAdjust="spacing" textLength="47.626" x="264.6455" y="964.5234">d != 0</text><text fill="#008000" font-family="sans-serif" font-size="11" lengthAdjust="spacing" textLength="22.5747" x="230.0708" y="957.0825">true</text><text fill="#FF0000" font-family="sans-serif" font-size="11" lengthAdjust="spacing" textLength="26.168" x="324.2715" y="957.0825">false</text><polygon fill="#F1F1F1" points="20,1030.0791,308.9336,1030.0791,318.9336,1047.0635,308.9336,1064.0479,20,1064.0479" style="stroke:#181818;stroke-width:0.5;"/><text fill="#000000" font-family="sans-serif" font-size="12" lengthAdjust="spacing" textLength="268.9336" x="30" y="1051.2178">System.out.println(d + " is a factor of " + n);</text><polygon fill="#DEB887" points="114.7114,981.6768,214.2222,981.6768,226.2222,993.6768,214.2222,1005.6768,114.7114,1005.6768,102.7114,993.6768,114.7114,981.6768" style="stroke:#FFFF00;stroke-width:0.5;"/><text fill="#008000" font-family="sans-serif" font-size="11" lengthAdjust="spacing" textLength="22.5747" x="168.4668" y="1015.8872">true</text><text fill="#000000" font-family="sans-serif" font-size="14" font-weight="bold" lengthAdjust="spacing" textLength="99.5107" x="114.7114" y="998.5234">(n % d) == 0</text><polygon fill="#DEB887" points="164.4668,1084.0479,176.4668,1096.0479,164.4668,1108.0479,152.4668,1096.0479,164.4668,1084.0479" style="stroke:#FFFF00;stroke-width:0.5;"/><rect fill="#F1F1F1" height="33.9688" style="stroke:#181818;stroke-width:0.5;" width="103.0332" x="360.9336" y="981.6768"/><text fill="#000000" font-family="sans-serif" font-size="12" lengthAdjust="spacing" textLength="83.0332" x="370.9336" y="1002.8154">(n % d) == 0;</text><polygon fill="#DEB887" points="288.4585,1114.0479,300.4585,1126.0479,288.4585,1138.0479,276.4585,1126.0479,288.4585,1114.0479" style="stroke:#FFFF00;stroke-width:0.5;"/><ellipse cx="288.4585" cy="1169.0479" fill="none" rx="11" ry="11" style="stroke:#222222;stroke-width:1.0;"/><ellipse cx="288.4585" cy="1169.0479" fill="#222222" rx="6" ry="6" style="stroke:#222222;stroke-width:1.0;"/><line style="stroke:#181818;stroke-width:1.0;" x1="288.4585" x2="288.4585" y1="83.5938" y2="103.5938"/><polygon fill="#181818" points="284.4585,93.5938,288.4585,103.5938,292.4585,93.5938,288.4585,97.5938" style="stroke:#181818;stroke-width:1.0;"/><line style="stroke:#181818;stroke-width:1.0;" x1="288.4585" x2="288.4585" y1="137.5625" y2="157.5625"/><polygon fill="#181818" points="284.4585,147.5625,288.4585,157.5625,292.4585,147.5625,288.4585,151.5625" style="stroke:#181818;stroke-width:1.0;"/><line style="stroke:#181818;stroke-width:1.0;" x1="288.4585" x2="288.4585" y1="191.5313" y2="211.5313"/><polygon fill="#181818" points="284.4585,201.5313,288.4585,211.5313,292.4585,201.5313,288.4585,205.5313" style="stroke:#181818;stroke-width:1.0;"/><line style="stroke:#181818;stroke-width:1.0;" x1="288.4585" x2="288.4585" y1="359.3013" y2="383.7036"/><polygon fill="#181818" points="284.4585,373.7036,288.4585,383.7036,292.4585,373.7036,288.4585,377.7036" style="stroke:#181818;stroke-width:1.0;"/><line style="stroke:#181818;stroke-width:1.0;" x1="350.2139" x2="452.9253" y1="347.3013" y2="347.3013"/><polygon fill="#181818" points="448.9253,390.688,452.9253,400.688,456.9253,390.688,452.9253,394.688" style="stroke:#181818;stroke-width:1.0;"/><line style="stroke:#181818;stroke-width:1.0;" x1="452.9253" x2="452.9253" y1="347.3013" y2="449.6724"/><line style="stroke:#181818;stroke-width:1.0;" x1="452.9253" x2="300.4585" y1="449.6724" y2="449.6724"/><polygon fill="#181818" points="310.4585,445.6724,300.4585,449.6724,310.4585,453.6724,306.4585,449.6724" style="stroke:#181818;stroke-width:1.0;"/><line style="stroke:#181818;stroke-width:1.0;" x1="288.4585" x2="288.4585" y1="417.6724" y2="437.6724"/><polygon fill="#181818" points="284.4585,427.6724,288.4585,437.6724,292.4585,427.6724,288.4585,431.6724" style="stroke:#181818;stroke-width:1.0;"/><line style="stroke:#181818;stroke-width:1.0;" x1="288.4585" x2="288.4585" y1="310.8989" y2="335.3013"/><polygon fill="#181818" points="284.4585,325.3013,288.4585,335.3013,292.4585,325.3013,288.4585,329.3013" style="stroke:#181818;stroke-width:1.0;"/><line style="stroke:#181818;stroke-width:1.0;" x1="324.2715" x2="474.9253" y1="298.8989" y2="298.8989"/><polygon fill="#181818" points="470.9253,390.688,474.9253,400.688,478.9253,390.688,474.9253,394.688" style="stroke:#181818;stroke-width:1.0;"/><line style="stroke:#181818;stroke-width:1.0;" x1="474.9253" x2="474.9253" y1="298.8989" y2="493.6724"/><line style="stroke:#181818;stroke-width:1.0;" x1="474.9253" x2="300.4585" y1="493.6724" y2="493.6724"/><polygon fill="#181818" points="310.4585,489.6724,300.4585,493.6724,310.4585,497.6724,306.4585,493.6724" style="stroke:#181818;stroke-width:1.0;"/><line style="stroke:#181818;stroke-width:1.0;" x1="288.4585" x2="288.4585" y1="461.6724" y2="481.6724"/><polygon fill="#181818" points="284.4585,471.6724,288.4585,481.6724,292.4585,471.6724,288.4585,475.6724" style="stroke:#181818;stroke-width:1.0;"/><line style="stroke:#181818;stroke-width:1.0;" x1="288.4585" x2="288.4585" y1="245.5" y2="286.8989"/><polygon fill="#181818" points="284.4585,276.8989,288.4585,286.8989,292.4585,276.8989,288.4585,280.8989" style="stroke:#181818;stroke-width:1.0;"/><text fill="#000000" font-family="sans-serif" font-size="11" lengthAdjust="spacing" textLength="139.7397" x="292.4585" y="266.8047">(d != 0 &amp;&amp; (n % d) == 0)</text><line style="stroke:#181818;stroke-width:1.0;" x1="288.4585" x2="288.4585" y1="505.6724" y2="525.6724"/><polygon fill="#181818" points="284.4585,515.6724,288.4585,525.6724,292.4585,515.6724,288.4585,519.6724" style="stroke:#181818;stroke-width:1.0;"/><line style="stroke:#181818;stroke-width:1.0;" x1="288.4585" x2="288.4585" y1="721.4927" y2="745.895"/><polygon fill="#181818" points="284.4585,735.895,288.4585,745.895,292.4585,735.895,288.4585,739.895" style="stroke:#181818;stroke-width:1.0;"/><line style="stroke:#181818;stroke-width:1.0;" x1="350.2139" x2="452.9253" y1="709.4927" y2="709.4927"/><polygon fill="#181818" points="448.9253,752.8794,452.9253,762.8794,456.9253,752.8794,452.9253,756.8794" style="stroke:#181818;stroke-width:1.0;"/><line style="stroke:#181818;stroke-width:1.0;" x1="452.9253" x2="452.9253" y1="709.4927" y2="811.8638"/><line style="stroke:#181818;stroke-width:1.0;" x1="452.9253" x2="300.4585" y1="811.8638" y2="811.8638"/><polygon fill="#181818" points="310.4585,807.8638,300.4585,811.8638,310.4585,815.8638,306.4585,811.8638" style="stroke:#181818;stroke-width:1.0;"/><line style="stroke:#181818;stroke-width:1.0;" x1="288.4585" x2="288.4585" y1="779.8638" y2="799.8638"/><polygon fill="#181818" points="284.4585,789.8638,288.4585,799.8638,292.4585,789.8638,288.4585,793.8638" style="stroke:#181818;stroke-width:1.0;"/><line style="stroke:#181818;stroke-width:1.0;" x1="288.4585" x2="288.4585" y1="650.6494" y2="697.4927"/><polygon fill="#181818" points="284.4585,687.4927,288.4585,697.4927,292.4585,687.4927,288.4585,691.4927" style="stroke:#181818;stroke-width:1.0;"/><line style="stroke:#181818;stroke-width:1.0;" x1="324.2715" x2="413.1699" y1="638.6494" y2="638.6494"/><polygon fill="#181818" points="409.1699,740.313,413.1699,750.313,417.1699,740.313,413.1699,744.313" style="stroke:#181818;stroke-width:1.0;"/><line style="stroke:#181818;stroke-width:1.0;" x1="413.1699" x2="413.1699" y1="638.6494" y2="855.8638"/><line style="stroke:#181818;stroke-width:1.0;" x1="413.1699" x2="300.4585" y1="855.8638" y2="855.8638"/><polygon fill="#181818" points="310.4585,851.8638,300.4585,855.8638,310.4585,859.8638,306.4585,855.8638" style="stroke:#181818;stroke-width:1.0;"/><line style="stroke:#181818;stroke-width:1.0;" x1="288.4585" x2="288.4585" y1="823.8638" y2="843.8638"/><polygon fill="#181818" points="284.4585,833.8638,288.4585,843.8638,292.4585,833.8638,288.4585,837.8638" style="stroke:#181818;stroke-width:1.0;"/><line style="stroke:#181818;stroke-width:1.0;" x1="288.4585" x2="288.4585" y1="559.6411" y2="626.6494"/><polygon fill="#181818" points="284.4585,616.6494,288.4585,626.6494,292.4585,616.6494,288.4585,620.6494" style="stroke:#181818;stroke-width:1.0;"/><text fill="#000000" font-family="sans-serif" font-size="11" lengthAdjust="spacing" textLength="139.7397" x="292.4585" y="580.9458">(d != 0 &amp;&amp; (n % d) == 0)</text><text fill="#000000" font-family="sans-serif" font-size="11" lengthAdjust="spacing" textLength="146.3999" x="292.4585" y="593.7505">since d is zero, the second</text><text fill="#000000" font-family="sans-serif" font-size="11" lengthAdjust="spacing" textLength="141.335" x="292.4585" y="606.5552">operand is not evaluated.</text><line style="stroke:#181818;stroke-width:1.0;" x1="164.4668" x2="164.4668" y1="1005.6768" y2="1030.0791"/><polygon fill="#181818" points="160.4668,1020.0791,164.4668,1030.0791,168.4668,1020.0791,164.4668,1024.0791" style="stroke:#181818;stroke-width:1.0;"/><line style="stroke:#181818;stroke-width:1.0;" x1="226.2222" x2="328.9336" y1="993.6768" y2="993.6768"/><polygon fill="#181818" points="324.9336,1037.0635,328.9336,1047.0635,332.9336,1037.0635,328.9336,1041.0635" style="stroke:#181818;stroke-width:1.0;"/><line style="stroke:#181818;stroke-width:1.0;" x1="328.9336" x2="328.9336" y1="993.6768" y2="1096.0479"/><line style="stroke:#181818;stroke-width:1.0;" x1="328.9336" x2="176.4668" y1="1096.0479" y2="1096.0479"/><polygon fill="#181818" points="186.4668,1092.0479,176.4668,1096.0479,186.4668,1100.0479,182.4668,1096.0479" style="stroke:#181818;stroke-width:1.0;"/><line style="stroke:#181818;stroke-width:1.0;" x1="164.4668" x2="164.4668" y1="1064.0479" y2="1084.0479"/><polygon fill="#181818" points="160.4668,1074.0479,164.4668,1084.0479,168.4668,1074.0479,164.4668,1078.0479" style="stroke:#181818;stroke-width:1.0;"/><line style="stroke:#181818;stroke-width:1.0;" x1="252.6455" x2="164.4668" y1="959.6768" y2="959.6768"/><line style="stroke:#181818;stroke-width:1.0;" x1="164.4668" x2="164.4668" y1="959.6768" y2="981.6768"/><polygon fill="#181818" points="160.4668,971.6768,164.4668,981.6768,168.4668,971.6768,164.4668,975.6768" style="stroke:#181818;stroke-width:1.0;"/><line style="stroke:#181818;stroke-width:1.0;" x1="324.2715" x2="412.4502" y1="959.6768" y2="959.6768"/><line style="stroke:#181818;stroke-width:1.0;" x1="412.4502" x2="412.4502" y1="959.6768" y2="981.6768"/><polygon fill="#181818" points="408.4502,971.6768,412.4502,981.6768,416.4502,971.6768,412.4502,975.6768" style="stroke:#181818;stroke-width:1.0;"/><line style="stroke:#181818;stroke-width:1.0;" x1="164.4668" x2="164.4668" y1="1108.0479" y2="1126.0479"/><line style="stroke:#181818;stroke-width:1.0;" x1="164.4668" x2="276.4585" y1="1126.0479" y2="1126.0479"/><polygon fill="#181818" points="266.4585,1122.0479,276.4585,1126.0479,266.4585,1130.0479,270.4585,1126.0479" style="stroke:#181818;stroke-width:1.0;"/><line style="stroke:#181818;stroke-width:1.0;" x1="412.4502" x2="412.4502" y1="1015.6455" y2="1126.0479"/><line style="stroke:#181818;stroke-width:1.0;" x1="412.4502" x2="300.4585" y1="1126.0479" y2="1126.0479"/><polygon fill="#181818" points="310.4585,1122.0479,300.4585,1126.0479,310.4585,1130.0479,306.4585,1126.0479" style="stroke:#181818;stroke-width:1.0;"/><line style="stroke:#181818;stroke-width:1.0;" x1="288.4585" x2="288.4585" y1="867.8638" y2="947.6768"/><polygon fill="#181818" points="284.4585,937.6768,288.4585,947.6768,292.4585,937.6768,288.4585,941.6768" style="stroke:#181818;stroke-width:1.0;"/><text fill="#000000" font-family="sans-serif" font-size="11" lengthAdjust="spacing" textLength="131.1621" x="292.4585" y="889.1685">(d != 0 &amp; (n % d) == 0)</text><text fill="#000000" font-family="sans-serif" font-size="11" lengthAdjust="spacing" textLength="156.3848" x="292.4585" y="901.9731">Now, try same thing without</text><text fill="#000000" font-family="sans-serif" font-size="11" lengthAdjust="spacing" textLength="120.5542" x="292.4585" y="914.7778">short-circuit operator.</text><text fill="#000000" font-family="sans-serif" font-size="11" lengthAdjust="spacing" textLength="206.2661" x="292.4585" y="927.5825">This will cause a divide-by-zero error.</text><line style="stroke:#181818;stroke-width:1.0;" x1="288.4585" x2="288.4585" y1="1138.0479" y2="1158.0479"/><polygon fill="#181818" points="284.4585,1148.0479,288.4585,1158.0479,292.4585,1148.0479,288.4585,1152.0479" style="stroke:#181818;stroke-width:1.0;"/><!--SRC=[rLDDZzCm4BtxLmoBM3MY7zi2bpIr12jnGboAn8MB6qzQguuTxCb6MSH_PvnqTriGUmOVh7ZcpSnxJvCYKczH2k3plYHpPwY77yCpdO_UqTRS8onNZp5jLEsTFaEbyyaulFNM1-ZHMjzT93-eyhWFldLwXEpQOFlEUts1UXhszizueWaxRvzAVehnBXOd3MI8COygcES-g1fy1TzSKN4JSAh63PFtiL4bog8SsBnyjtopsg7Stlecpcjbt2Gh5aDE5ejKAA56EZ1T4Ka54Y8tgTiKz1I-hzVyTh21vSrw3KL1AXwb5BdcqEey8cPoek751cxW-Xec3bw1pc33xsmjJ7NAPK07T30PoUNxWEWaXHQpGI_ZBYgVHwUJR_j8MCzzI_CcC77hUDHhk08JGK6bIc8JsAKh3hfiOCpOfYKvxWKwRIentcBKTQ7KUS8SdE-c49500tcun-2V4ooYSIKobZaax3JfuF8oRPRm3GRbXYGt1xnJjbM4UluV-9I-aYEGmrTZxIZ04OP1uSxwylZWvPazlxdpEPb9eOV86yk5nksXCxo2BO681nzeLffGjePWy8gPpSMN0nFjqinIjH6Pi-O_GUDiry-Inu0XC8xNzLyoyI_RPbd0mw20MbQA8-ES_9pJsE6qYITV8_dc5m00]--></g></svg>