<svg xmlns="http://www.w3.org/2000/svg" xmlns:xlink="http://www.w3.org/1999/xlink" contentStyleType="text/css" height="884px" preserveAspectRatio="none" style="width:590px;height:884px;background:#FFFFFF;" version="1.1" viewBox="0 0 590 884" width="590px" zoomAndPan="magnify"><title>Activity diagram of </title><defs/><g><text fill="#000000" font-family="sans-serif" font-size="14" font-weight="bold" lengthAdjust="spacing" textLength="151.0537" x="215.7281" y="32.9951">Activity diagram of</text><text fill="#5132BE" font-family="name=monospace" font-size="14" font-weight="bold" lengthAdjust="spacing" textLength="145.8789" x="188.1246" y="49.292">SideEffects.main()</text><text fill="#000000" font-family="sans-serif" font-size="14" font-weight="bold" lengthAdjust="spacing" textLength="60.3818" x="338.8776" y="49.292">method</text><ellipse cx="281.5396" cy="73.5938" fill="#222222" rx="10" ry="10" style="stroke:#222222;stroke-width:1.0;"/><rect fill="#F1F1F1" height="33.9688" rx="12.5" ry="12.5" style="stroke:#181818;stroke-width:0.5;" width="46.8359" x="258.1216" y="103.5938"/><text fill="#000000" font-family="sans-serif" font-size="12" lengthAdjust="spacing" textLength="26.8359" x="268.1216" y="124.7324">int i;</text><rect fill="#F1F1F1" height="33.9688" style="stroke:#181818;stroke-width:0.5;" width="52.6953" x="255.1919" y="157.5625"/><text fill="#000000" font-family="sans-serif" font-size="12" lengthAdjust="spacing" textLength="32.6953" x="265.1919" y="178.7012">i = 0;</text><polygon fill="#DEB887" points="265.0103,284.1489,298.0688,284.1489,310.0688,296.1489,298.0688,308.1489,265.0103,308.1489,253.0103,296.1489,265.0103,284.1489" style="stroke:#FFFF00;stroke-width:0.5;"/><text fill="#000000" font-family="sans-serif" font-size="14" font-weight="bold" lengthAdjust="spacing" textLength="33.0586" x="265.0103" y="300.9956">true</text><text fill="#008000" font-family="sans-serif" font-size="11" lengthAdjust="spacing" textLength="22.5747" x="230.4355" y="293.5547">true</text><text fill="#FF0000" font-family="sans-serif" font-size="11" lengthAdjust="spacing" textLength="26.168" x="310.0688" y="293.5547">false</text><polygon fill="#DEB887" points="114.2834,318.1489,193.2454,318.1489,205.2454,330.1489,193.2454,342.1489,114.2834,342.1489,102.2834,330.1489,114.2834,318.1489" style="stroke:#FFFF00;stroke-width:0.5;"/><text fill="#000000" font-family="sans-serif" font-size="14" font-weight="bold" lengthAdjust="spacing" textLength="78.9619" x="114.2834" y="334.9956">++i &lt; 100</text><text fill="#008000" font-family="sans-serif" font-size="11" lengthAdjust="spacing" textLength="22.5747" x="79.7087" y="327.5547">true</text><polygon fill="#DEB887" points="153.7644,358.1489,165.7644,370.1489,153.7644,382.1489,141.7644,370.1489,153.7644,358.1489" style="stroke:#FFFF00;stroke-width:0.5;"/><rect fill="#F1F1F1" height="33.9688" style="stroke:#181818;stroke-width:0.5;" width="93.3945" x="362.6174" y="318.1489"/><text fill="#000000" font-family="sans-serif" font-size="12" lengthAdjust="spacing" textLength="73.3945" x="372.6174" y="339.2876">(++i &lt; 100)</text><polygon fill="#F1F1F1" points="260.2454,387.1177,558.384,387.1177,568.384,404.1021,558.384,421.0864,260.2454,421.0864" style="stroke:#181818;stroke-width:0.5;"/><text fill="#000000" font-family="sans-serif" font-size="12" lengthAdjust="spacing" textLength="278.1387" x="270.2454" y="408.2563">System.out.println("this won't be displayed.");</text><polygon fill="#DEB887" points="281.5396,427.0864,293.5396,439.0864,281.5396,451.0864,269.5396,439.0864,281.5396,427.0864" style="stroke:#FFFF00;stroke-width:0.5;"/><polygon fill="#F1F1F1" points="84.9126,471.0864,478.1665,471.0864,488.1665,488.0708,478.1665,505.0552,84.9126,505.0552" style="stroke:#181818;stroke-width:0.5;"/><text fill="#000000" font-family="sans-serif" font-size="12" lengthAdjust="spacing" textLength="373.2539" x="94.9126" y="492.2251">System.out.println("if statement executed: " + i); // displays 1</text><polygon fill="#DEB887" points="265.0103,610.4775,298.0688,610.4775,310.0688,622.4775,298.0688,634.4775,265.0103,634.4775,253.0103,622.4775,265.0103,610.4775" style="stroke:#FFFF00;stroke-width:0.5;"/><text fill="#000000" font-family="sans-serif" font-size="14" font-weight="bold" lengthAdjust="spacing" textLength="33.0586" x="265.0103" y="627.3242">true</text><text fill="#008000" font-family="sans-serif" font-size="11" lengthAdjust="spacing" textLength="22.5747" x="230.4355" y="619.8833">true</text><text fill="#FF0000" font-family="sans-serif" font-size="11" lengthAdjust="spacing" textLength="26.168" x="310.0688" y="619.8833">false</text><polygon fill="#DEB887" points="114.2834,644.4775,193.2454,644.4775,205.2454,656.4775,193.2454,668.4775,114.2834,668.4775,102.2834,656.4775,114.2834,644.4775" style="stroke:#FFFF00;stroke-width:0.5;"/><text fill="#000000" font-family="sans-serif" font-size="14" font-weight="bold" lengthAdjust="spacing" textLength="78.9619" x="114.2834" y="661.3242">++i &lt; 100</text><text fill="#008000" font-family="sans-serif" font-size="11" lengthAdjust="spacing" textLength="22.5747" x="79.7087" y="653.8833">true</text><polygon fill="#DEB887" points="153.7644,684.4775,165.7644,696.4775,153.7644,708.4775,141.7644,696.4775,153.7644,684.4775" style="stroke:#FFFF00;stroke-width:0.5;"/><rect fill="#F1F1F1" height="33.9688" style="stroke:#181818;stroke-width:0.5;" width="93.3945" x="362.6174" y="644.4775"/><text fill="#000000" font-family="sans-serif" font-size="12" lengthAdjust="spacing" textLength="73.3945" x="372.6174" y="665.6162">(++i &lt; 100)</text><polygon fill="#F1F1F1" points="260.2454,713.4463,558.384,713.4463,568.384,730.4307,558.384,747.415,260.2454,747.415" style="stroke:#181818;stroke-width:0.5;"/><text fill="#000000" font-family="sans-serif" font-size="12" lengthAdjust="spacing" textLength="278.1387" x="270.2454" y="734.585">System.out.println("this won't be displayed.");</text><polygon fill="#DEB887" points="281.5396,753.415,293.5396,765.415,281.5396,777.415,269.5396,765.415,281.5396,753.415" style="stroke:#FFFF00;stroke-width:0.5;"/><path d="M10,801.833 L10,826.9658 A0,0 0 0 0 10,826.9658 L102.9253,826.9658 A0,0 0 0 0 102.9253,826.9658 L102.9253,819.833 L122.9253,814.3994 L102.9253,811.833 L102.9253,811.833 L92.9253,801.833 L10,801.833 A0,0 0 0 0 10,801.833 " fill="#FEFFDD" style="stroke:#181818;stroke-width:0.5;"/><path d="M92.9253,801.833 L92.9253,811.833 L102.9253,811.833 L92.9253,801.833 " fill="#FEFFDD" style="stroke:#181818;stroke-width:0.5;"/><text fill="#000000" font-family="sans-serif" font-size="13" lengthAdjust="spacing" textLength="71.9253" x="16" y="818.8999">i is still 1 !!</text><polygon fill="#F1F1F1" points="122.9253,797.415,440.1538,797.415,450.1538,814.3994,440.1538,831.3838,122.9253,831.3838" style="stroke:#181818;stroke-width:0.5;"/><text fill="#000000" font-family="sans-serif" font-size="12" lengthAdjust="spacing" textLength="297.2285" x="132.9253" y="818.5537">System.out.println("if statement executed: " + i);</text><ellipse cx="281.5396" cy="862.3838" fill="none" rx="11" ry="11" style="stroke:#222222;stroke-width:1.0;"/><ellipse cx="281.5396" cy="862.3838" fill="#222222" rx="6" ry="6" style="stroke:#222222;stroke-width:1.0;"/><line style="stroke:#181818;stroke-width:1.0;" x1="281.5396" x2="281.5396" y1="83.5938" y2="103.5938"/><polygon fill="#181818" points="277.5396,93.5938,281.5396,103.5938,285.5396,93.5938,281.5396,97.5938" style="stroke:#181818;stroke-width:1.0;"/><line style="stroke:#181818;stroke-width:1.0;" x1="281.5396" x2="281.5396" y1="137.5625" y2="157.5625"/><polygon fill="#181818" points="277.5396,147.5625,281.5396,157.5625,285.5396,147.5625,281.5396,151.5625" style="stroke:#181818;stroke-width:1.0;"/><line style="stroke:#181818;stroke-width:1.0;" x1="102.2834" x2="92.2834" y1="330.1489" y2="330.1489"/><polygon fill="#181818" points="88.2834,340.1489,92.2834,350.1489,96.2834,340.1489,92.2834,344.1489" style="stroke:#181818;stroke-width:1.0;"/><line style="stroke:#181818;stroke-width:1.0;" x1="92.2834" x2="92.2834" y1="330.1489" y2="370.1489"/><line style="stroke:#181818;stroke-width:1.0;" x1="92.2834" x2="141.7644" y1="370.1489" y2="370.1489"/><polygon fill="#181818" points="131.7644,366.1489,141.7644,370.1489,131.7644,374.1489,135.7644,370.1489" style="stroke:#181818;stroke-width:1.0;"/><line style="stroke:#181818;stroke-width:1.0;" x1="205.2454" x2="215.2454" y1="330.1489" y2="330.1489"/><polygon fill="#181818" points="211.2454,340.1489,215.2454,350.1489,219.2454,340.1489,215.2454,344.1489" style="stroke:#181818;stroke-width:1.0;"/><line style="stroke:#181818;stroke-width:1.0;" x1="215.2454" x2="215.2454" y1="330.1489" y2="370.1489"/><line style="stroke:#181818;stroke-width:1.0;" x1="215.2454" x2="165.7644" y1="370.1489" y2="370.1489"/><polygon fill="#181818" points="175.7644,366.1489,165.7644,370.1489,175.7644,374.1489,171.7644,370.1489" style="stroke:#181818;stroke-width:1.0;"/><line style="stroke:#181818;stroke-width:1.0;" x1="409.3147" x2="409.3147" y1="352.1177" y2="387.1177"/><polygon fill="#181818" points="405.3147,377.1177,409.3147,387.1177,413.3147,377.1177,409.3147,381.1177" style="stroke:#181818;stroke-width:1.0;"/><line style="stroke:#181818;stroke-width:1.0;" x1="253.0103" x2="153.7644" y1="296.1489" y2="296.1489"/><line style="stroke:#181818;stroke-width:1.0;" x1="153.7644" x2="153.7644" y1="296.1489" y2="318.1489"/><polygon fill="#181818" points="149.7644,308.1489,153.7644,318.1489,157.7644,308.1489,153.7644,312.1489" style="stroke:#181818;stroke-width:1.0;"/><line style="stroke:#181818;stroke-width:1.0;" x1="310.0688" x2="409.3147" y1="296.1489" y2="296.1489"/><line style="stroke:#181818;stroke-width:1.0;" x1="409.3147" x2="409.3147" y1="296.1489" y2="318.1489"/><polygon fill="#181818" points="405.3147,308.1489,409.3147,318.1489,413.3147,308.1489,409.3147,312.1489" style="stroke:#181818;stroke-width:1.0;"/><line style="stroke:#181818;stroke-width:1.0;" x1="153.7644" x2="153.7644" y1="382.1489" y2="439.0864"/><line style="stroke:#181818;stroke-width:1.0;" x1="153.7644" x2="269.5396" y1="439.0864" y2="439.0864"/><polygon fill="#181818" points="259.5396,435.0864,269.5396,439.0864,259.5396,443.0864,263.5396,439.0864" style="stroke:#181818;stroke-width:1.0;"/><line style="stroke:#181818;stroke-width:1.0;" x1="409.3147" x2="409.3147" y1="421.0864" y2="439.0864"/><line style="stroke:#181818;stroke-width:1.0;" x1="409.3147" x2="293.5396" y1="439.0864" y2="439.0864"/><polygon fill="#181818" points="303.5396,435.0864,293.5396,439.0864,303.5396,443.0864,299.5396,439.0864" style="stroke:#181818;stroke-width:1.0;"/><line style="stroke:#181818;stroke-width:1.0;" x1="281.5396" x2="281.5396" y1="191.5313" y2="284.1489"/><polygon fill="#181818" points="277.5396,274.1489,281.5396,284.1489,285.5396,274.1489,281.5396,278.1489" style="stroke:#181818;stroke-width:1.0;"/><text fill="#000000" font-family="sans-serif" font-size="11" font-weight="bold" lengthAdjust="spacing" textLength="129.3896" x="285.5396" y="212.8359">(false &amp; (++i &lt; 100))</text><text fill="#000000" font-family="sans-serif" font-size="11" lengthAdjust="spacing" textLength="3.4966" x="285.5396" y="225.6406">&#160;</text><text fill="#000000" font-family="sans-serif" font-size="11" lengthAdjust="spacing" textLength="144.751" x="285.5396" y="238.4453">Here, i is still incremented</text><text fill="#000000" font-family="sans-serif" font-size="11" lengthAdjust="spacing" textLength="101.4277" x="285.5396" y="251.25">even though the if</text><text fill="#000000" font-family="sans-serif" font-size="11" lengthAdjust="spacing" textLength="86.0825" x="285.5396" y="264.0547">statement fails.</text><line style="stroke:#181818;stroke-width:1.0;" x1="281.5396" x2="281.5396" y1="451.0864" y2="471.0864"/><polygon fill="#181818" points="277.5396,461.0864,281.5396,471.0864,285.5396,461.0864,281.5396,465.0864" style="stroke:#181818;stroke-width:1.0;"/><line style="stroke:#181818;stroke-width:1.0;" x1="102.2834" x2="92.2834" y1="656.4775" y2="656.4775"/><polygon fill="#181818" points="88.2834,666.4775,92.2834,676.4775,96.2834,666.4775,92.2834,670.4775" style="stroke:#181818;stroke-width:1.0;"/><line style="stroke:#181818;stroke-width:1.0;" x1="92.2834" x2="92.2834" y1="656.4775" y2="696.4775"/><line style="stroke:#181818;stroke-width:1.0;" x1="92.2834" x2="141.7644" y1="696.4775" y2="696.4775"/><polygon fill="#181818" points="131.7644,692.4775,141.7644,696.4775,131.7644,700.4775,135.7644,696.4775" style="stroke:#181818;stroke-width:1.0;"/><line style="stroke:#181818;stroke-width:1.0;" x1="205.2454" x2="215.2454" y1="656.4775" y2="656.4775"/><polygon fill="#181818" points="211.2454,666.4775,215.2454,676.4775,219.2454,666.4775,215.2454,670.4775" style="stroke:#181818;stroke-width:1.0;"/><line style="stroke:#181818;stroke-width:1.0;" x1="215.2454" x2="215.2454" y1="656.4775" y2="696.4775"/><line style="stroke:#181818;stroke-width:1.0;" x1="215.2454" x2="165.7644" y1="696.4775" y2="696.4775"/><polygon fill="#181818" points="175.7644,692.4775,165.7644,696.4775,175.7644,700.4775,171.7644,696.4775" style="stroke:#181818;stroke-width:1.0;"/><line style="stroke:#181818;stroke-width:1.0;" x1="409.3147" x2="409.3147" y1="678.4463" y2="713.4463"/><polygon fill="#181818" points="405.3147,703.4463,409.3147,713.4463,413.3147,703.4463,409.3147,707.4463" style="stroke:#181818;stroke-width:1.0;"/><line style="stroke:#181818;stroke-width:1.0;" x1="253.0103" x2="153.7644" y1="622.4775" y2="622.4775"/><line style="stroke:#181818;stroke-width:1.0;" x1="153.7644" x2="153.7644" y1="622.4775" y2="644.4775"/><polygon fill="#181818" points="149.7644,634.4775,153.7644,644.4775,157.7644,634.4775,153.7644,638.4775" style="stroke:#181818;stroke-width:1.0;"/><line style="stroke:#181818;stroke-width:1.0;" x1="310.0688" x2="409.3147" y1="622.4775" y2="622.4775"/><line style="stroke:#181818;stroke-width:1.0;" x1="409.3147" x2="409.3147" y1="622.4775" y2="644.4775"/><polygon fill="#181818" points="405.3147,634.4775,409.3147,644.4775,413.3147,634.4775,409.3147,638.4775" style="stroke:#181818;stroke-width:1.0;"/><line style="stroke:#181818;stroke-width:1.0;" x1="153.7644" x2="153.7644" y1="708.4775" y2="765.415"/><line style="stroke:#181818;stroke-width:1.0;" x1="153.7644" x2="269.5396" y1="765.415" y2="765.415"/><polygon fill="#181818" points="259.5396,761.415,269.5396,765.415,259.5396,769.415,263.5396,765.415" style="stroke:#181818;stroke-width:1.0;"/><line style="stroke:#181818;stroke-width:1.0;" x1="409.3147" x2="409.3147" y1="747.415" y2="765.415"/><line style="stroke:#181818;stroke-width:1.0;" x1="409.3147" x2="293.5396" y1="765.415" y2="765.415"/><polygon fill="#181818" points="303.5396,761.415,293.5396,765.415,303.5396,769.415,299.5396,765.415" style="stroke:#181818;stroke-width:1.0;"/><line style="stroke:#181818;stroke-width:1.0;" x1="281.5396" x2="281.5396" y1="505.0552" y2="610.4775"/><polygon fill="#181818" points="277.5396,600.4775,281.5396,610.4775,285.5396,600.4775,281.5396,604.4775" style="stroke:#181818;stroke-width:1.0;"/><text fill="#000000" font-family="sans-serif" font-size="11" font-weight="bold" lengthAdjust="spacing" textLength="138.9824" x="285.5396" y="526.3599">(false &amp;&amp; (++i &lt; 100))</text><text fill="#000000" font-family="sans-serif" font-size="11" lengthAdjust="spacing" textLength="3.4966" x="285.5396" y="539.1646">&#160;</text><text fill="#000000" font-family="sans-serif" font-size="11" lengthAdjust="spacing" textLength="84.9009" x="285.5396" y="551.9692">In this case, i is</text><text fill="#000000" font-family="sans-serif" font-size="11" lengthAdjust="spacing" textLength="140.8999" x="285.5396" y="564.7739">not incremented because</text><text fill="#000000" font-family="sans-serif" font-size="11" lengthAdjust="spacing" textLength="138.6064" x="285.5396" y="577.5786">the short-circuit operator</text><text fill="#000000" font-family="sans-serif" font-size="11" lengthAdjust="spacing" textLength="112.5459" x="285.5396" y="590.3833">skips the increment.</text><line style="stroke:#181818;stroke-width:1.0;" x1="281.5396" x2="281.5396" y1="777.415" y2="797.415"/><polygon fill="#181818" points="277.5396,787.415,281.5396,797.415,285.5396,787.415,281.5396,791.415" style="stroke:#181818;stroke-width:1.0;"/><line style="stroke:#181818;stroke-width:1.0;" x1="281.5396" x2="281.5396" y1="831.3838" y2="851.3838"/><polygon fill="#181818" points="277.5396,841.3838,281.5396,851.3838,285.5396,841.3838,281.5396,845.3838" style="stroke:#181818;stroke-width:1.0;"/><!--SRC=[tLF1ZjCm4BtxAsQB1AdAjiq2bpOR2H0896wzSd6IIJkgOqVsP4j0_3lZX6uRiUB0aJaaZkVvpPjvSHQuDvWha7XRCZqGz_1Z-8pnqLdUqNU4zEvnhoBTE5jTeM9y8OlldN4UUZJ6dIR9TxeyxhthR3L2YiwR_kHSDK5TYht-Sp_AXCAPov6VQdncgzyzCB5W7hiGdNkl6t0rVBLPBIHWTOFt8jw5LfUOP-MWvjcRzDLTWVcEAlnGrrXoM3QQR3BFLWCYprRnU0uDya54gy3Qir8R4axQRkCAxc6ztKAMiGx7F5VgDi-AFAcr2GZF8Lai2398r-kvi1QI_uGUNm811GXCnW3PqcE3bh42XGzeGOfr-uEy4AY6M9K70DIQJ5XANQeJzXtE8yP2CZQqsNj4cm-9OKQ2kfJ_EpJ6i41RKQqmgZzZFLRvqCy8tLoHNZK-f7Pz4AbBr_6ozJ8bOvCP7wJLaxCl60eKTq9hT8_LSZOVvYROjcCX62iFGfxaaL5S9e7ViEnaOXkOmG98XAnMP-u0wOHuQibJddoECnULfGvdRvHrFB6cm59t0LLq9HoSvzkIVDaHWslHQvOVIeKZjM7qxNpo_tPB_OjL4nuPCyBc-ZwaS7CJhvfhVm40]--></g></svg>