<svg xmlns="http://www.w3.org/2000/svg" xmlns:xlink="http://www.w3.org/1999/xlink" contentStyleType="text/css" height="477px" preserveAspectRatio="none" style="width:437px;height:477px;background:#FFFFFF;" version="1.1" viewBox="0 0 437 477" width="437px" zoomAndPan="magnify"><title>Activity diagram of </title><defs/><g><text fill="#000000" font-family="sans-serif" font-size="14" font-weight="bold" lengthAdjust="spacing" textLength="151.0537" x="139.2854" y="32.9951">Activity diagram of</text><text fill="#5132BE" font-family="name=monospace" font-size="14" font-weight="bold" lengthAdjust="spacing" textLength="116.3135" x="126.4646" y="49.292">Sound2.main()</text><text fill="#000000" font-family="sans-serif" font-size="14" font-weight="bold" lengthAdjust="spacing" textLength="60.3818" x="247.6521" y="49.292">method</text><ellipse cx="281.0767" cy="73.5938" fill="#222222" rx="10" ry="10" style="stroke:#222222;stroke-width:1.0;"/><path d="M153.0913,108.0117 L153.0913,133.1445 A0,0 0 0 0 153.0913,133.1445 L215.7446,133.1445 A0,0 0 0 0 215.7446,133.1445 L215.7446,126.0117 L235.7446,120.5781 L215.7446,118.0117 L215.7446,118.0117 L205.7446,108.0117 L153.0913,108.0117 A0,0 0 0 0 153.0913,108.0117 " fill="#FEFFDD" style="stroke:#181818;stroke-width:0.5;"/><path d="M205.7446,108.0117 L205.7446,118.0117 L215.7446,118.0117 L205.7446,108.0117 " fill="#FEFFDD" style="stroke:#181818;stroke-width:0.5;"/><text fill="#000000" font-family="sans-serif" font-size="13" lengthAdjust="spacing" textLength="41.6533" x="159.0913" y="125.0786">in feet</text><rect fill="#F1F1F1" height="33.9688" rx="12.5" ry="12.5" style="stroke:#181818;stroke-width:0.5;" width="90.6641" x="235.7446" y="103.5938"/><text fill="#000000" font-family="sans-serif" font-size="12" lengthAdjust="spacing" textLength="70.6641" x="245.7446" y="124.7324">double dist;</text><path d="M74.168,161.9805 L74.168,187.1133 A0,0 0 0 0 74.168,187.1133 L164.2876,187.1133 A0,0 0 0 0 164.2876,187.1133 L164.2876,179.9805 L184.2876,174.5469 L164.2876,171.9805 L164.2876,171.9805 L154.2876,161.9805 L74.168,161.9805 A0,0 0 0 0 74.168,161.9805 " fill="#FEFFDD" style="stroke:#181818;stroke-width:0.5;"/><path d="M154.2876,161.9805 L154.2876,171.9805 L164.2876,171.9805 L154.2876,161.9805 " fill="#FEFFDD" style="stroke:#181818;stroke-width:0.5;"/><text fill="#000000" font-family="sans-serif" font-size="13" lengthAdjust="spacing" textLength="69.1196" x="80.168" y="179.0474">in seconds</text><rect fill="#F1F1F1" height="33.9688" rx="12.5" ry="12.5" style="stroke:#181818;stroke-width:0.5;" width="193.5781" x="184.2876" y="157.5625"/><text fill="#000000" font-family="sans-serif" font-size="12" lengthAdjust="spacing" textLength="173.5781" x="194.2876" y="178.7012">double roundTripTime = 4.8;</text><path d="M25.5352,215.9492 L25.5352,241.082 A0,0 0 0 0 25.5352,241.082 L115.6548,241.082 A0,0 0 0 0 115.6548,241.082 L115.6548,233.9492 L135.6548,228.5156 L115.6548,225.9492 L115.6548,225.9492 L105.6548,215.9492 L25.5352,215.9492 A0,0 0 0 0 25.5352,215.9492 " fill="#FEFFDD" style="stroke:#181818;stroke-width:0.5;"/><path d="M105.6548,215.9492 L105.6548,225.9492 L115.6548,225.9492 L105.6548,215.9492 " fill="#FEFFDD" style="stroke:#181818;stroke-width:0.5;"/><text fill="#000000" font-family="sans-serif" font-size="13" lengthAdjust="spacing" textLength="69.1196" x="31.5352" y="233.0161">in seconds</text><rect fill="#F1F1F1" height="33.9688" style="stroke:#181818;stroke-width:0.5;" width="290.8438" x="135.6548" y="211.5313"/><text fill="#000000" font-family="sans-serif" font-size="12" lengthAdjust="spacing" textLength="270.8438" x="145.6548" y="232.6699">double timeForOneWay = roundTripTime / 2;</text><path d="M10,262.3516 L10,302.6172 A0,0 0 0 0 10,302.6172 L153.0083,302.6172 A0,0 0 0 0 153.0083,302.6172 L153.0083,286.4844 L173.0083,282.4844 L153.0083,278.4844 L153.0083,272.3516 L143.0083,262.3516 L10,262.3516 A0,0 0 0 0 10,262.3516 " fill="#FEFFDD" style="stroke:#181818;stroke-width:0.5;"/><path d="M143.0083,262.3516 L143.0083,272.3516 L153.0083,272.3516 L143.0083,262.3516 " fill="#FEFFDD" style="stroke:#181818;stroke-width:0.5;"/><text fill="#000000" font-family="sans-serif" font-size="13" lengthAdjust="spacing" textLength="101.0039" x="16" y="279.4185">Speed of sound</text><text fill="#000000" font-family="sans-serif" font-size="13" lengthAdjust="spacing" textLength="122.0083" x="16" y="294.5513">in feet per second.</text><rect fill="#F1F1F1" height="33.9688" style="stroke:#181818;stroke-width:0.5;" width="216.1367" x="173.0083" y="265.5"/><text fill="#000000" font-family="sans-serif" font-size="12" lengthAdjust="spacing" textLength="196.1367" x="183.0083" y="286.6387">double speedOfSound = 1100.0;</text><rect fill="#F1F1F1" height="33.9688" style="stroke:#181818;stroke-width:0.5;" width="262.0156" x="150.0688" y="322.6172"/><text fill="#000000" font-family="sans-serif" font-size="12" lengthAdjust="spacing" textLength="242.0156" x="160.0688" y="343.7559">dist = timeForOneWay * speedOfSound;</text><polygon fill="#F1F1F1" points="165.564,376.5859,396.5894,376.5859,406.5894,400.5547,396.5894,424.5234,165.564,424.5234" style="stroke:#181818;stroke-width:0.5;"/><text fill="#000000" font-family="sans-serif" font-size="12" lengthAdjust="spacing" textLength="207.2109" x="175.564" y="397.7246">System.out.println("The object is "</text><text fill="#000000" font-family="sans-serif" font-size="12" lengthAdjust="spacing" textLength="139.9863" x="175.564" y="411.6934">+ dist + " feet away.");</text><ellipse cx="281.0767" cy="455.5234" fill="none" rx="11" ry="11" style="stroke:#222222;stroke-width:1.0;"/><ellipse cx="281.0767" cy="455.5234" fill="#222222" rx="6" ry="6" style="stroke:#222222;stroke-width:1.0;"/><line style="stroke:#181818;stroke-width:1.0;" x1="281.0767" x2="281.0767" y1="83.5938" y2="103.5938"/><polygon fill="#181818" points="277.0767,93.5938,281.0767,103.5938,285.0767,93.5938,281.0767,97.5938" style="stroke:#181818;stroke-width:1.0;"/><line style="stroke:#181818;stroke-width:1.0;" x1="281.0767" x2="281.0767" y1="137.5625" y2="157.5625"/><polygon fill="#181818" points="277.0767,147.5625,281.0767,157.5625,285.0767,147.5625,281.0767,151.5625" style="stroke:#181818;stroke-width:1.0;"/><line style="stroke:#181818;stroke-width:1.0;" x1="281.0767" x2="281.0767" y1="191.5313" y2="211.5313"/><polygon fill="#181818" points="277.0767,201.5313,281.0767,211.5313,285.0767,201.5313,281.0767,205.5313" style="stroke:#181818;stroke-width:1.0;"/><line style="stroke:#181818;stroke-width:1.0;" x1="281.0767" x2="281.0767" y1="245.5" y2="265.5"/><polygon fill="#181818" points="277.0767,255.5,281.0767,265.5,285.0767,255.5,281.0767,259.5" style="stroke:#181818;stroke-width:1.0;"/><line style="stroke:#181818;stroke-width:1.0;" x1="281.0767" x2="281.0767" y1="299.4688" y2="322.6172"/><polygon fill="#181818" points="277.0767,312.6172,281.0767,322.6172,285.0767,312.6172,281.0767,316.6172" style="stroke:#181818;stroke-width:1.0;"/><line style="stroke:#181818;stroke-width:1.0;" x1="281.0767" x2="281.0767" y1="356.5859" y2="376.5859"/><polygon fill="#181818" points="277.0767,366.5859,281.0767,376.5859,285.0767,366.5859,281.0767,370.5859" style="stroke:#181818;stroke-width:1.0;"/><line style="stroke:#181818;stroke-width:1.0;" x1="281.0767" x2="281.0767" y1="424.5234" y2="444.5234"/><polygon fill="#181818" points="277.0767,434.5234,281.0767,444.5234,285.0767,434.5234,281.0767,438.5234" style="stroke:#181818;stroke-width:1.0;"/><!--SRC=[VL31Qi904BtdAmPxqGg9iIqKZO6suAdWGQ4NBvjarAt9JjYTLDBIV-_kAcfewHmMTkQzD-zDOhWjCGt0rbFEyaDo2r_-wsfEYfVo4o4Udtk551MfuWhbwbKgVA6IDBHObdJe39z5ljzgQbHnX6IDBji3KT51NPRT_-uxcv1HUQ5y1yStYKuPMBB5d5DOdrijAg0Dh5MoiIAWH8KpQvvCBN9CazoxkNc8xyOPfajdS1nMGgh-88dyC4qYnqoXGjvPlu5XeJa89WKrcTrMICFJQQ284IOW5MmGhyO-yqhBUYKhX1dSXuyTjC7Sdj9S26nnSz8BXM-YjOIkG0JZwHIIX8NPf-b_EgP6B1OR7ydAnF5e58x-u2uTpft8UEHQdI90ZVga6ZfL6zFATDtTThPSYmUJPMiOgv0Q3cij5PUgtrlj42Xxnvn16kZPPKD_FnZQZryg3g8DUmClPQbrmqxCCDK_]--></g></svg>