<svg xmlns="http://www.w3.org/2000/svg" xmlns:xlink="http://www.w3.org/1999/xlink" contentStyleType="text/css" height="530px" preserveAspectRatio="none" style="width:511px;height:530px;background:#FFFFFF;" version="1.1" viewBox="0 0 511 530" width="511px" zoomAndPan="magnify"><title>Activity diagram of </title><defs/><g><text fill="#000000" font-family="sans-serif" font-size="14" font-weight="bold" lengthAdjust="spacing" textLength="151.0537" x="176.0928" y="32.9951">Activity diagram of</text><text fill="#5132BE" font-family="name=monospace" font-size="14" font-weight="bold" lengthAdjust="spacing" textLength="120.8594" x="160.999" y="49.292">UseCast.main()</text><text fill="#000000" font-family="sans-serif" font-size="14" font-weight="bold" lengthAdjust="spacing" textLength="60.3818" x="286.7324" y="49.292">method</text><ellipse cx="230.8135" cy="73.5938" fill="#222222" rx="10" ry="10" style="stroke:#222222;stroke-width:1.0;"/><rect fill="#F1F1F1" height="33.9688" rx="12.5" ry="12.5" style="stroke:#181818;stroke-width:0.5;" width="46.8359" x="207.3955" y="103.5938"/><text fill="#000000" font-family="sans-serif" font-size="12" lengthAdjust="spacing" textLength="26.8359" x="217.3955" y="124.7324">int i;</text><rect fill="#9BD68D" height="330.2847" style="stroke:#000000;stroke-width:1.5;" width="489.1133" x="11" y="147.5625"/><path d="M74.6074,147.5625 L74.6074,156.8594 L64.6074,166.8594 L11,166.8594 " fill="none" style="stroke:#000000;stroke-width:1.5;"/><text fill="#000000" font-family="sans-serif" font-size="14" lengthAdjust="spacing" textLength="53.6074" x="14" y="161.5576">for loop</text><rect fill="#F1F1F1" height="33.9688" style="stroke:#181818;stroke-width:0.5;" width="48.6523" x="206.4873" y="183.8594"/><text fill="#000000" font-family="sans-serif" font-size="12" lengthAdjust="spacing" textLength="28.6523" x="216.4873" y="204.998">i = 0</text><polygon fill="#F1F1F1" points="108.7559,293.5386,352.8711,293.5386,362.8711,310.5229,352.8711,327.5073,108.7559,327.5073" style="stroke:#181818;stroke-width:0.5;"/><text fill="#000000" font-family="sans-serif" font-size="12" lengthAdjust="spacing" textLength="224.1152" x="118.7559" y="314.6772">System.out.println(i + " / 3: " + i / 3);</text><polygon fill="#F1F1F1" points="39,355.9097,422.627,355.9097,432.627,372.894,422.627,389.8784,39,389.8784" style="stroke:#181818;stroke-width:0.5;"/><text fill="#000000" font-family="sans-serif" font-size="12" lengthAdjust="spacing" textLength="363.627" x="49" y="377.0483">System.out.println(i + " / 3 with fractions: " + (double) i / 3);</text><polygon fill="#F1F1F1" points="158.5283,409.8784,303.0986,409.8784,313.0986,426.8628,303.0986,443.8472,158.5283,443.8472" style="stroke:#181818;stroke-width:0.5;"/><text fill="#000000" font-family="sans-serif" font-size="12" lengthAdjust="spacing" textLength="124.5703" x="168.5283" y="431.0171">System.out.println();</text><polygon fill="#DEB887" points="212.8042,237.8281,248.8228,237.8281,260.8228,249.8281,248.8228,261.8281,212.8042,261.8281,200.8042,249.8281,212.8042,237.8281" style="stroke:#FFFF00;stroke-width:0.5;"/><text fill="#008000" font-family="sans-serif" font-size="11" lengthAdjust="spacing" textLength="22.5747" x="234.8135" y="272.0386">true</text><text fill="#000000" font-family="sans-serif" font-size="14" font-weight="bold" lengthAdjust="spacing" textLength="36.0186" x="212.8042" y="254.6748">i &lt; 5</text><text fill="#FF0000" font-family="sans-serif" font-size="11" lengthAdjust="spacing" textLength="26.168" x="174.6362" y="247.2339">false</text><rect fill="#F1F1F1" height="33.9688" style="stroke:#181818;stroke-width:0.5;" width="47.4863" x="442.627" y="337.5073"/><text fill="#000000" font-family="sans-serif" font-size="12" lengthAdjust="spacing" textLength="27.4863" x="452.627" y="358.646">i++;</text><ellipse cx="230.8135" cy="508.8472" fill="none" rx="11" ry="11" style="stroke:#222222;stroke-width:1.0;"/><ellipse cx="230.8135" cy="508.8472" fill="#222222" rx="6" ry="6" style="stroke:#222222;stroke-width:1.0;"/><line style="stroke:#181818;stroke-width:1.0;" x1="230.8135" x2="230.8135" y1="83.5938" y2="103.5938"/><polygon fill="#181818" points="226.8135,93.5938,230.8135,103.5938,234.8135,93.5938,230.8135,97.5938" style="stroke:#181818;stroke-width:1.0;"/><line style="stroke:#181818;stroke-width:1.0;" x1="230.8135" x2="230.8135" y1="327.5073" y2="355.9097"/><polygon fill="#181818" points="226.8135,345.9097,230.8135,355.9097,234.8135,345.9097,230.8135,349.9097" style="stroke:#181818;stroke-width:1.0;"/><line style="stroke:#181818;stroke-width:1.0;" x1="230.8135" x2="230.8135" y1="389.8784" y2="409.8784"/><polygon fill="#181818" points="226.8135,399.8784,230.8135,409.8784,234.8135,399.8784,230.8135,403.8784" style="stroke:#181818;stroke-width:1.0;"/><line style="stroke:#181818;stroke-width:1.0;" x1="230.8135" x2="230.8135" y1="261.8281" y2="293.5386"/><polygon fill="#181818" points="226.8135,283.5386,230.8135,293.5386,234.8135,283.5386,230.8135,287.5386" style="stroke:#181818;stroke-width:1.0;"/><line style="stroke:#181818;stroke-width:1.0;" x1="230.8135" x2="230.8135" y1="443.8472" y2="453.8472"/><line style="stroke:#181818;stroke-width:1.0;" x1="230.8135" x2="466.3701" y1="453.8472" y2="453.8472"/><line style="stroke:#181818;stroke-width:1.0;" x1="466.3701" x2="466.3701" y1="371.4761" y2="453.8472"/><polygon fill="#181818" points="462.3701,381.4761,466.3701,371.4761,470.3701,381.4761,466.3701,377.4761" style="stroke:#181818;stroke-width:1.0;"/><line style="stroke:#181818;stroke-width:1.0;" x1="466.3701" x2="466.3701" y1="249.8281" y2="337.5073"/><line style="stroke:#181818;stroke-width:1.0;" x1="466.3701" x2="260.8228" y1="249.8281" y2="249.8281"/><polygon fill="#181818" points="270.8228,245.8281,260.8228,249.8281,270.8228,253.8281,266.8228,249.8281" style="stroke:#181818;stroke-width:1.0;"/><line style="stroke:#181818;stroke-width:1.0;" x1="200.8042" x2="27" y1="249.8281" y2="249.8281"/><polygon fill="#181818" points="23,350.4917,27,360.4917,31,350.4917,27,354.4917" style="stroke:#181818;stroke-width:1.0;"/><line style="stroke:#181818;stroke-width:1.0;" x1="27" x2="27" y1="249.8281" y2="465.8472"/><line style="stroke:#181818;stroke-width:1.0;" x1="27" x2="230.8135" y1="465.8472" y2="465.8472"/><line style="stroke:#181818;stroke-width:1.0;" x1="230.8135" x2="230.8135" y1="465.8472" y2="497.8472"/><polygon fill="#181818" points="226.8135,487.8472,230.8135,497.8472,234.8135,487.8472,230.8135,491.8472" style="stroke:#181818;stroke-width:1.0;"/><line style="stroke:#181818;stroke-width:1.0;" x1="230.8135" x2="230.8135" y1="217.8281" y2="237.8281"/><polygon fill="#181818" points="226.8135,227.8281,230.8135,237.8281,234.8135,227.8281,230.8135,231.8281" style="stroke:#181818;stroke-width:1.0;"/><line style="stroke:#181818;stroke-width:1.0;" x1="230.8135" x2="230.8135" y1="137.5625" y2="183.8594"/><polygon fill="#181818" points="226.8135,173.8594,230.8135,183.8594,234.8135,173.8594,230.8135,177.8594" style="stroke:#181818;stroke-width:1.0;"/><!--SRC=[bL5DJyCm3BttLrXmMJLfurlGXag0n8aRuiObRTpD8eshnAKgYFzEkaxZImZXGn8dpy_FBoh8OB588CPL9VHCCi3h9XtZbftSqml2uT7kpf1ks9bFg37koE4DM_OmeBNSVtcyrjNJodFdp0GfEs-7djbyGNqqE_bvFyg4akr7oLiohMgvdK588cOtHTIvyhe1hk7HgJgIWDCDNaRn75fTOQ6gZPhzqyFZenABXu0tEiYYqUHcgLfkNWkr74iBQ53MKN0IH7j9aemY7-LvahGn9o5si7zHchDp0tKajSpjrgACu18ESb1AT7Wg9hFxDLcS4IWuJO42p2OnsSeZka9yX-bkqkn-28BDWZjPj3usjYvMpc4Fbd2SnMqED1xJV6mIKMqdspP_baDFieRQwseS8KniCyDTQJ7zD-qlq3B-Vw-zoMW-pxyPWSvilDWvuD4KjROX6l0ssitjEm00]--></g></svg>