<svg xmlns="http://www.w3.org/2000/svg" xmlns:xlink="http://www.w3.org/1999/xlink" contentStyleType="text/css" height="602px" preserveAspectRatio="none" style="width:436px;height:602px;background:#FFFFFF;" version="1.1" viewBox="0 0 436 602" width="436px" zoomAndPan="magnify"><title>Activity diagram of </title><defs/><g><text fill="#000000" font-family="sans-serif" font-size="14" font-weight="bold" lengthAdjust="spacing" textLength="151.0537" x="138.8538" y="32.9951">Activity diagram of</text><text fill="#5132BE" font-family="name=monospace" font-size="14" font-weight="bold" lengthAdjust="spacing" textLength="156.0918" x="106.1438" y="49.292">VarInitDemo.main()</text><text fill="#000000" font-family="sans-serif" font-size="14" font-weight="bold" lengthAdjust="spacing" textLength="60.3818" x="267.1096" y="49.292">method</text><ellipse cx="227.7378" cy="73.5938" fill="#222222" rx="10" ry="10" style="stroke:#222222;stroke-width:1.0;"/><rect fill="#F1F1F1" height="33.9688" rx="12.5" ry="12.5" style="stroke:#181818;stroke-width:0.5;" width="50.6035" x="202.436" y="103.5938"/><text fill="#000000" font-family="sans-serif" font-size="12" lengthAdjust="spacing" textLength="30.6035" x="212.436" y="124.7324">int x;</text><rect fill="#9BD68D" height="402.2808" style="stroke:#000000;stroke-width:1.5;" width="414.6353" x="11" y="147.5625"/><path d="M74.6074,147.5625 L74.6074,156.8594 L64.6074,166.8594 L11,166.8594 " fill="none" style="stroke:#000000;stroke-width:1.5;"/><text fill="#000000" font-family="sans-serif" font-size="14" lengthAdjust="spacing" textLength="53.6074" x="14" y="161.5576">for loop</text><rect fill="#F1F1F1" height="33.9688" style="stroke:#181818;stroke-width:0.5;" width="56.4629" x="199.5063" y="183.8594"/><text fill="#000000" font-family="sans-serif" font-size="12" lengthAdjust="spacing" textLength="36.4629" x="209.5063" y="204.998">x = 0;</text><path d="M39,283.5386 L39,338.937 A0,0 0 0 0 39,338.937 L167.6118,338.937 A0,0 0 0 0 167.6118,338.937 L167.6118,315.2378 L187.6118,311.2378 L167.6118,307.2378 L167.6118,293.5386 L157.6118,283.5386 L39,283.5386 A0,0 0 0 0 39,283.5386 " fill="#FEFFDD" style="stroke:#181818;stroke-width:0.5;"/><path d="M157.6118,283.5386 L157.6118,293.5386 L167.6118,293.5386 L157.6118,283.5386 " fill="#FEFFDD" style="stroke:#181818;stroke-width:0.5;"/><text fill="#000000" font-family="sans-serif" font-size="13" lengthAdjust="spacing" textLength="88.7783" x="45" y="300.6055">y is initialized</text><text fill="#000000" font-family="sans-serif" font-size="13" lengthAdjust="spacing" textLength="103.4795" x="45" y="315.7383">each time block</text><text fill="#000000" font-family="sans-serif" font-size="13" lengthAdjust="spacing" textLength="69.5767" x="45" y="330.8711">is entered.</text><rect fill="#F1F1F1" height="33.9688" style="stroke:#181818;stroke-width:0.5;" width="80.252" x="187.6118" y="294.2534"/><text fill="#000000" font-family="sans-serif" font-size="12" lengthAdjust="spacing" textLength="60.252" x="197.6118" y="315.3921">int y = -1;</text><polygon fill="#F1F1F1" points="125.3823,358.937,330.0933,358.937,340.0933,375.9214,330.0933,392.9058,125.3823,392.9058" style="stroke:#181818;stroke-width:0.5;"/><text fill="#000000" font-family="sans-serif" font-size="12" lengthAdjust="spacing" textLength="184.7109" x="135.3823" y="380.0757">System.out.println("y is " + y);</text><rect fill="#F1F1F1" height="33.9688" style="stroke:#181818;stroke-width:0.5;" width="71.7324" x="191.8716" y="427.9058"/><text fill="#000000" font-family="sans-serif" font-size="12" lengthAdjust="spacing" textLength="51.7324" x="201.8716" y="449.0444">y = 100;</text><polygon fill="#F1F1F1" points="111.0942,481.8745,344.3813,481.8745,354.3813,498.8589,344.3813,515.8433,111.0942,515.8433" style="stroke:#181818;stroke-width:0.5;"/><text fill="#000000" font-family="sans-serif" font-size="12" lengthAdjust="spacing" textLength="213.2871" x="121.0942" y="503.0132">System.out.println("y is now " + y);</text><polygon fill="#DEB887" points="207.6128,237.8281,247.8628,237.8281,259.8628,249.8281,247.8628,261.8281,207.6128,261.8281,195.6128,249.8281,207.6128,237.8281" style="stroke:#FFFF00;stroke-width:0.5;"/><text fill="#008000" font-family="sans-serif" font-size="11" lengthAdjust="spacing" textLength="22.5747" x="231.7378" y="272.0386">true</text><text fill="#000000" font-family="sans-serif" font-size="14" font-weight="bold" lengthAdjust="spacing" textLength="40.25" x="207.6128" y="254.6748">x &lt; 3</text><text fill="#FF0000" font-family="sans-serif" font-size="11" lengthAdjust="spacing" textLength="26.168" x="169.4448" y="247.2339">false</text><rect fill="#F1F1F1" height="33.9688" style="stroke:#181818;stroke-width:0.5;" width="51.2539" x="364.3813" y="364.3042"/><text fill="#000000" font-family="sans-serif" font-size="12" lengthAdjust="spacing" textLength="31.2539" x="374.3813" y="385.4429">x++;</text><ellipse cx="227.7378" cy="580.8433" fill="none" rx="11" ry="11" style="stroke:#222222;stroke-width:1.0;"/><ellipse cx="227.7378" cy="580.8433" fill="#222222" rx="6" ry="6" style="stroke:#222222;stroke-width:1.0;"/><line style="stroke:#181818;stroke-width:1.0;" x1="227.7378" x2="227.7378" y1="83.5938" y2="103.5938"/><polygon fill="#181818" points="223.7378,93.5938,227.7378,103.5938,231.7378,93.5938,227.7378,97.5938" style="stroke:#181818;stroke-width:1.0;"/><line style="stroke:#181818;stroke-width:1.0;" x1="227.7378" x2="227.7378" y1="328.2222" y2="358.937"/><polygon fill="#181818" points="223.7378,348.937,227.7378,358.937,231.7378,348.937,227.7378,352.937" style="stroke:#181818;stroke-width:1.0;"/><line style="stroke:#181818;stroke-width:1.0;" x1="227.7378" x2="227.7378" y1="392.9058" y2="427.9058"/><polygon fill="#181818" points="223.7378,417.9058,227.7378,427.9058,231.7378,417.9058,227.7378,421.9058" style="stroke:#181818;stroke-width:1.0;"/><line style="stroke:#181818;stroke-width:1.0;" x1="227.7378" x2="227.7378" y1="461.8745" y2="481.8745"/><polygon fill="#181818" points="223.7378,471.8745,227.7378,481.8745,231.7378,471.8745,227.7378,475.8745" style="stroke:#181818;stroke-width:1.0;"/><line style="stroke:#181818;stroke-width:1.0;" x1="227.7378" x2="227.7378" y1="261.8281" y2="294.2534"/><polygon fill="#181818" points="223.7378,284.2534,227.7378,294.2534,231.7378,284.2534,227.7378,288.2534" style="stroke:#181818;stroke-width:1.0;"/><line style="stroke:#181818;stroke-width:1.0;" x1="227.7378" x2="227.7378" y1="515.8433" y2="525.8433"/><line style="stroke:#181818;stroke-width:1.0;" x1="227.7378" x2="390.0083" y1="525.8433" y2="525.8433"/><line style="stroke:#181818;stroke-width:1.0;" x1="390.0083" x2="390.0083" y1="398.2729" y2="525.8433"/><polygon fill="#181818" points="386.0083,408.2729,390.0083,398.2729,394.0083,408.2729,390.0083,404.2729" style="stroke:#181818;stroke-width:1.0;"/><line style="stroke:#181818;stroke-width:1.0;" x1="390.0083" x2="390.0083" y1="249.8281" y2="364.3042"/><line style="stroke:#181818;stroke-width:1.0;" x1="390.0083" x2="259.8628" y1="249.8281" y2="249.8281"/><polygon fill="#181818" points="269.8628,245.8281,259.8628,249.8281,269.8628,253.8281,265.8628,249.8281" style="stroke:#181818;stroke-width:1.0;"/><line style="stroke:#181818;stroke-width:1.0;" x1="195.6128" x2="27" y1="249.8281" y2="249.8281"/><polygon fill="#181818" points="23,377.2886,27,387.2886,31,377.2886,27,381.2886" style="stroke:#181818;stroke-width:1.0;"/><line style="stroke:#181818;stroke-width:1.0;" x1="27" x2="27" y1="249.8281" y2="537.8433"/><line style="stroke:#181818;stroke-width:1.0;" x1="27" x2="227.7378" y1="537.8433" y2="537.8433"/><line style="stroke:#181818;stroke-width:1.0;" x1="227.7378" x2="227.7378" y1="537.8433" y2="569.8433"/><polygon fill="#181818" points="223.7378,559.8433,227.7378,569.8433,231.7378,559.8433,227.7378,563.8433" style="stroke:#181818;stroke-width:1.0;"/><line style="stroke:#181818;stroke-width:1.0;" x1="227.7378" x2="227.7378" y1="217.8281" y2="237.8281"/><polygon fill="#181818" points="223.7378,227.8281,227.7378,237.8281,231.7378,227.8281,227.7378,231.8281" style="stroke:#181818;stroke-width:1.0;"/><line style="stroke:#181818;stroke-width:1.0;" x1="227.7378" x2="227.7378" y1="137.5625" y2="183.8594"/><polygon fill="#181818" points="223.7378,173.8594,227.7378,183.8594,231.7378,173.8594,227.7378,177.8594" style="stroke:#181818;stroke-width:1.0;"/><!--SRC=[VLBBJiCm4BpdArRqqggY3rw2r8t4GqX8t90uSN7YRMlLyKREXZGW_frDYbhUUx3azNXsPcnLSkCmYK3gCcFxRBc1rsxRrYrvVh0l2DEZNSzOdPCtdr1jtLkFr-GeG8FEKVtby4fdwsMWofij9As2QseYymMr7tRoiz_AX9JS_ifRj5tL-CC3MnRCpeNeN0QT0otWoQk5a83NESv5F9M5pZ1HMQUcTpezFaenUTJXpbk-mPn6kRQ-Fr3Z3f6eSNizWHnv9QAZadNWA8gjS6vcioWgP6_PaeVUHMhEpWqiXDWH5HynnHkOmsGs0wLOb-jactYziWxx6r1mF01RGd-hA5u6H9zmg72miziDQuJbSFgTfYrFZ10BG6YikB3QIPH6hAFELi0sb_WSPMlf20GzOq0psjC_D2LZFgAAHqMGMSxt3pgs0nX2C-Xcoc5HyQUfSIjeEfdyfkXlHa_rlwofV9TQ1nDlXiFlpEXDbzekAt6HBBGh9QgtzcMeU0S0]--></g></svg>